<?xml version="1.0" encoding="utf-8"?>
<!-- Generator: Adobe Illustrator 22.0.0, SVG Export Plug-In . SVG Version: 6.00 Build 0)  -->
<svg version="1.1" id="Layer_1" xmlns="http://www.w3.org/2000/svg" xmlns:xlink="http://www.w3.org/1999/xlink" x="0px" y="0px"
	 viewBox="0 0 3000 3000" style="enable-background:new 0 0 3000 3000;" xml:space="preserve">
<style type="text/css">
	.st0{fill:#111111;}
	.st1{fill:#DDAA66;}
</style>
<g>
	<rect x="0.5" y="0.4" class="st0" width="3000" height="3000.1"/>
	<path class="st1" d="M101.9,0.4v42.1l-59.4,59.4h-42v28.7h13.3l-4.1,4.1c-2.6,2.6-5.9,4-9.2,4V167c10.7,0,21.4-4,29.5-12.1
		l24.3-24.3h34.5c22.9,0,41.8-18.9,41.8-41.8V54.3L155,29.9c8.1-8.1,12.1-18.8,12.1-29.5h-28.4c0,3.3-1.3,6.6-4,9.3l-4.2,4.2V0.4
		L101.9,0.4z M338.1,0.4l-3,11.9c-5.8,22.9-21.8,41.5-42.8,50.9c-23.2,2.6-46.5-5.5-63.2-22.6l-8.6-8.8l-64.9,37.5l3.3,11.8
		c6.4,22.8,1.9,46.8-11.6,65.5c-18.8,13.8-43.1,18.5-66.1,12.1l-11.8-3.3L32,220.3l8.8,8.6c16.9,16.5,25.1,39.6,22.7,62.6
		c-9.4,21.3-28.1,37.5-51.2,43.4l-11.8,3v74.9l11.9,3c22.9,5.8,41.5,21.8,51,42.8c2.6,23.2-5.5,46.6-22.6,63.3l-8.8,8.5l37.5,64.9
		l11.8-3.3c22.8-6.4,46.8-1.9,65.5,11.6c13.8,18.8,18.5,43.1,12.1,66.1l-3.3,11.8l64.9,37.5l8.6-8.8c16.5-16.9,39.6-25,62.5-22.7
		c21.3,9.4,37.6,28.1,43.5,51.2l3,11.8h0l-3,11.9c-5.8,22.9-21.8,41.5-42.8,50.9c-23.2,2.6-46.5-5.5-63.2-22.6l-8.6-8.8l-64.9,37.5
		l3.3,11.8c6.4,22.8,1.9,46.8-11.6,65.5c-18.8,13.8-43.1,18.5-66.1,12.1l-11.8-3.3L32,970.4l8.8,8.6c16.9,16.5,25.1,39.6,22.7,62.6
		c-9.4,21.3-28.1,37.6-51.2,43.5l-11.8,3v74.9l11.9,3c22.9,5.8,41.5,21.7,51,42.8c2.6,23.2-5.5,46.6-22.6,63.3l-8.8,8.6l37.5,64.9
		l11.8-3.3c22.8-6.4,46.8-1.9,65.5,11.6c13.8,18.8,18.5,43.1,12.1,66.1l-3.3,11.8l64.9,37.5l8.6-8.8c16.5-16.9,39.6-25,62.5-22.7
		c21.3,9.4,37.6,28.1,43.5,51.2l3,11.8h0l-3,11.9c-5.8,22.9-21.8,41.5-42.8,50.9c-23.2,2.6-46.5-5.5-63.2-22.6l-8.6-8.8l-64.9,37.5
		l3.3,11.8c6.4,22.8,1.9,46.8-11.6,65.5c-18.8,13.8-43.1,18.5-66.1,12.1l-11.8-3.3L32,1720.3l8.8,8.6c16.9,16.5,25.1,39.6,22.7,62.6
		c-9.4,21.3-28.1,37.5-51.2,43.4l-11.8,3v74.9l11.9,3c22.9,5.8,41.5,21.8,51,42.8c2.6,23.2-5.5,46.6-22.6,63.3l-8.8,8.5l37.5,64.9
		l11.8-3.3c22.8-6.4,46.8-1.9,65.5,11.6c13.8,18.8,18.5,43.1,12.1,66.1l-3.3,11.8l64.9,37.5l8.6-8.8c16.5-16.9,39.6-25,62.5-22.7
		c21.3,9.4,37.5,28.1,43.5,51.2l3,11.8h0l-3,11.9c-5.8,22.9-21.8,41.5-42.8,50.9c-23.2,2.6-46.5-5.5-63.2-22.6l-8.6-8.8l-64.9,37.5
		l3.3,11.8c6.4,22.8,1.9,46.8-11.6,65.5c-18.8,13.8-43.1,18.5-66.1,12.1l-11.8-3.2L32,2470.4l8.8,8.6c16.9,16.5,25.1,39.6,22.7,62.6
		c-9.4,21.3-28.1,37.6-51.2,43.5l-11.8,3v74.9l11.9,3c22.9,5.8,41.5,21.7,51,42.8c2.6,23.2-5.5,46.6-22.6,63.3l-8.8,8.6l37.5,64.9
		l11.8-3.3c22.8-6.4,46.8-1.9,65.5,11.6c13.8,18.8,18.5,43.1,12.1,66.1l-3.3,11.8l64.9,37.5l8.6-8.8c16.5-16.9,39.6-25,62.5-22.7
		c21.3,9.4,37.6,28.1,43.5,51.2l3,11.8h75l3-11.9c5.9-23,21.8-41.6,42.9-51.1c23.1-2.5,46.4,5.6,63,22.6l8.6,8.8l64.9-37.5
		l-3.3-11.8c-6.4-22.8-1.8-46.9,11.7-65.7c18.8-13.7,43-18.3,65.9-11.9l11.8,3.2l37.4-64.9l-8.8-8.6c-16.9-16.5-25.1-39.7-22.7-62.7
		c9.4-21.3,28-37.4,51.1-43.3l11.9-3v-0.1l11.9,3c22.9,5.8,41.5,21.7,51,42.8c2.6,23.2-5.5,46.6-22.6,63.3l-8.8,8.6l37.5,64.9
		l11.8-3.3c22.8-6.4,46.8-1.9,65.5,11.6c13.8,18.8,18.5,43.1,12.1,66.1l-3.3,11.8l64.9,37.5l8.6-8.8c16.5-16.9,39.6-25,62.5-22.7
		c21.3,9.4,37.6,28.1,43.5,51.2l3,11.8h75l3-11.9c5.9-23,21.8-41.6,42.9-51.1c23.1-2.5,46.4,5.6,63,22.6l8.6,8.8l64.9-37.5
		l-3.3-11.8c-6.4-22.8-1.8-46.9,11.7-65.7c18.8-13.7,43-18.3,65.9-11.9l11.8,3.3l37.4-64.9l-8.8-8.6c-16.9-16.5-25.1-39.7-22.7-62.6
		c9.4-21.3,28-37.4,51.1-43.3l11.9-3v-0.1l11.9,3c22.9,5.8,41.5,21.7,51,42.8c2.6,23.2-5.5,46.6-22.6,63.3l-8.8,8.6l37.5,64.9
		l11.8-3.3c22.8-6.4,46.8-1.9,65.5,11.6c13.8,18.8,18.5,43.1,12.1,66.1l-3.3,11.8l64.9,37.5l8.6-8.8c16.5-16.9,39.6-25,62.5-22.7
		c21.3,9.4,37.5,28.1,43.5,51.2l3,11.8h75l3-11.9c5.9-23,21.8-41.6,42.9-51.1c23.1-2.5,46.4,5.6,63,22.6l8.6,8.8l64.9-37.5
		l-3.3-11.8c-6.4-22.8-1.8-46.9,11.7-65.7c18.8-13.7,43-18.3,65.9-11.9l11.8,3.2l37.4-64.9l-8.8-8.6c-16.9-16.5-25.1-39.7-22.7-62.6
		c9.4-21.3,28-37.4,51.1-43.3l11.9-3v-0.1l11.9,3c22.9,5.8,41.5,21.7,51,42.8c2.6,23.2-5.5,46.6-22.6,63.3l-8.8,8.6l37.5,64.9
		l11.8-3.3c22.8-6.4,46.8-1.9,65.5,11.6c13.8,18.8,18.5,43.1,12.1,66.1l-3.3,11.8l64.9,37.5l8.6-8.8c16.5-16.9,39.6-25,62.5-22.7
		c21.3,9.4,37.6,28.1,43.5,51.2l3,11.8h75l3-11.9c5.9-23,21.8-41.6,42.9-51.1c23.1-2.5,46.4,5.6,63,22.6l8.5,8.8l64.9-37.5
		l-3.3-11.8c-6.4-22.8-1.8-46.9,11.7-65.7c18.8-13.7,43-18.3,65.9-11.9l11.8,3.3l37.4-64.9l-8.8-8.6c-16.9-16.5-25.1-39.7-22.7-62.6
		c9.4-21.3,28-37.4,51.1-43.3l11.9-3v-75l-11.8-3c-23-5.8-41.6-21.8-51.1-42.9c-2.5-23.1,5.6-46.4,22.6-63.1l8.8-8.6l-37.5-64.9
		l-11.8,3.3c-22.8,6.4-46.9,1.9-65.6-11.7c-13.7-18.8-18.4-43-12-65.9l3.3-11.8l-64.9-37.5l-8.6,8.8c-16.5,17-39.7,25.1-62.7,22.7
		c-21.3-9.4-37.4-28.1-43.3-51.1l-3-11.9h0l3-11.9c5.9-23,21.8-41.6,42.9-51.1c23.1-2.5,46.4,5.6,63,22.6l8.6,8.8l64.9-37.4
		l-3.3-11.8c-6.4-22.8-1.8-46.9,11.7-65.7c18.8-13.7,43-18.3,65.9-11.9l11.8,3.2l37.4-64.9l-8.8-8.6c-16.9-16.5-25.1-39.7-22.7-62.6
		c9.4-21.3,28-37.4,51.1-43.3l11.9-3v-74.9l-11.8-3c-23-5.8-41.6-21.8-51.1-42.9c-2.5-23.1,5.6-46.4,22.6-63.1l8.8-8.6l-37.5-64.9
		l-11.8,3.3c-22.8,6.4-46.9,1.9-65.6-11.6c-13.7-18.8-18.4-43-12-66l3.3-11.8l-64.9-37.5l-8.6,8.8c-16.5,17-39.7,25.1-62.7,22.7
		c-21.3-9.4-37.4-28-43.3-51.1l-3-11.9h0l3-11.9c5.9-23,21.8-41.6,42.9-51.1c23.1-2.5,46.4,5.6,63,22.6l8.6,8.8l64.9-37.5l-3.3-11.8
		c-6.4-22.8-1.8-46.9,11.7-65.7c18.8-13.7,43-18.3,65.9-11.9l11.8,3.3l37.4-64.9l-8.8-8.6c-16.9-16.5-25.1-39.7-22.7-62.7
		c9.4-21.3,28-37.4,51.1-43.3l11.9-3v-75l-11.8-3c-23-5.8-41.6-21.8-51.1-42.9c-2.5-23.1,5.6-46.4,22.6-63.1l8.8-8.6l-37.5-64.9
		l-11.8,3.3c-22.8,6.4-46.9,1.9-65.6-11.7c-13.7-18.8-18.4-43-12-65.9l3.3-11.8l-64.9-37.5l-8.6,8.8c-16.6,17-39.7,25.1-62.7,22.7
		c-21.3-9.4-37.4-28.1-43.3-51.1l-3-11.9h0l3-11.9c5.9-23,21.8-41.6,42.9-51.1c23.1-2.5,46.4,5.6,63,22.6l8.6,8.8l64.9-37.4
		l-3.3-11.8c-6.4-22.8-1.8-46.9,11.7-65.7c18.8-13.7,43-18.3,65.9-11.9l11.8,3.3l37.4-64.9l-8.8-8.6c-16.9-16.5-25.1-39.7-22.7-62.7
		c9.4-21.3,28-37.4,51.1-43.3l11.9-3V338l-11.8-3c-23-5.8-41.6-21.8-51.1-42.9c-2.5-23.1,5.6-46.4,22.6-63.1l8.8-8.6l-37.5-64.9
		l-11.8,3.3c-22.8,6.4-46.9,1.9-65.6-11.7c-13.7-18.8-18.4-43-12-65.9l3.3-11.8L2780.6,32l-8.6,8.8c-16.5,17-39.7,25.1-62.7,22.7
		c-21.3-9.4-37.4-28.1-43.3-51.1l-3-11.9h-74.9l-3,11.9c-5.8,22.9-21.8,41.5-42.8,50.9c-23.2,2.6-46.5-5.5-63.2-22.6l-8.6-8.8
		l-64.9,37.5l3.3,11.8c6.4,22.8,1.9,46.8-11.6,65.5c-18.8,13.8-43.1,18.5-66.1,12.1l-11.8-3.3l-37.5,64.9l8.8,8.6
		c16.9,16.5,25.1,39.6,22.7,62.6c-9.4,21.3-28,37.5-51.1,43.4l-11.9,3v0l-11.8-3c-23-5.8-41.6-21.8-51.1-42.9
		c-2.5-23.1,5.6-46.4,22.6-63.1l8.8-8.6l-37.5-64.9l-11.8,3.3c-22.8,6.4-46.9,1.9-65.7-11.7c-13.7-18.8-18.4-43-11.9-65.9l3.3-11.8
		L2030.6,32l-8.6,8.8c-16.5,17-39.7,25.1-62.6,22.7c-21.3-9.4-37.4-28.1-43.3-51.1l-3-11.9h-75l-3,11.9
		c-5.8,22.9-21.8,41.5-42.8,50.9c-23.2,2.6-46.5-5.5-63.2-22.6l-8.6-8.8l-64.9,37.5l3.3,11.8c6.4,22.8,1.9,46.8-11.6,65.5
		c-18.8,13.8-43.1,18.5-66.1,12.1l-11.8-3.3l-37.5,64.9l8.8,8.6c16.9,16.5,25.1,39.6,22.7,62.6c-9.4,21.3-28.1,37.5-51.2,43.4
		l-11.8,3v0l-11.8-3c-23-5.8-41.6-21.8-51.1-42.9c-2.5-23.1,5.6-46.4,22.6-63.1l8.8-8.6l-37.5-64.9l-11.8,3.3
		c-22.8,6.4-46.9,1.9-65.6-11.7c-13.7-18.8-18.4-43-12-65.9l3.3-11.8L1280.6,32l-8.6,8.8c-16.5,17-39.7,25.1-62.7,22.7
		c-21.3-9.4-37.4-28.1-43.3-51.1l-3-11.9h-74.9l-3,11.9c-5.8,22.9-21.8,41.5-42.8,50.9c-23.2,2.6-46.5-5.5-63.2-22.6l-8.6-8.8
		l-64.9,37.5l3.3,11.8c6.4,22.8,1.9,46.8-11.6,65.5c-18.8,13.8-43.1,18.5-66.1,12.1l-11.8-3.3L782,220.4l8.8,8.6
		c16.9,16.5,25.1,39.6,22.7,62.6c-9.4,21.3-28,37.5-51.1,43.4l-11.9,3v0l-11.8-3c-23-5.8-41.6-21.8-51.1-42.9
		c-2.5-23.1,5.6-46.4,22.6-63.1l8.8-8.6l-37.5-64.9l-11.8,3.3c-22.8,6.4-46.9,1.9-65.7-11.7c-13.7-18.8-18.4-43-11.9-65.9l3.3-11.8
		L530.6,32l-8.6,8.8c-16.5,17-39.7,25.1-62.6,22.7c-21.3-9.4-37.4-28.1-43.3-51.1l-3-11.9L338.1,0.4z M583.8,0.4
		c0,10.7,4,21.4,12.1,29.5l24.4,24.4v34.5c0,22.9,18.9,41.8,41.8,41.8h34.5l24.3,24.3c8.1,8.1,18.8,12.1,29.5,12.1
		c10.7,0,21.5-4,29.6-12.1l24.3-24.3h34.5c22.9,0,41.8-18.9,41.8-41.8V54.3L905,29.9c8.1-8.1,12.1-18.8,12.1-29.5h-28.4
		c0,3.3-1.3,6.6-4,9.3l-4.2,4.2V0.4H852v42.1l-59.5,59.4h-42h-42l-59.4-59.4V0.4h-28.7v13.4l-4.1-4.2c-2.6-2.6-4-5.9-4-9.3H583.8z
		 M1333.8,0.4c0,10.7,4,21.4,12.1,29.5l24.4,24.4v34.5c0,22.9,18.9,41.8,41.8,41.8h34.5l24.3,24.3c8.1,8.1,18.8,12.1,29.5,12.1
		c10.7,0,21.4-4,29.5-12.1l24.3-24.3h34.5c22.9,0,41.8-18.9,41.8-41.8V54.3l24.4-24.4c8.1-8.1,12.1-18.8,12.1-29.5h-28.4
		c0,3.3-1.3,6.6-4,9.3l-4.2,4.2V0.4h-28.7v42.1l-59.4,59.4h-42h-42l-59.4-59.4V0.4h-28.7v13.4l-4.1-4.2c-2.6-2.6-4-5.9-4-9.3H1333.8
		z M2083.8,0.4c0,10.7,4,21.4,12.1,29.5l24.4,24.4v34.5c0,22.9,18.9,41.8,41.8,41.8h34.5l24.3,24.3c8.1,8.1,18.8,12.1,29.5,12.1
		c10.7,0,21.5-4,29.6-12.1l24.3-24.3h34.5c22.9,0,41.8-18.9,41.8-41.8V54.3l24.4-24.4c8.1-8.1,12.1-18.8,12.1-29.5h-28.4
		c0,3.3-1.3,6.6-4,9.3l-4.2,4.2V0.4H2352v42.1l-59.5,59.4h-42h-42l-59.4-59.4V0.4h-28.7v13.4l-4.1-4.2c-2.6-2.6-4-5.9-4-9.3H2083.8z
		 M2833.8,0.4c0,10.7,4,21.4,12.1,29.5l24.4,24.4v34.5c0,22.9,18.9,41.8,41.8,41.8h34.5l24.3,24.3c8.1,8.1,18.8,12.1,29.5,12.1
		v-28.4c-3.3,0-6.6-1.3-9.2-4l-4.1-4.1h13.3v-28.7h-42l-59.4-59.4V0.4h-28.7v13.4l-4.1-4.2c-2.6-2.6-4-5.9-4-9.3L2833.8,0.4z
		 M358.7,32h33.7c6.6,16.4,16.7,30.3,29.6,41.3l-46.5,80.5l-46.5-80.5C342,62.4,352.1,48.4,358.7,32z M1108.8,32h33.6
		c6.6,16.4,16.7,30.3,29.6,41.3l-46.5,80.5l-46.4-80.5C1092,62.4,1102.2,48.4,1108.8,32z M1858.7,32h33.7
		c6.6,16.4,16.7,30.3,29.6,41.3l-46.5,80.5l-46.5-80.5C1842,62.4,1852.1,48.4,1858.7,32z M2608.8,32h33.6
		c6.6,16.4,16.7,30.3,29.6,41.3l-46.5,80.5l-46.4-80.5C2592,62.4,2602.2,48.4,2608.8,32z M218.4,69.6c13.9,10.9,29.7,17.9,46.3,20.9
		v92.9L184.2,137c5.7-15.9,7.5-33.1,5-50.6L218.4,69.6z M968.4,69.6c13.9,10.9,29.7,17.9,46.3,20.9v92.9L934.2,137
		c5.7-15.9,7.5-33.1,5-50.6L968.4,69.6z M1718.4,69.6c13.9,10.9,29.7,17.9,46.3,20.9v92.9l-80.5-46.5c5.7-15.9,7.5-33.1,5-50.6
		L1718.4,69.6z M2468.4,69.6c13.9,10.9,29.7,17.9,46.3,20.9v92.9l-80.5-46.5c5.7-15.9,7.5-33.1,5-50.6L2468.4,69.6z M532.7,69.6
		l29.1,16.8c-2.5,17.5-0.7,34.6,5,50.6l-80.5,46.5V90.6C503,87.5,518.8,80.6,532.7,69.6z M1282.7,69.6l29.1,16.8
		c-2.5,17.5-0.7,34.6,5,50.6l-80.5,46.5V90.6C1253,87.5,1268.8,80.6,1282.7,69.6z M2032.7,69.6l29.1,16.8c-2.5,17.5-0.7,34.6,5,50.6
		l-80.5,46.5V90.6C2003,87.5,2018.8,80.6,2032.7,69.6z M2782.7,69.6l29.1,16.8c-2.5,17.5-0.7,34.6,5,50.6l-80.5,46.5V90.6
		C2753,87.5,2768.8,80.6,2782.7,69.6z M101.9,83v5.8c0,7.5-5.6,13.1-13.1,13.1H83L101.9,83z M649.1,83l18.9,18.9h-5.8
		C654.6,101.9,649.1,96.3,649.1,83z M852,83v5.8c0,7.5-5.6,13.1-13.1,13.1H833L852,83z M1399.1,83l18.9,18.9h-5.8
		C1404.7,101.9,1399.1,96.3,1399.1,83z M1601.9,83v5.8c0,7.5-5.6,13.1-13.1,13.1h-5.8L1601.9,83z M2149.1,83l18.9,18.9h-5.8
		C2154.6,101.9,2149.1,96.3,2149.1,83z M2352,83v5.8c0,7.5-5.6,13.1-13.1,13.1h-5.8L2352,83z M2899.1,83l18.9,18.9h-5.8
		C2904.7,101.9,2899.1,96.3,2899.1,83z M302.6,90.6L302.6,90.6L302.6,90.6l54.7,94.8L334.9,224l-38.6-22.3V92.4
		c1.1-0.4,2.2-1,3.3-1.4C300.6,90.8,301.6,90.8,302.6,90.6z M1052.6,90.6L1052.6,90.6L1052.6,90.6l54.7,94.8l-22.3,38.6l-38.6-22.3
		V92.4c1.1-0.4,2.2-1,3.3-1.4C1050.6,90.8,1051.6,90.8,1052.6,90.6z M1802.6,90.6L1802.6,90.6L1802.6,90.6l54.7,94.8l-22.3,38.6
		l-38.6-22.3V92.4c1.1-0.4,2.2-1,3.3-1.4C1800.6,90.8,1801.6,90.8,1802.6,90.6z M2552.6,90.6L2552.6,90.6L2552.6,90.6l54.7,94.8
		l-22.3,38.6l-38.6-22.3V92.4c1.1-0.4,2.2-1,3.3-1.4C2550.6,90.8,2551.6,90.8,2552.6,90.6z M448.4,90.8c1.2,0.2,2.3,0.2,3.5,0.4
		c1,0.4,1.9,0.8,2.9,1.2v109.3L416.1,224l-22.3-38.7L448.4,90.8z M1198.4,90.8c1.2,0.2,2.3,0.2,3.5,0.4c1,0.4,1.9,0.8,2.9,1.2v109.3
		l-38.7,22.4l-22.3-38.7L1198.4,90.8z M1948.4,90.8c1.2,0.2,2.3,0.2,3.5,0.4c1,0.4,1.9,0.8,2.9,1.2v109.3l-38.7,22.4l-22.3-38.7
		L1948.4,90.8z M2698.4,90.8c1.2,0.2,2.3,0.2,3.5,0.4c1,0.4,1.9,0.8,2.9,1.2v109.3l-38.7,22.4l-22.3-38.7L2698.4,90.8z M737.2,130.6
		h13.3h13.3l-4.1,4.1c-2.6,2.6-6,4-9.3,4C747.2,138.7,743.9,137.4,737.2,130.6z M1487.2,130.6h13.3h13.3l-4.1,4.1
		c-2.6,2.6-5.9,4-9.2,4C1497.2,138.7,1493.9,137.4,1487.2,130.6z M2237.1,130.7h13.3h13.3l-4.1,4.1c-2.6,2.6-6,4-9.3,4
		C2247.2,138.7,2243.9,137.4,2237.1,130.7z M170,165.3l94.7,54.7v44.6H220l-54.7-94.7c0.7-0.9,1.4-1.8,2.1-2.7
		C168.3,166.6,169.2,166,170,165.3z M920,165.3l94.7,54.7v44.6H970L915.4,170c0.7-0.9,1.3-1.8,2-2.7
		C918.3,166.7,919.2,166,920,165.3z M581,165.4c0.9,0.7,1.9,1.4,2.8,2.1c0.6,0.8,1.2,1.7,1.9,2.5L531,264.6h-44.7v-44.6L581,165.4z
		 M1331,165.4c0.9,0.7,1.9,1.4,2.8,2.1c0.6,0.8,1.2,1.7,1.9,2.5l-54.6,94.7h-44.7v-44.6L1331,165.4z M1670,165.4l94.7,54.7v44.6
		H1720l-54.7-94.7c0.7-0.9,1.4-1.8,2.1-2.7C1668.3,166.7,1669.2,166.1,1670,165.4z M2420,165.4l94.7,54.7v44.6H2470l-54.6-94.7
		c0.7-0.9,1.3-1.8,2-2.7C2418.3,166.7,2419.1,166.1,2420,165.4z M2081,165.4c0.9,0.7,1.9,1.4,2.8,2.1c0.6,0.8,1.2,1.7,1.9,2.5
		l-54.6,94.7h-44.7v-44.6L2081,165.4z M2831,165.4c0.9,0.7,1.9,1.4,2.8,2.1c0.6,0.8,1.2,1.7,1.9,2.5l-54.6,94.7h-44.7v-44.6
		L2831,165.4z M137.1,184.1l46.5,80.5H90.6c-3-16.6-10-32.4-21-46.3l16.8-29.1C104,191.7,121.2,189.8,137.1,184.1z M887.1,184.1
		l46.5,80.5h-92.9c-3-16.6-10-32.4-21-46.3l16.9-29.1C854,191.7,871.2,189.8,887.1,184.1z M613.9,184.2c15.9,5.7,33.1,7.6,50.6,5.1
		l16.8,29.1c-10.9,13.9-17.8,29.7-20.9,46.3h-93L613.9,184.2z M1363.9,184.2c15.9,5.7,33.1,7.6,50.6,5.1l16.8,29.1
		c-10.9,13.9-17.8,29.7-20.9,46.3h-93L1363.9,184.2z M1637.1,184.2l46.5,80.5h-92.9c-3-16.6-10-32.4-21-46.3l16.8-29.1
		C1604,191.7,1621.2,189.8,1637.1,184.2z M2387.1,184.2l46.5,80.5h-92.9c-3-16.6-10-32.4-21-46.3l16.9-29.1
		C2354,191.7,2371.2,189.8,2387.1,184.2z M2113.9,184.2c15.9,5.7,33.1,7.6,50.6,5.1l16.8,29.1c-10.9,13.9-17.8,29.7-20.9,46.3h-93
		L2113.9,184.2z M2863.9,184.2c15.9,5.7,33.1,7.6,50.6,5.1l16.8,29.1c-10.9,13.9-17.8,29.7-20.9,46.3h-93L2863.9,184.2z M375.5,217
		l13.1,22.8l-13.1,7.6l-13.2-7.6L375.5,217z M1125.5,217l13.1,22.8l-13.1,7.6l-13.2-7.6L1125.5,217z M1875.5,217.1l13.1,22.8
		l-13.1,7.6l-13.2-7.6L1875.5,217.1z M2625.5,217.1l13.1,22.8l-13.1,7.6l-13.2-7.6L2625.5,217.1z M296.3,238.2l22.8,13.2l-7.6,13.2
		h-15.2L296.3,238.2z M454.8,238.2v26.4h-15.3l-7.6-13.2L454.8,238.2z M1046.3,238.2l22.8,13.2l-7.6,13.2h-15.2L1046.3,238.2z
		 M1204.8,238.2v26.4h-15.3l-7.6-13.2L1204.8,238.2z M1796.3,238.3l22.8,13.2l-7.6,13.2h-15.2V238.3z M1954.8,238.3v26.4h-15.3
		l-7.6-13.2L1954.8,238.3z M2546.3,238.3l22.8,13.2l-7.6,13.2h-15.2V238.3z M2704.8,238.3v26.4h-15.3l-7.6-13.2L2704.8,238.3z
		 M92.4,296.2h109.4l22.3,38.6l-38.7,22.4l-94.6-54.6c0.2-1.1,0.3-2.3,0.4-3.4C91.6,298.2,92.1,297.2,92.4,296.2z M238.3,296.2h26.4
		v15.3l-13.2,7.6L238.3,296.2z M354.3,296.2h42.4l36.7,21.2l21.3,36.8v42.4l-21.2,36.8l-36.8,21.2h-42.5l-36.8-21.2l-21.2-36.7
		v-42.5l21.2-36.8L354.3,296.2z M486.3,296.2h26.4l-13.2,22.9l-13.3-7.6V296.2z M549.2,296.2h109.2c0.4,1.1,1,2.2,1.4,3.3
		c0.2,1,0.2,2,0.4,3l-94.6,54.6l-38.7-22.4L549.2,296.2z M842.4,296.2h109.4l22.3,38.6l-38.7,22.4l-94.6-54.6
		c0.2-1.1,0.3-2.3,0.4-3.4C841.6,298.2,842.1,297.3,842.4,296.2z M988.3,296.2h26.4v15.3l-13.2,7.6L988.3,296.2z M1104.3,296.2h42.4
		l36.7,21.2l21.3,36.8v42.4l-21.2,36.8l-36.8,21.2h-42.5l-36.8-21.2l-21.2-36.7v-42.5l21.2-36.7L1104.3,296.2z M1236.3,296.2h26.4
		l-13.2,22.9l-13.2-7.6V296.2z M1299.2,296.2h109.2c0.4,1.1,1,2.2,1.4,3.3c0.2,1,0.2,2,0.4,3l-94.6,54.6l-38.7-22.4L1299.2,296.2z
		 M1592.4,296.3h109.4l22.3,38.6l-38.7,22.4l-94.6-54.6c0.2-1.1,0.3-2.3,0.4-3.4C1591.6,298.2,1592.1,297.3,1592.4,296.3z
		 M1738.3,296.3h26.4v15.3l-13.2,7.6L1738.3,296.3z M1854.3,296.3h42.4l36.7,21.2l21.3,36.8v42.4l-21.2,36.8l-36.8,21.2h-42.5
		l-36.8-21.2l-21.2-36.7v-42.5l21.2-36.8L1854.3,296.3z M1986.3,296.3h26.4l-13.2,22.9l-13.3-7.6V296.3z M2049.2,296.3h109.2
		c0.4,1.1,1,2.2,1.4,3.3c0.2,1,0.2,2,0.4,3l-94.6,54.6l-38.7-22.4L2049.2,296.3z M2342.4,296.3h109.4l22.3,38.6l-38.7,22.4
		l-94.6-54.6c0.2-1.1,0.3-2.3,0.4-3.4C2341.6,298.2,2342.1,297.3,2342.4,296.3z M2488.3,296.3h26.4v15.3l-13.2,7.6L2488.3,296.3z
		 M2604.3,296.3h42.4l36.7,21.2l21.3,36.8v42.4l-21.2,36.8l-36.8,21.2h-42.5l-36.8-21.2l-21.2-36.7v-42.5l21.2-36.7L2604.3,296.3z
		 M2736.3,296.3h26.4l-13.2,22.9l-13.2-7.6V296.3z M2799.2,296.3h109.2c0.4,1.1,1,2.2,1.4,3.3c0.2,1,0.2,2,0.4,3l-94.6,54.6
		l-38.7-22.4L2799.2,296.3z M73.4,329l80.5,46.5l-80.5,46.5c-11-12.9-24.9-23.1-41.3-29.7v-33.6C48.5,352,62.4,341.8,73.4,329z
		 M823.4,329l80.5,46.5l-80.5,46.5c-11-12.9-24.9-23.1-41.3-29.7v-33.6C798.5,352,812.4,341.8,823.4,329z M677.5,329
		c11,12.9,25,23.1,41.4,29.7v33.6c-16.4,6.6-30.3,16.7-41.3,29.6l-80.5-46.5L677.5,329z M1427.6,329c11,12.9,24.9,23.1,41.3,29.7
		v33.6c-16.4,6.6-30.3,16.7-41.3,29.6l-80.5-46.5L1427.6,329z M1573.4,329l80.5,46.5l-80.5,46.5c-11-12.9-24.9-23.1-41.3-29.7v-33.6
		C1548.5,352.1,1562.4,341.9,1573.4,329z M2323.4,329l80.5,46.5l-80.5,46.5c-11-12.9-24.9-23.1-41.3-29.7v-33.6
		C2298.5,352.1,2312.4,341.9,2323.4,329z M2177.5,329c11,12.9,25,23.1,41.4,29.7v33.6c-16.4,6.6-30.3,16.7-41.3,29.6l-80.5-46.5
		L2177.5,329z M2927.6,329c11,12.9,24.9,23.1,41.3,29.7v33.6c-16.4,6.6-30.3,16.7-41.3,29.6l-80.5-46.5L2927.6,329z M240,362.2
		l7.6,13.2l-7.6,13.2l-22.9-13.2L240,362.2z M511.1,362.2l22.9,13.2l-22.9,13.2l-7.6-13.2L511.1,362.2z M990,362.2l7.6,13.2
		l-7.6,13.2l-22.9-13.2L990,362.2z M1261.1,362.2l22.9,13.2l-22.9,13.2l-7.6-13.2L1261.1,362.2z M1740,362.3l7.6,13.2l-7.6,13.2
		l-22.9-13.2L1740,362.3z M2011.1,362.3l22.9,13.2l-22.9,13.2l-7.6-13.2L2011.1,362.3z M2490,362.3l7.6,13.2l-7.6,13.2l-22.9-13.2
		L2490,362.3z M2761.1,362.3l22.9,13.2l-22.9,13.2l-7.6-13.2L2761.1,362.3z M185.5,393.6l38.7,22.3l-22.4,38.7H92.5
		c-0.4-1.1-0.9-2.1-1.4-3.2c-0.2-1.1-0.2-2.1-0.4-3.1L185.5,393.6z M565.5,393.6l94.6,54.7c-0.2,1.2-0.3,2.3-0.5,3.5
		c-0.4,1-0.9,1.9-1.2,2.9H549.2L526.9,416L565.5,393.6z M935.5,393.6l38.6,22.3l-22.4,38.7H842.5c-0.4-1.1-0.9-2.1-1.3-3.2
		c-0.2-1.1-0.2-2.1-0.4-3.1L935.5,393.6z M1315.6,393.6l94.6,54.7c-0.2,1.2-0.3,2.3-0.5,3.5c-0.4,1-0.8,1.9-1.2,2.9h-109.3
		l-22.3-38.7L1315.6,393.6z M1685.5,393.7l38.7,22.3l-22.4,38.7h-109.3c-0.4-1.1-0.9-2.1-1.4-3.2c-0.2-1.1-0.2-2.1-0.4-3.1
		L1685.5,393.7z M2065.5,393.7l94.6,54.7c-0.2,1.2-0.3,2.3-0.5,3.5c-0.4,1-0.9,1.9-1.2,2.9h-109.3l-22.3-38.7L2065.5,393.7z
		 M2435.5,393.7l38.6,22.3l-22.4,38.7h-109.3c-0.4-1.1-0.9-2.1-1.3-3.2c-0.2-1.1-0.2-2.1-0.4-3.1L2435.5,393.7z M2815.6,393.7
		l94.6,54.7c-0.2,1.2-0.3,2.3-0.5,3.5c-0.4,1-0.8,1.9-1.2,2.9h-109.3l-22.3-38.7L2815.6,393.7z M750.5,412.9l11.9,3
		c22.9,5.8,41.5,21.8,51,42.8c2.6,23.2-5.5,46.6-22.6,63.3l-8.8,8.5l37.5,64.9l11.8-3.3c22.8-6.4,46.8-1.9,65.5,11.6
		c13.8,18.8,18.5,43.1,12.1,66.1l-3.3,11.8l64.9,37.5l8.6-8.8c16.5-16.9,39.6-25,62.5-22.7c21.3,9.4,37.6,28.1,43.5,51.2l3,11.8h0.1
		l-3,11.9c-5.8,22.9-21.8,41.5-42.8,50.9c-23.2,2.6-46.5-5.5-63.2-22.6l-8.6-8.8l-64.9,37.5l3.3,11.8c6.4,22.8,1.9,46.8-11.6,65.5
		c-18.8,13.8-43.1,18.5-66.1,12.1l-11.8-3.3L782,970.4l8.8,8.6c16.9,16.5,25.1,39.6,22.7,62.6c-9.4,21.3-28,37.6-51.1,43.5l-11.9,3
		v0l-11.8-3c-23-5.8-41.6-21.8-51.1-42.9c-2.5-23.1,5.6-46.4,22.6-63.1l8.8-8.6l-37.5-64.9l-11.8,3.3c-22.8,6.4-46.9,1.9-65.7-11.7
		c-13.7-18.8-18.4-43-11.9-65.9l3.3-11.8L530.6,782l-8.6,8.8c-16.5,17-39.7,25.1-62.6,22.7c-21.3-9.4-37.4-28.1-43.3-51.1l-3-11.9h0
		l3-11.9c5.9-23,21.8-41.6,42.9-51.1c23.1-2.5,46.4,5.6,63,22.6l8.5,8.8l64.9-37.4l-3.3-11.8c-6.4-22.8-1.8-46.9,11.7-65.7
		c18.8-13.7,43-18.3,65.9-11.9l11.8,3.3l37.4-64.9l-8.8-8.6c-16.9-16.5-25.1-39.7-22.7-62.6c9.4-21.3,28-37.4,51.1-43.3
		C738.6,416,750.5,413,750.5,412.9z M1500.5,412.9l11.9,3c22.9,5.8,41.5,21.8,51,42.8c2.6,23.2-5.5,46.6-22.6,63.3l-8.8,8.5
		l37.5,64.9l11.8-3.3c22.8-6.4,46.8-1.9,65.5,11.6c13.8,18.8,18.5,43.1,12.1,66.1l-3.3,11.8l64.9,37.5l8.6-8.8
		c16.5-16.9,39.6-25,62.5-22.7c21.3,9.4,37.5,28.1,43.5,51.2l3,11.8h0l-3,11.9c-5.8,22.9-21.8,41.5-42.8,50.9
		c-23.2,2.6-46.5-5.5-63.2-22.6l-8.6-8.8l-64.9,37.5l3.3,11.8c6.4,22.8,1.9,46.8-11.6,65.5c-18.8,13.8-43.1,18.5-66.1,12.1
		l-11.8-3.3l-37.5,64.9l8.8,8.6c16.9,16.5,25.1,39.6,22.7,62.6c-9.4,21.3-28.1,37.6-51.2,43.5l-11.8,3v0l-11.8-3
		c-23-5.8-41.6-21.8-51.1-42.9c-2.5-23.1,5.6-46.4,22.6-63.1l8.8-8.6l-37.5-64.9l-11.8,3.3c-22.8,6.4-46.9,1.9-65.6-11.7
		c-13.7-18.8-18.4-43-12-65.9l3.3-11.8l-64.9-37.5l-8.6,8.8c-16.5,17-39.7,25.1-62.7,22.7c-21.3-9.4-37.4-28.1-43.3-51.1l-3-11.9h0
		l3-11.9c5.9-23,21.8-41.6,42.9-51.1c23.1-2.5,46.4,5.6,63,22.6l8.6,8.8l64.9-37.4l-3.3-11.8c-6.4-22.8-1.8-46.9,11.7-65.7
		c18.8-13.7,43-18.3,65.9-11.9l11.8,3.3l37.4-64.9l-8.8-8.6c-16.9-16.5-25.1-39.7-22.7-62.6c9.4-21.3,28-37.4,51.1-43.3
		C1488.6,416,1500.5,413,1500.5,412.9z M2250.5,413l11.9,3c22.9,5.8,41.5,21.8,51,42.8c2.6,23.2-5.5,46.6-22.6,63.3l-8.8,8.5
		l37.5,64.9l11.8-3.3c22.8-6.4,46.8-1.9,65.5,11.6c13.8,18.8,18.5,43.1,12.1,66.1l-3.3,11.8l64.9,37.5l8.6-8.8
		c16.5-16.9,39.6-25,62.5-22.7c21.3,9.4,37.6,28.1,43.5,51.2l3,11.8h0.1l-3,11.9c-5.8,22.9-21.8,41.5-42.8,50.9
		c-23.2,2.6-46.5-5.5-63.2-22.6l-8.6-8.8l-64.9,37.5l3.3,11.8c6.4,22.8,1.9,46.8-11.6,65.5c-18.8,13.8-43.1,18.5-66.1,12.1
		l-11.8-3.3l-37.5,64.9l8.8,8.6c16.9,16.5,25.1,39.6,22.7,62.6c-9.4,21.3-28,37.6-51.1,43.5l-11.9,3v0l-11.8-3
		c-23-5.8-41.6-21.8-51.1-42.9c-2.5-23.1,5.6-46.4,22.6-63.1l8.8-8.6l-37.5-64.9l-11.8,3.3c-22.8,6.4-46.9,1.9-65.7-11.7
		c-13.7-18.8-18.4-43-11.9-65.9l3.3-11.8l-64.9-37.5l-8.6,8.8c-16.5,17-39.7,25.1-62.6,22.7c-21.3-9.4-37.4-28.1-43.3-51.1l-3-11.9
		h0l3-11.9c5.9-23,21.8-41.6,42.9-51.1c23.1-2.5,46.4,5.6,63,22.6l8.6,8.8l64.9-37.4l-3.3-11.8c-6.4-22.8-1.8-46.9,11.7-65.7
		c18.8-13.7,43-18.3,65.9-11.9l11.8,3.3l37.4-64.9l-8.8-8.6c-16.9-16.5-25.1-39.7-22.7-62.6c9.4-21.3,28-37.4,51.1-43.3
		C2238.6,416.1,2250.5,413,2250.5,413z M251.5,431.8l13.2,7.6v15.3h-26.4L251.5,431.8z M499.5,431.8l13.2,22.9h-26.4v-15.3
		L499.5,431.8z M1001.5,431.8l13.2,7.6v15.3h-26.4L1001.5,431.8z M1249.5,431.8l13.2,22.9h-26.4v-15.3L1249.5,431.8z M1751.5,431.9
		l13.2,7.6v15.3h-26.4L1751.5,431.9z M1999.5,431.9l13.2,22.9h-26.4v-15.3L1999.5,431.9z M2501.5,431.9l13.2,7.6v15.3h-26.4
		L2501.5,431.9z M2749.5,431.9l13.2,22.9h-26.4v-15.3L2749.5,431.9z M90.6,486.2h93l-46.5,80.5c-15.9-5.7-33.1-7.5-50.6-5
		l-16.8-29.1C80.6,518.7,87.6,502.9,90.6,486.2z M220.1,486.2h44.6v44.7L170,585.6c-0.9-0.7-1.8-1.4-2.7-2.1
		c-0.7-0.8-1.2-1.7-1.9-2.5L220.1,486.2z M296.3,486.2h15.2l7.6,13.2l-22.9,13.2L296.3,486.2z M439.5,486.2h15.3v26.4l-22.9-13.2
		L439.5,486.2z M486.3,486.2h44.6l54.6,94.6c-0.8,0.9-1.4,1.9-2.1,2.8c-0.8,0.6-1.7,1.2-2.5,1.9l-94.7-54.6L486.3,486.2z
		 M567.4,486.2h92.9c3,16.7,10,32.4,21,46.3l-16.9,29.1c-17.5-2.5-34.6-0.6-50.6,5.1L567.4,486.2z M840.6,486.2h93l-46.5,80.5
		c-15.9-5.7-33.1-7.5-50.6-5l-16.8-29.1C830.6,518.7,837.5,502.9,840.6,486.2z M970.1,486.2h44.6v44.7l-94.6,54.6
		c-0.9-0.7-1.8-1.4-2.7-2.1c-0.7-0.8-1.3-1.7-2-2.5L970.1,486.2z M1046.3,486.2h15.2l7.6,13.2l-22.9,13.2V486.2z M1189.5,486.2h15.3
		v26.4l-22.9-13.2L1189.5,486.2z M1236.3,486.2h44.6l54.6,94.6c-0.8,0.9-1.4,1.9-2.1,2.8c-0.8,0.6-1.7,1.2-2.5,1.9l-94.6-54.6
		L1236.3,486.2z M1317.4,486.2h92.9c3,16.7,10,32.4,21,46.3l-16.8,29.1c-17.5-2.5-34.7-0.6-50.6,5.1L1317.4,486.2z M1590.6,486.3h93
		l-46.5,80.5c-15.9-5.7-33.1-7.5-50.6-5l-16.8-29.1C1580.6,518.7,1587.5,502.9,1590.6,486.3z M1720.1,486.3h44.6V531l-94.7,54.6
		c-0.9-0.7-1.8-1.4-2.7-2.1c-0.7-0.8-1.2-1.7-1.9-2.5L1720.1,486.3z M1796.3,486.3h15.2l7.6,13.2l-22.9,13.2L1796.3,486.3z
		 M1939.5,486.3h15.3v26.4l-22.9-13.2L1939.5,486.3z M1986.3,486.3h44.6l54.6,94.6c-0.8,0.9-1.4,1.9-2.1,2.8
		c-0.8,0.6-1.7,1.2-2.5,1.9l-94.7-54.7V486.3z M2067.4,486.3h92.9c3,16.7,10,32.4,21,46.3l-16.9,29.1c-17.5-2.5-34.6-0.6-50.6,5
		L2067.4,486.3z M2340.6,486.3h93l-46.5,80.5c-15.9-5.7-33.1-7.5-50.6-5l-16.8-29.1C2330.6,518.7,2337.5,502.9,2340.6,486.3z
		 M2470.1,486.3h44.6V531l-94.6,54.6c-0.9-0.7-1.8-1.4-2.7-2.1c-0.7-0.8-1.3-1.7-2-2.5L2470.1,486.3z M2546.3,486.3h15.2l7.6,13.2
		l-22.9,13.2L2546.3,486.3z M2689.5,486.3h15.3v26.4l-22.9-13.2L2689.5,486.3z M2736.3,486.3h44.6l54.6,94.6
		c-0.8,0.9-1.4,1.9-2.1,2.8c-0.8,0.6-1.7,1.2-2.5,1.9l-94.6-54.6L2736.3,486.3z M2817.4,486.3h92.9c3,16.7,10,32.4,21,46.3
		l-16.8,29.1c-17.5-2.5-34.7-0.6-50.6,5L2817.4,486.3z M375.5,503.4l13.2,7.6l-13.2,22.9L362.3,511L375.5,503.4z M1125.5,503.4
		l13.2,7.6l-13.2,22.9l-13.2-22.9L1125.5,503.4z M1875.5,503.4l13.2,7.6l-13.2,22.9l-13.2-22.9L1875.5,503.4z M2625.5,503.4
		l13.2,7.6l-13.2,22.9l-13.2-22.9L2625.5,503.4z M334.9,526.8l22.4,38.7l-54.7,94.6c-1.1-0.2-2.2-0.2-3.4-0.4
		c-1-0.4-1.9-0.9-2.9-1.2V549.1L334.9,526.8z M416.1,526.8l38.7,22.4v109.3c-1.1,0.4-2.1,0.9-3.1,1.3c-1.1,0.2-2.2,0.2-3.3,0.4
		l-54.6-94.7L416.1,526.8z M1084.9,526.8l22.4,38.7l-54.6,94.6c-1.1-0.2-2.3-0.2-3.4-0.4c-1-0.4-1.9-0.9-2.9-1.2V549.1L1084.9,526.8
		z M1166.1,526.8l38.7,22.3v109.3c-1.1,0.4-2.1,0.9-3.1,1.3c-1.1,0.2-2.2,0.2-3.3,0.4l-54.6-94.7L1166.1,526.8z M1834.9,526.8
		l22.4,38.7l-54.7,94.6c-1.1-0.2-2.2-0.2-3.4-0.4c-1-0.4-1.9-0.9-2.9-1.2V549.2L1834.9,526.8z M1916.1,526.8l38.7,22.4v109.3
		c-1.1,0.4-2.1,0.9-3.1,1.3c-1.1,0.2-2.2,0.2-3.3,0.4l-54.6-94.7L1916.1,526.8z M2584.9,526.8l22.4,38.7l-54.6,94.6
		c-1.1-0.2-2.3-0.2-3.4-0.4c-1-0.4-1.9-0.9-2.9-1.2V549.2L2584.9,526.8z M2666.1,526.8l38.7,22.3v109.3c-1.1,0.4-2.1,0.9-3.1,1.3
		c-1.1,0.2-2.2,0.2-3.3,0.4l-54.6-94.7L2666.1,526.8z M264.7,567.4v92.9c-16.7,3.1-32.4,10-46.3,21l-29.1-16.8
		c2.5-17.5,0.6-34.7-5-50.6L264.7,567.4z M486.3,567.4l80.5,46.4c-5.7,16-7.6,33.1-5,50.6l-29.1,16.8
		c-13.9-10.9-29.7-17.9-46.3-20.9V567.4z M1014.7,567.4v92.9c-16.7,3.1-32.4,10-46.3,21l-29.1-16.8c2.5-17.5,0.6-34.7-5-50.6
		L1014.7,567.4z M1236.3,567.4l80.4,46.4c-5.7,16-7.6,33.1-5,50.6l-29.1,16.8c-13.9-10.9-29.6-17.9-46.3-20.9L1236.3,567.4z
		 M1764.7,567.4v92.9c-16.6,3.1-32.4,10-46.3,21l-29.1-16.8c2.5-17.5,0.6-34.7-5-50.6L1764.7,567.4z M1986.3,567.4l80.5,46.4
		c-5.7,16-7.6,33.1-5,50.6l-29.1,16.8c-13.9-10.9-29.7-17.9-46.3-20.9L1986.3,567.4z M2514.7,567.4v92.9c-16.7,3.1-32.4,10-46.3,21
		l-29.1-16.8c2.5-17.5,0.6-34.7-5-50.6L2514.7,567.4z M2736.3,567.4l80.4,46.4c-5.7,16-7.6,33.1-5,50.6l-29.1,16.8
		c-13.9-10.9-29.6-17.9-46.3-20.9L2736.3,567.4z M0.5,583.8v28.4c3.3,0,6.6,1.3,9.2,4l4.1,4.1H0.5v28.7h42l59.4,59.4v42.1h28.7V737
		l4.2,4.1c2.6,2.6,4,6,4,9.3h28.4c0-10.7-4-21.4-12.1-29.5l-24.4-24.4V662c0-22.9-18.9-41.8-41.8-41.8H54.4L30,596
		C21.9,587.9,11.2,583.8,0.5,583.8z M750.5,583.8c-10.7,0-21.4,4-29.5,12.1l-24.3,24.3h-34.5c-22.9,0-41.8,18.9-41.8,41.8v34.5
		L596,721c-8.1,8.1-12.1,18.8-12.1,29.5h28.4c0-3.3,1.4-6.6,4-9.3l4.1-4.1v13.4h28.7v-42.1l59.4-59.4h42h42l59.5,59.4v42.1h28.6V737
		l4.2,4.1c2.6,2.6,4,6,4,9.3h28.4c0-10.7-4-21.4-12.1-29.5l-24.4-24.4v-34.5c0-22.9-18.9-41.8-41.8-41.8h-34.5l-24.3-24.3
		C772,587.9,761.2,583.8,750.5,583.8z M1500.5,583.8c-10.7,0-21.4,4-29.5,12.1l-24.3,24.3h-34.5c-22.9,0-41.8,18.9-41.8,41.8v34.5
		L1346,721c-8.1,8.1-12.1,18.8-12.1,29.5h28.5c0-3.3,1.3-6.6,4-9.3l4.1-4.1v13.4h28.7v-42.1l59.4-59.4h42v0h42l59.4,59.4v42.1h28.7
		v-13.4l4.2,4.1c2.6,2.6,4,6,4,9.3h28.4c0-10.7-4-21.4-12.1-29.5l-24.4-24.4v-34.5c0-22.9-18.9-41.8-41.8-41.8h-34.5L1530,596
		C1521.9,587.9,1511.2,583.9,1500.5,583.8z M2250.5,583.8c-10.7,0-21.4,4-29.5,12.1l-24.3,24.3h-34.5c-22.9,0-41.8,18.9-41.8,41.8
		v34.5L2096,721c-8.1,8.1-12.1,18.8-12.1,29.5h28.4c0-3.3,1.4-6.6,4-9.3l4.1-4.1v13.4h28.7v-42.1l59.4-59.4h42h42l59.5,59.4v42.1
		h28.6v-13.4l4.2,4.1c2.6,2.6,4,6,4,9.3h28.4c0-10.7-4-21.4-12.1-29.5l-24.4-24.4v-34.5c0-22.9-18.9-41.8-41.8-41.8h-34.5
		l-24.3-24.3C2272,587.9,2261.2,583.9,2250.5,583.8z M3000.5,583.8c-10.7,0-21.4,4-29.5,12.1l-24.3,24.3h-34.5
		c-22.9,0-41.8,18.9-41.8,41.8v34.5L2846,721c-8.1,8.1-12.1,18.8-12.1,29.5h28.5c0-3.3,1.3-6.6,4-9.3l4.1-4.1v13.4h28.7v-42.1
		l59.4-59.4h42v-28.7h-13.3l4.1-4.1c2.6-2.6,5.9-4,9.2-4V583.8z M375.5,597.1l46.5,80.5c-12.9,11-23.1,24.9-29.7,41.3h-33.6
		c-6.6-16.4-16.8-30.3-29.7-41.3L375.5,597.1z M1125.5,597.1l46.5,80.5c-12.9,11-23.1,24.9-29.7,41.3h-33.6
		c-6.6-16.4-16.8-30.3-29.7-41.3L1125.5,597.1z M1875.5,597.1l46.5,80.5c-12.9,11-23.1,24.9-29.7,41.3h-33.6
		c-6.6-16.4-16.8-30.3-29.7-41.3L1875.5,597.1z M2625.5,597.1l46.5,80.5c-12.9,11-23.1,24.9-29.7,41.3h-33.6
		c-6.6-16.4-16.8-30.3-29.7-41.3L2625.5,597.1z M750.5,612.2L750.5,612.2c3.3,0,6.6,1.4,9.3,4l4.1,4.1h-13.3h-13.3l4.1-4.1
		C743.9,613.5,747.2,612.2,750.5,612.2z M1500.5,612.2L1500.5,612.2c3.3,0.1,6.6,1.4,9.2,4l4.1,4.1h-13.3v0h-13.3l4.1-4.1
		C1493.9,613.5,1497.2,612.2,1500.5,612.2z M2250.5,612.2L2250.5,612.2c3.3,0,6.6,1.4,9.3,4l4.1,4.1h-13.3h-13.3l4.1-4.1
		C2243.9,613.6,2247.2,612.2,2250.5,612.2z M83,648.9h5.8c7.5,0,13.1,5.6,13.1,13.1v5.8L83,648.9z M662.2,648.9h5.8l-18.9,18.9v-5.8
		C649.1,654.5,654.6,648.9,662.2,648.9z M833,648.9h5.8c7.5,0,13.1,5.6,13.1,13.1v5.8L833,648.9z M1412.2,648.9h5.8l-18.9,18.9v-5.8
		C1399.1,654.5,1404.7,648.9,1412.2,648.9z M1583,649h5.8c7.5,0,13.1,5.6,13.1,13.1v5.8L1583,649z M2162.2,649h5.8l-18.9,18.9v-5.8
		C2149.1,654.6,2154.6,649,2162.2,649z M2333,649h5.8c7.5,0,13.1,5.6,13.1,13.1v5.8L2333,649z M2912.2,649h5.8l-18.9,18.9v-5.8
		C2899.1,654.6,2904.7,649,2912.2,649z M101.9,750.5v42.1L42.5,852h-42v28.7h13.3l-4.1,4.1c-2.6,2.6-5.9,4-9.2,4v28.4
		c10.7,0,21.4-4,29.5-12.1l24.3-24.3h34.5c22.9,0,41.8-18.9,41.8-41.8v-34.5L155,780c8.1-8.1,12.1-18.8,12.1-29.5h-28.4
		c0,3.3-1.3,6.6-4,9.3l-4.2,4.1v-13.4L101.9,750.5z M583.8,750.5c0,10.7,4,21.4,12.1,29.5l24.4,24.4v34.5
		c0,22.9,18.9,41.8,41.8,41.8h34.5L721,905c8.1,8.1,18.8,12.1,29.5,12.1c10.7,0,21.5-4,29.6-12.1l24.3-24.3h34.5
		c22.9,0,41.8-18.9,41.8-41.8v-34.5L905,780c8.1-8.1,12.1-18.8,12.1-29.5h-28.4c0,3.3-1.3,6.7-4,9.3l-4.2,4.1v-13.4H852v42.1
		L792.5,852h-42h-42l-59.4-59.4v-42.1h-28.7v13.4l-4.1-4.1c-2.6-2.6-4-6-4-9.3H583.8z M1333.8,750.5c0,10.7,4,21.4,12.1,29.5
		l24.4,24.4v34.5c0,22.9,18.9,41.8,41.8,41.8h34.5l24.3,24.3c8.1,8.1,18.8,12.2,29.5,12.2v0c10.7,0,21.4-4,29.5-12.1l24.3-24.3h34.5
		c22.9,0,41.8-18.9,41.8-41.8v-34.5L1655,780c8.1-8.1,12.1-18.8,12.1-29.5h-28.4c0,3.3-1.3,6.6-4,9.3l-4.2,4.1v-13.4h-28.7v42.1
		l-59.4,59.4h-42v0h-42l-59.4-59.4v-42.1h-28.7v13.4l-4.1-4.1c-2.6-2.6-4-6-4-9.3L1333.8,750.5z M2083.8,750.5
		c0,10.7,4,21.4,12.1,29.5l24.4,24.4v34.5c0,22.9,18.9,41.8,41.8,41.8h34.5L2221,905c8.1,8.1,18.8,12.1,29.5,12.1
		c10.7,0,21.5-4,29.6-12.1l24.3-24.3h34.5c22.9,0,41.8-18.9,41.8-41.8v-34.5L2405,780c8.1-8.1,12.1-18.8,12.1-29.5h-28.4
		c0,3.3-1.3,6.7-4,9.3l-4.2,4.1v-13.4H2352v42.1l-59.5,59.4h-42h-42l-59.4-59.4v-42.1h-28.7v13.4l-4.1-4.1c-2.6-2.6-4-6-4-9.3
		H2083.8z M2833.8,750.5c0,10.7,4,21.4,12.1,29.5l24.4,24.4v34.5c0,22.9,18.9,41.8,41.8,41.8h34.5L2971,905
		c8.1,8.1,18.8,12.2,29.5,12.2v-28.4c-3.3,0-6.6-1.3-9.2-4l-4.1-4.1h13.3v-28.7h-42l-59.4-59.4v-42.1h-28.7V764l-4.1-4.1
		c-2.6-2.6-4-6-4-9.3L2833.8,750.5z M358.7,782.1h33.7c6.6,16.4,16.7,30.3,29.6,41.3l-46.5,80.5l-46.5-80.5
		C342,812.4,352.1,798.5,358.7,782.1z M1108.8,782.1h33.6c6.6,16.4,16.7,30.3,29.6,41.3l-46.5,80.5l-46.4-80.5
		C1092,812.4,1102.2,798.5,1108.8,782.1z M1858.7,782.1h33.7c6.6,16.4,16.7,30.3,29.6,41.3l-46.5,80.5l-46.5-80.5
		C1842,812.5,1852.1,798.5,1858.7,782.1z M2608.8,782.1h33.6c6.6,16.4,16.7,30.3,29.6,41.3l-46.5,80.5l-46.4-80.5
		C2592,812.5,2602.2,798.5,2608.8,782.1z M218.4,819.6c13.9,10.9,29.7,17.9,46.3,20.9v92.9L184.2,887c5.7-15.9,7.5-33.1,5-50.6
		L218.4,819.6z M968.4,819.6c13.9,10.9,29.7,17.9,46.3,20.9v92.9L934.2,887c5.7-15.9,7.5-33.1,5-50.6L968.4,819.6z M532.7,819.7
		l29.1,16.9c-2.5,17.5-0.7,34.6,5,50.5l-80.5,46.5v-92.9C503,837.6,518.8,830.6,532.7,819.7z M1282.7,819.7l29.1,16.9
		c-2.5,17.5-0.7,34.6,5,50.5l-80.5,46.5v-92.9C1253,837.6,1268.8,830.6,1282.7,819.7z M1718.4,819.7c13.9,10.9,29.7,17.9,46.3,20.9
		v92.9l-80.5-46.5c5.7-15.9,7.5-33.1,5-50.6L1718.4,819.7z M2032.7,819.7L2032.7,819.7l29.1,16.9c-2.5,17.5-0.7,34.6,5,50.5
		l-80.5,46.5v-93C2003,837.6,2018.8,830.6,2032.7,819.7z M2468.4,819.7c13.9,10.9,29.7,17.9,46.3,20.9v92.9l-80.5-46.5
		c5.7-15.9,7.5-33.1,5-50.6L2468.4,819.7z M2782.7,819.7L2782.7,819.7l29.1,16.9c-2.5,17.5-0.7,34.6,5,50.5l-80.5,46.5v-93
		C2753,837.6,2768.8,830.6,2782.7,819.7z M101.9,833v5.8c0,7.5-5.6,13.1-13.1,13.1H83L101.9,833z M649.1,833l18.9,19h-5.8
		C654.6,852,649.1,846.4,649.1,833z M852,833v5.8c0,7.5-5.6,13.1-13.1,13.1H833L852,833z M1399.1,833l18.9,19h-5.8
		C1404.7,852,1399.1,846.4,1399.1,833z M1601.9,833.1v5.8c0,7.5-5.6,13.1-13.1,13.1h-5.8L1601.9,833.1z M2149.1,833.1l18.9,19h-5.8
		C2154.6,852,2149.1,846.4,2149.1,833.1z M2352,833.1v5.8c0,7.5-5.6,13.1-13.1,13.1h-5.8L2352,833.1z M2899.1,833.1l18.9,19h-5.8
		C2904.7,852,2899.1,846.4,2899.1,833.1z M1052.6,840.7L1052.6,840.7L1052.6,840.7l54.7,94.8l-22.3,38.6l-38.6-22.3V842.5
		c1.1-0.4,2.2-1,3.3-1.4C1050.6,840.9,1051.6,840.9,1052.6,840.7z M302.6,840.7L302.6,840.7l54.7,94.8l-22.3,38.6l-38.6-22.3V842.5
		c1.1-0.4,2.2-1,3.3-1.4C300.6,840.9,301.6,840.9,302.6,840.7z M1802.6,840.7L1802.6,840.7L1802.6,840.7l54.7,94.8l-22.3,38.6
		l-38.6-22.3V842.6c1.1-0.4,2.2-1,3.3-1.4C1800.6,840.9,1801.6,840.9,1802.6,840.7z M2552.6,840.7L2552.6,840.7L2552.6,840.7
		l54.7,94.8l-22.3,38.6l-38.6-22.3V842.6c1.1-0.4,2.2-1,3.3-1.4C2550.6,840.9,2551.6,840.9,2552.6,840.7z M448.4,840.8
		c1.2,0.2,2.3,0.2,3.5,0.4c1,0.4,1.9,0.9,2.9,1.2v109.3L416.1,974l-22.3-38.6L448.4,840.8z M1198.4,840.8c1.2,0.2,2.3,0.2,3.5,0.4
		c1,0.4,1.9,0.9,2.9,1.2v109.3l-38.7,22.3l-22.3-38.6L1198.4,840.8z M1948.4,840.8c1.2,0.2,2.3,0.2,3.5,0.4c1,0.4,1.9,0.9,2.9,1.2
		v109.3l-38.7,22.3l-22.3-38.6L1948.4,840.8z M2698.4,840.8c1.2,0.2,2.3,0.2,3.5,0.4c1,0.4,1.9,0.9,2.9,1.2v109.3l-38.7,22.3
		l-22.3-38.6L2698.4,840.8z M737.2,880.7h13.3h13.3l-4.1,4.1c-2.6,2.6-6,4-9.3,4C747.2,888.7,743.9,887.4,737.2,880.7z
		 M1487.2,880.7h13.3v0h13.3l-4.1,4.1c-2.6,2.6-5.9,4-9.2,4v0C1497.2,888.7,1493.9,887.4,1487.2,880.7z M2237.1,880.7h13.3h13.3
		l-4.1,4.1c-2.6,2.6-6,4-9.3,4C2247.2,888.7,2243.9,887.4,2237.1,880.7z M170,915.3l94.7,54.7v44.6H220L165.3,920
		c0.7-0.9,1.4-1.9,2.1-2.7C168.3,916.7,169.2,916,170,915.3z M920,915.3l94.7,54.7v44.6H970L915.4,920c0.7-0.9,1.3-1.8,2-2.7
		C918.3,916.7,919.2,916,920,915.3z M1670,915.3L1670,915.3l94.7,54.8v44.6H1720l-54.7-94.7c0.7-0.9,1.4-1.9,2.1-2.7
		C1668.3,916.7,1669.2,916,1670,915.3z M2420,915.4l94.7,54.7v44.6H2470l-54.6-94.6c0.7-0.9,1.3-1.8,2-2.8
		C2418.3,916.7,2419.1,916.1,2420,915.4z M581,915.4c0.9,0.7,1.9,1.4,2.8,2.1c0.6,0.8,1.2,1.7,1.9,2.5l-54.6,94.6h-44.7V970
		L581,915.4z M1331,915.4c0.9,0.7,1.9,1.4,2.8,2.1c0.6,0.8,1.2,1.7,1.9,2.5l-54.6,94.6h-44.7V970L1331,915.4z M2081,915.5
		c0.9,0.7,1.9,1.4,2.8,2.1c0.6,0.8,1.2,1.7,1.9,2.5l-54.6,94.6h-44.7v-44.6L2081,915.5z M2831,915.5c0.9,0.7,1.9,1.4,2.8,2.1
		c0.6,0.8,1.2,1.7,1.9,2.5l-54.6,94.6h-44.7v-44.6L2831,915.5z M137.1,934.1l46.5,80.5H90.6c-3-16.6-10-32.4-21-46.3l16.8-29.1
		C104,941.7,121.2,939.8,137.1,934.1z M887.1,934.1l46.5,80.5h-92.9c-3-16.6-10-32.4-21-46.3l16.9-29.1
		C854,941.7,871.2,939.8,887.1,934.1z M613.9,934.2c15.9,5.7,33.1,7.6,50.6,5.1l16.8,29.1c-10.9,13.9-17.8,29.6-20.9,46.3h-93
		L613.9,934.2z M1363.9,934.2c15.9,5.7,33.1,7.6,50.6,5.1l16.8,29.1c-10.9,13.9-17.8,29.6-20.9,46.3h-93L1363.9,934.2z
		 M1637.1,934.2l46.5,80.5h-92.9c-3-16.6-10-32.4-21-46.3l16.8-29.1C1604,941.7,1621.2,939.8,1637.1,934.2z M2387.1,934.2l46.5,80.5
		h-92.9c-3-16.6-10-32.4-21-46.3l16.9-29.1C2354,941.7,2371.2,939.8,2387.1,934.2z M2113.9,934.2c15.9,5.7,33.1,7.6,50.6,5
		l16.8,29.1c-10.9,13.9-17.8,29.6-20.9,46.3h-93L2113.9,934.2z M2863.9,934.2c15.9,5.7,33.1,7.6,50.6,5l16.8,29.1
		c-10.9,13.9-17.8,29.6-20.9,46.3h-93L2863.9,934.2z M375.5,967.1l13.1,22.8l-13.1,7.6l-13.2-7.6L375.5,967.1z M1125.5,967.1
		l13.1,22.8l-13.1,7.6l-13.2-7.6L1125.5,967.1z M1875.5,967.1l13.1,22.8l-13.1,7.6l-13.2-7.6L1875.5,967.1z M2625.5,967.1l13.1,22.8
		l-13.1,7.6l-13.2-7.6L2625.5,967.1z M296.3,988.2l22.8,13.2l-7.6,13.2h-15.2L296.3,988.2z M454.8,988.2v26.4h-15.3l-7.6-13.2
		L454.8,988.2z M1046.3,988.2l22.8,13.2l-7.6,13.2h-15.2L1046.3,988.2z M1204.8,988.2v26.4h-15.3l-7.6-13.2L1204.8,988.2z
		 M1796.3,988.3l22.8,13.2l-7.6,13.2h-15.2V988.3z M1954.8,988.3v26.4h-15.3l-7.6-13.2L1954.8,988.3z M2546.3,988.3l22.8,13.2
		l-7.6,13.2h-15.2V988.3z M2704.8,988.3v26.4h-15.3l-7.6-13.2L2704.8,988.3z M92.4,1046.2h109.4l22.3,38.7l-38.7,22.3l-94.6-54.6
		c0.2-1.1,0.3-2.3,0.4-3.4C91.6,1048.2,92.1,1047.3,92.4,1046.2z M238.3,1046.2h26.4v15.3l-13.2,7.6L238.3,1046.2z M354.3,1046.2
		h42.4l36.7,21.2l21.3,36.8v42.4l-21.2,36.8l-36.8,21.2h-42.5l-36.8-21.2l-21.2-36.7v-42.5l21.2-36.8L354.3,1046.2z M486.3,1046.2
		h26.4l-13.2,22.9l-13.3-7.6V1046.2z M549.2,1046.2h109.2c0.4,1.1,1,2.2,1.4,3.3c0.2,1,0.2,2.1,0.4,3.1l-94.6,54.6l-38.7-22.3
		L549.2,1046.2z M842.4,1046.2h109.4l22.3,38.7l-38.7,22.3l-94.6-54.6c0.2-1.1,0.3-2.3,0.4-3.4
		C841.6,1048.2,842.1,1047.3,842.4,1046.2z M988.3,1046.2h26.4v15.3l-13.2,7.6L988.3,1046.2z M1104.3,1046.2h42.4l36.7,21.2
		l21.3,36.8v42.4l-21.2,36.8l-36.8,21.2h-42.5l-36.8-21.2l-21.2-36.7v-42.5l21.2-36.8L1104.3,1046.2z M1236.3,1046.2h26.4
		l-13.2,22.9l-13.2-7.6V1046.2z M1299.2,1046.2h109.2c0.4,1.1,1,2.2,1.4,3.3c0.2,1,0.2,2.1,0.4,3.1l-94.6,54.6l-38.7-22.3
		L1299.2,1046.2z M1592.4,1046.3h109.4l22.3,38.7l-38.7,22.3l-94.6-54.6c0.2-1.1,0.3-2.3,0.4-3.4
		C1591.6,1048.2,1592.1,1047.3,1592.4,1046.3z M1738.3,1046.3h26.4v15.3l-13.2,7.6L1738.3,1046.3z M1854.3,1046.3h42.4l36.7,21.2
		l21.3,36.8v42.4l-21.2,36.8l-36.8,21.2h-42.5l-36.8-21.2l-21.2-36.7v-42.5l21.2-36.8L1854.3,1046.3z M1986.3,1046.3h26.4
		l-13.2,22.9l-13.3-7.6V1046.3z M2049.2,1046.3h109.2c0.4,1.1,1,2.2,1.4,3.3c0.2,1,0.2,2.1,0.4,3.1l-94.6,54.6l-38.7-22.3
		L2049.2,1046.3z M2342.4,1046.3h109.4l22.3,38.7l-38.7,22.3l-94.6-54.6c0.2-1.1,0.3-2.3,0.4-3.4
		C2341.6,1048.2,2342.1,1047.3,2342.4,1046.3z M2488.3,1046.3h26.4v15.3l-13.2,7.6L2488.3,1046.3z M2604.3,1046.3h42.4l36.7,21.2
		l21.3,36.8v42.4l-21.2,36.8l-36.8,21.2h-42.5l-36.8-21.2l-21.2-36.7v-42.5l21.2-36.8L2604.3,1046.3z M2736.3,1046.3h26.4
		l-13.2,22.9l-13.2-7.6V1046.3z M2799.2,1046.3h109.2c0.4,1.1,1,2.2,1.4,3.3c0.2,1,0.2,2.1,0.4,3.1l-94.6,54.6l-38.7-22.3
		L2799.2,1046.3z M73.4,1079l80.5,46.5l-80.5,46.5c-11-12.9-24.9-23.1-41.3-29.7v-33.6C48.5,1102,62.4,1091.9,73.4,1079z
		 M823.4,1079l80.5,46.5l-80.5,46.5c-11-12.9-24.9-23.1-41.3-29.7v-33.6C798.5,1102,812.4,1091.9,823.4,1079z M677.5,1079
		c11,12.9,25,23.1,41.4,29.7v33.6c-16.4,6.6-30.3,16.8-41.3,29.7l-80.5-46.5L677.5,1079z M1427.6,1079c11,12.9,24.9,23.1,41.3,29.7
		v33.6c-16.4,6.6-30.3,16.8-41.3,29.7l-80.5-46.5L1427.6,1079z M1573.4,1079l80.5,46.5l-80.5,46.5c-11-12.9-24.9-23.1-41.3-29.7
		v-33.6C1548.5,1102.1,1562.4,1091.9,1573.4,1079z M2323.4,1079l80.5,46.5l-80.5,46.5c-11-12.9-24.9-23.1-41.3-29.7v-33.6
		C2298.5,1102.1,2312.4,1091.9,2323.4,1079z M2177.5,1079c11,12.9,25,23.1,41.4,29.7v33.6c-16.4,6.6-30.3,16.8-41.3,29.7l-80.5-46.5
		L2177.5,1079z M2927.6,1079c11,12.9,24.9,23.1,41.3,29.7v33.6c-16.4,6.6-30.3,16.8-41.3,29.7l-80.5-46.5L2927.6,1079z M240,1112.2
		l7.6,13.2l-7.6,13.2l-22.9-13.2L240,1112.2z M511.1,1112.2l22.9,13.2l-22.9,13.2l-7.6-13.3L511.1,1112.2z M990,1112.2l7.6,13.2
		l-7.6,13.2l-22.9-13.2L990,1112.2z M1261.1,1112.2l22.9,13.2l-22.9,13.2l-7.6-13.3L1261.1,1112.2z M1740,1112.3l7.6,13.2l-7.6,13.2
		l-22.9-13.2L1740,1112.3z M2011.1,1112.3l22.9,13.2l-22.9,13.2l-7.6-13.3L2011.1,1112.3z M2490,1112.3l7.6,13.2l-7.6,13.2
		l-22.9-13.2L2490,1112.3z M2761.1,1112.3l22.9,13.2l-22.9,13.2l-7.6-13.3L2761.1,1112.3z M185.5,1143.7l38.7,22.3l-22.4,38.7H92.5
		c-0.4-1.1-0.9-2.1-1.4-3.2c-0.2-1.1-0.2-2.1-0.4-3.1L185.5,1143.7z M565.5,1143.7l94.6,54.6c-0.2,1.2-0.3,2.3-0.5,3.5
		c-0.4,1-0.9,1.8-1.2,2.8H549.2l-22.3-38.7L565.5,1143.7z M935.5,1143.7l38.6,22.3l-22.4,38.7H842.5c-0.4-1.1-0.9-2.1-1.3-3.2
		c-0.2-1.1-0.2-2.1-0.4-3.1L935.5,1143.7z M1315.6,1143.7l94.6,54.6c-0.2,1.2-0.3,2.3-0.5,3.5c-0.4,1-0.8,1.8-1.2,2.8h-109.3
		l-22.3-38.7L1315.6,1143.7z M1685.5,1143.7l38.7,22.3l-22.4,38.7h-109.3c-0.4-1.1-0.9-2.1-1.4-3.2c-0.2-1.1-0.2-2.1-0.4-3.1
		L1685.5,1143.7z M2065.5,1143.7l94.6,54.6c-0.2,1.2-0.3,2.3-0.5,3.5c-0.4,1-0.9,1.8-1.2,2.8h-109.3l-22.3-38.7L2065.5,1143.7z
		 M2435.5,1143.7l38.6,22.3l-22.4,38.7h-109.3c-0.4-1.1-0.9-2.1-1.3-3.2c-0.2-1.1-0.2-2.1-0.4-3.1L2435.5,1143.7z M2815.6,1143.7
		l94.6,54.6c-0.2,1.2-0.3,2.3-0.5,3.5c-0.4,1-0.8,1.8-1.2,2.8h-109.3l-22.3-38.7L2815.6,1143.7z M750.5,1162.9l11.9,3
		c22.9,5.8,41.5,21.7,51,42.8c2.6,23.2-5.5,46.6-22.6,63.3l-8.8,8.6l37.5,64.9l11.8-3.3c22.8-6.4,46.8-1.9,65.5,11.6
		c13.8,18.8,18.5,43.1,12.1,66.1l-3.3,11.8l64.9,37.5l8.6-8.8c16.5-16.9,39.6-25,62.5-22.7c21.3,9.4,37.6,28.1,43.5,51.2l3,11.8h0.1
		l-3,11.9c-5.8,22.9-21.8,41.5-42.8,50.9c-23.2,2.6-46.5-5.6-63.2-22.6l-8.6-8.8l-64.9,37.5l3.3,11.8c6.4,22.8,1.9,46.8-11.6,65.5
		c-18.8,13.8-43.1,18.5-66.1,12.1l-11.8-3.3l-37.5,64.9l8.8,8.6c16.9,16.5,25.1,39.6,22.7,62.6c-9.4,21.3-28,37.5-51.1,43.4l-11.9,3
		v0l-11.8-3c-23-5.8-41.6-21.8-51.1-42.9c-2.5-23.1,5.6-46.4,22.6-63.1l8.8-8.6l-37.5-64.9l-11.8,3.3c-22.8,6.4-46.9,1.9-65.7-11.6
		c-13.7-18.8-18.4-43-11.9-66l3.3-11.8l-64.9-37.5l-8.6,8.8c-16.5,17-39.7,25.1-62.6,22.7c-21.3-9.4-37.4-28-43.3-51.1l-3-11.9h0
		l3-11.9c5.9-23,21.8-41.6,42.9-51.1c23.1-2.5,46.4,5.6,63,22.6l8.5,8.8l64.9-37.5l-3.3-11.8c-6.4-22.8-1.8-46.9,11.7-65.7
		c18.8-13.7,43-18.3,65.9-11.9l11.8,3.3l37.4-64.9l-8.8-8.6c-16.9-16.5-25.1-39.7-22.7-62.6c9.4-21.3,28-37.4,51.1-43.3
		C738.6,1166,750.5,1163,750.5,1162.9z M1500.5,1162.9l11.9,3c22.9,5.8,41.5,21.7,51,42.8c2.6,23.2-5.5,46.6-22.6,63.3l-8.8,8.6
		l37.5,64.9l11.8-3.3c22.8-6.4,46.8-1.9,65.5,11.6c13.8,18.8,18.5,43.1,12.1,66.1l-3.3,11.8l64.9,37.5l8.6-8.8
		c16.5-16.9,39.6-25,62.5-22.7c21.3,9.4,37.5,28.1,43.5,51.2l3,11.8h0l-3,11.9c-5.8,22.9-21.8,41.5-42.8,50.9
		c-23.2,2.6-46.5-5.5-63.2-22.6l-8.6-8.8l-64.9,37.5l3.3,11.8c6.4,22.8,1.9,46.8-11.6,65.5c-18.8,13.8-43.1,18.5-66.1,12.1
		l-11.8-3.3l-37.5,64.9l8.8,8.6c16.9,16.5,25.1,39.6,22.7,62.6c-9.4,21.3-28.1,37.5-51.2,43.4l-11.8,3v0.1l-11.8-3
		c-23-5.8-41.6-21.8-51.1-42.9c-2.5-23.1,5.6-46.4,22.6-63.1l8.8-8.6l-37.5-64.9l-11.8,3.3c-22.8,6.4-46.9,1.9-65.6-11.6
		c-13.7-18.8-18.4-43-12-66l3.3-11.8l-64.9-37.5l-8.6,8.8c-16.5,17-39.7,25.1-62.7,22.7c-21.3-9.4-37.4-28-43.3-51.1l-3-11.9h0
		l3-11.9c5.9-23,21.8-41.6,42.9-51.1c23.1-2.5,46.4,5.6,63,22.6l8.6,8.8l64.9-37.5l-3.3-11.8c-6.4-22.8-1.8-46.9,11.7-65.7
		c18.8-13.7,43-18.3,65.9-11.9l11.8,3.3l37.4-64.9l-8.8-8.6c-16.9-16.5-25.1-39.7-22.7-62.7c9.4-21.3,28-37.4,51.1-43.3
		C1488.6,1166,1500.5,1163,1500.5,1162.9z M2250.5,1162.9l11.9,3c22.9,5.8,41.5,21.7,51,42.8c2.6,23.2-5.5,46.6-22.6,63.3l-8.8,8.6
		l37.5,64.9l11.8-3.3c22.8-6.4,46.8-1.9,65.5,11.6c13.8,18.8,18.5,43.1,12.1,66.1l-3.3,11.8l64.9,37.5l8.6-8.8
		c16.5-16.9,39.6-25,62.5-22.7c21.3,9.4,37.6,28.1,43.5,51.2l3,11.8h0.1l-3,11.9c-5.8,22.9-21.8,41.5-42.8,50.9
		c-23.2,2.6-46.5-5.6-63.2-22.6l-8.6-8.8l-64.9,37.5l3.3,11.8c6.4,22.8,1.9,46.8-11.6,65.5c-18.8,13.8-43.1,18.5-66.1,12.1
		l-11.8-3.3l-37.5,64.9l8.8,8.6c16.9,16.5,25.1,39.6,22.7,62.6c-9.4,21.3-28,37.5-51.1,43.4l-11.9,3v0l-11.8-3
		c-23-5.8-41.6-21.8-51.1-42.9c-2.5-23.1,5.6-46.4,22.6-63.1l8.8-8.6l-37.5-64.9l-11.8,3.3c-22.8,6.4-46.9,1.9-65.7-11.6
		c-13.7-18.8-18.4-43-11.9-66l3.3-11.8l-64.9-37.5l-8.6,8.8c-16.5,17-39.7,25.1-62.6,22.7c-21.3-9.4-37.4-28-43.3-51.1l-3-11.9h0
		l3-11.9c5.9-23,21.8-41.6,42.9-51.1c23.1-2.5,46.4,5.6,63,22.6l8.6,8.8l64.9-37.5l-3.3-11.8c-6.4-22.8-1.8-46.9,11.7-65.7
		c18.8-13.7,43-18.3,65.9-11.9l11.8,3.3l37.4-64.9l-8.8-8.6c-16.9-16.5-25.1-39.7-22.7-62.6c9.4-21.3,28-37.4,51.1-43.3
		C2238.6,1166,2250.5,1163,2250.5,1162.9z M251.5,1181.8l13.2,7.6v15.3h-26.4L251.5,1181.8z M499.5,1181.8l13.2,22.9h-26.4v-15.3
		L499.5,1181.8z M1001.5,1181.8l13.2,7.6v15.3h-26.4L1001.5,1181.8z M1249.5,1181.8l13.2,22.9h-26.4v-15.3L1249.5,1181.8z
		 M1751.5,1181.9l13.2,7.6v15.3h-26.4L1751.5,1181.9z M1999.5,1181.9l13.2,22.9h-26.4v-15.3L1999.5,1181.9z M2501.5,1181.9l13.2,7.6
		v15.3h-26.4L2501.5,1181.9z M2749.5,1181.9l13.2,22.9h-26.4v-15.3L2749.5,1181.9z M90.6,1236.3h93l-46.5,80.5
		c-15.9-5.7-33.1-7.5-50.6-5l-16.8-29.2C80.6,1268.7,87.6,1253,90.6,1236.3z M220.1,1236.3h44.6v44.7l-94.7,54.6
		c-0.9-0.7-1.8-1.3-2.7-2c-0.7-0.8-1.2-1.7-1.9-2.5L220.1,1236.3z M296.3,1236.3h15.2l7.6,13.2l-22.9,13.2L296.3,1236.3z
		 M439.5,1236.3h15.3v26.4l-22.9-13.2L439.5,1236.3z M486.3,1236.3h44.6l54.6,94.6c-0.8,0.9-1.4,1.9-2.1,2.8
		c-0.8,0.6-1.7,1.2-2.5,1.9l-94.7-54.6L486.3,1236.3z M567.4,1236.3h92.9c3,16.7,10,32.4,21,46.3l-16.9,29.2
		c-17.5-2.5-34.6-0.6-50.6,5L567.4,1236.3z M840.6,1236.3h93l-46.5,80.5c-15.9-5.7-33.1-7.5-50.6-5l-16.8-29.2
		C830.6,1268.7,837.5,1253,840.6,1236.3z M970.1,1236.3h44.6v44.7l-94.6,54.6c-0.9-0.7-1.8-1.3-2.7-2c-0.7-0.8-1.3-1.7-2-2.5
		L970.1,1236.3z M1046.3,1236.3h15.2l7.6,13.2l-22.9,13.2V1236.3z M1189.5,1236.3h15.3v26.4l-22.9-13.2L1189.5,1236.3z
		 M1236.3,1236.3h44.6l54.6,94.6c-0.8,0.9-1.4,1.9-2.1,2.8c-0.8,0.6-1.7,1.2-2.5,1.9l-94.6-54.6L1236.3,1236.3z M1317.4,1236.3h92.9
		c3,16.7,10,32.4,21,46.3l-16.8,29.2c-17.5-2.5-34.7-0.6-50.6,5L1317.4,1236.3z M1590.6,1236.3h93l-46.5,80.5
		c-15.9-5.7-33.1-7.5-50.6-5l-16.8-29.2C1580.6,1268.7,1587.5,1253,1590.6,1236.3z M1720.1,1236.3h44.6v44.7l-94.7,54.6
		c-0.9-0.7-1.8-1.3-2.7-2c-0.7-0.8-1.2-1.7-1.9-2.5L1720.1,1236.3z M1796.3,1236.3h15.2l7.6,13.2l-22.9,13.2L1796.3,1236.3z
		 M1939.5,1236.3h15.3v26.4l-22.9-13.2L1939.5,1236.3z M1986.3,1236.3h44.6l54.6,94.6c-0.8,0.9-1.4,1.9-2.1,2.8
		c-0.8,0.6-1.7,1.2-2.5,1.9l-94.7-54.6L1986.3,1236.3z M2067.4,1236.3h92.9c3,16.7,10,32.4,21,46.3l-16.9,29.2
		c-17.5-2.5-34.6-0.6-50.6,5L2067.4,1236.3z M2340.6,1236.3h93l-46.5,80.5c-15.9-5.7-33.1-7.5-50.6-5l-16.8-29.2
		C2330.6,1268.7,2337.5,1253,2340.6,1236.3z M2470.1,1236.3h44.6v44.7l-94.6,54.6c-0.9-0.7-1.8-1.3-2.7-2c-0.7-0.8-1.3-1.7-2-2.5
		L2470.1,1236.3z M2546.3,1236.3h15.2l7.6,13.2l-22.9,13.2L2546.3,1236.3z M2689.5,1236.3h15.3v26.4l-22.9-13.2L2689.5,1236.3z
		 M2736.3,1236.3h44.6l54.6,94.6c-0.8,0.9-1.4,1.9-2.1,2.8c-0.8,0.6-1.7,1.2-2.5,1.9l-94.6-54.6L2736.3,1236.3z M2817.4,1236.3h92.9
		c3,16.7,10,32.4,21,46.3l-16.8,29.2c-17.5-2.5-34.7-0.6-50.6,5L2817.4,1236.3z M375.5,1253.4l13.2,7.6l-13.2,22.9l-13.2-22.9
		L375.5,1253.4z M1125.5,1253.4l13.2,7.6l-13.2,22.9l-13.2-22.9L1125.5,1253.4z M1875.5,1253.4l13.2,7.6l-13.2,22.9l-13.2-22.9
		L1875.5,1253.4z M2625.5,1253.4l13.2,7.6l-13.2,22.9l-13.2-22.9L2625.5,1253.4z M334.9,1276.8l22.4,38.7l-54.7,94.7
		c-1.1-0.2-2.2-0.2-3.4-0.4c-1-0.4-1.9-0.9-2.9-1.2v-109.4L334.9,1276.8z M416.1,1276.8l38.7,22.4v109.3c-1.1,0.4-2.1,0.9-3.1,1.3
		c-1.1,0.2-2.2,0.2-3.3,0.4l-54.6-94.7L416.1,1276.8z M1084.9,1276.8l22.4,38.7l-54.6,94.7c-1.1-0.2-2.3-0.2-3.4-0.4
		c-1-0.4-1.9-0.9-2.9-1.2v-109.4L1084.9,1276.8z M1166.1,1276.8l38.7,22.4v109.3c-1.1,0.4-2.1,0.9-3.1,1.3c-1.1,0.2-2.2,0.2-3.3,0.4
		l-54.6-94.7L1166.1,1276.8z M1834.9,1276.8l22.4,38.7l-54.7,94.7c-1.1-0.2-2.2-0.2-3.4-0.4c-1-0.4-1.9-0.9-2.9-1.2v-109.4
		L1834.9,1276.8z M1916.1,1276.8l38.7,22.4v109.3c-1.1,0.4-2.1,0.9-3.1,1.3c-1.1,0.2-2.2,0.2-3.3,0.4l-54.6-94.7L1916.1,1276.8z
		 M2584.9,1276.8l22.4,38.7l-54.6,94.7c-1.1-0.2-2.3-0.2-3.4-0.4c-1-0.4-1.9-0.9-2.9-1.2v-109.4L2584.9,1276.8z M2666.1,1276.8
		l38.7,22.4v109.3c-1.1,0.4-2.1,0.9-3.1,1.3c-1.1,0.2-2.2,0.2-3.3,0.4l-54.6-94.7L2666.1,1276.8z M264.7,1317.4v92.9
		c-16.7,3.1-32.4,10-46.3,21l-29.1-16.8c2.5-17.5,0.6-34.7-5-50.6L264.7,1317.4z M486.3,1317.4l80.5,46.4c-5.7,16-7.6,33.1-5,50.6
		l-29.1,16.8c-13.9-10.9-29.7-17.8-46.3-20.9V1317.4z M1014.7,1317.4v92.9c-16.7,3.1-32.4,10-46.3,21l-29.1-16.8
		c2.5-17.5,0.6-34.7-5-50.6L1014.7,1317.4z M1236.3,1317.4l80.4,46.4c-5.7,16-7.6,33.1-5,50.6l-29.1,16.8
		c-13.9-10.9-29.6-17.8-46.3-20.9L1236.3,1317.4z M1764.7,1317.4v92.9c-16.7,3.1-32.4,10-46.3,21l-29.1-16.8
		c2.5-17.5,0.6-34.7-5-50.6L1764.7,1317.4z M1986.3,1317.4l80.5,46.4c-5.7,16-7.6,33.1-5,50.6l-29.1,16.8
		c-13.9-10.9-29.7-17.8-46.3-20.9L1986.3,1317.4z M2514.7,1317.4v92.9c-16.7,3.1-32.4,10-46.3,21l-29.1-16.8
		c2.5-17.5,0.6-34.7-5-50.6L2514.7,1317.4z M2736.3,1317.4l80.4,46.4c-5.7,16-7.6,33.1-5,50.6l-29.1,16.8
		c-13.9-10.9-29.6-17.8-46.3-20.9L2736.3,1317.4z M0.5,1333.9v28.4c3.3,0,6.6,1.3,9.2,4l4.1,4.1H0.5v28.7h42l59.4,59.4v42.1h28.7
		V1487l4.2,4.2c2.6,2.6,4,5.9,4,9.3h28.4c0-10.7-4-21.4-12.1-29.5l-24.4-24.4v-34.5c0-22.9-18.9-41.8-41.8-41.8H54.4L30,1346
		C21.9,1337.9,11.2,1333.9,0.5,1333.9z M750.5,1333.9c-10.7,0-21.4,4-29.5,12.1l-24.3,24.3h-34.5c-22.9,0-41.8,18.9-41.8,41.8v34.5
		L596,1471c-8.1,8.1-12.1,18.8-12.1,29.5h28.4c0-3.3,1.4-6.6,4-9.3l4.1-4.2v13.4h28.7v-42.1l59.4-59.4h42h42l59.5,59.4v42.1h28.6
		V1487l4.2,4.2c2.6,2.6,4,5.9,4,9.3h28.4c0-10.7-4-21.4-12.1-29.5l-24.4-24.4v-34.5c0-22.9-18.9-41.8-41.8-41.8h-34.5l-24.3-24.3
		C772,1337.9,761.2,1333.9,750.5,1333.9z M1500.5,1333.9c-10.7,0-21.4,4-29.5,12.1l-24.3,24.3h-34.5c-22.9,0-41.8,18.9-41.8,41.8
		v34.5L1346,1471c-8.1,8.1-12.1,18.8-12.1,29.5h28.5c0-3.3,1.3-6.6,4-9.3l4.1-4.2v13.4h28.7v-42.1l59.4-59.4h42v0h42l59.4,59.4v42.1
		v42.1l-59.4,59.4h-42h-42l-59.4-59.4v-42.1h-28.7v13.4l-4.1-4.2c-2.6-2.6-4-5.9-4-9.3h-28.5c0,10.7,4,21.4,12.1,29.5l24.4,24.4
		v34.5c0,22.9,18.9,41.8,41.8,41.8h34.5l24.3,24.3c8.1,8.1,18.8,12.1,29.5,12.1c10.7,0,21.4-4,29.5-12.1l24.3-24.3h34.5
		c22.9,0,41.8-18.9,41.8-41.8v-34.5l24.4-24.4c8.1-8.1,12.1-18.8,12.1-29.5c0-10.7-4-21.4-12.1-29.5l-24.4-24.4v-34.5
		c0-22.9-18.9-41.8-41.8-41.8h-34.5l-24.3-24.3C1521.9,1337.9,1511.2,1333.9,1500.5,1333.9z M2250.5,1333.9
		c-10.7,0-21.4,4-29.5,12.1l-24.3,24.3h-34.5c-22.9,0-41.8,18.9-41.8,41.8v34.5L2096,1471c-8.1,8.1-12.1,18.8-12.1,29.5
		c0,10.7,4,21.4,12.1,29.5l24.4,24.4v34.5c0,22.9,18.9,41.8,41.8,41.8h34.5l24.3,24.3c8.1,8.1,18.8,12.1,29.5,12.1
		c10.7,0,21.5-4,29.6-12.1l24.3-24.3h34.5c22.9,0,41.8-18.9,41.8-41.8v-34.5l24.4-24.4c8.1-8.1,12.1-18.8,12.1-29.5
		c0-10.7-4-21.4-12.1-29.5l-24.4-24.4v-34.5c0-22.9-18.9-41.8-41.8-41.8h-34.5l-24.3-24.3C2272,1337.9,2261.2,1333.9,2250.5,1333.9z
		 M3000.5,1333.9c-10.7,0-21.4,4-29.5,12.1l-24.3,24.3h-34.5c-22.9,0-41.8,18.9-41.8,41.8v34.5L2846,1471
		c-8.1,8.1-12.1,18.8-12.1,29.5c0,10.7,4,21.4,12.1,29.5l24.4,24.4v34.5c0,22.9,18.9,41.8,41.8,41.8h34.5l24.3,24.3
		c8.1,8.1,18.8,12.1,29.5,12.1v-28.4c-3.3,0-6.6-1.3-9.2-4l-4.1-4.1h13.3V1602h-42l-59.4-59.4v-42.1v-42.1l59.4-59.4h42v-28.7h-13.3
		l4.1-4.1c2.6-2.6,5.9-4,9.2-4V1333.9z M375.5,1347.1l46.5,80.5c-12.9,11-23.1,24.9-29.7,41.4h-33.6c-6.6-16.4-16.8-30.4-29.7-41.3
		L375.5,1347.1z M1125.5,1347.1l46.5,80.5c-12.9,11-23.1,24.9-29.7,41.4h-33.6c-6.6-16.4-16.8-30.4-29.7-41.3L1125.5,1347.1z
		 M1875.5,1347.1l46.5,80.5c-12.9,11-23.1,24.9-29.7,41.4h-33.6c-6.6-16.4-16.8-30.4-29.7-41.3L1875.5,1347.1z M2625.5,1347.1
		l46.5,80.5c-12.9,11-23.1,24.9-29.7,41.4h-33.6c-6.6-16.4-16.8-30.4-29.7-41.3L2625.5,1347.1z M750.5,1362.2c3.3,0,6.6,1.3,9.3,4
		l4.1,4.1h-13.3h-13.3l4.1-4.1C743.9,1363.5,747.2,1362.2,750.5,1362.2z M1500.5,1362.2L1500.5,1362.2c3.3,0,6.6,1.4,9.2,4l4.1,4.1
		h-13.3v0h-13.3l4.1-4.1C1493.9,1363.5,1497.2,1362.2,1500.5,1362.2z M2250.5,1362.3c3.3,0,6.6,1.3,9.3,4l4.1,4.1h-13.3h-13.3
		l4.1-4.1C2243.9,1363.6,2247.2,1362.3,2250.5,1362.3z M83,1399h5.8c7.5,0,13.1,5.6,13.1,13.1v5.8L83,1399z M662.2,1399h5.8
		l-18.9,18.9v-5.8C649.1,1404.6,654.6,1399,662.2,1399z M833,1399h5.8c7.5,0,13.1,5.6,13.1,13.1v5.8L833,1399z M1412.2,1399h5.8
		l-18.9,18.9v-5.8C1399.1,1404.6,1404.7,1399,1412.2,1399z M1583,1399h5.8c7.5,0,13.1,5.6,13.1,13.1v5.8L1583,1399z M2162.2,1399
		h5.8l-18.9,18.9v-5.8C2149.1,1404.6,2154.6,1399,2162.2,1399z M2208.5,1399h42h42l59.5,59.4v42.1v42.1l-59.5,59.4h-42h-42
		l-59.4-59.4v-42.1v-42.1L2208.5,1399z M2333,1399h5.8c7.5,0,13.1,5.6,13.1,13.1v5.8L2333,1399z M2912.2,1399h5.8l-18.9,18.9v-5.8
		C2899.1,1404.6,2904.7,1399,2912.2,1399z M1630.6,1487.1l4.2,4.2c2.6,2.6,4,5.9,4,9.3c0,3.3-1.3,6.6-4,9.3l-4.2,4.2v-13.5V1487.1z
		 M2120.4,1487.1v13.4v13.4l-4.1-4.2c-2.6-2.6-4-5.9-4-9.3C2112.3,1497.2,2113.6,1493.9,2120.4,1487.1z M2380.6,1487.1l4.2,4.2
		c2.6,2.6,4,5.9,4,9.3c0,3.3-1.3,6.6-4,9.3l-4.2,4.2v-13.4V1487.1z M2870.4,1487.1v13.4v13.4l-4.1-4.2c-2.6-2.6-4-5.9-4-9.3
		C2862.3,1497.2,2863.6,1493.9,2870.4,1487.1z M101.9,1500.5v42.1L42.5,1602h-42v28.7h13.3l-4.1,4.1c-2.6,2.6-5.9,4-9.2,4v28.4
		c10.7,0,21.4-4,29.5-12.1l24.3-24.3h34.5c22.9,0,41.8-18.9,41.8-41.8v-34.5L155,1530c8.1-8.1,12.1-18.8,12.1-29.5h-28.4
		c0,3.3-1.3,6.6-4,9.3l-4.2,4.2v-13.4L101.9,1500.5z M583.8,1500.5c0,10.7,4,21.4,12.1,29.5l24.4,24.4v34.5
		c0,22.9,18.9,41.8,41.8,41.8h34.5l24.3,24.3c8.1,8.1,18.8,12.1,29.5,12.1c10.7,0,21.5-4,29.6-12.1l24.3-24.3h34.5
		c22.9,0,41.8-18.9,41.8-41.8v-34.5L905,1530c8.1-8.1,12.1-18.8,12.1-29.5h-28.4c0,3.3-1.3,6.6-4,9.3l-4.2,4.2v-13.4H852v42.1
		l-59.5,59.4h-42h-42l-59.4-59.4v-42.1h-28.7v13.4l-4.1-4.2c-2.6-2.6-4-5.9-4-9.3L583.8,1500.5z M358.7,1532.1h33.7
		c6.6,16.4,16.7,30.3,29.6,41.3l-46.5,80.5l-46.5-80.5C342,1562.4,352.1,1548.5,358.7,1532.1z M1108.8,1532.1h33.6
		c6.6,16.4,16.7,30.3,29.6,41.3l-46.5,80.5l-46.4-80.5C1092,1562.4,1102.2,1548.5,1108.8,1532.1z M1858.7,1532.1h33.7
		c6.6,16.4,16.7,30.3,29.6,41.3l-46.5,80.5l-46.5-80.5C1842,1562.4,1852.1,1548.5,1858.7,1532.1z M2608.8,1532.1h33.6
		c6.6,16.4,16.7,30.3,29.6,41.3l-46.5,80.5l-46.4-80.5C2592,1562.4,2602.2,1548.5,2608.8,1532.1z M218.4,1569.6
		c13.9,10.9,29.7,17.9,46.3,20.9v92.9l-80.5-46.5c5.7-15.9,7.5-33.1,5-50.6L218.4,1569.6z M968.4,1569.6
		c13.9,10.9,29.7,17.9,46.3,20.9v92.9l-80.5-46.5c5.7-15.9,7.5-33.1,5-50.6L968.4,1569.6z M1718.4,1569.6
		c13.9,10.9,29.7,17.9,46.3,20.9v92.9l-80.5-46.5c5.7-15.9,7.5-33.1,5-50.6L1718.4,1569.6z M2468.4,1569.6
		c13.9,10.9,29.7,17.9,46.3,20.9v92.9l-80.5-46.5c5.7-15.9,7.5-33.1,5-50.6L2468.4,1569.6z M532.7,1569.7l29.1,16.8
		c-2.5,17.5-0.7,34.6,5,50.6l-80.5,46.5v-92.9C503,1587.6,518.8,1580.6,532.7,1569.7z M1282.7,1569.7l29.1,16.8
		c-2.5,17.5-0.7,34.6,5,50.6l-80.5,46.5v-92.9C1253,1587.6,1268.8,1580.6,1282.7,1569.7z M2032.7,1569.7l29.1,16.8
		c-2.5,17.5-0.7,34.6,5,50.6l-80.5,46.5v-92.9C2003,1587.6,2018.8,1580.6,2032.7,1569.7z M2782.7,1569.7l29.1,16.8
		c-2.5,17.5-0.7,34.6,5,50.6l-80.5,46.5v-92.9C2753,1587.6,2768.8,1580.6,2782.7,1569.7z M101.9,1583v5.8c0,7.5-5.6,13.1-13.1,13.1
		H83L101.9,1583z M649.1,1583L668,1602h-5.8C654.6,1602,649.1,1596.4,649.1,1583z M852,1583v5.8c0,7.5-5.6,13.1-13.1,13.1H833
		L852,1583z M1399.1,1583l18.9,18.9h-5.8C1404.7,1602,1399.1,1596.4,1399.1,1583z M1601.9,1583v5.8c0,7.5-5.6,13.1-13.1,13.1h-5.8
		L1601.9,1583z M2149.1,1583l18.9,18.9h-5.8C2154.6,1602,2149.1,1596.4,2149.1,1583z M2352,1583v5.8c0,7.5-5.6,13.1-13.1,13.1h-5.8
		L2352,1583z M2899.1,1583l18.9,18.9h-5.8C2904.7,1602,2899.1,1596.4,2899.1,1583z M302.6,1590.7L302.6,1590.7l54.7,94.7l-22.3,38.6
		l-38.6-22.3v-109.3c1.1-0.4,2.2-1,3.3-1.4C300.6,1590.9,301.6,1590.9,302.6,1590.7z M1052.6,1590.7L1052.6,1590.7l54.7,94.7
		l-22.3,38.6l-38.6-22.3v-109.3c1.1-0.4,2.2-1,3.3-1.4C1050.6,1590.9,1051.6,1590.9,1052.6,1590.7z M1802.6,1590.7L1802.6,1590.7
		l54.7,94.7l-22.3,38.6l-38.6-22.3v-109.3c1.1-0.4,2.2-1,3.3-1.4C1800.6,1590.9,1801.6,1590.9,1802.6,1590.7z M2552.6,1590.7
		L2552.6,1590.7l54.7,94.7l-22.3,38.6l-38.6-22.3v-109.3c1.1-0.4,2.2-1,3.3-1.4C2550.6,1590.9,2551.6,1590.9,2552.6,1590.7z
		 M448.4,1590.9c1.2,0.2,2.3,0.2,3.5,0.4c1,0.4,1.9,0.8,2.9,1.2v109.3l-38.7,22.4l-22.3-38.7L448.4,1590.9z M1198.4,1590.9
		c1.2,0.2,2.3,0.2,3.5,0.4c1,0.4,1.9,0.8,2.9,1.2v109.3l-38.7,22.4l-22.3-38.7L1198.4,1590.9z M1948.4,1590.9
		c1.2,0.2,2.3,0.2,3.5,0.4c1,0.4,1.9,0.8,2.9,1.2v109.3l-38.7,22.4l-22.3-38.7L1948.4,1590.9z M2698.4,1590.9
		c1.2,0.2,2.3,0.2,3.5,0.4c1,0.4,1.9,0.8,2.9,1.2v109.3l-38.7,22.4l-22.3-38.7L2698.4,1590.9z M1487.2,1630.7h13.3h13.3l-4.1,4.1
		c-2.6,2.6-5.9,4-9.2,4C1497.2,1638.8,1493.9,1637.5,1487.2,1630.7z M737.2,1630.7h13.3h13.3l-4.1,4.1c-2.6,2.6-6,4-9.3,4
		C747.2,1638.8,743.9,1637.5,737.2,1630.7z M2237.1,1630.7h13.3h13.3l-4.1,4.1c-2.6,2.6-6,4-9.3,4
		C2247.2,1638.8,2243.9,1637.5,2237.1,1630.7z M170,1665.4l94.7,54.7v44.6H220l-54.7-94.8c0.7-0.9,1.4-1.8,2.1-2.7
		C168.3,1666.7,169.2,1666.1,170,1665.4z M920,1665.4l94.7,54.7v44.6H970l-54.6-94.7c0.7-0.9,1.3-1.8,2-2.7
		C918.3,1666.8,919.2,1666.2,920,1665.4z M1670,1665.4l94.7,54.7v44.6H1720l-54.7-94.7c0.7-0.9,1.4-1.8,2.1-2.7
		C1668.3,1666.8,1669.2,1666.1,1670,1665.4z M2420,1665.4l94.7,54.7v44.6H2470l-54.6-94.7c0.7-0.9,1.3-1.8,2-2.7
		C2418.3,1666.8,2419.1,1666.1,2420,1665.4z M581,1665.5c0.9,0.7,1.9,1.4,2.8,2.1c0.6,0.8,1.2,1.7,1.9,2.5l-54.6,94.7h-44.7v-44.6
		L581,1665.5z M1331,1665.5c0.9,0.7,1.9,1.4,2.8,2.1c0.6,0.8,1.2,1.7,1.9,2.5l-54.6,94.7h-44.7v-44.6L1331,1665.5z M2081,1665.5
		c0.9,0.7,1.9,1.4,2.8,2.1c0.6,0.8,1.2,1.7,1.9,2.5l-54.6,94.7h-44.7v-44.6L2081,1665.5z M2831,1665.5c0.9,0.7,1.9,1.4,2.8,2.1
		c0.6,0.8,1.2,1.7,1.9,2.5l-54.6,94.7h-44.7v-44.6L2831,1665.5z M137.1,1684.3l46.5,80.5H90.6c-3-16.6-10-32.4-21-46.3l16.8-29.1
		C104,1691.8,121.2,1689.9,137.1,1684.3z M887.1,1684.3l46.5,80.5h-92.9c-3-16.6-10-32.4-21-46.3l16.9-29.1
		C854,1691.8,871.2,1689.9,887.1,1684.3z M1637.1,1684.3l46.5,80.5h-92.9c-3-16.6-10-32.4-21-46.3l16.8-29.1
		C1604,1691.8,1621.2,1689.9,1637.1,1684.3z M2387.1,1684.3l46.5,80.5h-92.9c-3-16.6-10-32.4-21-46.3l16.9-29.1
		C2354,1691.8,2371.2,1689.9,2387.1,1684.3z M613.9,1684.3c15.9,5.7,33.1,7.6,50.6,5l16.8,29.1c-10.9,13.9-17.8,29.7-20.9,46.3h-93
		L613.9,1684.3z M1363.9,1684.3c15.9,5.7,33.1,7.6,50.6,5l16.8,29.1c-10.9,13.9-17.8,29.7-20.9,46.3h-93L1363.9,1684.3z
		 M2113.9,1684.3c15.9,5.7,33.1,7.6,50.6,5l16.8,29.1c-10.9,13.9-17.8,29.7-20.9,46.3h-93L2113.9,1684.3z M2863.9,1684.3
		c15.9,5.7,33.1,7.6,50.6,5l16.8,29.1c-10.9,13.9-17.8,29.7-20.9,46.3h-93L2863.9,1684.3z M375.5,1717.2l13.1,22.8l-13.1,7.6
		l-13.2-7.6L375.5,1717.2z M1125.5,1717.2l13.1,22.8l-13.1,7.6l-13.2-7.6L1125.5,1717.2z M1875.5,1717.2l13.1,22.8l-13.1,7.6
		l-13.2-7.6L1875.5,1717.2z M2625.5,1717.2l13.1,22.8l-13.1,7.6l-13.2-7.6L2625.5,1717.2z M296.3,1738.4l22.8,13.2l-7.6,13.2h-15.2
		L296.3,1738.4z M454.8,1738.4v26.4h-15.3l-7.6-13.2L454.8,1738.4z M1046.3,1738.4l22.8,13.2l-7.6,13.2h-15.2L1046.3,1738.4z
		 M1204.8,1738.4v26.4h-15.3l-7.6-13.2L1204.8,1738.4z M1796.3,1738.4l22.8,13.2l-7.6,13.2h-15.2V1738.4z M1954.8,1738.4v26.4h-15.3
		l-7.6-13.2L1954.8,1738.4z M2546.3,1738.4l22.8,13.2l-7.6,13.2h-15.2V1738.4z M2704.8,1738.4v26.4h-15.3l-7.6-13.2L2704.8,1738.4z
		 M92.4,1796.3h109.4l22.3,38.6l-38.7,22.4l-94.6-54.6c0.2-1.1,0.3-2.3,0.4-3.4C91.6,1798.3,92.1,1797.4,92.4,1796.3z M238.3,1796.3
		h26.4v15.3l-13.2,7.6L238.3,1796.3z M354.3,1796.3h42.4l36.7,21.2l21.3,36.8v42.4l-21.2,36.8l-36.8,21.2h-42.5l-36.8-21.2
		l-21.2-36.7v-42.5l21.2-36.8L354.3,1796.3z M486.3,1796.3h26.4l-13.2,22.9l-13.3-7.6V1796.3z M549.2,1796.3h109.2
		c0.4,1.1,1,2.2,1.4,3.3c0.2,1,0.2,2,0.4,3l-94.6,54.6l-38.7-22.4L549.2,1796.3z M842.4,1796.3h109.4l22.3,38.6l-38.7,22.4
		l-94.6-54.6c0.2-1.1,0.3-2.3,0.4-3.4C841.6,1798.3,842.1,1797.4,842.4,1796.3z M988.3,1796.3h26.4v15.3l-13.2,7.6L988.3,1796.3z
		 M1104.3,1796.3h42.4l36.7,21.2l21.3,36.8v42.4l-21.2,36.8l-36.8,21.2h-42.5l-36.8-21.2l-21.2-36.7v-42.5l21.2-36.7L1104.3,1796.3z
		 M1236.3,1796.3h26.4l-13.2,22.9l-13.2-7.6V1796.3z M1299.2,1796.3h109.2c0.4,1.1,1,2.2,1.4,3.3c0.2,1,0.2,2,0.4,3l-94.6,54.6
		l-38.7-22.4L1299.2,1796.3z M1592.4,1796.3h109.4l22.3,38.6l-38.7,22.4l-94.6-54.6c0.2-1.1,0.3-2.3,0.4-3.4
		C1591.6,1798.3,1592.1,1797.4,1592.4,1796.3z M1738.3,1796.3h26.4v15.3l-13.2,7.6L1738.3,1796.3z M1854.3,1796.3h42.4l36.7,21.2
		l21.3,36.8v42.4l-21.2,36.8l-36.8,21.2h-42.5l-36.8-21.2l-21.2-36.7v-42.5l21.2-36.8L1854.3,1796.3z M1986.3,1796.3h26.4
		l-13.2,22.9l-13.3-7.6V1796.3z M2049.2,1796.3h109.2c0.4,1.1,1,2.2,1.4,3.3c0.2,1,0.2,2,0.4,3l-94.6,54.6l-38.7-22.4L2049.2,1796.3
		z M2342.4,1796.3h109.4l22.3,38.6l-38.7,22.4l-94.6-54.6c0.2-1.1,0.3-2.3,0.4-3.4C2341.6,1798.3,2342.1,1797.4,2342.4,1796.3z
		 M2488.3,1796.3h26.4v15.3l-13.2,7.6L2488.3,1796.3z M2604.3,1796.3h42.4l36.7,21.2l21.3,36.8v42.4l-21.2,36.8l-36.8,21.2h-42.5
		l-36.8-21.2l-21.2-36.7v-42.5l21.2-36.7L2604.3,1796.3z M2736.3,1796.3h26.4l-13.2,22.9l-13.2-7.6V1796.3z M2799.2,1796.3h109.2
		c0.4,1.1,1,2.2,1.4,3.3c0.2,1,0.2,2,0.4,3l-94.6,54.6l-38.7-22.4L2799.2,1796.3z M73.4,1829.1l80.5,46.5L73.4,1922
		c-11-12.9-24.9-23.1-41.3-29.7v-33.6C48.5,1852.2,62.4,1842,73.4,1829.1z M823.4,1829.1l80.5,46.5l-80.5,46.5
		c-11-12.9-24.9-23.1-41.3-29.7v-33.6C798.5,1852.2,812.4,1842,823.4,1829.1z M1573.4,1829.1l80.5,46.5l-80.5,46.5
		c-11-12.9-24.9-23.1-41.3-29.7v-33.6C1548.5,1852.2,1562.4,1842,1573.4,1829.1z M2323.4,1829.1l80.5,46.5l-80.5,46.5
		c-11-12.9-24.9-23.1-41.3-29.7v-33.6C2298.5,1852.2,2312.4,1842,2323.4,1829.1z M677.5,1829.1c11,12.9,25,23.1,41.4,29.7v33.6
		c-16.4,6.6-30.3,16.7-41.3,29.6l-80.5-46.5L677.5,1829.1z M1427.6,1829.1c11,12.9,24.9,23.1,41.3,29.7v33.6
		c-16.4,6.6-30.3,16.7-41.3,29.6l-80.5-46.5L1427.6,1829.1z M2177.5,1829.1c11,12.9,25,23.1,41.4,29.7v33.6
		c-16.4,6.6-30.3,16.7-41.3,29.6l-80.5-46.5L2177.5,1829.1z M2927.6,1829.1c11,12.9,24.9,23.1,41.3,29.7v33.6
		c-16.4,6.6-30.3,16.7-41.3,29.6l-80.5-46.5L2927.6,1829.1z M240,1862.4l7.6,13.2l-7.6,13.2l-22.9-13.2L240,1862.4z M511.1,1862.4
		l22.9,13.2l-22.9,13.2l-7.6-13.2L511.1,1862.4z M990,1862.4l7.6,13.2l-7.6,13.2l-22.9-13.2L990,1862.4z M1261.1,1862.4l22.9,13.2
		l-22.9,13.2l-7.6-13.2L1261.1,1862.4z M1740,1862.4l7.6,13.2l-7.6,13.2l-22.9-13.2L1740,1862.4z M2011.1,1862.4l22.9,13.2
		l-22.9,13.2l-7.6-13.2L2011.1,1862.4z M2490,1862.4l7.6,13.2l-7.6,13.2l-22.9-13.2L2490,1862.4z M2761.1,1862.4l22.9,13.2
		l-22.9,13.2l-7.6-13.2L2761.1,1862.4z M185.5,1893.8l38.7,22.3l-22.4,38.7H92.5c-0.4-1.1-0.9-2.1-1.4-3.2c-0.2-1.1-0.2-2.1-0.4-3.1
		L185.5,1893.8z M565.5,1893.8l94.6,54.7c-0.2,1.2-0.3,2.3-0.5,3.5c-0.4,1-0.9,1.9-1.2,2.9H549.2l-22.3-38.7L565.5,1893.8z
		 M935.5,1893.8l38.6,22.3l-22.4,38.7H842.5c-0.4-1.1-0.9-2.1-1.3-3.2c-0.2-1.1-0.2-2.1-0.4-3.1L935.5,1893.8z M1315.6,1893.8
		l94.6,54.7c-0.2,1.2-0.3,2.3-0.5,3.5c-0.4,1-0.8,1.9-1.2,2.9h-109.3l-22.3-38.7L1315.6,1893.8z M1685.5,1893.8l38.7,22.3
		l-22.4,38.7h-109.3c-0.4-1.1-0.9-2.1-1.4-3.2c-0.2-1.1-0.2-2.1-0.4-3.1L1685.5,1893.8z M2065.5,1893.8l94.6,54.7
		c-0.2,1.2-0.3,2.3-0.5,3.5c-0.4,1-0.9,1.9-1.2,2.9h-109.3l-22.3-38.7L2065.5,1893.8z M2435.5,1893.8l38.6,22.3l-22.4,38.7h-109.3
		c-0.4-1.1-0.9-2.1-1.3-3.2c-0.2-1.1-0.2-2.1-0.4-3.1L2435.5,1893.8z M2815.6,1893.8l94.6,54.7c-0.2,1.2-0.3,2.3-0.5,3.5
		c-0.4,1-0.8,1.9-1.2,2.9h-109.3l-22.3-38.7L2815.6,1893.8z M1500.5,1913l11.9,3c22.9,5.8,41.5,21.8,51,42.8
		c2.6,23.2-5.5,46.6-22.6,63.3l-8.8,8.5l37.5,64.9l11.8-3.3c22.8-6.4,46.8-1.9,65.5,11.6c13.8,18.8,18.5,43.1,12.1,66.1l-3.3,11.8
		l64.9,37.5l8.6-8.8c16.5-16.9,39.6-25,62.5-22.7c21.3,9.4,37.5,28.1,43.5,51.2l3,11.8h0l-3,11.9c-5.8,22.9-21.8,41.5-42.8,50.9
		c-23.2,2.6-46.5-5.5-63.2-22.6l-8.6-8.8l-64.9,37.5l3.3,11.8c6.4,22.8,1.9,46.8-11.6,65.5c-18.8,13.8-43.1,18.5-66.1,12.1
		l-11.8-3.2l-37.5,64.9l8.8,8.6c16.9,16.5,25.1,39.6,22.7,62.6c-9.4,21.3-28.1,37.6-51.2,43.5l-11.8,3v0l-11.8-3
		c-23-5.8-41.6-21.8-51.1-42.9c-2.5-23.1,5.6-46.4,22.6-63.1l8.8-8.6l-37.5-64.9l-11.8,3.3c-22.8,6.4-46.9,1.9-65.6-11.7
		c-13.7-18.8-18.4-43-12-65.9l3.3-11.8l-64.9-37.5l-8.6,8.8c-16.5,17-39.7,25.1-62.7,22.7c-21.3-9.4-37.4-28.1-43.3-51.1l-3-11.9h0
		l3-11.9c5.9-23,21.8-41.6,42.9-51.1c23.1-2.5,46.4,5.6,63,22.6l8.6,8.8l64.9-37.4l-3.3-11.8c-6.4-22.8-1.8-46.9,11.7-65.7
		c18.8-13.7,43-18.3,65.9-11.9l11.8,3.2l37.4-64.9l-8.8-8.6c-16.9-16.5-25.1-39.7-22.7-62.6c9.4-21.3,28-37.4,51.1-43.3
		C1488.6,1916.1,1500.5,1913.1,1500.5,1913z M750.5,1913l11.9,3c22.9,5.8,41.5,21.8,51,42.8c2.6,23.2-5.5,46.6-22.6,63.3l-8.8,8.5
		l37.5,64.9l11.8-3.3c22.8-6.4,46.8-1.9,65.5,11.6c13.8,18.8,18.5,43.1,12.1,66.1l-3.3,11.8l64.9,37.5l8.6-8.8
		c16.5-16.9,39.6-25,62.5-22.7c21.3,9.4,37.6,28.1,43.5,51.2l3,11.8h0.1l-3,11.9c-5.8,22.9-21.8,41.5-42.8,50.9
		c-23.2,2.6-46.5-5.5-63.2-22.6l-8.6-8.8l-64.9,37.5l3.3,11.8c6.4,22.8,1.9,46.8-11.6,65.5c-18.8,13.8-43.1,18.5-66.1,12.1
		l-11.8-3.3l-37.5,64.9l8.8,8.6c16.9,16.5,25.1,39.6,22.7,62.6c-9.4,21.3-28,37.6-51.1,43.5l-11.9,3v0l-11.8-3
		c-23-5.8-41.6-21.8-51.1-42.9c-2.5-23.1,5.6-46.4,22.6-63.1l8.8-8.6l-37.5-64.9l-11.8,3.3c-22.8,6.4-46.9,1.9-65.7-11.7
		c-13.7-18.8-18.4-43-11.9-65.9l3.3-11.8l-64.9-37.5l-8.6,8.8c-16.5,17-39.7,25.1-62.6,22.7c-21.3-9.4-37.4-28.1-43.3-51.1l-3-11.9
		h0l3-11.9c5.9-23,21.8-41.6,42.9-51.1c23.1-2.5,46.4,5.6,63,22.6l8.5,8.8l64.9-37.4l-3.3-11.8c-6.4-22.8-1.8-46.9,11.7-65.7
		c18.8-13.7,43-18.3,65.9-11.9l11.8,3.3l37.4-64.9l-8.8-8.6c-16.9-16.5-25.1-39.7-22.7-62.6c9.4-21.3,28-37.4,51.1-43.3
		C738.6,1916.1,750.5,1913.1,750.5,1913z M2250.5,1913l11.9,3c22.9,5.8,41.5,21.8,51,42.8c2.6,23.2-5.5,46.6-22.6,63.3l-8.8,8.5
		l37.5,64.9l11.8-3.3c22.8-6.4,46.8-1.9,65.5,11.6c13.8,18.8,18.5,43.1,12.1,66.1l-3.3,11.8l64.9,37.5l8.6-8.8
		c16.5-16.9,39.6-25,62.5-22.7c21.3,9.4,37.6,28.1,43.5,51.2l3,11.8h0.1l-3,11.9c-5.8,22.9-21.8,41.5-42.8,50.9
		c-23.2,2.6-46.5-5.5-63.2-22.6l-8.6-8.8l-64.9,37.5l3.3,11.8c6.4,22.8,1.9,46.8-11.6,65.5c-18.8,13.8-43.1,18.5-66.1,12.1
		l-11.8-3.3l-37.5,64.9l8.8,8.6c16.9,16.5,25.1,39.6,22.7,62.6c-9.4,21.3-28,37.6-51.1,43.5l-11.9,3v0l-11.8-3
		c-23-5.8-41.6-21.8-51.1-42.9c-2.5-23.1,5.6-46.4,22.6-63.1l8.8-8.6l-37.5-64.9l-11.8,3.3c-22.8,6.4-46.9,1.9-65.7-11.7
		c-13.7-18.8-18.4-43-11.9-65.9l3.3-11.8l-64.9-37.5l-8.6,8.8c-16.5,17-39.7,25.1-62.6,22.7c-21.3-9.4-37.4-28.1-43.3-51.1l-3-11.9
		h0l3-11.9c5.9-23,21.8-41.6,42.9-51.1c23.1-2.5,46.4,5.6,63,22.6l8.6,8.8l64.9-37.4l-3.3-11.8c-6.4-22.8-1.8-46.9,11.7-65.7
		c18.8-13.7,43-18.3,65.9-11.9l11.8,3.3l37.4-64.9l-8.8-8.6c-16.9-16.5-25.1-39.7-22.7-62.6c9.4-21.3,28-37.4,51.1-43.3
		C2238.6,1916.1,2250.5,1913.1,2250.5,1913z M251.5,1931.9l13.2,7.6v15.3h-26.4L251.5,1931.9z M499.5,1931.9l13.2,22.9h-26.4v-15.3
		L499.5,1931.9z M1001.5,1931.9l13.2,7.6v15.3h-26.4L1001.5,1931.9z M1249.5,1931.9l13.2,22.9h-26.4v-15.3L1249.5,1931.9z
		 M1751.5,1931.9l13.2,7.6v15.3h-26.4L1751.5,1931.9z M1999.5,1931.9l13.2,22.9h-26.4v-15.3L1999.5,1931.9z M2501.5,1931.9l13.2,7.6
		v15.3h-26.4L2501.5,1931.9z M2749.5,1931.9l13.2,22.9h-26.4v-15.3L2749.5,1931.9z M90.6,1986.4h93l-46.5,80.5
		c-15.9-5.7-33.1-7.5-50.6-5l-16.8-29.1C80.6,2018.8,87.6,2003,90.6,1986.4z M220.1,1986.4h44.6v44.7l-94.7,54.6
		c-0.9-0.7-1.8-1.4-2.7-2.1c-0.7-0.8-1.2-1.7-1.9-2.5L220.1,1986.4z M296.3,1986.4h15.2l7.6,13.2l-22.9,13.2L296.3,1986.4z
		 M439.5,1986.4h15.3v26.4l-22.9-13.2L439.5,1986.4z M486.3,1986.4h44.6l54.6,94.6c-0.8,0.9-1.4,1.9-2.1,2.8
		c-0.8,0.6-1.7,1.2-2.5,1.9l-94.7-54.6L486.3,1986.4z M567.4,1986.4h92.9c3,16.7,10,32.4,21,46.3l-16.9,29.1
		c-17.5-2.5-34.6-0.6-50.6,5L567.4,1986.4z M840.6,1986.4h93l-46.5,80.5c-15.9-5.7-33.1-7.5-50.6-5l-16.8-29.1
		C830.6,2018.8,837.5,2003,840.6,1986.4z M970.1,1986.4h44.6v44.7l-94.6,54.6c-0.9-0.7-1.8-1.4-2.7-2.1c-0.7-0.8-1.3-1.7-2-2.5
		L970.1,1986.4z M1046.3,1986.4h15.2l7.6,13.2l-22.9,13.2V1986.4z M1189.5,1986.4h15.3v26.4l-22.9-13.2L1189.5,1986.4z
		 M1236.3,1986.4h44.6l54.6,94.6c-0.8,0.9-1.4,1.9-2.1,2.8c-0.8,0.6-1.7,1.2-2.5,1.9l-94.6-54.6L1236.3,1986.4z M1317.4,1986.4h92.9
		c3,16.7,10,32.4,21,46.3l-16.8,29.1c-17.5-2.5-34.7-0.6-50.6,5L1317.4,1986.4z M1590.6,1986.4h93l-46.5,80.5
		c-15.9-5.7-33.1-7.5-50.6-5l-16.8-29.1C1580.6,2018.8,1587.5,2003,1590.6,1986.4z M1720.1,1986.4h44.6v44.7l-94.7,54.6
		c-0.9-0.7-1.8-1.4-2.7-2.1c-0.7-0.8-1.2-1.7-1.9-2.5L1720.1,1986.4z M1796.3,1986.4h15.2l7.6,13.2l-22.9,13.2L1796.3,1986.4z
		 M1939.5,1986.4h15.3v26.4l-22.9-13.2L1939.5,1986.4z M1986.3,1986.4h44.6l54.6,94.6c-0.8,0.9-1.4,1.9-2.1,2.8
		c-0.8,0.6-1.7,1.2-2.5,1.9l-94.7-54.6L1986.3,1986.4z M2067.4,1986.4h92.9c3,16.7,10,32.4,21,46.3l-16.9,29.1
		c-17.5-2.5-34.6-0.6-50.6,5L2067.4,1986.4z M2340.6,1986.4h93l-46.5,80.5c-15.9-5.7-33.1-7.5-50.6-5l-16.8-29.1
		C2330.6,2018.8,2337.5,2003,2340.6,1986.4z M2470.1,1986.4h44.6v44.7l-94.6,54.6c-0.9-0.7-1.8-1.4-2.7-2.1c-0.7-0.8-1.3-1.7-2-2.5
		L2470.1,1986.4z M2546.3,1986.4h15.2l7.6,13.2l-22.9,13.2L2546.3,1986.4z M2689.5,1986.4h15.3v26.4l-22.9-13.2L2689.5,1986.4z
		 M2736.3,1986.4h44.6l54.6,94.6c-0.8,0.9-1.4,1.9-2.1,2.8c-0.8,0.6-1.7,1.2-2.5,1.9l-94.6-54.6L2736.3,1986.4z M2817.4,1986.4h92.9
		c3,16.7,10,32.4,21,46.3l-16.8,29.1c-17.5-2.5-34.7-0.6-50.6,5L2817.4,1986.4z M375.5,2003.5l13.2,7.6l-13.2,22.9l-13.2-22.9
		L375.5,2003.5z M1125.5,2003.5l13.2,7.6l-13.2,22.9l-13.2-22.9L1125.5,2003.5z M1875.5,2003.5l13.2,7.6l-13.2,22.9l-13.2-22.9
		L1875.5,2003.5z M2625.5,2003.5l13.2,7.6l-13.2,22.9l-13.2-22.9L2625.5,2003.5z M334.9,2026.9l22.4,38.7l-54.7,94.6
		c-1.1-0.2-2.2-0.2-3.4-0.4c-1-0.4-1.9-0.9-2.9-1.2v-109.4L334.9,2026.9z M416.1,2026.9l38.7,22.4v109.3c-1.1,0.4-2.1,0.9-3.1,1.3
		c-1.1,0.2-2.2,0.2-3.3,0.4l-54.6-94.7L416.1,2026.9z M1084.9,2026.9l22.4,38.7l-54.6,94.6c-1.1-0.2-2.3-0.2-3.4-0.4
		c-1-0.4-1.9-0.9-2.9-1.2v-109.4L1084.9,2026.9z M1166.1,2026.9l38.7,22.3v109.3c-1.1,0.4-2.1,0.9-3.1,1.3c-1.1,0.2-2.2,0.2-3.3,0.4
		l-54.6-94.7L1166.1,2026.9z M1834.9,2026.9l22.4,38.7l-54.7,94.6c-1.1-0.2-2.2-0.2-3.4-0.4c-1-0.4-1.9-0.9-2.9-1.2v-109.4
		L1834.9,2026.9z M1916.1,2026.9l38.7,22.4v109.3c-1.1,0.4-2.1,0.9-3.1,1.3c-1.1,0.2-2.2,0.2-3.3,0.4l-54.6-94.7L1916.1,2026.9z
		 M2584.9,2026.9l22.4,38.7l-54.6,94.6c-1.1-0.2-2.3-0.2-3.4-0.4c-1-0.4-1.9-0.9-2.9-1.2v-109.4L2584.9,2026.9z M2666.1,2026.9
		l38.7,22.3v109.3c-1.1,0.4-2.1,0.9-3.1,1.3c-1.1,0.2-2.2,0.2-3.3,0.4l-54.6-94.7L2666.1,2026.9z M264.7,2067.4v92.9
		c-16.7,3.1-32.4,10-46.3,21l-29.1-16.8c2.5-17.5,0.6-34.7-5-50.6L264.7,2067.4z M486.3,2067.4l80.5,46.4c-5.7,16-7.6,33.1-5,50.6
		l-29.1,16.8c-13.9-10.9-29.7-17.9-46.3-20.9V2067.4z M1014.7,2067.4v92.9c-16.7,3.1-32.4,10-46.3,21l-29.1-16.8
		c2.5-17.5,0.6-34.7-5-50.6L1014.7,2067.4z M1236.3,2067.4l80.4,46.4c-5.7,16-7.6,33.1-5,50.6l-29.1,16.8
		c-13.9-10.9-29.6-17.9-46.3-20.9L1236.3,2067.4z M1764.7,2067.4v92.9c-16.6,3.1-32.4,10-46.3,21l-29.1-16.8
		c2.5-17.5,0.6-34.7-5-50.6L1764.7,2067.4z M1986.3,2067.4l80.5,46.4c-5.7,16-7.6,33.1-5,50.6l-29.1,16.8
		c-13.9-10.9-29.7-17.9-46.3-20.9L1986.3,2067.4z M2514.7,2067.4v92.9c-16.7,3.1-32.4,10-46.3,21l-29.1-16.8
		c2.5-17.5,0.6-34.7-5-50.6L2514.7,2067.4z M2736.3,2067.4l80.4,46.4c-5.7,16-7.6,33.1-5,50.6l-29.1,16.8
		c-13.9-10.9-29.6-17.9-46.3-20.9L2736.3,2067.4z M0.5,2083.8v28.4c3.3,0,6.6,1.3,9.2,4l4.1,4.1H0.5v28.7h42l59.4,59.4v42.1h28.7
		V2237l4.2,4.1c2.6,2.6,4,6,4,9.3h28.4c0-10.7-4-21.4-12.1-29.5l-24.4-24.4v-34.5c0-22.9-18.9-41.8-41.8-41.8H54.4L30,2096
		C21.9,2087.9,11.2,2083.8,0.5,2083.8z M750.5,2083.8c-10.7,0-21.4,4-29.5,12.1l-24.3,24.3h-34.5c-22.9,0-41.8,18.9-41.8,41.8v34.5
		L596,2221c-8.1,8.1-12.1,18.8-12.1,29.5h28.4c0-3.3,1.4-6.6,4-9.3l4.1-4.1v13.4h28.7v-42.1l59.4-59.4h42h42l59.5,59.4v42.1h28.6
		v-13.4l4.2,4.1c2.6,2.6,4,6,4,9.3h28.4c0-10.7-4-21.4-12.1-29.5l-24.4-24.4v-34.5c0-22.9-18.9-41.8-41.8-41.8h-34.5l-24.3-24.3
		C772,2087.9,761.2,2083.9,750.5,2083.8z M1500.5,2083.8c-10.7,0-21.4,4-29.5,12.1l-24.3,24.3h-34.5c-22.9,0-41.8,18.9-41.8,41.8
		v34.5L1346,2221c-8.1,8.1-12.1,18.8-12.1,29.5h28.5c0-3.3,1.3-6.6,4-9.3l4.1-4.1v13.4h28.7v-42.1l59.4-59.4h42h42l59.4,59.4v42.1
		h28.7v-13.4l4.2,4.1c2.6,2.6,4,6,4,9.3h28.4c0-10.7-4-21.4-12.1-29.5l-24.4-24.4v-34.5c0-22.9-18.9-41.8-41.8-41.8h-34.5L1530,2096
		C1521.9,2087.9,1511.2,2083.9,1500.5,2083.8z M2250.5,2083.8c-10.7,0-21.4,4-29.5,12.1l-24.3,24.3h-34.5
		c-22.9,0-41.8,18.9-41.8,41.8v34.5L2096,2221c-8.1,8.1-12.1,18.8-12.1,29.5h28.4c0-3.3,1.4-6.6,4-9.3l4.1-4.1v13.4h28.7v-42.1
		l59.4-59.4h42h42l59.5,59.4v42.1h28.6v-13.4l4.2,4.1c2.6,2.6,4,6,4,9.3h28.4c0-10.7-4-21.4-12.1-29.5l-24.4-24.4v-34.5
		c0-22.9-18.9-41.8-41.8-41.8h-34.5l-24.3-24.3C2272,2087.9,2261.2,2083.9,2250.5,2083.8z M3000.5,2083.8c-10.7,0-21.4,4-29.5,12.1
		l-24.3,24.3h-34.5c-22.9,0-41.8,18.9-41.8,41.8v34.5L2846,2221c-8.1,8.1-12.1,18.8-12.1,29.5h28.5c0-3.3,1.3-6.6,4-9.3l4.1-4.1
		v13.4h28.7v-42.1l59.4-59.4h42v-28.7h-13.3l4.1-4.1c2.6-2.6,5.9-4,9.2-4V2083.8z M375.5,2097.1l46.5,80.5
		c-12.9,11-23.1,24.9-29.7,41.3h-33.6c-6.6-16.4-16.8-30.3-29.7-41.3L375.5,2097.1z M1125.5,2097.1l46.5,80.5
		c-12.9,11-23.1,24.9-29.7,41.3h-33.6c-6.6-16.4-16.8-30.3-29.7-41.3L1125.5,2097.1z M1875.5,2097.1l46.5,80.5
		c-12.9,11-23.1,24.9-29.7,41.3h-33.6c-6.6-16.4-16.8-30.3-29.7-41.3L1875.5,2097.1z M2625.5,2097.1l46.5,80.5
		c-12.9,11-23.1,24.9-29.7,41.3h-33.6c-6.6-16.4-16.8-30.3-29.7-41.3L2625.5,2097.1z M750.5,2112.2L750.5,2112.2
		c3.3,0,6.6,1.4,9.3,4l4.1,4.1h-13.3h-13.3l4.1-4.1C743.9,2113.6,747.2,2112.2,750.5,2112.2z M1500.5,2112.2L1500.5,2112.2
		c3.3,0,6.6,1.4,9.2,4l4.1,4.1h-13.3h-13.3l4.1-4.1C1493.9,2113.6,1497.2,2112.2,1500.5,2112.2z M2250.5,2112.2L2250.5,2112.2
		c3.3,0,6.6,1.4,9.3,4l4.1,4.1h-13.3h-13.3l4.1-4.1C2243.9,2113.6,2247.2,2112.2,2250.5,2112.2z M83,2149h5.8
		c7.5,0,13.1,5.6,13.1,13.1v5.8L83,2149z M662.2,2149h5.8l-18.9,18.9v-5.8C649.1,2154.6,654.6,2149,662.2,2149z M833,2149h5.8
		c7.5,0,13.1,5.6,13.1,13.1v5.8L833,2149z M1412.2,2149h5.8l-18.9,18.9v-5.8C1399.1,2154.6,1404.7,2149,1412.2,2149z M1583,2149h5.8
		c7.5,0,13.1,5.6,13.1,13.1v5.8L1583,2149z M2162.2,2149h5.8l-18.9,18.9v-5.8C2149.1,2154.6,2154.6,2149,2162.2,2149z M2333,2149
		h5.8c7.5,0,13.1,5.6,13.1,13.1v5.8L2333,2149z M2912.2,2149h5.8l-18.9,18.9v-5.8C2899.1,2154.6,2904.7,2149,2912.2,2149z
		 M101.9,2250.5v42.1L42.5,2352h-42v28.7h13.3l-4.1,4.1c-2.6,2.6-5.9,4-9.2,4v28.4c10.7,0,21.4-4,29.5-12.1l24.3-24.3h34.5
		c22.9,0,41.8-18.9,41.8-41.8v-34.5L155,2280c8.1-8.1,12.1-18.8,12.1-29.5h-28.4c0,3.3-1.3,6.6-4,9.3l-4.2,4.1v-13.4L101.9,2250.5z
		 M583.8,2250.5c0,10.7,4,21.4,12.1,29.5l24.4,24.4v34.5c0,22.9,18.9,41.8,41.8,41.8h34.5L721,2405c8.1,8.1,18.8,12.1,29.5,12.1
		c10.7,0,21.5-4,29.6-12.1l24.3-24.3h34.5c22.9,0,41.8-18.9,41.8-41.8v-34.5L905,2280c8.1-8.1,12.1-18.8,12.1-29.5h-28.4
		c0,3.3-1.3,6.7-4,9.3l-4.2,4.1v-13.4H852v42.1l-59.5,59.4h-42h-42l-59.4-59.4v-42.1h-28.7v13.4l-4.1-4.1c-2.6-2.6-4-6-4-9.3
		L583.8,2250.5z M1333.8,2250.5c0,10.7,4,21.4,12.1,29.5l24.4,24.4v34.5c0,22.9,18.9,41.8,41.8,41.8h34.5l24.3,24.3
		c8.1,8.1,18.8,12.2,29.5,12.2c10.7,0,21.4-4,29.5-12.1l24.3-24.3h34.5c22.9,0,41.8-18.9,41.8-41.8v-34.5l24.4-24.4
		c8.1-8.1,12.1-18.8,12.1-29.5h-28.4c0,3.3-1.3,6.6-4,9.3l-4.2,4.1v-13.4h-28.7v42.1l-59.4,59.4h-42h-42l-59.4-59.4v-42.1h-28.7
		v13.4l-4.1-4.1c-2.6-2.6-4-6-4-9.3H1333.8z M2083.8,2250.5c0,10.7,4,21.4,12.1,29.5l24.4,24.4v34.5c0,22.9,18.9,41.8,41.8,41.8
		h34.5l24.3,24.3c8.1,8.1,18.8,12.1,29.5,12.1c10.7,0,21.5-4,29.6-12.1l24.3-24.3h34.5c22.9,0,41.8-18.9,41.8-41.8v-34.5l24.4-24.4
		c8.1-8.1,12.1-18.8,12.1-29.5h-28.4c0,3.3-1.3,6.7-4,9.3l-4.2,4.1v-13.4H2352v42.1l-59.5,59.4h-42h-42l-59.4-59.4v-42.1h-28.7v13.4
		l-4.1-4.1c-2.6-2.6-4-6-4-9.3H2083.8z M2833.8,2250.5c0,10.7,4,21.4,12.1,29.5l24.4,24.4v34.5c0,22.9,18.9,41.8,41.8,41.8h34.5
		l24.3,24.3c8.1,8.1,18.8,12.2,29.5,12.2v-28.4c-3.3,0-6.6-1.3-9.2-4l-4.1-4.1h13.3v-28.7h-42l-59.4-59.4v-42.1h-28.7v13.4l-4.1-4.1
		c-2.6-2.6-4-6-4-9.3L2833.8,2250.5z M358.7,2282.1h33.7c6.6,16.4,16.7,30.3,29.6,41.3l-46.5,80.5l-46.5-80.5
		C342,2312.5,352.1,2298.5,358.7,2282.1z M1108.8,2282.1h33.6c6.6,16.4,16.7,30.3,29.6,41.3l-46.5,80.5l-46.4-80.5
		C1092,2312.5,1102.2,2298.5,1108.8,2282.1z M1858.7,2282.1h33.7c6.6,16.4,16.7,30.3,29.6,41.3l-46.5,80.5l-46.5-80.5
		C1842,2312.5,1852.1,2298.5,1858.7,2282.1z M2608.8,2282.1h33.6c6.6,16.4,16.7,30.3,29.6,41.3l-46.5,80.5l-46.4-80.5
		C2592,2312.5,2602.2,2298.5,2608.8,2282.1z M218.4,2319.7c13.9,10.9,29.7,17.9,46.3,20.9v92.9l-80.5-46.5c5.7-15.9,7.5-33.1,5-50.6
		L218.4,2319.7z M968.4,2319.7c13.9,10.9,29.7,17.9,46.3,20.9v92.9l-80.5-46.5c5.7-15.9,7.5-33.1,5-50.6L968.4,2319.7z
		 M1718.4,2319.7c13.9,10.9,29.7,17.9,46.3,20.9v92.9l-80.5-46.5c5.7-15.9,7.5-33.1,5-50.6L1718.4,2319.7z M2032.7,2319.7
		L2032.7,2319.7l29.1,16.9c-2.5,17.5-0.7,34.6,5,50.5l-80.5,46.5v-93C2003,2337.6,2018.8,2330.6,2032.7,2319.7z M2468.4,2319.7
		c13.9,10.9,29.7,17.9,46.3,20.9v92.9l-80.5-46.5c5.7-15.9,7.5-33.1,5-50.6L2468.4,2319.7z M2782.7,2319.7L2782.7,2319.7l29.1,16.9
		c-2.5,17.5-0.7,34.6,5,50.5l-80.5,46.5v-93C2753,2337.6,2768.8,2330.6,2782.7,2319.7z M532.7,2319.7l29.1,16.9
		c-2.5,17.5-0.7,34.6,5,50.5l-80.5,46.5v-92.9C503,2337.6,518.8,2330.7,532.7,2319.7z M1282.7,2319.7l29.1,16.9
		c-2.5,17.5-0.7,34.6,5,50.5l-80.5,46.5v-92.9C1253,2337.6,1268.8,2330.7,1282.7,2319.7z M101.9,2333.1v5.8
		c0,7.5-5.6,13.1-13.1,13.1H83L101.9,2333.1z M649.1,2333.1l18.9,19h-5.8C654.6,2352,649.1,2346.4,649.1,2333.1z M852,2333.1v5.8
		c0,7.5-5.6,13.1-13.1,13.1H833L852,2333.1z M1399.1,2333.1l18.9,19h-5.8C1404.7,2352,1399.1,2346.4,1399.1,2333.1z M1601.9,2333.1
		v5.8c0,7.5-5.6,13.1-13.1,13.1h-5.8L1601.9,2333.1z M2149.1,2333.1l18.9,19h-5.8C2154.6,2352,2149.1,2346.4,2149.1,2333.1z
		 M2352,2333.1v5.8c0,7.5-5.6,13.1-13.1,13.1h-5.8L2352,2333.1z M2899.1,2333.1l18.9,19h-5.8
		C2904.7,2352,2899.1,2346.4,2899.1,2333.1z M302.6,2340.7L302.6,2340.7l54.7,94.8l-22.3,38.6l-38.6-22.3v-109.3
		c1.1-0.4,2.2-1,3.3-1.4C300.6,2340.9,301.6,2340.9,302.6,2340.7z M1052.6,2340.7L1052.6,2340.7l54.7,94.8l-22.3,38.6l-38.6-22.3
		v-109.3c1.1-0.4,2.2-1,3.3-1.4C1050.6,2340.9,1051.6,2340.9,1052.6,2340.7z M1802.6,2340.7L1802.6,2340.7l54.7,94.8l-22.3,38.6
		l-38.6-22.3v-109.3c1.1-0.4,2.2-1,3.3-1.4C1800.6,2340.9,1801.6,2340.9,1802.6,2340.7z M2552.6,2340.7L2552.6,2340.7l54.7,94.8
		l-22.3,38.6l-38.6-22.3v-109.3c1.1-0.4,2.2-1,3.3-1.4C2550.6,2340.9,2551.6,2340.9,2552.6,2340.7z M448.4,2340.8
		c1.2,0.2,2.3,0.2,3.5,0.4c1,0.4,1.9,0.9,2.9,1.2v109.3l-38.7,22.3l-22.3-38.6L448.4,2340.8z M1198.4,2340.8
		c1.2,0.2,2.3,0.2,3.5,0.4c1,0.4,1.9,0.9,2.9,1.2v109.3l-38.7,22.3l-22.3-38.6L1198.4,2340.8z M1948.4,2340.8
		c1.2,0.2,2.3,0.2,3.5,0.4c1,0.4,1.9,0.9,2.9,1.2v109.3l-38.7,22.3l-22.3-38.6L1948.4,2340.8z M2698.4,2340.8
		c1.2,0.2,2.3,0.2,3.5,0.4c1,0.4,1.9,0.9,2.9,1.2v109.3l-38.7,22.3l-22.3-38.6L2698.4,2340.8z M737.2,2380.7h13.3h13.3l-4.1,4.1
		c-2.6,2.6-6,4-9.3,4C747.2,2388.7,743.9,2387.4,737.2,2380.7z M1487.2,2380.7h13.3h13.3l-4.1,4.1c-2.6,2.6-5.9,4-9.2,4
		C1497.2,2388.7,1493.9,2387.4,1487.2,2380.7z M2237.1,2380.7h13.3h13.3l-4.1,4.1c-2.6,2.6-6,4-9.3,4
		C2247.2,2388.7,2243.9,2387.4,2237.1,2380.7z M1670,2415.3L1670,2415.3l94.7,54.8v44.6H1720l-54.7-94.7c0.7-0.9,1.4-1.9,2.1-2.8
		C1668.3,2416.7,1669.2,2416,1670,2415.3z M170,2415.4l94.7,54.7v44.6H220l-54.7-94.6c0.7-0.9,1.4-1.9,2.1-2.7
		C168.3,2416.7,169.2,2416.1,170,2415.4z M920,2415.4l94.7,54.7v44.6H970l-54.6-94.6c0.7-0.9,1.3-1.8,2-2.7
		C918.3,2416.7,919.2,2416.1,920,2415.4z M2420,2415.4l94.7,54.7v44.6H2470l-54.6-94.6c0.7-0.9,1.3-1.8,2-2.7
		C2418.3,2416.7,2419.1,2416.1,2420,2415.4z M581,2415.4c0.9,0.7,1.9,1.4,2.8,2.1c0.6,0.8,1.2,1.7,1.9,2.5l-54.6,94.6h-44.7v-44.6
		L581,2415.4z M1331,2415.4c0.9,0.7,1.9,1.4,2.8,2.1c0.6,0.8,1.2,1.7,1.9,2.5l-54.6,94.6h-44.7v-44.6L1331,2415.4z M2081,2415.4
		c0.9,0.7,1.9,1.4,2.8,2.1c0.6,0.8,1.2,1.7,1.9,2.5l-54.6,94.6h-44.7v-44.6L2081,2415.4z M2831,2415.4c0.9,0.7,1.9,1.4,2.8,2.1
		c0.6,0.8,1.2,1.7,1.9,2.5l-54.6,94.6h-44.7v-44.6L2831,2415.4z M137.1,2434.2l46.5,80.5H90.6c-3-16.6-10-32.4-21-46.3l16.8-29.1
		C104,2441.7,121.2,2439.8,137.1,2434.2z M887.1,2434.2l46.5,80.5h-92.9c-3-16.6-10-32.4-21-46.3l16.9-29.1
		C854,2441.7,871.2,2439.8,887.1,2434.2z M1637.1,2434.2l46.5,80.5h-92.9c-3-16.6-10-32.4-21-46.3l16.8-29.1
		C1604,2441.7,1621.2,2439.8,1637.1,2434.2z M2387.1,2434.2l46.5,80.5h-92.9c-3-16.6-10-32.4-21-46.3l16.9-29.1
		C2354,2441.7,2371.2,2439.8,2387.1,2434.2z M613.9,2434.2c15.9,5.7,33.1,7.6,50.6,5l16.8,29.1c-10.9,13.9-17.8,29.6-20.9,46.3h-93
		L613.9,2434.2z M1363.9,2434.2c15.9,5.7,33.1,7.6,50.6,5l16.8,29.1c-10.9,13.9-17.8,29.6-20.9,46.3h-93L1363.9,2434.2z
		 M2113.9,2434.2c15.9,5.7,33.1,7.6,50.6,5l16.8,29.1c-10.9,13.9-17.8,29.6-20.9,46.3h-93L2113.9,2434.2z M2863.9,2434.2
		c15.9,5.7,33.1,7.6,50.6,5l16.8,29.1c-10.9,13.9-17.8,29.6-20.9,46.3h-93L2863.9,2434.2z M375.5,2467.1l13.1,22.8l-13.1,7.6
		l-13.2-7.6L375.5,2467.1z M1125.5,2467.1l13.1,22.8l-13.1,7.6l-13.2-7.6L1125.5,2467.1z M1875.5,2467.1l13.1,22.8l-13.1,7.6
		l-13.2-7.6L1875.5,2467.1z M2625.5,2467.1l13.1,22.8l-13.1,7.6l-13.2-7.6L2625.5,2467.1z M296.3,2488.3l22.8,13.2l-7.6,13.2h-15.2
		L296.3,2488.3z M454.8,2488.3v26.4h-15.3l-7.6-13.2L454.8,2488.3z M1046.3,2488.3l22.8,13.2l-7.6,13.2h-15.2L1046.3,2488.3z
		 M1204.8,2488.3v26.4h-15.3l-7.6-13.2L1204.8,2488.3z M1796.3,2488.3l22.8,13.2l-7.6,13.2h-15.2V2488.3z M1954.8,2488.3v26.4h-15.3
		l-7.6-13.2L1954.8,2488.3z M2546.3,2488.3l22.8,13.2l-7.6,13.2h-15.2V2488.3z M2704.8,2488.3v26.4h-15.3l-7.6-13.2L2704.8,2488.3z
		 M92.4,2546.3h109.4l22.3,38.7l-38.7,22.3l-94.6-54.6c0.2-1.1,0.3-2.3,0.4-3.4C91.6,2548.2,92.1,2547.3,92.4,2546.3z M238.3,2546.3
		h26.4v15.3l-13.2,7.6L238.3,2546.3z M354.3,2546.3h42.4l36.7,21.2l21.3,36.8v42.4l-21.2,36.8l-36.8,21.2h-42.5l-36.8-21.2
		l-21.2-36.7v-42.5l21.2-36.8L354.3,2546.3z M486.3,2546.3h26.4l-13.2,22.9l-13.3-7.6V2546.3z M549.2,2546.3h109.2
		c0.4,1.1,1,2.2,1.4,3.3c0.2,1,0.2,2.1,0.4,3.1l-94.6,54.6l-38.7-22.3L549.2,2546.3z M842.4,2546.3h109.4l22.3,38.7l-38.7,22.3
		l-94.6-54.6c0.2-1.1,0.3-2.3,0.4-3.4C841.6,2548.2,842.1,2547.3,842.4,2546.3z M988.3,2546.3h26.4v15.3l-13.2,7.6L988.3,2546.3z
		 M1104.3,2546.3h42.4l36.7,21.2l21.3,36.8v42.4l-21.2,36.8l-36.8,21.2h-42.5l-36.8-21.2l-21.2-36.7v-42.5l21.2-36.8L1104.3,2546.3z
		 M1236.3,2546.3h26.4l-13.2,22.9l-13.2-7.6V2546.3z M1299.2,2546.3h109.2c0.4,1.1,1,2.2,1.4,3.3c0.2,1,0.2,2.1,0.4,3.1l-94.6,54.6
		l-38.7-22.3L1299.2,2546.3z M1592.4,2546.3h109.4l22.3,38.7l-38.7,22.3l-94.6-54.6c0.2-1.1,0.3-2.3,0.4-3.4
		C1591.6,2548.2,1592.1,2547.3,1592.4,2546.3z M1738.3,2546.3h26.4v15.3l-13.2,7.6L1738.3,2546.3z M1854.3,2546.3h42.4l36.7,21.2
		l21.3,36.8v42.4l-21.2,36.8l-36.8,21.2h-42.5l-36.8-21.2l-21.2-36.7v-42.5l21.2-36.8L1854.3,2546.3z M1986.3,2546.3h26.4
		l-13.2,22.9l-13.3-7.6V2546.3z M2049.2,2546.3h109.2c0.4,1.1,1,2.2,1.4,3.3c0.2,1,0.2,2.1,0.4,3.1l-94.6,54.6l-38.7-22.3
		L2049.2,2546.3z M2342.4,2546.3h109.4l22.3,38.7l-38.7,22.3l-94.6-54.6c0.2-1.1,0.3-2.3,0.4-3.4
		C2341.6,2548.2,2342.1,2547.3,2342.4,2546.3z M2488.3,2546.3h26.4v15.3l-13.2,7.6L2488.3,2546.3z M2604.3,2546.3h42.4l36.7,21.2
		l21.3,36.8v42.4l-21.2,36.8l-36.8,21.2h-42.5l-36.8-21.2l-21.2-36.7v-42.5l21.2-36.8L2604.3,2546.3z M2736.3,2546.3h26.4
		l-13.2,22.9l-13.2-7.6V2546.3z M2799.2,2546.3h109.2c0.4,1.1,1,2.2,1.4,3.3c0.2,1,0.2,2.1,0.4,3.1l-94.6,54.6l-38.7-22.3
		L2799.2,2546.3z M73.4,2579l80.5,46.5L73.4,2672c-11-12.9-24.9-23.1-41.3-29.7v-33.6C48.5,2602.1,62.4,2591.9,73.4,2579z
		 M823.4,2579l80.5,46.5l-80.5,46.5c-11-12.9-24.9-23.1-41.3-29.7v-33.6C798.5,2602.1,812.4,2591.9,823.4,2579z M1573.4,2579
		l80.5,46.5l-80.5,46.5c-11-12.9-24.9-23.1-41.3-29.7v-33.6C1548.5,2602.1,1562.4,2591.9,1573.4,2579z M2323.4,2579l80.5,46.5
		l-80.5,46.5c-11-12.9-24.9-23.1-41.3-29.7v-33.6C2298.5,2602.1,2312.4,2591.9,2323.4,2579z M677.5,2579c11,12.9,25,23.1,41.4,29.7
		v33.6c-16.4,6.6-30.3,16.8-41.3,29.7l-80.5-46.5L677.5,2579z M1427.6,2579c11,12.9,24.9,23.1,41.3,29.7v33.6
		c-16.4,6.6-30.3,16.8-41.3,29.7l-80.5-46.5L1427.6,2579z M2177.5,2579c11,12.9,25,23.1,41.4,29.7v33.6
		c-16.4,6.6-30.3,16.8-41.3,29.7l-80.5-46.5L2177.5,2579z M2927.6,2579c11,12.9,24.9,23.1,41.3,29.7v33.6
		c-16.4,6.6-30.3,16.8-41.3,29.7l-80.5-46.5L2927.6,2579z M240,2612.3l7.6,13.2l-7.6,13.2l-22.9-13.2L240,2612.3z M511.1,2612.3
		l22.9,13.2l-22.9,13.2l-7.6-13.3L511.1,2612.3z M990,2612.3l7.6,13.2l-7.6,13.2l-22.9-13.2L990,2612.3z M1261.1,2612.3l22.9,13.2
		l-22.9,13.2l-7.6-13.3L1261.1,2612.3z M1740,2612.3l7.6,13.2l-7.6,13.2l-22.9-13.2L1740,2612.3z M2011.1,2612.3l22.9,13.2
		l-22.9,13.2l-7.6-13.3L2011.1,2612.3z M2490,2612.3l7.6,13.2l-7.6,13.2l-22.9-13.2L2490,2612.3z M2761.1,2612.3l22.9,13.2
		l-22.9,13.2l-7.6-13.3L2761.1,2612.3z M185.5,2643.7l38.7,22.3l-22.4,38.7H92.5c-0.4-1.1-0.9-2.1-1.4-3.2c-0.2-1.1-0.2-2.1-0.4-3.1
		L185.5,2643.7z M565.5,2643.7l94.6,54.6c-0.2,1.2-0.3,2.3-0.5,3.5c-0.4,1-0.9,1.8-1.2,2.8H549.2l-22.3-38.7L565.5,2643.7z
		 M935.5,2643.7l38.6,22.3l-22.4,38.7H842.5c-0.4-1.1-0.9-2.1-1.3-3.2c-0.2-1.1-0.2-2.1-0.4-3.1L935.5,2643.7z M1315.6,2643.7
		l94.6,54.6c-0.2,1.2-0.3,2.3-0.5,3.5c-0.4,1-0.8,1.8-1.2,2.8h-109.3l-22.3-38.7L1315.6,2643.7z M1685.5,2643.7l38.7,22.3
		l-22.4,38.7h-109.3c-0.4-1.1-0.9-2.1-1.4-3.2c-0.2-1.1-0.2-2.1-0.4-3.1L1685.5,2643.7z M2065.5,2643.7l94.6,54.6
		c-0.2,1.2-0.3,2.3-0.5,3.5c-0.4,1-0.9,1.8-1.2,2.8h-109.3l-22.3-38.7L2065.5,2643.7z M2435.5,2643.7l38.6,22.3l-22.4,38.7h-109.3
		c-0.4-1.1-0.9-2.1-1.3-3.2c-0.2-1.1-0.2-2.1-0.4-3.1L2435.5,2643.7z M2815.6,2643.7l94.6,54.6c-0.2,1.2-0.3,2.3-0.5,3.5
		c-0.4,1-0.8,1.8-1.2,2.8h-109.3l-22.3-38.7L2815.6,2643.7z M251.5,2681.9l13.2,7.6v15.3h-26.4L251.5,2681.9z M499.5,2681.9
		l13.2,22.9h-26.4v-15.3L499.5,2681.9z M1001.5,2681.9l13.2,7.6v15.3h-26.4L1001.5,2681.9z M1249.5,2681.9l13.2,22.9h-26.4v-15.3
		L1249.5,2681.9z M1751.5,2681.9l13.2,7.6v15.3h-26.4L1751.5,2681.9z M1999.5,2681.9l13.2,22.9h-26.4v-15.3L1999.5,2681.9z
		 M2501.5,2681.9l13.2,7.6v15.3h-26.4L2501.5,2681.9z M2749.5,2681.9l13.2,22.9h-26.4v-15.3L2749.5,2681.9z M90.6,2736.3h93
		l-46.5,80.5c-15.9-5.7-33.1-7.5-50.6-5l-16.8-29.2C80.6,2768.7,87.6,2753,90.6,2736.3z M220.1,2736.3h44.6v44.7l-94.7,54.6
		c-0.9-0.7-1.8-1.3-2.7-2c-0.7-0.8-1.2-1.7-1.9-2.5L220.1,2736.3z M296.3,2736.3h15.2l7.6,13.2l-22.9,13.2L296.3,2736.3z
		 M439.5,2736.3h15.3v26.4l-22.9-13.2L439.5,2736.3z M486.3,2736.3h44.6l54.6,94.6c-0.8,0.9-1.4,1.9-2.1,2.8
		c-0.8,0.6-1.7,1.2-2.5,1.9l-94.7-54.6L486.3,2736.3z M567.4,2736.3h92.9c3,16.7,10,32.4,21,46.3l-16.9,29.2
		c-17.5-2.5-34.6-0.6-50.6,5L567.4,2736.3z M840.6,2736.3h93l-46.5,80.5c-15.9-5.7-33.1-7.5-50.6-5l-16.8-29.2
		C830.6,2768.7,837.5,2753,840.6,2736.3z M970.1,2736.3h44.6v44.7l-94.6,54.6c-0.9-0.7-1.8-1.3-2.7-2c-0.7-0.8-1.3-1.7-2-2.5
		L970.1,2736.3z M1046.3,2736.3h15.2l7.6,13.2l-22.9,13.2V2736.3z M1189.5,2736.3h15.3v26.4l-22.9-13.2L1189.5,2736.3z
		 M1236.3,2736.3h44.6l54.6,94.6c-0.8,0.9-1.4,1.9-2.1,2.8c-0.8,0.6-1.7,1.2-2.5,1.9l-94.6-54.6L1236.3,2736.3z M1317.4,2736.3h92.9
		c3,16.7,10,32.4,21,46.3l-16.8,29.2c-17.5-2.5-34.7-0.6-50.6,5L1317.4,2736.3z M1590.6,2736.3h93l-46.5,80.5
		c-15.9-5.7-33.1-7.5-50.6-5l-16.8-29.2C1580.6,2768.7,1587.5,2753,1590.6,2736.3z M1720.1,2736.3h44.6v44.7l-94.7,54.6
		c-0.9-0.7-1.8-1.3-2.7-2c-0.7-0.8-1.2-1.7-1.9-2.5L1720.1,2736.3z M1796.3,2736.3h15.2l7.6,13.2l-22.9,13.2L1796.3,2736.3z
		 M1939.5,2736.3h15.3v26.4l-22.9-13.2L1939.5,2736.3z M1986.3,2736.3h44.6l54.6,94.6c-0.8,0.9-1.4,1.9-2.1,2.8
		c-0.8,0.6-1.7,1.2-2.5,1.9l-94.7-54.6L1986.3,2736.3z M2067.4,2736.3h92.9c3,16.7,10,32.4,21,46.3l-16.9,29.2
		c-17.5-2.5-34.6-0.6-50.6,5L2067.4,2736.3z M2340.6,2736.3h93l-46.5,80.5c-15.9-5.7-33.1-7.5-50.6-5l-16.8-29.2
		C2330.6,2768.7,2337.5,2753,2340.6,2736.3z M2470.1,2736.3h44.6v44.7l-94.6,54.6c-0.9-0.7-1.8-1.3-2.7-2c-0.7-0.8-1.3-1.7-2-2.5
		L2470.1,2736.3z M2546.3,2736.3h15.2l7.6,13.2l-22.9,13.2L2546.3,2736.3z M2689.5,2736.3h15.3v26.4l-22.9-13.2L2689.5,2736.3z
		 M2736.3,2736.3h44.6l54.6,94.6c-0.8,0.9-1.4,1.9-2.1,2.8c-0.8,0.6-1.7,1.2-2.5,1.9l-94.6-54.6L2736.3,2736.3z M2817.4,2736.3h92.9
		c3,16.7,10,32.4,21,46.3l-16.8,29.2c-17.5-2.5-34.7-0.6-50.6,5L2817.4,2736.3z M375.5,2753.4l13.2,7.6l-13.2,22.9l-13.2-22.9
		L375.5,2753.4z M1125.5,2753.4l13.2,7.6l-13.2,22.9l-13.2-22.9L1125.5,2753.4z M1875.5,2753.4l13.2,7.6l-13.2,22.9l-13.2-22.9
		L1875.5,2753.4z M2625.5,2753.4l13.2,7.6l-13.2,22.9l-13.2-22.9L2625.5,2753.4z M334.9,2776.8l22.4,38.7l-54.7,94.7
		c-1.1-0.2-2.2-0.2-3.4-0.4c-1-0.4-1.9-0.9-2.9-1.2v-109.4L334.9,2776.8z M416.1,2776.8l38.7,22.4v109.3c-1.1,0.4-2.1,0.9-3.1,1.3
		c-1.1,0.2-2.2,0.2-3.3,0.4l-54.6-94.7L416.1,2776.8z M1084.9,2776.8l22.4,38.7l-54.6,94.7c-1.1-0.2-2.3-0.2-3.4-0.4
		c-1-0.4-1.9-0.9-2.9-1.2v-109.4L1084.9,2776.8z M1166.1,2776.8l38.7,22.4v109.3c-1.1,0.4-2.1,0.9-3.1,1.3c-1.1,0.2-2.2,0.2-3.3,0.4
		l-54.6-94.7L1166.1,2776.8z M1834.9,2776.8l22.4,38.7l-54.7,94.7c-1.1-0.2-2.2-0.2-3.4-0.4c-1-0.4-1.9-0.9-2.9-1.2v-109.4
		L1834.9,2776.8z M1916.1,2776.8l38.7,22.4v109.3c-1.1,0.4-2.1,0.9-3.1,1.3c-1.1,0.2-2.2,0.2-3.3,0.4l-54.6-94.7L1916.1,2776.8z
		 M2584.9,2776.8l22.4,38.7l-54.6,94.7c-1.1-0.2-2.3-0.2-3.4-0.4c-1-0.4-1.9-0.9-2.9-1.2v-109.4L2584.9,2776.8z M2666.1,2776.8
		l38.7,22.4v109.3c-1.1,0.4-2.1,0.9-3.1,1.3c-1.1,0.2-2.2,0.2-3.3,0.4l-54.6-94.7L2666.1,2776.8z M264.7,2817.4v92.9
		c-16.7,3.1-32.4,10-46.3,21l-29.1-16.8c2.5-17.5,0.6-34.7-5-50.6L264.7,2817.4z M486.3,2817.4l80.5,46.4c-5.7,16-7.6,33.1-5,50.6
		l-29.1,16.8c-13.9-10.9-29.7-17.8-46.3-20.9V2817.4z M1014.7,2817.4v92.9c-16.7,3.1-32.4,10-46.3,21l-29.1-16.8
		c2.5-17.5,0.6-34.7-5-50.6L1014.7,2817.4z M1236.3,2817.4l80.4,46.4c-5.7,16-7.6,33.1-5,50.6l-29.1,16.8
		c-13.9-10.9-29.6-17.8-46.3-20.9L1236.3,2817.4z M1764.7,2817.4v92.9c-16.7,3.1-32.4,10-46.3,21l-29.1-16.8
		c2.5-17.5,0.6-34.7-5-50.6L1764.7,2817.4z M1986.3,2817.4l80.5,46.4c-5.7,16-7.6,33.1-5,50.6l-29.1,16.8
		c-13.9-10.9-29.7-17.8-46.3-20.9L1986.3,2817.4z M2514.7,2817.4v92.9c-16.7,3.1-32.4,10-46.3,21l-29.1-16.8
		c2.5-17.5,0.6-34.7-5-50.6L2514.7,2817.4z M2736.3,2817.4l80.4,46.4c-5.7,16-7.6,33.1-5,50.6l-29.1,16.8
		c-13.9-10.9-29.6-17.8-46.3-20.9L2736.3,2817.4z M0.5,2833.9v28.4c3.3,0,6.6,1.3,9.2,4l4.1,4.1H0.5v28.7h42l59.4,59.4v42.1h28.7
		V2987l4.2,4.2c2.6,2.6,4,5.9,4,9.3h28.4c0-10.7-4-21.4-12.1-29.5l-24.4-24.4v-34.5c0-22.9-18.9-41.8-41.8-41.8H54.4L30,2846
		C21.9,2837.9,11.2,2833.9,0.5,2833.9z M750.5,2833.9c-10.7,0-21.4,4-29.5,12.1l-24.3,24.3h-34.5c-22.9,0-41.8,18.9-41.8,41.8v34.5
		L596,2971c-8.1,8.1-12.1,18.8-12.1,29.5h28.4c0-3.3,1.4-6.6,4-9.3l4.1-4.2v13.4h28.7v-42.1l59.4-59.4h42h42l59.5,59.4v42.1h28.6
		v-13.4l4.2,4.2c2.6,2.6,4,5.9,4,9.3h28.4c0-10.7-4-21.4-12.1-29.5l-24.4-24.4v-34.5c0-22.9-18.9-41.8-41.8-41.8h-34.5l-24.3-24.3
		C772,2837.9,761.2,2833.9,750.5,2833.9z M1500.5,2833.9c-10.7,0-21.4,4-29.5,12.1l-24.3,24.3h-34.5c-22.9,0-41.8,18.9-41.8,41.8
		v34.5L1346,2971c-8.1,8.1-12.1,18.8-12.1,29.5h28.5c0-3.3,1.3-6.6,4-9.3l4.1-4.2v13.4h28.7v-42.1l59.4-59.4h42h42l59.4,59.4v42.1
		h28.7v-13.4l4.2,4.2c2.6,2.6,4,5.9,4,9.3h28.4c0-10.7-4-21.4-12.1-29.5l-24.4-24.4v-34.5c0-22.9-18.9-41.8-41.8-41.8h-34.5
		L1530,2846C1521.9,2837.9,1511.2,2833.9,1500.5,2833.9z M2250.5,2833.9c-10.7,0-21.4,4-29.5,12.1l-24.3,24.3h-34.5
		c-22.9,0-41.8,18.9-41.8,41.8v34.5L2096,2971c-8.1,8.1-12.1,18.8-12.1,29.5h28.4c0-3.3,1.4-6.6,4-9.3l4.1-4.2v13.4h28.7v-42.1
		l59.4-59.4h42h42l59.5,59.4v42.1h28.6v-13.4l4.2,4.2c2.6,2.6,4,5.9,4,9.3h28.4c0-10.7-4-21.4-12.1-29.5l-24.4-24.4v-34.5
		c0-22.9-18.9-41.8-41.8-41.8h-34.5l-24.3-24.3C2272,2837.9,2261.2,2833.9,2250.5,2833.9z M3000.5,2833.9c-10.7,0-21.4,4-29.5,12.1
		l-24.3,24.3h-34.5c-22.9,0-41.8,18.9-41.8,41.8v34.5L2846,2971c-8.1,8.1-12.1,18.8-12.1,29.5h28.5c0-3.3,1.3-6.6,4-9.3l4.1-4.2
		v13.4h28.7v-42.1l59.4-59.4h42v-28.7h-13.3l4.1-4.1c2.6-2.6,5.9-4,9.2-4V2833.9z M375.5,2847.1l46.5,80.5
		c-12.9,11-23.1,24.9-29.7,41.4h-33.6c-6.6-16.4-16.8-30.4-29.7-41.3L375.5,2847.1z M1125.5,2847.1l46.5,80.5
		c-12.9,11-23.1,24.9-29.7,41.4h-33.6c-6.6-16.4-16.8-30.4-29.7-41.3L1125.5,2847.1z M1875.5,2847.1l46.5,80.5
		c-12.9,11-23.1,24.9-29.7,41.4h-33.6c-6.6-16.4-16.8-30.4-29.7-41.3L1875.5,2847.1z M2625.5,2847.1l46.5,80.5
		c-12.9,11-23.1,24.9-29.7,41.4h-33.6c-6.6-16.4-16.8-30.4-29.7-41.3L2625.5,2847.1z M750.5,2862.2c3.3,0,6.6,1.3,9.3,4l4.1,4.1
		h-13.3h-13.3l4.1-4.1C743.9,2863.6,747.2,2862.2,750.5,2862.2z M1500.5,2862.2c3.3,0,6.6,1.3,9.2,4l4.1,4.1h-13.3h-13.3l4.1-4.1
		C1493.9,2863.6,1497.2,2862.2,1500.5,2862.2z M2250.5,2862.2c3.3,0,6.6,1.3,9.3,4l4.1,4.1h-13.3h-13.3l4.1-4.1
		C2243.9,2863.6,2247.2,2862.2,2250.5,2862.2z M83,2899h5.8c7.5,0,13.1,5.6,13.1,13.1v5.8L83,2899z M662.2,2899h5.8l-18.9,18.9v-5.8
		C649.1,2904.6,654.6,2899,662.2,2899z M833,2899h5.8c7.5,0,13.1,5.6,13.1,13.1v5.8L833,2899z M1412.2,2899h5.8l-18.9,18.9v-5.8
		C1399.1,2904.6,1404.7,2899,1412.2,2899z M1583,2899h5.8c7.5,0,13.1,5.6,13.1,13.1v5.8L1583,2899z M2162.2,2899h5.8l-18.9,18.9
		v-5.8C2149.1,2904.6,2154.6,2899,2162.2,2899z M2333,2899h5.8c7.5,0,13.1,5.6,13.1,13.1v5.8L2333,2899z M2912.2,2899h5.8
		l-18.9,18.9v-5.8C2899.1,2904.6,2904.7,2899,2912.2,2899z"/>
</g>
</svg>
