<?xml version="1.0" encoding="utf-8"?>
<!-- Generator: Adobe Illustrator 22.0.0, SVG Export Plug-In . SVG Version: 6.00 Build 0)  -->
<svg version="1.1" id="Layer_1" xmlns="http://www.w3.org/2000/svg" xmlns:xlink="http://www.w3.org/1999/xlink" x="0px" y="0px"
	 viewBox="0 0 1200 1200" style="enable-background:new 0 0 1200 1200;" xml:space="preserve">
<style type="text/css">
	.st0{fill-rule:evenodd;clip-rule:evenodd;fill:#DDAA66;}
	.st1{fill-rule:evenodd;clip-rule:evenodd;fill:#111111;}
</style>
<rect class="st0" width="1200" height="1200"/>
<g>
	<path class="st1" d="M137.5,367.3v95.4h95.3L300,530l67.4-67.3h95.3v-95.4l67.4-67.3l-67.4-67.4v-95.3h-95.3L300,70l-67.3,67.3
		h-95.3v95.3L70,300L137.5,367.3z M0,0h190.2l55.7,55.7L300,1.6l54.2,54.1L409.9,0H600v191.2l-54.6,54.6l54.1,54.2l-54.1,54.1
		l54.6,54.7V600H413.7l-59.5-59.6L300,594.6l-54.1-54.2L186.3,600H0V408.8l54.7-54.7L0.7,300l54.1-54.2L0,191.2V0z M117.5,117.3
		h106.9L300,41.7l75.7,75.7h107v107l75.7,75.7l-75.7,75.7v106.9h-107L300,558.2l-75.7-75.7H117.5V375.7L41.8,300l75.7-75.7V117.3z"
		/>
	<path class="st0" d="M188.3,28H22.5v165.8L62.1,231V67.6h163.5L188.3,28z M411.7,28h165.9v165.8L537.9,231V67.6H374.6L411.7,28z
		 M411.7,573.6h165.9V407.7l-39.7-37.1v163.3H374.6L411.7,573.6z M188.3,573.6H22.5V407.7l39.6-37.1v163.3h163.5L188.3,573.6z"/>
	<path class="st0" d="M170.9,353.4v75.7h75.7l53.4,53.4l53.6-53.4h75.7v-75.7l53.4-53.4l-53.4-53.4v-75.7h-75.7L300,117.3
		l-53.4,53.6h-75.7v75.7L117.5,300L170.9,353.4z M266.4,313.9v19.7h19.7l13.8,13.8l14-13.8h19.6v-19.7l14-13.9l-14-14v-19.6H314
		l-14-13.9l-13.8,13.9h-19.7V286l-13.9,14L266.4,313.9z M194.9,343.5v61.5h61.5l43.5,43.6l43.6-43.6h61.5v-61.5l43.5-43.5
		l-43.5-43.5v-61.7h-61.5L300,151.3l-43.5,43.5h-61.5v61.7L151.4,300L194.9,343.5z"/>
	<path class="st0" d="M221.1,332.7v46.3h46.3l32.7,32.7l32.8-32.7h46.3v-46.3l32.7-32.7l-32.7-32.7v-46.3h-46.3L300,188.3
		l-32.7,32.8h-46.3v46.3L188.4,300L221.1,332.7z M244.2,323.1v32.7h32.7l23.1,23.1l23.1-23.1h32.8v-32.7l23.1-23.1l-23.1-23.1v-32.7
		h-32.8L300,221.1l-23.1,23.1h-32.7v32.7L221.1,300L244.2,323.1z"/>
</g>
<g>
	<path class="st1" d="M737.5,367.3v95.4h95.3L900,530l67.4-67.3h95.3v-95.4l67.4-67.3l-67.4-67.4v-95.3h-95.3L900,70l-67.3,67.3
		h-95.3v95.3L670,300L737.5,367.3z M600,0h190.2l55.7,55.7L900,1.6l54.2,54.1L1009.9,0H1200v191.2l-54.6,54.6l54.1,54.2l-54.1,54.1
		l54.6,54.7V600h-186.3l-59.5-59.6L900,594.6l-54.1-54.2L786.3,600H600V408.8l54.7-54.7L600.7,300l54.1-54.2L600,191.2V0z
		 M717.5,117.3h106.9L900,41.7l75.7,75.7h107v107l75.7,75.7l-75.7,75.7v106.9h-107L900,558.2l-75.7-75.7H717.5V375.7L641.8,300
		l75.7-75.7V117.3z"/>
	<path class="st0" d="M788.3,28H622.5v165.8l39.6,37.2V67.6h163.5L788.3,28z M1011.7,28h165.9v165.8l-39.7,37.2V67.6H974.6
		L1011.7,28z M1011.7,573.6h165.9V407.7l-39.7-37.1v163.3H974.6L1011.7,573.6z M788.3,573.6H622.5V407.7l39.6-37.1v163.3h163.5
		L788.3,573.6z"/>
	<path class="st0" d="M770.9,353.4v75.7h75.7l53.4,53.4l53.6-53.4h75.7v-75.7l53.4-53.4l-53.4-53.4v-75.7h-75.7L900,117.3
		l-53.4,53.6h-75.7v75.7L717.5,300L770.9,353.4z M866.4,313.9v19.7h19.7l13.8,13.8l14-13.8h19.6v-19.7l14-13.9l-14-14v-19.6H914
		l-14-13.9l-13.8,13.9h-19.7V286l-13.9,14L866.4,313.9z M794.9,343.5v61.5h61.5l43.5,43.6l43.6-43.6h61.5v-61.5l43.5-43.5
		l-43.5-43.5v-61.7h-61.5L900,151.3l-43.5,43.5h-61.5v61.7L751.4,300L794.9,343.5z"/>
	<path class="st0" d="M821.1,332.7v46.3h46.3l32.7,32.7l32.8-32.7h46.3v-46.3l32.7-32.7l-32.7-32.7v-46.3h-46.3L900,188.3
		l-32.7,32.8h-46.3v46.3L788.4,300L821.1,332.7z M844.2,323.1v32.7h32.7l23.1,23.1l23.1-23.1h32.8v-32.7l23.1-23.1l-23.1-23.1v-32.7
		h-32.8L900,221.1l-23.1,23.1h-32.7v32.7L821.1,300L844.2,323.1z"/>
</g>
<g>
	<path class="st1" d="M462.5,832.7v-95.4h-95.3L300,670l-67.4,67.3h-95.3v95.4L69.9,900l67.4,67.4v95.3h95.3L300,1130l67.3-67.3
		h95.3v-95.3L530,900L462.5,832.7z M600,1200H409.8l-55.7-55.7l-54.1,54.1l-54.2-54.1l-55.7,55.7H0v-191.2l54.6-54.6L0.5,900
		l54.1-54.1L0,791.2V600h186.3l59.5,59.6l54.2-54.2l54.1,54.2l59.6-59.6H600v191.2l-54.7,54.7l54.1,54.1l-54.1,54.2l54.7,54.6V1200z
		 M482.5,1082.7H375.7l-75.7,75.7l-75.7-75.7h-107v-107L41.7,900l75.7-75.7V717.5h107l75.7-75.7l75.7,75.7h106.9v106.9l75.7,75.7
		l-75.7,75.7V1082.7z"/>
	<path class="st0" d="M411.7,1172h165.8v-165.8L537.9,969v163.5H374.5L411.7,1172z M188.3,1172H22.3v-165.8L62.1,969v163.5h163.3
		L188.3,1172z M188.3,626.4H22.3v165.9l39.7,37.1V666.1h163.3L188.3,626.4z M411.7,626.4h165.8v165.9l-39.6,37.1V666.1H374.5
		L411.7,626.4z"/>
	<path class="st0" d="M429.1,846.6v-75.7h-75.7L300,717.5l-53.6,53.4h-75.7v75.7L117.3,900l53.4,53.4v75.7h75.7l53.6,53.6l53.4-53.6
		h75.7v-75.7l53.4-53.4L429.1,846.6z M333.6,886.2v-19.7h-19.7L300,852.6l-14,13.8h-19.6v19.7l-14,13.9l14,14v19.6H286l14,13.9
		l13.8-13.9h19.7V914l13.9-14L333.6,886.2z M405.1,856.5v-61.5h-61.5L300,751.3l-43.6,43.6h-61.5v61.5L151.3,900l43.5,43.5v61.7
		h61.5l43.6,43.5l43.5-43.5h61.5v-61.7l43.5-43.5L405.1,856.5z"/>
	<path class="st0" d="M378.9,867.3v-46.3h-46.3L300,788.4l-32.8,32.7h-46.3v46.3L188.3,900l32.7,32.7v46.3h46.3l32.8,32.8l32.7-32.8
		h46.3v-46.3l32.7-32.7L378.9,867.3z M355.8,876.9v-32.7h-32.7L300,821.1l-23.1,23.1h-32.8v32.7L220.9,900l23.1,23.1v32.7h32.8
		l23.1,23.1l23.1-23.1h32.7v-32.7l23.1-23.1L355.8,876.9z"/>
</g>
<g>
	<path class="st1" d="M1062.5,832.7v-95.4h-95.3L900,670l-67.4,67.3h-95.3v95.4L669.9,900l67.4,67.4v95.3h95.3L900,1130l67.3-67.3
		h95.3v-95.3L1130,900L1062.5,832.7z M1200,1200h-190.2l-55.7-55.7l-54.1,54.1l-54.2-54.1l-55.7,55.7H600v-191.2l54.6-54.6
		L600.5,900l54.1-54.1L600,791.2V600h186.3l59.5,59.6l54.2-54.2l54.1,54.2l59.6-59.6H1200v191.2l-54.7,54.7l54.1,54.1l-54.1,54.2
		l54.7,54.6V1200z M1082.5,1082.7H975.7l-75.7,75.7l-75.7-75.7h-107v-107L641.7,900l75.7-75.7V717.5h107l75.7-75.7l75.7,75.7h106.9
		v106.9l75.7,75.7l-75.7,75.7V1082.7z"/>
	<path class="st0" d="M1011.7,1172h165.8v-165.8l-39.6-37.2v163.5H974.5L1011.7,1172z M788.3,1172H622.3v-165.8l39.7-37.2v163.5
		h163.3L788.3,1172z M788.3,626.4H622.3v165.9l39.7,37.1V666.1h163.3L788.3,626.4z M1011.7,626.4h165.8v165.9l-39.6,37.1V666.1
		H974.5L1011.7,626.4z"/>
	<path class="st0" d="M1029.1,846.6v-75.7h-75.7L900,717.5l-53.6,53.4h-75.7v75.7L717.3,900l53.4,53.4v75.7h75.7l53.6,53.6
		l53.4-53.6h75.7v-75.7l53.4-53.4L1029.1,846.6z M933.6,886.2v-19.7h-19.7L900,852.6l-14,13.8h-19.6v19.7l-14,13.9l14,14v19.6H886
		l14,13.9l13.8-13.9h19.7V914l13.9-14L933.6,886.2z M1005.1,856.5v-61.5h-61.5L900,751.3l-43.6,43.6h-61.5v61.5L751.3,900l43.5,43.5
		v61.7h61.5l43.6,43.5l43.5-43.5h61.5v-61.7l43.5-43.5L1005.1,856.5z"/>
	<path class="st0" d="M978.9,867.3v-46.3h-46.3L900,788.4l-32.8,32.7h-46.3v46.3L788.3,900l32.7,32.7v46.3h46.3l32.8,32.8l32.7-32.8
		h46.3v-46.3l32.7-32.7L978.9,867.3z M955.8,876.9v-32.7h-32.7L900,821.1l-23.1,23.1h-32.8v32.7L820.9,900l23.1,23.1v32.7h32.8
		l23.1,23.1l23.1-23.1h32.7v-32.7l23.1-23.1L955.8,876.9z"/>
</g>
</svg>
