<?xml version="1.0" encoding="utf-8"?>
<!-- Generator: Adobe Illustrator 22.0.0, SVG Export Plug-In . SVG Version: 6.00 Build 0)  -->
<svg version="1.1" id="Layer_1" xmlns="http://www.w3.org/2000/svg" xmlns:xlink="http://www.w3.org/1999/xlink" x="0px" y="0px"
	 viewBox="0 0 1200 1200" style="enable-background:new 0 0 1200 1200;" xml:space="preserve">
<style type="text/css">
	.st0{fill:#FFFFFF;}
	.st1{fill:none;stroke:#111111;stroke-width:3;stroke-miterlimit:10;}
	.st2{fill:#111111;}
</style>
<rect class="st0" width="1200" height="1200"/>
<circle class="st1" cx="600" cy="600" r="500"/>
<g>
	<path class="st2" d="M787.9,408.7c0.3-0.3,0.8-0.2,0.9,0.2c2.7,7.4,23,67.4,6.9,170.6c-11.1,70.5,1.8,118.2,41.2,129
		c39.3,10.7,70.2-25.4,115.9-32.2c0.3,0,0.5-0.3,0.5-0.6v-2.9c0-0.3-0.2-0.5-0.4-0.6c-6.7-2.1-92.9-28.2-111.9-12.7
		c-19.7,16.1,0.6,40,12.5,72.3c0,0-8.8,11.5-12.3,23.8c-0.3,1.2-2,1.1-2.3-0.1c-4-17.8-16.6-76.1-15.6-92.7
		c1.2-19.7,15.8-48.5,66.3-34.6c56.3,15.5,104.1,25.2,125.7,24.6c0.8,0,1.3,0.7,1.2,1.4l-5.2,27.2c-0.1,0.5-0.5,0.9-1,1
		c-5.3,0.6-33.7,4.2-50.2,10.9c-17,7-74.6,43-114.1,47.8s-66.3-35.8-68.1-81.8c-1.8-46,7.5-118.5,4.2-155.3
		c-1.7-19.2-7.1-48-17.1-58.9c-0.1-0.1-0.2-0.3-0.1-0.5C765.3,442.3,768.5,425.7,787.9,408.7z"/>
	<path class="st2" d="M556.2,607.9l4.1,5c0.1,0.1,0.1,0.2,0.1,0.3c0.5,4,9.6,78.6,34.6,99c25.7,20.9,56.1,9.6,59.1-35.2
		c3-44.8,9.5-78.3,26.3-99.7c14.9-19.1,28.5-22.6,56.7,7.2c32.8,34.6,71.7,29.3,95.6-20.9c17.2-36.2,38.2-59.1,42.4-10.7
		c3.4,39.1-5.3,46.6-8.8,48c-0.5,0.2-1-0.3-0.8-0.8c1.9-4.1,7.5-19.2-0.6-42.5c0,0-7.2,19.1-23,45.1c-19.4,31.8-58.2,49.9-91.4,28.1
		c-25.2-16.6-40-42.4-56.7-25.1c-16.7,17.3-23.3,43.6-26.9,83s-18.8,80.9-56.1,57.3c-40.3-25.5-52.3-80.6-55.7-137.6
		C555.1,607.7,555.8,607.4,556.2,607.9z"/>
	<path class="st2" d="M666.7,501.8c1.7-7.9,6.6-29.2,12.3-40.8c0.1-0.2,0.3-0.3,0.5-0.3c2.5-0.3,18.6-1.4,20.3,27.8
		c1.8,31.7-4.8,41.8-12.5,60.3c-7.8,18.5-39.4,53.2-65.7,20.3c0,0-28.7,37-49.6,38.2c-20.9,1.2-16.7-35.2-22.1-45.4
		c-5.4-10.2-16.7,14.3-23.3,32.8c-6.6,18.5-30.2,86.9-66,84.5s-34.8-57-32.2-76.4c3.3-25.1,16.5-66.1,32.1-88.6c0.2-0.3,0.7-0.3,1,0
		l1.1,1.4c0.1,0.2,0.2,0.4,0,0.6c-1.8,3.2-15.4,28.3-20.7,57c-4.6,25.1-4.5,56.4,7.5,66s34.9,5.1,50.5-20.6
		c15.5-25.7,25.1-65.1,37-81.8c11.9-16.7,22.7-15.5,27.5-0.6c4.8,14.9-0.4,27.3,7.2,34c10.5,9.3,29,0.9,35.8-11.3
		c5.6-10.1,5.7-17.6-2.7-20.6c-8.4-3-14.6,6.9-21.2,5.1c0,0-2.4-11.9,9-28.7c11.3-16.7,25.7-21.5,47.8-14.3s18.5,19.1,4.8,45.4
		c0,0,16.7,3.6,28.1-6.6c11.3-10.2,18.4-21.4,8.4-32.8c-5.2-6-10.1-4.9-12.8-3.3C667.6,503.6,666.5,502.8,666.7,501.8z"/>
	<path class="st2" d="M480.3,580.7c-16-28.8-56.9-27-83.3-58.2c6.8-0.5,13.5-1.5,17.4-2.2c1.1-0.2,1.4-1.7,0.4-2.2
		c-10.7-5.9-24.8-11.9-29.5-13.8c-0.8-0.3-1.6,0.3-1.6,1.1v17.9c0,0,7.8,22.1,44.8,43.6s58.5,23.9,46,35.8
		c-12.5,11.9-52.6,46.6-90.8,58.5c-23,7.2-39,5.3-28.1-56.6c0-0.1,0-0.2,0-0.3l-1.1-3c-0.2-0.5-1-0.5-1.1,0
		c-3.6,11.8-9.6,36-9.6,52.1c0,19.7,3.9,32.9,21.2,33.1c20.6,0.3,69-24.2,93.5-48.1C482.1,615.4,492.3,602.2,480.3,580.7z"/>
	<path class="st2" d="M402.1,565.2c-12.7-5.7-63.9-6-74.6-19.7c-8.1-10.4,28.7-56.1,48.4-66.9c19.7-10.7,22.1,8.4,22.1,8.4
		c1.5,5.1,2.7,6.3,8.1-5.7c5.4-11.9,3.6-45.4-22.7-32.8c-26.3,12.5-66.9,59.1-68.1,97.3s37.9,38.5,61.8,40.9
		c25.3,2.5,33.7,3.9-6.9,32.5c-40.6,28.7-97.9,44.2-135,37.6s-43-40-40.6-68.7c1.6-19.6,9.1-37.7,14-49.1c0-0.1,0.1-0.2,0-0.3
		l-0.4-1.7c-0.1-0.5-0.8-0.7-1.1-0.2c-7.9,14.1-21.5,43.2-23.6,79.7c-3,52,26.9,75.8,81.8,69.9s116.3-48.8,133.8-70.5
		C416.4,594.5,420.6,573.6,402.1,565.2z"/>
	<path class="st2" d="M600.2,431.7c4,1.3,21.4,7.6,31.5,20c0.2,0.2,0.3,0.5,0.3,0.8c-0.1,2.4-1.3,14.5-15.9,36.3
		c-0.4,0.6-1.1,0.7-1.7,0.3c-3.7-3-17.7-13.8-30.8-18.9c-0.5-0.2-0.8-0.8-0.7-1.3c1-4.1,5.3-20.5,15.9-36.7
		C599.2,431.8,599.7,431.6,600.2,431.7z"/>
	<path class="st2" d="M614,610.3c4,1.3,21.4,7.6,31.5,20c0.2,0.2,0.3,0.5,0.3,0.8c-0.1,2.4-1.3,14.5-15.9,36.3
		c-0.4,0.6-1.1,0.7-1.7,0.3c-3.7-3-17.7-13.8-30.8-18.9c-0.5-0.2-0.8-0.8-0.7-1.3c1-4.1,5.3-20.5,15.9-36.7
		C612.9,610.3,613.5,610.1,614,610.3z"/>
	<path class="st2" d="M714.9,631.2c4,1.3,21.4,7.6,31.5,20c0.2,0.2,0.3,0.5,0.3,0.8c-0.1,2.4-1.3,14.5-15.9,36.3
		c-0.4,0.6-1.1,0.7-1.7,0.3c-3.7-3-17.7-13.8-30.8-18.9c-0.5-0.2-0.8-0.8-0.7-1.3c1-4.1,5.3-20.5,15.9-36.7
		C713.9,631.2,714.4,631,714.9,631.2z"/>
	<path class="st2" d="M968.1,701.1c4,1.3,21.4,7.6,31.5,20c0.2,0.2,0.3,0.5,0.3,0.8c-0.1,2.4-1.3,14.5-15.9,36.3
		c-0.4,0.6-1.1,0.7-1.7,0.3c-3.7-3-17.7-13.8-30.8-18.9c-0.5-0.2-0.8-0.8-0.7-1.3c1-4.1,5.3-20.5,15.9-36.7
		C967.1,701.1,967.6,700.9,968.1,701.1z"/>
	<g>
		<path class="st2" d="M498,413.4c0,0,15.2,28.2,29.5,61.6c0,0-18.6-14.3-39.3-31.8C488.2,443.2,490.7,430.1,498,413.4z"/>
		<path class="st2" d="M488.2,443.2c0,0,5.3,3,8.2,19.2c2.8,16.2,12.4,213.9,12.4,213.9s4.9,56.8-4.9,74.6c0,0,28.5-24.1,23.4-76.2
			c-5.5-55.6-16.5-219.9-16.5-219.9S502.6,435,488.2,443.2z"/>
	</g>
</g>
</svg>
