<?xml version="1.0" encoding="utf-8"?>
<!-- Generator: Adobe Illustrator 22.0.0, SVG Export Plug-In . SVG Version: 6.00 Build 0)  -->
<svg version="1.1" id="Layer_1" xmlns="http://www.w3.org/2000/svg" xmlns:xlink="http://www.w3.org/1999/xlink" x="0px" y="0px"
	 viewBox="0 0 1200 1200" style="enable-background:new 0 0 1200 1200;" xml:space="preserve">
<style type="text/css">
	.st0{fill:#111111;}
	.st1{fill:#DDAA66;}
</style>
<rect class="st0" width="1200" height="1200"/>
<g>
	<g>
		<path class="st1" d="M406.2,817c-1.9-0.5-3.6-1.2-5.2-2.1c-1.6-0.9-3.1-2-4.4-3.3c-1.3-1.3-2.4-2.7-3.4-4.3
			c-0.9-1.6-1.6-3.3-2.1-5.2c-0.5-1.9-0.8-3.8-0.8-5.9c0-2.1,0.3-4,0.8-5.9c0.5-1.9,1.2-3.6,2.2-5.2c0.9-1.6,2.1-3,3.4-4.3
			c1.3-1.3,2.8-2.4,4.4-3.3c1.6-0.9,3.4-1.6,5.2-2.1c1.9-0.5,3.8-0.7,5.9-0.7c1.1,0,2.2,0.1,3.1,0.2c0.9,0.2,1.8,0.4,2.5,0.6
			c0.7,0.2,1.4,0.5,2,0.8c0.6,0.3,1.1,0.6,1.6,0.8c0.5,0.2,0.9,0.4,1.2,0.6c0.3,0.2,0.7,0.2,0.9,0.2c0.3,0,0.6-0.1,0.7-0.2
			c0.2-0.2,0.3-0.4,0.4-0.6c0.1-0.2,0.2-0.5,0.3-0.8c0.1-0.3,0.2-0.5,0.4-0.8c0.1-0.2,0.3-0.4,0.6-0.6c0.2-0.2,0.5-0.2,0.9-0.2h0.2
			v14.4h-0.3c-0.5,0-1-0.1-1.3-0.4c-0.3-0.3-0.7-0.6-0.9-1.1c-0.3-0.5-0.5-1.1-0.7-1.8c-0.2-0.7-0.4-1.5-0.6-2.4
			c-0.2-1-0.7-2-1.2-2.9c-0.6-0.9-1.3-1.7-2.2-2.4c-0.9-0.7-2-1.2-3.2-1.6c-1.2-0.4-2.6-0.6-4.2-0.6c-1.9,0-3.7,0.4-5.3,1.3
			c-1.6,0.9-3,2.2-4.1,3.9c-1.1,1.7-2,3.8-2.7,6.3c-0.6,2.5-0.9,5.3-0.9,8.6c0,3.2,0.3,6.1,0.9,8.6c0.6,2.5,1.5,4.6,2.6,6.3
			c1.1,1.7,2.5,3,4,3.9c1.6,0.9,3.3,1.3,5.1,1.3c1.2,0,2.3-0.1,3.2-0.4c0.9-0.3,1.7-0.7,2.3-1.3c0.6-0.6,1.1-1.3,1.4-2.2
			c0.3-0.9,0.5-1.9,0.5-3.1v-8.5h-6.2v-1.5h20.5v1.5h-6.2v16.7h-0.2c-0.5,0-1-0.1-1.3-0.2c-0.3-0.2-0.6-0.4-0.8-0.6
			c-0.2-0.2-0.4-0.5-0.6-0.8c-0.1-0.3-0.3-0.5-0.5-0.8c-0.2-0.2-0.4-0.4-0.7-0.6c-0.3-0.2-0.6-0.2-1-0.2c-0.4,0-0.8,0.1-1.1,0.2
			c-0.4,0.2-0.7,0.4-1.2,0.6c-0.4,0.3-0.9,0.5-1.3,0.8c-0.5,0.3-1.1,0.6-1.7,0.8c-0.6,0.3-1.4,0.5-2.2,0.6c-0.8,0.2-1.8,0.2-2.9,0.2
			C410,817.7,408,817.5,406.2,817z"/>
		<path class="st1" d="M439.3,817.2c-1.2-0.3-2.2-0.8-3-1.4s-1.5-1.4-2-2.3c-0.5-0.9-0.7-2-0.7-3.1c0-1.2,0.2-2.2,0.7-3.1
			c0.4-0.9,1.1-1.7,1.8-2.3c0.8-0.7,1.7-1.2,2.8-1.7c1.1-0.4,2.3-0.8,3.6-1.1c1.3-0.3,2.6-0.5,4.1-0.6c1.4-0.1,2.9-0.2,4.4-0.3v-4.4
			c0-1.1-0.1-2.1-0.2-3c-0.1-0.9-0.4-1.6-0.8-2.2c-0.4-0.6-0.9-1-1.5-1.4c-0.6-0.3-1.4-0.5-2.3-0.5c-0.6,0-1.1,0-1.7,0.1
			c-0.6,0.1-1,0.2-1.5,0.4c-0.4,0.2-0.8,0.4-1,0.7c-0.3,0.3-0.4,0.6-0.4,1.1c0,0.3,0.1,0.7,0.3,0.9c0.2,0.3,0.4,0.5,0.6,0.8
			c0.2,0.3,0.4,0.5,0.6,0.9c0.2,0.3,0.3,0.7,0.3,1.2c0,1-0.3,1.8-1,2.3c-0.6,0.5-1.5,0.8-2.5,0.8c-0.5,0-1-0.1-1.4-0.3
			c-0.4-0.2-0.8-0.4-1.2-0.8c-0.3-0.3-0.6-0.7-0.8-1.2c-0.2-0.5-0.3-1-0.3-1.5c0-1,0.3-2,0.9-2.8c0.6-0.8,1.4-1.6,2.5-2.1
			c1-0.6,2.2-1.1,3.6-1.4c1.3-0.3,2.7-0.5,4.2-0.5c1.7,0,3.3,0.2,4.7,0.6c1.4,0.4,2.6,1,3.6,1.9c1,0.8,1.7,1.9,2.3,3.3
			c0.5,1.3,0.8,2.9,0.8,4.8l-0.1,12.2c0,0.8,0,1.5,0.1,2c0.1,0.5,0.2,1,0.4,1.3s0.4,0.6,0.7,0.7c0.3,0.1,0.6,0.2,1,0.2
			c0.3,0,0.5,0,0.8-0.1c0.3-0.1,0.5-0.1,0.7-0.2c0.2-0.1,0.4-0.2,0.6-0.3c0.2-0.1,0.3-0.2,0.5-0.3l0.8,1.1c-0.2,0.2-0.5,0.5-0.9,0.7
			c-0.4,0.2-0.8,0.4-1.4,0.6c-0.5,0.2-1.1,0.4-1.7,0.5c-0.6,0.1-1.2,0.2-1.9,0.2c-1.3,0-2.4-0.1-3.2-0.4c-0.9-0.3-1.6-0.6-2.1-1.1
			c-0.5-0.5-0.9-1-1.1-1.6c-0.2-0.6-0.3-1.3-0.3-1.9v-0.1c-0.3,0.8-0.7,1.5-1.1,2.1c-0.5,0.6-1,1.2-1.6,1.6
			c-0.6,0.5-1.4,0.8-2.3,1.1c-0.9,0.3-1.9,0.4-3.1,0.4C441.7,817.7,440.5,817.6,439.3,817.2z M447.5,815.2c0.7-0.4,1.3-1,1.8-1.8
			c0.5-0.8,0.9-1.8,1.2-3c0.3-1.2,0.4-2.6,0.4-4.2v-3.5c-1.7,0-3.2,0.1-4.4,0.4c-1.2,0.3-2.1,0.7-2.9,1.2c-0.7,0.6-1.3,1.3-1.6,2.2
			c-0.3,0.9-0.5,2.1-0.5,3.4c0,1,0.1,1.9,0.2,2.7c0.2,0.8,0.4,1.4,0.7,1.8c0.3,0.5,0.7,0.8,1.1,1c0.5,0.2,1,0.3,1.5,0.3
			C446,815.8,446.8,815.6,447.5,815.2z"/>
		<path class="st1" d="M466.1,774.2h-4.8v-1.5h12.3v21.9l-1.1,8.6l0.8,8.1l-0.1,5.7h-7.2L466.1,774.2z M478.9,817.2
			c-1-0.3-1.8-0.8-2.6-1.4c-0.7-0.6-1.4-1.2-1.9-2c-0.5-0.8-0.9-1.6-1.2-2.4l-1.4-8.2l1.5-8.3c0.3-0.8,0.7-1.6,1.2-2.3
			c0.5-0.7,1.2-1.4,1.9-2c0.7-0.6,1.6-1,2.6-1.4c1-0.3,2-0.5,3.2-0.5c1.8,0,3.5,0.3,5.2,1c1.6,0.7,3.1,1.7,4.3,2.9s2.2,2.8,2.9,4.6
			c0.7,1.8,1.1,3.8,1.1,6c0,2.2-0.4,4.2-1.1,6c-0.7,1.8-1.7,3.3-2.9,4.6c-1.2,1.3-2.7,2.2-4.3,2.9c-1.6,0.7-3.3,1-5.2,1
			C480.9,817.7,479.9,817.5,478.9,817.2z M483.6,814.9c0.9-0.7,1.6-1.6,2.2-2.7c0.6-1.1,1-2.5,1.3-4c0.3-1.5,0.4-3.2,0.4-4.9
			c0-1.8-0.1-3.4-0.4-5c-0.3-1.5-0.7-2.9-1.3-4c-0.6-1.1-1.3-2-2.2-2.7c-0.9-0.7-1.9-1-3.1-1c-1.2,0-2.2,0.3-3.1,1
			c-0.9,0.7-1.7,1.6-2.4,2.7c-0.7,1.1-1.2,2.5-1.5,4c-0.3,1.5-0.5,3.2-0.5,5c0,1.7,0.2,3.4,0.5,4.9c0.3,1.5,0.9,2.9,1.5,4
			c0.7,1.1,1.5,2,2.4,2.7c0.9,0.7,2,1,3.1,1C481.7,815.9,482.8,815.6,483.6,814.9z"/>
		<path class="st1" d="M507.9,816.7c-1.9-0.7-3.5-1.6-4.9-2.8c-1.4-1.2-2.4-2.7-3.2-4.5s-1.2-3.7-1.2-5.8c0-1.7,0.2-3.2,0.6-4.6
			c0.4-1.4,1-2.6,1.7-3.7c0.7-1.1,1.5-2.1,2.5-2.9c1-0.8,2-1.5,3.1-2c1.1-0.5,2.2-0.9,3.4-1.2c1.2-0.3,2.3-0.4,3.4-0.4
			c2,0,3.8,0.3,5.4,1c1.6,0.7,2.9,1.6,4,2.8c1.1,1.2,1.9,2.6,2.4,4.2c0.5,1.6,0.8,3.4,0.7,5.3h-21.2l0.1-1.5h13.4
			c0.1-1.8,0.1-3.3-0.1-4.7c-0.1-1.3-0.4-2.4-0.8-3.3c-0.4-0.9-1-1.5-1.6-2c-0.7-0.4-1.5-0.6-2.4-0.6c-1.2,0-2.1,0.3-3,0.9
			c-0.8,0.6-1.5,1.5-2,2.6c-0.5,1.1-0.9,2.6-1.2,4.2c-0.2,1.7-0.4,3.6-0.4,5.8c0,2.1,0.2,3.9,0.5,5.5c0.3,1.6,0.9,2.9,1.5,3.9
			c0.7,1,1.5,1.8,2.6,2.4c1,0.5,2.2,0.8,3.6,0.8c1.1,0,2.2-0.2,3.2-0.5c1-0.3,2-0.8,2.8-1.5c0.8-0.6,1.6-1.5,2.2-2.4
			c0.6-1,1.1-2.1,1.5-3.4l1.5,0.3c-0.4,1.5-0.9,2.7-1.7,3.9c-0.7,1.1-1.6,2.1-2.7,2.8c-1,0.8-2.2,1.3-3.5,1.7
			c-1.3,0.4-2.7,0.6-4.2,0.6C511.9,817.7,509.8,817.4,507.9,816.7z"/>
		<path class="st1" d="M526.4,815.5h4.8v-24.4h-4.8v-1.5h12l0,6.3h0.3v19.5h6.2v1.5h-18.5V815.5z M548,798.4
			c-0.5-0.1-0.9-0.4-1.2-0.6c-0.3-0.3-0.6-0.6-0.8-1c-0.2-0.4-0.3-0.9-0.3-1.4c0-0.6,0.1-1,0.2-1.4c0.1-0.4,0.3-0.7,0.5-1
			c0.2-0.3,0.3-0.5,0.4-0.8c0.1-0.2,0.2-0.5,0.2-0.8c0-0.2,0-0.3-0.1-0.5c-0.1-0.1-0.2-0.3-0.3-0.4c-0.1-0.1-0.3-0.2-0.6-0.2
			c-0.3-0.1-0.5-0.1-0.9-0.1c-1,0-1.9,0.3-2.7,1c-0.8,0.7-1.5,1.6-2.1,2.7c-0.6,1.1-1,2.4-1.3,3.8c-0.3,1.4-0.5,2.9-0.5,4.4
			l-0.4-6.1c0.3-1.1,0.7-2.1,1.2-3c0.5-0.9,1-1.7,1.7-2.3c0.7-0.6,1.4-1.1,2.2-1.5c0.8-0.3,1.7-0.5,2.7-0.5c1,0,2,0.1,2.9,0.4
			c0.9,0.3,1.6,0.7,2.3,1.2c0.6,0.5,1.2,1.1,1.5,1.8c0.4,0.7,0.5,1.5,0.5,2.3c0,0.6-0.1,1.2-0.3,1.7c-0.2,0.5-0.4,0.9-0.7,1.2
			c-0.3,0.3-0.7,0.6-1.2,0.8c-0.5,0.2-1,0.3-1.5,0.3C549,798.6,548.5,798.6,548,798.4z"/>
		<path class="st1" d="M559.7,815.5h6.2v-38.7h-6.2v-1.5h18.9c2.6,0,5,0.2,7,0.6c2,0.4,3.8,1,5.2,1.7c1.4,0.8,2.5,1.8,3.3,3
			c0.8,1.2,1.1,2.7,1.1,4.3c0,1.4-0.3,2.6-0.8,3.7c-0.6,1.1-1.3,2.1-2.3,2.9c-1,0.8-2.2,1.5-3.5,2.1c-1.4,0.5-2.8,0.9-4.5,1.2v0.1
			c1.8,0.2,3.5,0.5,5.1,1c1.6,0.5,3,1.1,4.2,1.9c1.2,0.8,2.2,1.8,2.9,3.1c0.7,1.2,1.1,2.6,1.1,4.3c0,1.9-0.4,3.6-1.2,5.1
			c-0.8,1.5-2,2.7-3.6,3.7c-1.6,1-3.5,1.7-5.8,2.2c-2.3,0.5-5,0.8-8,0.8h-18.9V815.5z M573.4,794.5h4.9c1.5,0,2.7-0.2,3.8-0.6
			c1.1-0.4,1.9-0.9,2.6-1.7c0.7-0.7,1.2-1.7,1.5-2.8c0.3-1.1,0.5-2.4,0.5-3.8c0-1.4-0.2-2.7-0.5-3.8c-0.3-1.1-0.8-2-1.5-2.8
			c-0.7-0.7-1.6-1.3-2.6-1.7c-1.1-0.4-2.3-0.6-3.8-0.6H574v38.7h4.4c2.1,0,3.8-0.2,5.1-0.7c1.3-0.5,2.4-1.1,3.2-1.9
			c0.8-0.8,1.3-1.9,1.6-3.1c0.3-1.2,0.4-2.6,0.4-4.1c0-1.5-0.2-2.9-0.5-4.1c-0.3-1.2-0.9-2.2-1.7-3.1c-0.8-0.8-1.9-1.5-3.2-2
			c-1.4-0.5-3.1-0.7-5.1-0.7h-4.8V794.5z"/>
		<path class="st1" d="M604.9,817.2c-1.2-0.3-2.2-0.8-3-1.4c-0.8-0.6-1.5-1.4-2-2.3c-0.5-0.9-0.7-2-0.7-3.1c0-1.2,0.2-2.2,0.7-3.1
			c0.4-0.9,1.1-1.7,1.8-2.3c0.8-0.7,1.7-1.2,2.8-1.7c1.1-0.4,2.3-0.8,3.6-1.1c1.3-0.3,2.6-0.5,4.1-0.6c1.4-0.1,2.9-0.2,4.4-0.3v-4.4
			c0-1.1-0.1-2.1-0.2-3c-0.1-0.9-0.4-1.6-0.8-2.2c-0.4-0.6-0.9-1-1.5-1.4c-0.6-0.3-1.4-0.5-2.3-0.5c-0.6,0-1.1,0-1.7,0.1
			c-0.6,0.1-1,0.2-1.5,0.4c-0.4,0.2-0.8,0.4-1,0.7c-0.3,0.3-0.4,0.6-0.4,1.1c0,0.3,0.1,0.7,0.3,0.9c0.2,0.3,0.4,0.5,0.6,0.8
			c0.2,0.3,0.4,0.5,0.6,0.9c0.2,0.3,0.3,0.7,0.3,1.2c0,1-0.3,1.8-1,2.3c-0.6,0.5-1.5,0.8-2.5,0.8c-0.5,0-1-0.1-1.4-0.3
			c-0.4-0.2-0.8-0.4-1.2-0.8c-0.3-0.3-0.6-0.7-0.8-1.2c-0.2-0.5-0.3-1-0.3-1.5c0-1,0.3-2,0.9-2.8c0.6-0.8,1.4-1.6,2.5-2.1
			c1-0.6,2.2-1.1,3.6-1.4c1.3-0.3,2.7-0.5,4.2-0.5c1.7,0,3.3,0.2,4.7,0.6c1.4,0.4,2.6,1,3.6,1.9c1,0.8,1.7,1.9,2.3,3.3
			c0.5,1.3,0.8,2.9,0.8,4.8l-0.1,12.2c0,0.8,0,1.5,0.1,2c0.1,0.5,0.2,1,0.4,1.3c0.2,0.3,0.4,0.6,0.7,0.7c0.3,0.1,0.6,0.2,1,0.2
			c0.3,0,0.5,0,0.8-0.1c0.3-0.1,0.5-0.1,0.7-0.2c0.2-0.1,0.4-0.2,0.6-0.3c0.2-0.1,0.3-0.2,0.5-0.3l0.8,1.1c-0.2,0.2-0.5,0.5-0.9,0.7
			c-0.4,0.2-0.8,0.4-1.4,0.6c-0.5,0.2-1.1,0.4-1.7,0.5c-0.6,0.1-1.2,0.2-1.9,0.2c-1.3,0-2.4-0.1-3.2-0.4c-0.9-0.3-1.6-0.6-2.1-1.1
			c-0.5-0.5-0.9-1-1.1-1.6c-0.2-0.6-0.3-1.3-0.3-1.9v-0.1c-0.3,0.8-0.7,1.5-1.1,2.1c-0.5,0.6-1,1.2-1.6,1.6
			c-0.6,0.5-1.4,0.8-2.3,1.1c-0.9,0.3-1.9,0.4-3.1,0.4C607.3,817.7,606.1,817.6,604.9,817.2z M613.1,815.2c0.7-0.4,1.3-1,1.8-1.8
			c0.5-0.8,0.9-1.8,1.2-3c0.3-1.2,0.4-2.6,0.4-4.2v-3.5c-1.7,0-3.2,0.1-4.4,0.4c-1.2,0.3-2.1,0.7-2.9,1.2c-0.7,0.6-1.3,1.3-1.6,2.2
			c-0.3,0.9-0.5,2.1-0.5,3.4c0,1,0.1,1.9,0.2,2.7c0.2,0.8,0.4,1.4,0.7,1.8c0.3,0.5,0.7,0.8,1.1,1c0.5,0.2,1,0.3,1.5,0.3
			C611.6,815.8,612.4,815.6,613.1,815.2z"/>
		<path class="st1" d="M634.6,831.2c-1.8-0.4-3.3-1.1-4.6-2c-1.3-0.9-2.3-2-3.1-3.3c-0.7-1.3-1.1-2.8-1.1-4.5c0-1.5,0.3-2.8,0.8-3.9
			c0.5-1.1,1.2-2,2.1-2.8c0.8-0.7,1.8-1.3,2.8-1.7c1-0.4,2-0.6,3-0.6c1.4,0,2.4,0.3,3.2,0.9c0.7,0.6,1.1,1.4,1.1,2.3
			c0,0.6-0.1,1.1-0.3,1.6c-0.2,0.5-0.5,0.9-1,1.2c-0.5,0.3-1.1,0.6-1.8,0.8c-0.8,0.2-1.7,0.3-2.8,0.3c-0.9,0-1.6,0.1-2.2,0.2
			c-0.6,0.1-1.1,0.3-1.4,0.5c-0.4,0.2-0.6,0.6-0.8,0.9c-0.2,0.4-0.2,0.9-0.2,1.5c0,1.1,0.3,2.1,0.9,3c0.6,0.9,1.4,1.7,2.5,2.4
			c1.1,0.7,2.3,1.2,3.8,1.6c1.5,0.4,3.1,0.6,4.9,0.6c1.6,0,3-0.2,4.2-0.6c1.2-0.4,2.3-0.9,3.1-1.6s1.5-1.6,1.9-2.6
			c0.4-1,0.7-2.2,0.7-3.5c0-1.2-0.2-2.3-0.6-3.2s-0.9-1.7-1.6-2.3c-0.7-0.6-1.5-1-2.4-1.3c-0.9-0.3-1.9-0.4-2.9-0.4h-0.8v-1.5h0.9
			c1,0,2-0.1,2.8-0.2c0.8-0.1,1.5-0.4,2.1-0.6s1-0.6,1.3-1c0.3-0.4,0.4-0.8,0.4-1.3c0-0.3-0.1-0.7-0.2-1c-0.1-0.3-0.4-0.6-0.8-0.8
			c-0.4-0.2-0.9-0.4-1.7-0.5c-0.7-0.1-1.6-0.2-2.7-0.2l0.5-0.9c1.2-0.1,2.3-0.1,3.4,0c1.1,0.1,2.1,0.2,3,0.5
			c0.9,0.3,1.6,0.6,2.1,1.1c0.5,0.5,0.8,1.1,0.8,1.8c0,0.5-0.1,1-0.4,1.5c-0.3,0.5-0.7,0.8-1.3,1.2c-0.6,0.3-1.3,0.6-2.3,0.8
			c-0.9,0.2-2,0.3-3.3,0.4v0.1c1.7,0.1,3.2,0.3,4.6,0.7c1.4,0.4,2.6,0.8,3.6,1.5c1,0.6,1.8,1.4,2.4,2.3c0.6,0.9,0.9,2,0.9,3.2
			c0,1.6-0.5,3-1.4,4.2c-0.9,1.2-2.2,2.3-3.8,3.1c-1.6,0.8-3.5,1.5-5.6,1.9c-2.1,0.4-4.3,0.6-6.7,0.6
			C638.3,831.8,636.4,831.6,634.6,831.2z M636.1,807.4c-1.6-0.5-2.9-1.1-4.1-2c-1.2-0.9-2.1-1.9-2.8-3.1s-1.1-2.5-1.1-3.9
			s0.4-2.7,1.1-3.9c0.7-1.2,1.7-2.2,2.8-3.1c1.2-0.9,2.6-1.5,4.1-2c1.6-0.5,3.2-0.7,4.9-0.7c1.7,0,3.4,0.2,4.9,0.7
			c1.6,0.5,2.9,1.1,4.1,2c1.2,0.9,2.1,1.9,2.8,3.1c0.7,1.2,1.1,2.5,1.1,3.9s-0.4,2.7-1.1,3.9c-0.7,1.2-1.7,2.2-2.8,3.1
			c-1.2,0.9-2.6,1.5-4.1,2c-1.6,0.5-3.2,0.7-4.9,0.7C639.3,808.1,637.7,807.9,636.1,807.4z M643.3,806.3c0.7-0.3,1.2-0.8,1.7-1.5
			c0.4-0.7,0.8-1.6,1-2.6c0.2-1.1,0.4-2.3,0.4-3.8c0-1.5-0.1-2.7-0.4-3.8c-0.2-1.1-0.6-1.9-1-2.6c-0.4-0.7-1-1.2-1.7-1.5
			c-0.7-0.3-1.4-0.5-2.3-0.5c-0.8,0-1.6,0.2-2.3,0.5c-0.7,0.3-1.2,0.8-1.7,1.5c-0.4,0.7-0.8,1.6-1,2.6c-0.2,1.1-0.4,2.3-0.4,3.8
			c0,1.5,0.1,2.7,0.4,3.8c0.2,1.1,0.6,1.9,1,2.6c0.4,0.7,1,1.2,1.7,1.5c0.7,0.3,1.4,0.5,2.3,0.5
			C641.9,806.8,642.7,806.7,643.3,806.3z M650.7,792.6c0.6-1.3,1.4-2.3,2.4-3.1c1.1-0.8,2.3-1.1,3.6-1.1c0.7,0,1.4,0.1,2,0.3
			c0.6,0.2,1.2,0.4,1.6,0.8c0.5,0.4,0.8,0.8,1.1,1.3c0.3,0.5,0.4,1.1,0.4,1.7c0,0.4-0.1,0.8-0.2,1.2c-0.1,0.4-0.3,0.7-0.5,1
			c-0.2,0.3-0.5,0.5-0.9,0.6c-0.3,0.2-0.7,0.2-1.2,0.2c-0.8,0-1.4-0.2-2-0.6c-0.5-0.4-0.8-1-0.8-1.8c0-0.3,0-0.5,0.1-0.8
			c0.1-0.2,0.2-0.4,0.3-0.6s0.2-0.4,0.3-0.6c0.1-0.2,0.1-0.4,0.1-0.6c0-0.3-0.1-0.5-0.3-0.6c-0.2-0.2-0.5-0.2-0.9-0.2
			c-0.4,0-0.8,0.1-1.2,0.2c-0.4,0.1-0.8,0.4-1.2,0.7c-0.4,0.3-0.7,0.7-1,1.2c-0.3,0.5-0.6,1-0.9,1.6L650.7,792.6z"/>
		<path class="st1" d="M659.6,815.5h4.8v-41.4h-4.8v-1.5h12.3v42.8h4.2v1.5h-16.6V815.5z M679.2,815.5h4.2v-16.2
			c0-1.2-0.1-2.4-0.2-3.4c-0.1-1-0.3-1.9-0.6-2.6c-0.3-0.7-0.8-1.3-1.4-1.7c-0.6-0.4-1.4-0.6-2.4-0.6c-1,0-1.9,0.3-2.8,0.9
			c-0.9,0.6-1.6,1.3-2.2,2.3c-0.6,1-1.1,2.1-1.4,3.4c-0.3,1.3-0.5,2.6-0.5,4.1l0-6.5c0.4-1,0.9-1.9,1.5-2.6c0.6-0.8,1.3-1.4,2.1-2
			c0.8-0.5,1.7-0.9,2.7-1.2c1-0.3,2-0.4,3.2-0.4c1.5,0,2.8,0.2,3.9,0.5c1.2,0.4,2.2,0.9,3,1.7c0.8,0.8,1.5,1.8,1.9,3.1
			c0.5,1.3,0.7,2.9,0.7,4.8v16.4h4.8v1.5h-16.6V815.5z"/>
		<path class="st1" d="M703.7,816.7c-1.6-0.7-3.1-1.6-4.3-2.9c-1.2-1.2-2.2-2.8-2.9-4.6c-0.7-1.8-1.1-3.8-1.1-6.1
			c0-2.3,0.4-4.3,1.1-6.1c0.7-1.8,1.7-3.3,2.9-4.6c1.2-1.2,2.7-2.2,4.3-2.9c1.6-0.7,3.3-1,5.2-1c1.2,0,2.2,0.2,3.2,0.5
			c1,0.3,1.8,0.8,2.5,1.4c0.7,0.6,1.4,1.2,1.9,2c0.5,0.7,0.9,1.5,1.2,2.3l1.5,8.3l-1.4,8.2c-0.3,0.8-0.7,1.6-1.2,2.4
			c-0.5,0.8-1.2,1.4-1.9,2c-0.8,0.6-1.6,1-2.6,1.4c-1,0.3-2,0.5-3.2,0.5C707,817.7,705.3,817.4,703.7,816.7z M713.6,814.9
			c0.9-0.7,1.7-1.6,2.4-2.7c0.7-1.1,1.2-2.5,1.5-4c0.3-1.5,0.5-3.2,0.5-4.9c0-1.8-0.2-3.4-0.5-5c-0.3-1.5-0.9-2.9-1.5-4
			c-0.7-1.1-1.5-2-2.4-2.7c-0.9-0.7-2-1-3.2-1c-1.2,0-2.2,0.3-3.1,1c-0.9,0.7-1.6,1.6-2.2,2.7c-0.6,1.1-1,2.5-1.3,4
			c-0.3,1.5-0.4,3.2-0.4,5c0,1.7,0.1,3.4,0.4,4.9c0.3,1.5,0.7,2.9,1.3,4c0.6,1.1,1.3,2,2.2,2.7c0.9,0.7,1.9,1,3.1,1
			C711.6,815.9,712.6,815.6,713.6,814.9z M717.6,811.3l0.8-8.1l-1-8.7v-20.4h-5v-1.5h12.5v42.8h4.8v1.5h-12.1L717.6,811.3z"/>
		<path class="st1" d="M735.8,817.2c-1.2-0.3-2.2-0.8-3-1.4c-0.8-0.6-1.5-1.4-2-2.3c-0.5-0.9-0.7-2-0.7-3.1c0-1.2,0.2-2.2,0.7-3.1
			c0.4-0.9,1.1-1.7,1.8-2.3c0.8-0.7,1.7-1.2,2.8-1.7c1.1-0.4,2.3-0.8,3.6-1.1c1.3-0.3,2.6-0.5,4.1-0.6c1.4-0.1,2.9-0.2,4.4-0.3v-4.4
			c0-1.1-0.1-2.1-0.2-3c-0.1-0.9-0.4-1.6-0.8-2.2c-0.4-0.6-0.9-1-1.5-1.4c-0.6-0.3-1.4-0.5-2.3-0.5c-0.6,0-1.1,0-1.7,0.1
			c-0.6,0.1-1,0.2-1.5,0.4c-0.4,0.2-0.8,0.4-1,0.7c-0.3,0.3-0.4,0.6-0.4,1.1c0,0.3,0.1,0.7,0.3,0.9c0.2,0.3,0.4,0.5,0.6,0.8
			c0.2,0.3,0.4,0.5,0.6,0.9c0.2,0.3,0.3,0.7,0.3,1.2c0,1-0.3,1.8-1,2.3c-0.6,0.5-1.5,0.8-2.5,0.8c-0.5,0-1-0.1-1.4-0.3
			c-0.4-0.2-0.8-0.4-1.2-0.8c-0.3-0.3-0.6-0.7-0.8-1.2c-0.2-0.5-0.3-1-0.3-1.5c0-1,0.3-2,0.9-2.8c0.6-0.8,1.4-1.6,2.5-2.1
			c1-0.6,2.2-1.1,3.6-1.4c1.3-0.3,2.7-0.5,4.2-0.5c1.7,0,3.3,0.2,4.7,0.6c1.4,0.4,2.6,1,3.6,1.9c1,0.8,1.7,1.9,2.3,3.3
			c0.5,1.3,0.8,2.9,0.8,4.8l-0.1,12.2c0,0.8,0,1.5,0.1,2c0.1,0.5,0.2,1,0.4,1.3c0.2,0.3,0.4,0.6,0.7,0.7c0.3,0.1,0.6,0.2,1,0.2
			c0.3,0,0.5,0,0.8-0.1c0.3-0.1,0.5-0.1,0.7-0.2c0.2-0.1,0.4-0.2,0.6-0.3c0.2-0.1,0.3-0.2,0.5-0.3l0.8,1.1c-0.2,0.2-0.5,0.5-0.9,0.7
			c-0.4,0.2-0.8,0.4-1.4,0.6c-0.5,0.2-1.1,0.4-1.7,0.5s-1.2,0.2-1.9,0.2c-1.3,0-2.4-0.1-3.2-0.4c-0.9-0.3-1.6-0.6-2.1-1.1
			c-0.5-0.5-0.9-1-1.1-1.6s-0.3-1.3-0.3-1.9v-0.1c-0.3,0.8-0.7,1.5-1.1,2.1c-0.5,0.6-1,1.2-1.6,1.6c-0.6,0.5-1.4,0.8-2.3,1.1
			c-0.9,0.3-1.9,0.4-3.1,0.4C738.2,817.7,736.9,817.6,735.8,817.2z M744,815.2c0.7-0.4,1.3-1,1.8-1.8c0.5-0.8,0.9-1.8,1.2-3
			c0.3-1.2,0.4-2.6,0.4-4.2v-3.5c-1.7,0-3.2,0.1-4.4,0.4c-1.2,0.3-2.1,0.7-2.9,1.2c-0.7,0.6-1.3,1.3-1.6,2.2
			c-0.3,0.9-0.5,2.1-0.5,3.4c0,1,0.1,1.9,0.2,2.7s0.4,1.4,0.7,1.8c0.3,0.5,0.7,0.8,1.1,1c0.5,0.2,1,0.3,1.5,0.3
			C742.5,815.8,743.3,815.6,744,815.2z"/>
		<path class="st1" d="M767.5,816.7c-1.6-0.7-3.1-1.6-4.3-2.9c-1.2-1.2-2.2-2.8-2.9-4.6c-0.7-1.8-1.1-3.8-1.1-6.1
			c0-2.3,0.4-4.3,1.1-6.1c0.7-1.8,1.7-3.3,2.9-4.6c1.2-1.2,2.7-2.2,4.3-2.9c1.6-0.7,3.3-1,5.2-1c1.2,0,2.2,0.2,3.2,0.5
			s1.8,0.8,2.5,1.4s1.4,1.2,1.9,2c0.5,0.7,0.9,1.5,1.2,2.3l1.5,8.3l-1.4,8.2c-0.3,0.8-0.7,1.6-1.2,2.4c-0.5,0.8-1.2,1.4-1.9,2
			c-0.8,0.6-1.6,1-2.6,1.4c-1,0.3-2,0.5-3.2,0.5C770.8,817.7,769.1,817.4,767.5,816.7z M777.4,814.9c0.9-0.7,1.7-1.6,2.4-2.7
			c0.7-1.1,1.2-2.5,1.5-4c0.3-1.5,0.5-3.2,0.5-4.9c0-1.8-0.2-3.4-0.5-5c-0.4-1.5-0.9-2.9-1.5-4c-0.7-1.1-1.4-2-2.4-2.7
			c-0.9-0.7-2-1-3.2-1c-1.2,0-2.2,0.3-3.1,1c-0.9,0.7-1.6,1.6-2.2,2.7c-0.6,1.1-1,2.5-1.3,4c-0.3,1.5-0.4,3.2-0.4,5
			c0,1.7,0.1,3.4,0.4,4.9c0.3,1.5,0.7,2.9,1.3,4c0.6,1.1,1.3,2,2.2,2.7c0.9,0.7,1.9,1,3.1,1C775.4,815.9,776.4,815.6,777.4,814.9z
			 M781.4,811.3l0.8-8.1l-1-8.7v-20.4h-5v-1.5h12.5v42.8h4.8v1.5h-12.1L781.4,811.3z"/>
		<path class="st1" d="M792.4,815.5h4.8v-24.4h-4.8v-1.5h12.3v25.8h4.8v1.5h-17.2V815.5z M799.2,781.2c-0.6-0.2-1.1-0.6-1.5-1
			c-0.4-0.4-0.7-0.9-1-1.4c-0.2-0.6-0.4-1.2-0.4-1.9c0-0.6,0.1-1.2,0.4-1.8c0.2-0.6,0.6-1,1-1.5c0.4-0.4,0.9-0.7,1.5-1
			s1.2-0.4,1.8-0.4c0.6,0,1.2,0.1,1.8,0.4c0.6,0.2,1,0.6,1.5,1c0.4,0.4,0.7,0.9,1,1.5c0.2,0.6,0.4,1.2,0.4,1.8
			c0,0.7-0.1,1.3-0.4,1.9c-0.2,0.6-0.6,1-1,1.4s-0.9,0.7-1.5,1c-0.6,0.2-1.2,0.4-1.8,0.4C800.3,781.6,799.7,781.5,799.2,781.2z"/>
	</g>
	<g>
		<g>
			<path class="st1" d="M734.5,495.8c0.2-0.2,0.6-0.1,0.7,0.2c2,5.4,16.7,48.9,5,123.8c-8,51.2,1.3,85.8,29.9,93.6
				c28.5,7.8,51-18.4,84.1-23.3c0.2,0,0.4-0.2,0.4-0.4v-2.1c0-0.2-0.1-0.4-0.3-0.4c-4.9-1.5-67.4-20.5-81.2-9.2
				c-14.3,11.7,0.4,29,9.1,52.4c0,0-6.4,8.4-8.9,17.3c-0.2,0.9-1.5,0.8-1.7-0.1c-2.9-12.9-12-55.2-11.3-67.3
				c0.9-14.3,11.5-35.2,48.1-25.1c40.9,11.2,75.5,18.3,91.2,17.8c0.6,0,1,0.5,0.9,1l-3.8,19.7c-0.1,0.4-0.4,0.7-0.7,0.7
				c-3.9,0.5-24.5,3-36.4,7.9c-12.4,5.1-54.2,31.2-82.8,34.7s-48.1-26-49.4-59.4s5.4-86,3-112.7c-1.2-14-5.2-34.8-12.4-42.8
				c-0.1-0.1-0.1-0.2-0.1-0.3C718.1,520.2,720.4,508.2,734.5,495.8z"/>
			<path class="st1" d="M566.3,640.3l3,3.6c0.1,0.1,0.1,0.1,0.1,0.2c0.3,2.9,7,57.1,25.1,71.8c18.6,15.2,40.7,6.9,42.9-25.6
				s6.9-56.8,19.1-72.4c10.8-13.9,20.7-16.4,41.2,5.2c23.8,25.1,52,21.2,69.3-15.2c12.5-26.2,27.7-42.9,30.8-7.8
				c2.4,28.3-3.9,33.8-6.4,34.8c-0.4,0.2-0.7-0.2-0.6-0.6c1.4-3,5.4-14-0.4-30.8c0,0-5.2,13.9-16.7,32.7
				c-14,23.1-42.2,36.2-66.3,20.4c-18.3-12-29-30.8-41.2-18.2c-12.1,12.6-16.9,31.6-19.5,60.2s-13.6,58.7-40.7,41.6
				c-29.2-18.5-37.9-58.5-40.4-99.8C565.6,640.2,566.1,640,566.3,640.3z"/>
			<path class="st1" d="M646.6,563.4c1.2-5.8,4.8-21.2,9-29.6c0.1-0.1,0.2-0.2,0.3-0.2c1.8-0.2,13.5-1,14.7,20.2
				c1.3,23-3.5,30.3-9.1,43.8s-28.6,38.6-47.7,14.7c0,0-20.8,26.9-36,27.7c-15.2,0.9-12.1-25.6-16-32.9s-12.1,10.4-16.9,23.8
				c-4.8,13.4-21.9,63-47.9,61.3s-25.2-41.4-23.4-55.5c2.4-18.2,11.9-47.9,23.3-64.3c0.2-0.2,0.5-0.2,0.7,0l0.8,1
				c0.1,0.1,0.1,0.3,0,0.5c-1.3,2.3-11.2,20.5-15,41.4c-3.4,18.2-3.2,40.9,5.4,47.9c8.7,6.9,25.3,3.7,36.6-14.9
				c11.3-18.6,18.2-47.2,26.9-59.4c8.7-12.1,16.5-11.3,19.9-0.4c3.5,10.8-0.3,19.8,5.2,24.7c7.6,6.7,21,0.6,26-8.2
				c4.1-7.3,4.1-12.8-1.9-14.9c-6.1-2.2-10.6,5-15.4,3.7c0,0-1.7-8.7,6.5-20.8c8.2-12.1,18.6-15.6,34.7-10.4
				c16,5.2,13.4,13.9,3.5,32.9c0,0,12.1,2.6,20.4-4.8c8.2-7.4,13.3-15.5,6.1-23.8c-3.8-4.4-7.3-3.5-9.3-2.4
				C647.2,564.7,646.4,564.1,646.6,563.4z"/>
			<path class="st1" d="M511.3,620.7c-11.6-20.9-41.3-19.6-60.4-42.2c4.9-0.3,9.8-1.1,12.6-1.6c0.8-0.1,1-1.2,0.3-1.6
				c-7.8-4.3-18-8.6-21.4-10c-0.6-0.2-1.2,0.2-1.2,0.8v13c0,0,5.6,16,32.5,31.6c26.9,15.6,42.5,17.3,33.4,26
				c-9.1,8.7-38.1,33.8-65.9,42.5c-16.7,5.2-28.3,3.9-20.4-41c0-0.1,0-0.2,0-0.2l-0.8-2.2c-0.1-0.4-0.7-0.4-0.8,0
				c-2.6,8.5-7,26.1-7,37.8c0,14.3,2.8,23.9,15.4,24c14.9,0.2,50-17.5,67.8-34.9C512.6,645.8,520,636.3,511.3,620.7z"/>
			<path class="st1" d="M454.6,609.4c-9.2-4.2-46.4-4.3-54.2-14.3c-5.9-7.5,20.8-40.7,35.1-48.5c14.3-7.8,16,6.1,16,6.1
				c1.1,3.7,1.9,4.5,5.8-4.1c3.9-8.7,2.6-32.9-16.5-23.8s-48.5,42.9-49.4,70.6c-0.9,27.7,27.5,27.9,44.8,29.7
				c18.4,1.8,24.5,2.8-5,23.6s-71.1,32.1-97.9,27.3c-26.9-4.8-31.2-29-29.5-49.8c1.2-14.2,6.6-27.4,10.1-35.6c0-0.1,0-0.2,0-0.3
				l-0.3-1.3c-0.1-0.4-0.6-0.5-0.8-0.1c-5.7,10.2-15.6,31.4-17.1,57.8c-2.2,37.7,19.5,55,59.4,50.7c39.9-4.3,84.4-35.4,97.1-51.1
				C465,630.6,468,615.5,454.6,609.4z"/>
			<path class="st1" d="M598.3,512.6c2.9,1,15.5,5.5,22.9,14.5c0.1,0.2,0.2,0.4,0.2,0.6c-0.1,1.7-0.9,10.5-11.5,26.3
				c-0.3,0.4-0.8,0.5-1.2,0.2c-2.7-2.2-12.9-10-22.3-13.7c-0.4-0.2-0.6-0.6-0.5-1c0.7-3,3.9-14.9,11.5-26.6
				C597.6,512.6,598,512.4,598.3,512.6z"/>
			<path class="st1" d="M608.3,642.1c2.9,1,15.5,5.5,22.9,14.5c0.1,0.2,0.2,0.4,0.2,0.6c-0.1,1.7-0.9,10.5-11.5,26.3
				c-0.3,0.4-0.8,0.5-1.2,0.2c-2.7-2.2-12.9-10-22.3-13.7c-0.4-0.2-0.6-0.6-0.5-1c0.7-3,3.9-14.9,11.5-26.6
				C607.5,642.1,607.9,642,608.3,642.1z"/>
			<path class="st1" d="M681.5,657.3c2.9,1,15.5,5.5,22.9,14.5c0.1,0.2,0.2,0.4,0.2,0.6c-0.1,1.7-0.9,10.5-11.5,26.3
				c-0.3,0.4-0.8,0.5-1.2,0.2c-2.7-2.2-12.9-10-22.3-13.7c-0.4-0.2-0.6-0.6-0.5-1c0.7-3,3.9-14.9,11.5-26.6
				C680.8,657.3,681.2,657.2,681.5,657.3z"/>
			<path class="st1" d="M865.2,708c2.9,1,15.5,5.5,22.9,14.5c0.1,0.2,0.2,0.4,0.2,0.6c-0.1,1.7-0.9,10.5-11.5,26.3
				c-0.3,0.4-0.8,0.5-1.2,0.2c-2.7-2.2-12.9-10-22.3-13.7c-0.4-0.2-0.6-0.6-0.5-1c0.7-3,3.9-14.9,11.5-26.6
				C864.5,708,864.9,707.9,865.2,708z"/>
			<g>
				<path class="st1" d="M524.2,499.3c0,0,11,20.4,21.4,44.7c0,0-13.5-10.4-28.5-23.1C517,520.9,518.9,511.4,524.2,499.3z"/>
				<path class="st1" d="M517,520.9c0,0,3.9,2.2,5.9,13.9c2.1,11.7,9,155.2,9,155.2s3.5,41.2-3.5,54.1c0,0,20.7-17.5,17-55.3
					c-4-40.3-12-159.6-12-159.6S527.5,514.9,517,520.9z"/>
			</g>
		</g>
		<g>
			<g>
				<g>
					<g>
						<path class="st1" d="M408.4,493.9l-0.7,0.4c-0.1,0-0.1,0.1-0.2,0.2c-0.6,1.3-5.9,12.7-7.3,19.4c-1.3,6.1-3.2,15.8,1.9,19.7
							c5.2,3.9,11.2-7.2,11.3-13.7c0-0.1,0-0.2-0.1-0.2l-0.2-0.3c-0.2-0.3-0.6-0.3-0.8,0c-0.9,1.7-3.4,5.7-6.1,5.4
							c-3.5-0.4-3.9-3-3-11.3c0.7-6.7,4.4-15.8,5.8-19C409.2,494.1,408.7,493.7,408.4,493.9z"/>
						<path class="st1" d="M336.5,608.7l-0.7,0.4c-0.1,0-0.1,0.1-0.2,0.2c-0.6,1.3-5.9,12.7-7.3,19.4c-1.3,6.1-3.2,15.8,1.9,19.7
							c5.2,3.9,11.2-7.2,11.3-13.7c0-0.1,0-0.2-0.1-0.2l-0.2-0.3c-0.2-0.3-0.6-0.3-0.8,0c-0.9,1.7-3.4,5.7-6.1,5.4
							c-3.5-0.4-3.9-3-3-11.3c0.7-6.7,4.4-15.8,5.8-19C337.2,608.9,336.8,608.5,336.5,608.7z"/>
						<path class="st1" d="M693.1,508.6l-0.7,0.4c-0.1,0-0.1,0.1-0.2,0.2c-0.6,1.3-5.9,12.7-7.3,19.4c-1.3,6.1-3.2,15.8,1.9,19.7
							c5.2,3.9,11.2-7.2,11.3-13.7c0-0.1,0-0.2-0.1-0.2l-0.2-0.3c-0.2-0.3-0.6-0.3-0.8,0c-0.9,1.7-3.4,5.7-6.1,5.4
							c-3.5-0.4-3.9-3-3-11.3c0.7-6.7,4.4-15.8,5.8-19C693.8,508.8,693.4,508.4,693.1,508.6z"/>
						<path class="st1" d="M560.5,704.9l-0.7,0.4c-0.1,0-0.1,0.1-0.2,0.2c-0.6,1.3-5.9,12.7-7.3,19.4c-1.3,6.1-3.2,15.8,1.9,19.7
							c5.2,3.9,11.2-7.2,11.3-13.7c0-0.1,0-0.2-0.1-0.2l-0.2-0.3c-0.2-0.3-0.6-0.3-0.8,0c-0.9,1.7-3.4,5.7-6.1,5.4
							c-3.5-0.4-3.9-3-3-11.3c0.7-6.7,4.4-15.8,5.8-19C561.2,705.1,560.8,704.7,560.5,704.9z"/>
						<path class="st1" d="M504.6,734.8c0,0-2.4-17.5-11.5-20.6c0,0-2.6-1.3-4.8,3.5c-2.2,4.8,0,5.2,2.2,6.5c2.2,1.3,3-1.7,3.9-1.7
							s8.2,11.3,8.2,21.2c0,0,2.2-0.4,2.6-2.2c0.4-1.7,3-17.8,5.2-21.7c2.2-3.9,4.3-0.9,5.6,0.9c1.3,1.7,3.9-1.3,3-4.3
							c-0.9-3-3.7-7.1-7.6-4.1C507.7,715.3,504.8,731.6,504.6,734.8z"/>
						<path class="st1" d="M376.8,734.8c0,0-2.4-17.5-11.5-20.6c0,0-2.6-1.3-4.8,3.5c-2.2,4.8,0,5.2,2.2,6.5c2.2,1.3,3-1.7,3.9-1.7
							c0.9,0,8.2,11.3,8.2,21.2c0,0,2.2-0.4,2.6-2.2c0.4-1.7,3-17.8,5.2-21.7c2.2-3.9,4.3-0.9,5.6,0.9c1.3,1.7,3.9-1.3,3-4.3
							c-0.9-3-3.7-7.1-7.6-4.1S377,731.6,376.8,734.8z"/>
						<path class="st1" d="M374.2,641.7c0,0-2.4-17.5-11.5-20.6c0,0-2.6-1.3-4.8,3.5c-2.2,4.8,0,5.2,2.2,6.5c2.2,1.3,3-1.7,3.9-1.7
							s8.2,11.3,8.2,21.2c0,0,2.2-0.4,2.6-2.2c0.4-1.7,3-17.8,5.2-21.7c2.2-3.9,4.3-0.9,5.6,0.9c1.3,1.7,3.9-1.3,3-4.3
							s-3.7-7.1-7.6-4.1C377.2,622.2,374.4,638.4,374.2,641.7z"/>
						<path class="st1" d="M766.8,564.6c0,0-2.4-17.5-11.5-20.6c0,0-2.6-1.3-4.8,3.5c-2.2,4.8,0,5.2,2.2,6.5s3-1.7,3.9-1.7
							c0.9,0,8.2,11.3,8.2,21.2c0,0,2.2-0.4,2.6-2.2c0.4-1.7,3-17.8,5.2-21.7s4.3-0.9,5.6,0.9c1.3,1.7,3.9-1.3,3-4.3
							c-0.9-3-3.7-7.1-7.6-4.1C769.8,545.1,767,561.3,766.8,564.6z"/>
						<path class="st1" d="M827.9,601.4c0,0-2.4-17.5-11.5-20.6c0,0-2.6-1.3-4.8,3.5c-2.2,4.8,0,5.2,2.2,6.5s3-1.7,3.9-1.7
							c0.9,0,8.2,11.3,8.2,21.2c0,0,2.2-0.4,2.6-2.2c0.4-1.7,3-17.8,5.2-21.7s4.3-0.9,5.6,0.9s3.9-1.3,3-4.3c-0.9-3-3.7-7.1-7.6-4.1
							C830.9,581.9,828.1,598.1,827.9,601.4z"/>
						<path class="st1" d="M805.3,551.6c0,0-2.4-17.5-11.5-20.6c0,0-2.6-1.3-4.8,3.5c-2.2,4.8,0,5.2,2.2,6.5s3-1.7,3.9-1.7
							s8.2,11.3,8.2,21.2c0,0,2.2-0.4,2.6-2.2c0.4-1.7,3-17.8,5.2-21.7c2.2-3.9,4.3-0.9,5.6,0.9c1.3,1.7,3.9-1.3,3-4.3
							c-0.9-3-3.7-7.1-7.6-4.1C808.4,532.1,805.5,548.3,805.3,551.6z"/>
						<path class="st1" d="M347.8,551.2l-0.7-0.2c-0.3-0.1-0.6,0-0.8,0.2c-1.2,1.2-4.8,5-4.4,8.3c0.4,3.9,2.2,1.7,3,4.3
							s1.3,12.6,5.6,17.3c3.6,3.9,10.8,6.9,16.9-7.8c0,0,4.3,7.4,10.6,5c7.8-3,7.4-13,4.8-20.4c-2.4-6.9-7.9-13.4-9.3-16.7
							c-0.1-0.3-0.5-0.4-0.7-0.1c-1.1,1.2-3.6,4.7-0.8,9.5c3.5,6.1,8.2,11.3,8.7,15.6c0,0-2.6,5.2-6.9,3c-4.3-2.2-4.8-6.9-7.4-14.7
							c-2.1-6.3-2.8-8.7-4.5-10.3c-0.5-0.5-1.4-0.2-1.5,0.6l-0.6,9.4c0,0,4.8,6.9,3.9,12.6c-0.9,5.6-5.6,10.4-9.1,7.8
							c-3.4-2.6-5.1-9.3-6.2-22.6C348.4,551.6,348.2,551.3,347.8,551.2z"/>
						<path class="st1" d="M474,510.5c-0.3,0-0.5-0.2-0.4-0.5c0.4-1.8,2-9.3,10.5-9.8c11.8-0.6,26.2-0.9,27.1,3.5
							c0.6,3-9.2,13.9-11.6,16.3s-12.3,5.3-20.2,6.7s-8.5,0.3-1.8-2.1c6.8-2.4,13.8-4.4,17-6.4c7-4.5,7.7-7.5,0.7-7.3
							C488,511.1,479.7,510.5,474,510.5z"/>
						<path class="st1" d="M558.9,507.5c-0.3,0-0.5-0.2-0.4-0.5c0.4-1.8,2-9.3,10.5-9.8c11.8-0.6,26.2-0.9,27.1,3.5
							c0.6,3-9.2,13.9-11.6,16.3c-2.4,2.4-12.3,5.3-20.2,6.7s-8.5,0.3-1.8-2.1c6.8-2.4,13.8-4.4,17-6.4c7-4.5,7.7-7.5,0.7-7.3
							C573,508.1,564.7,507.5,558.9,507.5z"/>
						<path class="st1" d="M630,512.6l72.8-27.8c0.3-0.1,0.5,0.1,0.6,0.3c0.3,1.5,0.6,5.9-4,7.7c-5.8,2.2-6.2,2.2-71.4,27.9
							c-0.7,0.3-1.4-0.4-1.1-1.1l2.6-6.5C629.6,512.9,629.8,512.7,630,512.6z"/>
						<path class="st1" d="M650.8,731.9l72.8-27.8c0.3-0.1,0.5,0.1,0.6,0.3c0.3,1.5,0.6,5.9-4,7.7c-5.8,2.2-6.2,2.2-71.4,27.9
							c-0.7,0.3-1.4-0.4-1.1-1.1l2.6-6.5C650.4,732.2,650.6,732,650.8,731.9z"/>
						<path class="st1" d="M406.4,730.2l72.8-27.8c0.3-0.1,0.5,0.1,0.6,0.3c0.3,1.5,0.6,5.9-4,7.7c-5.8,2.2-6.2,2.2-71.4,27.9
							c-0.7,0.3-1.4-0.4-1.1-1.1l2.6-6.5C406,730.4,406.2,730.2,406.4,730.2z"/>
						<path class="st1" d="M545.5,564.2l42.1-15.3c0.3-0.1,0.5,0.1,0.6,0.3c0.3,1.5,0.6,5.9-4,7.7c-5.8,2.2,24.6-10.3-40.6,15.3
							c-0.7,0.3-1.4-0.4-1.1-1.1l2.6-6.5C545.1,564.5,545.3,564.3,545.5,564.2z"/>
						<path class="st1" d="M812.4,635.7l87.1-33.9c0.3-0.1,0.5,0.1,0.6,0.3c0.3,1.5,0.6,5.9-4,7.7c-5.8,2.2-20.5,8.3-85.7,33.9
							c-0.7,0.3-1.4-0.4-1.1-1.1l2.6-6.5C812,636,812.2,635.8,812.4,635.7z"/>
						<path class="st1" d="M716.5,576.3c-7.1-7.6-11.7-9.5-10-15.6s3.5-8.7,3.5-10.8c0,0-2.6-1.3-3.7,1.1c0,0-9.1,16-12.3,33.1
							c-3.1,16.3,2.2,18.3,12.8,14.1C716.1,594.4,722.3,582.4,716.5,576.3z M703.5,591c-4.8,1.3-6.9,0-6.5-3.9
							c0.4-3.2,2.7-9.6,3.6-11.8c0.2-0.5,0.7-0.7,1.1-0.5c2.7,1.2,8.2,5.3,10.9,8.4C715.6,586.7,708.3,589.7,703.5,591z"/>
						<path class="st1" d="M650.4,521c-1.8-0.6-2.6,2.2-3,2.2s-0.9,1.3-0.9,1.3c-4.8,9.5-23,14.3-23,14.3c-0.6,1.1,1.1,0.6,10.2-1.5
							s12.6-10.4,12.6-10.4c0-1.7,1.7,0.4,3,1.3c1.3,0.9,3.1,0.7,3.7-1.9C653.7,523.4,652.4,521.7,650.4,521z M651.5,526.4
							c-0.4,0.4-3.5-0.9-3-2.2c0,0,0.4-0.9,1.7-0.4C651.5,524.3,651.9,526,651.5,526.4z"/>
					</g>
				</g>
				<g>
					<g>
						<path class="st1" d="M524.8,433.1c-4.4-8-15.8-7.5-23.2-16.2c1.9-0.1,3.8-0.4,4.8-0.6c0.3-0.1,0.4-0.5,0.1-0.6
							c-3-1.7-6.9-3.3-8.2-3.8c-0.2-0.1-0.5,0.1-0.5,0.3v5c0,0,2.2,6.1,12.5,12.1c10.3,6,16.3,6.6,12.8,10
							c-3.5,3.3-14.6,13-25.2,16.3c-6.4,2-10.9,1.5-7.8-15.7c0,0,0-0.1,0-0.1l-0.3-0.8c-0.1-0.1-0.3-0.1-0.3,0
							c-1,3.3-2.7,10-2.7,14.5c0,5.5,1.1,9.1,5.9,9.2c5.7,0.1,19.2-6.7,26-13.4C525.3,442.7,528.1,439,524.8,433.1z"/>
						<path class="st1" d="M553.8,432.2c-4.4-8-15.8-7.5-23.2-16.2c1.9-0.1,3.8-0.4,4.8-0.6c0.3-0.1,0.4-0.5,0.1-0.6
							c-3-1.7-6.9-3.3-8.2-3.8c-0.2-0.1-0.5,0.1-0.5,0.3v5c0,0,2.2,6.1,12.5,12.1c10.3,6,16.3,6.6,12.8,10
							c-3.5,3.3-14.6,13-25.2,16.3c-6.4,2-10.9,1.5-7.8-15.7c0,0,0-0.1,0-0.1l-0.3-0.8c-0.1-0.1-0.3-0.1-0.3,0
							c-1,3.3-2.7,10-2.7,14.5c0,5.5,1.1,9.1,5.9,9.2c5.7,0.1,19.2-6.7,26-13.4C554.3,441.8,557.2,438.2,553.8,432.2z"/>
						<path class="st1" d="M645.6,435.8l-0.4,0.2c0,0-0.1,0.1-0.1,0.1c-0.4,0.8-3.6,7.8-4.5,11.9c-0.8,3.7-2,9.7,1.2,12.1
							c3.2,2.4,6.9-4.5,6.9-8.5c0-0.1,0-0.1,0-0.1l-0.1-0.2c-0.1-0.2-0.4-0.2-0.5,0c-0.6,1-2.1,3.5-3.8,3.3
							c-2.1-0.3-2.4-1.9-1.9-6.9c0.4-4.1,2.7-9.7,3.6-11.7C646.1,435.9,645.8,435.6,645.6,435.8z"/>
						<path class="st1" d="M558.9,395l-0.4,0.2c0,0-0.1,0.1-0.1,0.1c-0.4,0.8-3.6,7.8-4.5,11.9c-0.8,3.7-2,9.7,1.2,12.1
							c3.2,2.4,6.9-4.5,6.9-8.5c0-0.1,0-0.1,0-0.1l-0.1-0.2c-0.1-0.2-0.4-0.2-0.5,0c-0.6,1-2.1,3.5-3.8,3.3
							c-2.1-0.3-2.4-1.9-1.9-6.9c0.4-4.1,2.7-9.7,3.6-11.7C559.4,395.1,559.2,394.9,558.9,395z"/>
						<path class="st1" d="M502.9,444.7c0,0-1.2-8.7-5.7-10.2c0,0-1.3-0.6-2.4,1.7c-1.1,2.4,0,2.6,1.1,3.2c1.1,0.6,1.5-0.9,1.9-0.9
							s4.1,5.6,4.1,10.5c0,0,1.1-0.2,1.3-1.1c0.2-0.9,1.5-8.8,2.6-10.7c1.1-1.9,2.1-0.4,2.8,0.4s1.9-0.6,1.5-2.1
							c-0.4-1.5-1.8-3.5-3.7-2C504.4,435.1,503,443.1,502.9,444.7z"/>
						<path class="st1" d="M644.8,396.8c0,0-1.4-10.3-6.7-12.1c0,0-1.5-0.8-2.8,2c-1.3,2.8,0,3,1.3,3.8s1.8-1,2.3-1
							c0.5,0,4.8,6.6,4.8,12.4c0,0,1.3-0.3,1.5-1.3c0.3-1,1.8-10.4,3-12.7s2.5-0.5,3.3,0.5c0.8,1,2.3-0.8,1.8-2.5s-2.2-4.2-4.4-2.4
							C646.6,385.4,645,394.9,644.8,396.8z"/>
						<path class="st1" d="M588.4,453.7c0,0-0.8-5.7-3.8-6.7c0,0-0.9-0.4-1.6,1.1c-0.7,1.6,0,1.7,0.7,2.1c0.7,0.4,1-0.6,1.3-0.6
							c0.3,0,2.7,3.7,2.7,7c0,0,0.7-0.1,0.9-0.7s1-5.8,1.7-7.1c0.7-1.3,1.4-0.3,1.8,0.3c0.4,0.6,1.3-0.4,1-1.4
							c-0.3-1-1.2-2.3-2.5-1.3C589.4,447.3,588.5,452.7,588.4,453.7z"/>
						<path class="st1" d="M644.9,397.1c0,0-1.4-10.3-6.7-12.1c0,0-1.5-0.8-2.8,2s0,3.1,1.3,3.8c1.3,0.8,1.8-1,2.3-1
							c0.5,0,4.8,6.6,4.8,12.5c0,0,1.3-0.3,1.5-1.3c0.3-1,1.8-10.4,3.1-12.7c1.3-2.3,2.5-0.5,3.3,0.5c0.8,1,2.3-0.8,1.8-2.5
							s-2.2-4.2-4.5-2.4C646.6,385.6,645,395.2,644.9,397.1z"/>
						<path class="st1" d="M588.3,454.2c0,0-0.8-6.1-4-7.1c0,0-0.9-0.5-1.7,1.2s0,1.8,0.8,2.3c0.8,0.5,1.1-0.6,1.4-0.6
							s2.9,3.9,2.9,7.4c0,0,0.8-0.2,0.9-0.8c0.2-0.6,1.1-6.2,1.8-7.5s1.5-0.3,2,0.3c0.5,0.6,1.4-0.5,1.1-1.5
							c-0.3-1.1-1.3-2.5-2.6-1.4C589.4,447.5,588.4,453.1,588.3,454.2z"/>
						<path class="st1" d="M541.2,479.6l34.2-13.1c0.1,0,0.3,0,0.3,0.2c0.1,0.7,0.3,2.8-1.9,3.6c-2.7,1-2.9,1-33.5,13.1
							c-0.3,0.1-0.7-0.2-0.5-0.5l1.2-3C541,479.8,541.1,479.7,541.2,479.6z"/>
						<path class="st1" d="M656.6,400l43.6-16.7c0.2-0.1,0.3,0,0.3,0.2c0.2,0.9,0.4,3.6-2.4,4.6c-3.4,1.3-3.7,1.3-42.7,16.7
							c-0.4,0.2-0.8-0.3-0.7-0.7l1.5-3.9C656.4,400.2,656.5,400,656.6,400z"/>
						<g>
							<path class="st1" d="M593.1,372.4c0,0,4.1,7.5,7.9,16.5c0,0-5-3.8-10.5-8.5C590.5,380.3,591.2,376.8,593.1,372.4z"/>
							<path class="st1" d="M590.5,380.3c0,0,1.4,0.8,2.2,5.1c0.8,4.3,3.3,57.3,3.3,57.3s1.3,15.2-1.3,20c0,0,7.6-6.5,6.3-20.4
								c-1.5-14.9-4.4-58.9-4.4-58.9S594.4,378.1,590.5,380.3z"/>
						</g>
						<g>
							<path class="st1" d="M512.1,374.5c0,0,4.1,7.5,7.9,16.5c0,0-5-3.8-10.5-8.5C509.5,382.5,510.2,379,512.1,374.5z"/>
							<path class="st1" d="M509.5,382.5c0,0,1.4,0.8,2.2,5.1c0.8,4.3,3.3,57.3,3.3,57.3s1.3,15.2-1.3,20c0,0,7.6-6.5,6.3-20.4
								c-1.5-14.9-4.4-58.9-4.4-58.9S513.3,380.3,509.5,382.5z"/>
						</g>
						<path class="st1" d="M655,419.8c-11.3,9.1-16.6,9.6-19.9,8.2c-8.2-3.5-8.2-15.2-8.2-15.2c6.5-6.1,21.7-2.2,21.7-2.2
							c-13.9-13-24.3-1.7-25.1,4.8c-0.7,5.2,2.6,12.1,2.6,12.1c-6.5-1.3-6.1-27.3-6.1-37.7c0-10.4-3.2-21-3.2-21l-3.7,5.8
							c0,0,0.9,1.7,2.2,10c1.3,8.2,1.7,29.9,2.2,37.7c0.4,7.8-11.7,10.8-11.7,10.8l-3,5.6c0,0,4.8,0.9,16.9,3.5
							c9.5,2-2.2,7.4-11.7,12.1s-21.3,8.7-29.5-0.9c-1-1.2-1.8-2.5-2.4-3.8c0.5-1,0.6-2,0.6-3c1.9-0.1,4.6-0.6,7-2.8
							c3.5-3,5.2-7.8,5.2-17.3c0-15.1-1.4-33.2-1.9-39.1c2.6,2.1,4.3,3.4,4.3,3.4c-3.8-9-7.9-16.5-7.9-16.5c-2,4.5-2.6,8-2.6,8
							c0.1,0.1,0.2,0.1,0.3,0.2c0.4,0.4,1.4,1.7,1.9,4.9c0.5,2.9,2.9,23.6,2.9,39.6c0,7.7-1.3,13.8-10.2,13.4
							c-0.4-1.1-0.9-2.6-1.6-4.1c0.6-7,3.2-12.8,3.2-12.8c-0.2,0.2-0.3-0.9-0.4-0.7c-2.1,3.3-3.4,6.9-4.2,10.4
							c-1.4-2.4-3-4.6-4.8-5.4c-5.2-2.2-9.5,4.8-10,8.7c-0.4,3.5,0,7.4,5.6,7.8c4.3,0.3,6-0.1,7.8,0.6c0,2.9,0.2,4.8,0.2,4.8
							c-8.2,9.5-25.1,21.2-33.4,14.3c-8.2-6.9-2.2-21.2-2.2-21.2v-1.3c0,0-5.4,8-3.7,18.4s6.1,13,15.2,12.6
							c9.1-0.4,25.6-18.2,25.6-18.2c3.5,6.9,8.2,11.3,16.9,11.7c8.7,0.4,27.7-9.5,32.9-13.9c5.2-4.3,4.8-10.4,2.6-13
							s-12.1-4.8-12.1-4.8c6.1-3,6.1-11.7,6.1-11.7s1.3,4.8,4.8,9.5s15.4,4.1,24.3-2.2C657.1,423.7,655,419.8,655,419.8z M562.7,438
							c0,0-3-0.9-1.7-3c1.3-2.2,6.5-1.3,7.8,3H562.7z"/>
						<path class="st1" d="M678.6,440.4l-3.9-9.5c0,0-11.7-8.2-13-13.4c-1.3-5.2,3.9-10,7.8-10c3.9,0,25,1.7,45.6,8.8
							c0.4,0.2,0.7,0.6,0.5,1.1l-1.8,6.1c-0.1,0.3-0.3,0.5-0.6,0.6c-3.9,1.2-32.3,9.9-44,13.9c0,0,12.6,3.5,12.6,7.4
							s-2.2,12.6-15.2,19.5c-13,6.9-35.5,15.2-42.5,0c-6.9-15.2,4.3-33.4,4.3-33.4l1.3,0.9c0,0-8.2,15.6-3,26.9
							c5.2,11.3,26.4,4.8,29.9,3.5c3.5-1.3,19.1-9.5,21.7-12.6c0,0-11.7-5.6-21.7-7.8l0.9-5.2c0,0,32.5-13.9,45.1-16
							c0,0-23.7-8.7-36.4-6.8c-0.7,0.1-1,1-0.4,1.5l14.8,13.6L678.6,440.4z"/>
						<path class="st1" d="M545.5,388.1c-1.6-0.5-2.2,1.9-2.6,1.9c-0.4,0-0.7,1.1-0.7,1.1c-4.1,8.1-19.6,12.2-19.6,12.2
							c-0.6,0.9,0.9,0.6,8.7-1.3s10.7-8.9,10.7-8.9c0-1.5,1.5,0.4,2.6,1.1c1.1,0.7,2.6,0.6,3.1-1.7
							C548.3,390.1,547.2,388.6,545.5,388.1z M546.5,392.7c-0.4,0.4-3-0.7-2.6-1.9c0,0,0.4-0.7,1.5-0.4
							C546.5,390.8,546.8,392.3,546.5,392.7z"/>
					</g>
				</g>
			</g>
		</g>
	</g>
	<g>
		<g>
			<path class="st1" d="M365.5,804h-79.7l-0.2-2.2c-0.8-9.5-4.1-16.5-9.7-20.6c-8.6-6.4-20.1-4-20.2-4l-2.6,0.6l-0.4-2.6
				c-1.8-13.7-2.8-27.6-2.8-41.3c0-66.8,21.4-131,61.8-185.7c39.5-53.4,94.3-94.3,158.6-118.3l1.7,4.6
				c-132,49.2-217.3,166.7-217.3,299.4c0,12.7,0.8,25.6,2.4,38.3c4.5-0.4,13.8-0.5,21.5,5.2c6.3,4.6,10.1,12,11.4,21.8h75.3V804z"/>
		</g>
		<g>
			<path class="st1" d="M914.2,804h-79.7v-4.9h75.3c1.3-9.9,5.1-17.2,11.4-21.8c7.8-5.7,17.1-5.7,21.5-5.2
				c1.6-12.7,2.4-25.5,2.4-38.3c0-132.7-85.3-250.2-217.3-299.4l1.7-4.6c64.3,24,119.1,64.9,158.6,118.3
				c40.4,54.7,61.8,118.9,61.8,185.7c0,13.8-0.9,27.7-2.8,41.3l-0.4,2.6l-2.6-0.6c-0.1,0-11.6-2.4-20.2,4c-5.6,4.1-8.8,11-9.6,20.5
				L914.2,804z"/>
		</g>
	</g>
</g>
</svg>
