<?xml version="1.0" encoding="utf-8"?>
<!-- Generator: Adobe Illustrator 22.0.0, SVG Export Plug-In . SVG Version: 6.00 Build 0)  -->
<svg version="1.1" id="Layer_1" xmlns="http://www.w3.org/2000/svg" xmlns:xlink="http://www.w3.org/1999/xlink" x="0px" y="0px"
	 viewBox="0 0 1198.6 41.1" style="enable-background:new 0 0 1198.6 41.1;" xml:space="preserve">
<style type="text/css">
	.st0{fill:#DDAA66;}
</style>
<g>
	<g>
		<g>
			<rect x="299.7" y="36.9" class="st0" width="299.7" height="4.2"/>
			<rect x="299.7" class="st0" width="299.7" height="4.2"/>
			<path class="st0" d="M599.4,24.4L599.4,24.4l0.1-8.3h-0.1c-0.1,0-0.1,0-0.2,0c-1.2,0-2.9,1.1-3.8,2.2c-0.2,0.3-0.5,0.7-0.5,1
				c0.1,0.6,1.3,0.8,2.2,0.8c0.1,0,0.2,0,0.3,0c-1.6,1.5-1.3,3.8-1.2,4.2c-1.7,1.6-3.4,2.8-5.1,3.7c-0.6-0.4-1.2-0.9-1.6-1.5
				c-1.8-2.2-1.8-4.6-1.8-5.4c0.4,0.5,0.9,0.7,1.6,0.7c0.9,0,1.6-0.4,1.6-0.5c1.1-0.8,0.9-2.5,0.8-3c1.3-0.3,1.7-1.1,1.9-1.8
				c0.2-0.7,0.1-1.4,0.1-1.4h-0.2c0,0,0,0.1,0,0.3s-0.1,0.4-0.3,0.6c-0.6,0.7-2,0.7-4.1,0c-0.6-0.2-1.2-0.3-1.7-0.3
				c-2.8,0-3.3,3.1-3.4,4.2c-1.5-2.5-6.2-6.4-6.4-6.6c-0.8-0.5-1.5-1-2.3-1.4l0.2-0.1c1.9-1.1,3.9-1.3,5.6-1.3
				c-0.4,0.5-0.7,1.1-0.7,1.7c0,1.4,1.1,2.5,2.4,2.5c1.3,0,2.4-1.1,2.4-2.5c0-0.1,0-0.3,0-0.4c2.1,1.7,3.9,2.3,5.3,1.8
				c2.2-0.9,2.6-4.2,2.6-4.3h-0.2c-0.1,0.5-0.3,0.9-0.8,1.2c-1.6,1-5.2,0-6.9-0.7c-1.1-0.4-2.4-0.7-3.4-0.9c-0.5-0.1-1-0.2-1.3-0.2
				S580,8.6,580,8.6c-2.7-0.3-4.7,1-6.2,2.6c-2.2-1-4.4-1.4-6.5-1.4c-2.6,0-4.7,0.7-6.4,1.5c-2.4-1.4-4.9-2.1-7.3-2.1
				c-2.9,0-5.2,1-6.8,2.1c-0.8,0.5-1.4,1-1.8,1.4c-0.2,0.2-0.4,0.4-0.5,0.5s-0.2,0.2-0.2,0.2c-0.4,0.4-0.8,0.6-1.1,0.6
				s-0.4-0.2-0.4-0.2c0.2-1.4-0.6-2.3-1.5-2.8c-0.4-0.3-0.9-0.4-1.2-0.5c-0.2-0.1-0.3-0.1-0.4-0.1c-0.1,0-0.2,0-0.2,0h-0.1v3.8l0,0
				c0.5,0.7,1.3,1,2.5,1c0.8,0,1.5-0.2,1.9-0.3c-1.1,1-2.8,1.2-3.8,1.2c-0.3,0-0.5,0-0.5,0h-0.1l0,0h-0.1c-0.1,0-0.1,0-0.2,0
				c-1.2,0-2.9,1.1-3.8,2.2c-0.2,0.3-0.5,0.7-0.5,1c0.1,0.6,1.3,0.8,2.2,0.8c0.1,0,0.2,0,0.3,0c-1.6,1.5-1.3,3.8-1.2,4.2
				c-1.7,1.6-3.4,2.8-5.1,3.7c-0.6-0.4-1.2-0.9-1.6-1.5c-1.8-2.2-1.8-4.6-1.8-5.4c0.4,0.5,0.9,0.7,1.6,0.7c0.9,0,1.6-0.4,1.6-0.5
				c1.1-0.8,0.9-2.5,0.8-3c1.3-0.3,1.7-1.1,1.9-1.8c0.2-0.7,0.1-1.4,0.1-1.4h-0.2c0,0,0,0.1,0,0.3s-0.1,0.4-0.3,0.6
				c-0.6,0.7-2,0.7-4.1,0c-0.6-0.2-1.2-0.3-1.7-0.3c-2.8,0-3.3,3.1-3.4,4.2c-1.5-2.5-6.2-6.4-6.4-6.6c-0.8-0.5-1.5-1-2.3-1.4
				l0.2-0.1c1.9-1.1,3.9-1.3,5.6-1.3c-0.4,0.5-0.7,1.1-0.7,1.7c0,1.4,1.1,2.5,2.4,2.5c1.3,0,2.4-1.1,2.4-2.5c0-0.1,0-0.3,0-0.4
				c2.1,1.7,3.9,2.3,5.3,1.8c2.2-0.9,2.6-4.2,2.6-4.3h-0.2c-0.1,0.5-0.3,0.9-0.8,1.2c-1.6,1-5.2,0-6.9-0.7c-1.1-0.4-2.4-0.7-3.4-0.9
				c-0.5-0.1-1-0.2-1.3-0.2s-0.5-0.1-0.5-0.1c-2.7-0.3-4.7,1-6.2,2.6c-2.2-1-4.4-1.4-6.5-1.4c-2.6,0-4.7,0.7-6.4,1.5
				c-2.4-1.4-4.9-2.1-7.3-2.1c-2.9,0-5.2,1-6.8,2.1c-0.8,0.5-1.4,1-1.8,1.4c-0.2,0.2-0.4,0.4-0.5,0.5s-0.2,0.2-0.2,0.2
				c-0.4,0.4-0.8,0.6-1.1,0.6c-0.3,0-0.4-0.2-0.4-0.2c0.2-1.4-0.6-2.3-1.5-2.8c-0.4-0.3-0.9-0.4-1.2-0.5c-0.2-0.1-0.3-0.1-0.4-0.1
				s-0.2,0-0.2,0h-0.1v3.8l0,0c0.5,0.7,1.3,1,2.5,1c0.8,0,1.5-0.2,1.9-0.3c-1.1,1-2.8,1.2-3.8,1.2c-0.3,0-0.5,0-0.5,0h-0.1l0,0h-0.1
				c-0.1,0-0.1,0-0.2,0c-1.2,0-2.9,1.1-3.8,2.2c-0.2,0.3-0.5,0.7-0.5,1c0.1,0.6,1.3,0.8,2.2,0.8c0.1,0,0.2,0,0.3,0
				c-1.6,1.5-1.3,3.8-1.2,4.2c-1.7,1.6-3.4,2.8-5.1,3.7c-0.6-0.4-1.2-0.9-1.6-1.5c-1.8-2.2-1.8-4.6-1.8-5.4c0.4,0.5,0.9,0.7,1.6,0.7
				c0.9,0,1.6-0.4,1.6-0.5c1.1-0.8,0.9-2.5,0.8-3c1.3-0.3,1.7-1.1,1.9-1.8c0.2-0.7,0.1-1.4,0.1-1.4h-0.2c0,0,0,0.1,0,0.3
				s-0.1,0.4-0.3,0.6c-0.6,0.7-2,0.7-4.1,0c-0.6-0.2-1.2-0.3-1.7-0.3c-2.8,0-3.3,3.1-3.4,4.2c-1.5-2.5-6.2-6.4-6.4-6.6
				c-0.8-0.5-1.5-1-2.3-1.4l0.2-0.1c1.9-1.1,3.9-1.3,5.6-1.3c-0.4,0.5-0.7,1.1-0.7,1.7c0,1.4,1.1,2.5,2.4,2.5s2.4-1.1,2.4-2.5
				c0-0.1,0-0.3,0-0.4c2.1,1.7,3.9,2.3,5.3,1.8c2.2-0.9,2.6-4.2,2.6-4.3h-0.2c-0.1,0.5-0.3,0.9-0.8,1.2c-1.6,1-5.2,0-6.9-0.7
				c-1.1-0.4-2.4-0.7-3.4-0.9c-0.5-0.1-1-0.2-1.3-0.2s-0.5-0.1-0.5-0.1c-2.7-0.3-4.7,1-6.2,2.6c-2.2-1-4.4-1.4-6.5-1.4
				c-2.6,0-4.7,0.7-6.4,1.5c-2.4-1.4-4.9-2.1-7.3-2.1c-2.9,0-5.2,1-6.8,2.1c-0.8,0.5-1.4,1-1.8,1.4c-0.2,0.2-0.4,0.4-0.5,0.5
				s-0.2,0.2-0.2,0.2c-0.4,0.4-0.8,0.6-1.1,0.6c-0.3,0-0.4-0.2-0.4-0.2c0.2-1.4-0.6-2.3-1.5-2.8c-0.4-0.3-0.9-0.4-1.2-0.5
				c-0.2-0.1-0.3-0.1-0.4-0.1s-0.2,0-0.2,0h-0.1v3.8l0,0c0.5,0.7,1.3,1,2.5,1c0.8,0,1.5-0.2,1.9-0.3c-1.1,1-2.8,1.2-3.8,1.2
				c-0.3,0-0.5,0-0.5,0h-0.1l0,0h-0.1c-0.1,0-0.1,0-0.2,0c-1.2,0-2.9,1.1-3.8,2.2c-0.2,0.3-0.5,0.7-0.5,1c0.1,0.6,1.3,0.8,2.2,0.8
				c0.1,0,0.2,0,0.3,0c-1.6,1.5-1.3,3.8-1.2,4.2c-1.7,1.6-3.4,2.8-5.1,3.7c-0.6-0.4-1.2-0.9-1.6-1.5c-1.8-2.2-1.8-4.6-1.8-5.4
				c0.4,0.5,0.9,0.7,1.6,0.7c0.9,0,1.6-0.4,1.6-0.5c1.1-0.8,0.9-2.5,0.8-3c1.3-0.3,1.7-1.1,1.9-1.8c0.2-0.7,0.1-1.4,0.1-1.4h-0.2
				c0,0,0,0.1,0,0.3s-0.1,0.4-0.3,0.6c-0.6,0.7-2,0.7-4.1,0c-0.6-0.2-1.2-0.3-1.7-0.3c-2.8,0-3.3,3.1-3.4,4.2
				c-1.5-2.5-6.2-6.4-6.4-6.6c-0.8-0.5-1.5-1-2.3-1.4l0.2-0.1c1.9-1.1,3.9-1.3,5.6-1.3c-0.4,0.5-0.7,1.1-0.7,1.7
				c0,1.4,1.1,2.5,2.4,2.5s2.4-1.1,2.4-2.5c0-0.1,0-0.3,0-0.4c2.1,1.7,3.9,2.3,5.3,1.8c2.2-0.9,2.6-4.2,2.6-4.3h-0.2
				c-0.1,0.5-0.3,0.9-0.8,1.2c-1.6,1-5.2,0-6.9-0.7c-1.1-0.4-2.4-0.7-3.4-0.9c-0.5-0.1-1-0.2-1.3-0.2s-0.5-0.1-0.5-0.1
				c-2.7-0.3-4.7,1-6.2,2.6c-2.2-1-4.4-1.4-6.5-1.4c-2.6,0-4.7,0.7-6.4,1.5c-2.4-1.4-4.9-2.1-7.3-2.1c-2.9,0-5.2,1-6.8,2.1
				c-0.8,0.5-1.4,1-1.8,1.4c-0.2,0.2-0.4,0.4-0.5,0.5s-0.2,0.2-0.2,0.2c-0.4,0.4-0.8,0.6-1.1,0.6c-0.3,0-0.4-0.2-0.4-0.2
				c0.2-1.4-0.6-2.3-1.5-2.8c-0.4-0.3-0.9-0.4-1.2-0.5c-0.2-0.1-0.3-0.1-0.4-0.1s-0.2,0-0.2,0h-0.1v3.8l0,0c0.5,0.7,1.3,1,2.5,1
				c0.8,0,1.5-0.2,1.9-0.3c-1.1,1-2.8,1.2-3.8,1.2c-0.3,0-0.5,0-0.5,0h-0.1l0,0H359c-0.1,0-0.1,0-0.2,0c-1.2,0-2.9,1.1-3.8,2.2
				c-0.2,0.3-0.5,0.7-0.5,1c0.1,0.6,1.3,0.8,2.2,0.8c0.1,0,0.2,0,0.3,0c-1.6,1.5-1.3,3.8-1.2,4.2c-1.7,1.6-3.4,2.8-5.1,3.7
				c-0.6-0.4-1.2-0.9-1.6-1.5c-1.8-2.2-1.8-4.6-1.8-5.4c0.4,0.5,0.9,0.7,1.6,0.7c0.9,0,1.6-0.4,1.6-0.5c1.1-0.8,0.9-2.5,0.8-3
				c1.3-0.3,1.7-1.1,1.9-1.8c0.2-0.7,0.1-1.4,0.1-1.4h-0.2c0,0,0,0.1,0,0.3s-0.1,0.4-0.3,0.6c-0.6,0.7-2,0.7-4.1,0
				c-0.6-0.2-1.2-0.3-1.7-0.3c-2.8,0-3.3,3.1-3.4,4.2c-1.5-2.5-6.2-6.4-6.4-6.6c-0.8-0.5-1.5-1-2.3-1.4l0.2-0.1
				c1.9-1.1,3.9-1.3,5.6-1.3c-0.4,0.5-0.7,1.1-0.7,1.7c0,1.4,1.1,2.5,2.4,2.5s2.4-1.1,2.4-2.5c0-0.1,0-0.3,0-0.4
				c2.1,1.7,3.9,2.3,5.3,1.8c2.2-0.9,2.6-4.2,2.6-4.3h-0.2c-0.1,0.5-0.3,0.9-0.8,1.2c-1.6,1-5.2,0-6.9-0.7c-1.1-0.4-2.4-0.7-3.4-0.9
				c-0.5-0.1-1-0.2-1.3-0.2s-0.5-0.1-0.5-0.1c-2.7-0.3-4.7,1-6.2,2.6c-2.2-1-4.4-1.4-6.5-1.4c-2.6,0-4.7,0.7-6.4,1.5
				c-2.4-1.4-4.9-2.1-7.3-2.1c-2.9,0-5.2,1-6.8,2.1c-0.8,0.5-1.4,1-1.8,1.4c-0.2,0.2-0.4,0.4-0.5,0.5s-0.2,0.2-0.2,0.2
				c-0.4,0.4-0.8,0.6-1.1,0.6c-0.3,0-0.4-0.2-0.4-0.2c0.2-1.4-0.6-2.3-1.5-2.8c-0.4-0.3-0.9-0.4-1.2-0.5c-0.2-0.1-0.3-0.1-0.4-0.1
				s-0.2,0-0.2,0H299v3.8l0,0c0.5,0.7,1.3,1,2.5,1c0.8,0,1.5-0.2,1.9-0.3c-1.1,1-2.8,1.2-3.8,1.2c-0.3,0-0.5,0-0.5,0H299v8.3h0.1
				c0.8,0,1.4-0.7,1.9-1.4c0,1.7,0.3,4.1,1.8,6.2c-1,0.4-2,0.7-2.6,0.8c-0.3,0.1-0.6,0.1-0.8,0.1c-0.2,0-0.3,0-0.3,0H299v1.6h0.1
				c1.9,0,3.6-0.4,5.2-1c1.6,1.2,3.8,1.9,6.5,1.9l0,0c0.8,0,1.7-0.1,2.6-0.2c0.2,0,3.7-1,5.3-2.1c0.3-0.2,0.7-0.3,1.1-0.3
				c1.2,0,2.3,1,2.4,1.9c0,0.1,0,0.2,0,0.2h0.2c0-0.1,0-0.1,0-0.2c-0.1-1-0.6-4.3-3.3-4.3c-1,0-2.3,0.5-3.8,1.6
				c0-0.2,0.1-0.3,0.1-0.5c0-1.4-1.1-2.5-2.4-2.5s-2.4,1.1-2.4,2.5c0,0.8,0.3,1.4,0.8,1.9c-0.6,0.1-1.3,0.2-2,0.2l0,0
				c-1.4,0-2.6-0.3-3.6-0.7c2.8-1.5,4.6-3.4,4.8-3.6c3.5-0.7,4.1-2.7,4.2-3.3c1.4,0.9,2.5,1.4,3.5,1.4c1.3,0,2-0.9,2.4-1.8
				c0.2-0.5,0.3-0.9,0.3-1.2c0-0.2,0-0.3,0.1-0.4c0-0.1,0-0.2,0-0.2v-0.1H321c-0.4,0.2-0.8,0.2-1.1,0.2c-1.1,0-1.8-0.9-1.9-2.3
				c-0.1-1.7,0.9-4,3-5.5c2.6,1.6,4.3,3.6,4.5,3.8c-0.4,3.1,0.5,4.3,1.3,4.8c-1.4,0-2.4,0.9-2.4,1l0,0l0,0c-0.1,0.9,0.4,1.5,0.9,1.8
				c0.3,0.2,0.5,0.2,0.7,0.3c0.2,0.1,0.4,0.1,0.4,0.1c0.3,0,0.7,0,1.1,0c1.9,0,3.5,0.4,4.5,0.8c-0.2,0-0.5-0.1-0.8-0.1
				c-1.3,0-2.5,0.5-3.3,1.5c-0.6,0.7-0.9,1.4-0.8,2.1c0.1,1.2,1,2,1,2.1l0,0l0,0c1.4-0.5,2.3-1.3,2.8-2.3s0.3-2,0.2-2.3
				c0.2-0.1,0.4-0.1,0.6-0.1c0.4,0,0.7,0.1,1,0.2s0.4,0.2,0.4,0.2l0,0c2.9,2.5,6.1,3.7,9.6,3.7c2,0,3.9-0.4,5.6-1
				c3.5,1.8,8.2,1.9,9.9,1.9c0.4,0,0.6,0,0.6,0h0.1l0,0h0.1c1.9,0,3.6-0.4,5.2-1c1.6,1.2,3.8,1.9,6.5,1.9l0,0c0.8,0,1.7-0.1,2.6-0.2
				c0.2,0,3.7-1,5.3-2.1c0.3-0.2,0.7-0.3,1.1-0.3c1.2,0,2.3,1,2.4,1.9c0,0.1,0,0.2,0,0.2h0.2c0-0.1,0-0.1,0-0.2
				c-0.1-1-0.6-4.3-3.3-4.3c-1,0-2.3,0.5-3.8,1.6c0-0.2,0.1-0.3,0.1-0.5c0-1.4-1.1-2.5-2.4-2.5s-2.4,1.1-2.4,2.5
				c0,0.8,0.3,1.4,0.8,1.9c-0.6,0.1-1.3,0.2-2,0.2l0,0c-1.4,0-2.6-0.3-3.6-0.7c2.8-1.5,4.6-3.4,4.8-3.6c3.5-0.7,4.1-2.7,4.2-3.3
				c1.4,0.9,2.5,1.4,3.5,1.4c1.3,0,2-0.9,2.4-1.8c0.2-0.5,0.3-0.9,0.3-1.2c0-0.2,0-0.3,0.1-0.4c0-0.1,0-0.2,0-0.2V21h-0.1
				c-0.4,0.2-0.8,0.2-1.1,0.2c-1.1,0-1.8-0.9-1.9-2.3c-0.1-1.7,0.9-4,3-5.5c2.6,1.6,4.3,3.6,4.5,3.8c-0.4,3.1,0.5,4.3,1.3,4.8
				c-1.4,0-2.4,0.9-2.4,1l0,0l0,0c-0.1,0.9,0.4,1.5,0.9,1.8c0.3,0.2,0.5,0.2,0.7,0.3c1.1-0.1,1.2-0.1,1.2-0.1c0.3,0,0.7,0,1.1,0
				c1.9,0,3.5,0.4,4.5,0.8c-0.2,0-0.5-0.1-0.8-0.1c-1.3,0-2.5,0.5-3.3,1.5c-0.6,0.7-0.9,1.4-0.8,2.1c0.1,1.2,1,2,1,2.1l0,0l0,0
				c1.4-0.5,2.3-1.3,2.8-2.3s0.3-2,0.2-2.3c0.2-0.1,0.4-0.1,0.6-0.1c0.4,0,0.7,0.1,1,0.2s0.4,0.2,0.4,0.2l0,0
				c2.9,2.5,6.1,3.7,9.6,3.7c2,0,3.9-0.4,5.6-1c3.5,1.8,8.2,1.9,9.9,1.9c0.4,0,0.6,0,0.6,0h0.1l0,0h0.1c1.9,0,3.6-0.4,5.2-1
				c1.6,1.2,3.8,1.9,6.5,1.9l0,0c0.8,0,1.7-0.1,2.6-0.2c0.2,0,3.7-1,5.3-2.1c0.3-0.2,0.7-0.3,1.1-0.3c1.2,0,2.3,1,2.4,1.9
				c0,0.1,0,0.2,0,0.2h0.2c0-0.1,0-0.1,0-0.2c-0.1-1-0.6-4.3-3.3-4.3c-1,0-2.3,0.5-3.8,1.6c0-0.2,0.1-0.3,0.1-0.5
				c0-1.4-1.1-2.5-2.4-2.5s-2.4,1.1-2.4,2.5c0,0.8,0.3,1.4,0.8,1.9c-0.6,0.1-1.3,0.2-2,0.2l0,0c-1.4,0-2.6-0.3-3.6-0.7
				c2.8-1.5,4.6-3.4,4.8-3.6c3.5-0.7,4.1-2.7,4.2-3.3c1.4,0.9,2.5,1.4,3.5,1.4c1.3,0,2-0.9,2.4-1.8c0.2-0.5,0.3-0.9,0.3-1.2
				c0-0.2,0-0.3,0.1-0.4c0-0.1,0-0.2,0-0.2v-0.1h-0.1c-0.4,0.2-0.8,0.2-1.1,0.2c-1.1,0-1.8-0.9-1.9-2.3c-0.1-1.7,0.9-4,3-5.5
				c2.6,1.6,4.3,3.6,4.5,3.8c-0.4,3.1,0.5,4.3,1.3,4.8c-1.4,0-2.4,0.9-2.4,1l0,0l0,0c-0.1,0.9,0.4,1.5,0.9,1.8
				c0.3,0.2,0.5,0.2,0.7,0.3c0.3,0,0.5,0,0.5,0c0.3,0,0.7,0,1.1,0c1.9,0,3.5,0.4,4.5,0.8c-0.2,0-0.5-0.1-0.8-0.1
				c-1.3,0-2.5,0.5-3.3,1.5c-0.6,0.7-0.9,1.4-0.8,2.1c0.1,1.2,1,2,1,2.1l0,0l0,0c1.4-0.5,2.3-1.3,2.8-2.3s0.3-2,0.2-2.3
				c0.2-0.1,0.4-0.1,0.6-0.1c0.4,0,0.7,0.1,1,0.2s0.4,0.2,0.4,0.2l0,0c2.9,2.5,6.1,3.7,9.6,3.7c2,0,3.9-0.4,5.6-1
				c3.5,1.8,8.2,1.9,9.9,1.9c0.4,0,0.6,0,0.6,0h0.1l0,0h0.1c1.9,0,3.6-0.4,5.2-1c1.6,1.2,3.8,1.9,6.5,1.9l0,0c0.8,0,1.7-0.1,2.6-0.2
				c0.2,0,3.7-1,5.3-2.1c0.3-0.2,0.7-0.3,1.1-0.3c1.2,0,2.3,1,2.4,1.9c0,0.1,0,0.2,0,0.2h0.2c0-0.1,0-0.1,0-0.2
				c-0.1-1-0.6-4.3-3.3-4.3c-1,0-2.3,0.5-3.8,1.6c0-0.2,0.1-0.3,0.1-0.5c0-1.4-1.1-2.5-2.4-2.5s-2.4,1.1-2.4,2.5
				c0,0.8,0.3,1.4,0.8,1.9c-0.6,0.1-1.3,0.2-2,0.2l0,0c-1.4,0-2.6-0.3-3.6-0.7c2.8-1.5,4.6-3.4,4.8-3.6c3.5-0.7,4.1-2.7,4.2-3.3
				c1.4,0.9,2.5,1.4,3.5,1.4c1.3,0,2-0.9,2.4-1.8c0.2-0.5,0.3-0.9,0.3-1.2c0-0.2,0-0.3,0.1-0.4c0-0.1,0-0.2,0-0.2v-0.1h-0.1
				c-0.4,0.2-0.8,0.2-1.1,0.2c-1.1,0-1.8-0.9-1.9-2.3c-0.1-1.7,0.9-4,3-5.5c2.6,1.6,4.3,3.6,4.5,3.8c-0.4,3.1,0.5,4.3,1.3,4.8
				c-1.4,0-2.4,0.9-2.4,1l0,0l0,0c-0.1,0.9,0.4,1.5,0.9,1.8c0.3,0.2,0.5,0.2,0.7,0.3c0.2,0.1,0.4,0.1,0.4,0.1c0.3,0,0.7,0,1.1,0
				c1.9,0,3.5,0.4,4.5,0.8c-0.2,0-0.5-0.1-0.8-0.1c-1.3,0-2.5,0.5-3.3,1.5c-0.6,0.7-0.9,1.4-0.8,2.1c0.1,1.2,1,2,1,2.1l0,0l0,0
				c1.4-0.5,2.3-1.3,2.8-2.3c0.5-1,0.3-2,0.2-2.3c0.2-0.1,0.4-0.1,0.6-0.1c0.4,0,0.7,0.1,1,0.2s0.4,0.2,0.4,0.2l0,0
				c2.9,2.5,6.1,3.7,9.6,3.7c2,0,3.9-0.4,5.6-1c3.5,1.8,8.2,1.9,9.9,1.9c0.4,0,0.6,0,0.6,0h0.1l0,0h0.1c1.9,0,3.6-0.4,5.2-1
				c1.6,1.2,3.8,1.9,6.5,1.9l0,0c0.8,0,1.7-0.1,2.6-0.2c0.2,0,3.7-1,5.3-2.1c0.3-0.2,0.7-0.3,1.1-0.3c1.2,0,2.3,1,2.4,1.9
				c0,0.1,0,0.2,0,0.2h0.2c0-0.1,0-0.1,0-0.2c-0.1-1-0.6-4.3-3.3-4.3c-1,0-2.3,0.5-3.8,1.6c0-0.2,0.1-0.3,0.1-0.5
				c0-1.4-1.1-2.5-2.4-2.5c-1.3,0-2.4,1.1-2.4,2.5c0,0.8,0.3,1.4,0.8,1.9c-0.6,0.1-1.3,0.2-2,0.2l0,0c-1.4,0-2.6-0.3-3.6-0.7
				c2.8-1.5,4.6-3.4,4.8-3.6c3.5-0.7,4.1-2.7,4.2-3.3c1.4,0.9,2.5,1.4,3.5,1.4c1.3,0,2-0.9,2.4-1.8c0.2-0.5,0.3-0.9,0.3-1.2
				c0-0.2,0-0.3,0.1-0.4c0-0.1,0-0.2,0-0.2V21h-0.1c-0.4,0.2-0.8,0.2-1.1,0.2c-1.1,0-1.8-0.9-1.9-2.3c-0.1-1.7,0.9-4,3-5.5
				c2.6,1.6,4.3,3.6,4.5,3.8c-0.4,3.1,0.5,4.3,1.3,4.8c-1.4,0-2.4,0.9-2.4,1l0,0l0,0c-0.1,0.9,0.4,1.5,0.9,1.8
				c0.3,0.2,0.5,0.2,0.7,0.3c0.2,0.1,0.4,0.1,0.4,0.1c0.3,0,0.7,0,1.1,0c1.9,0,3.5,0.4,4.5,0.8c-0.2,0-0.5-0.1-0.8-0.1
				c-1.3,0-2.5,0.5-3.3,1.5c-0.6,0.7-0.9,1.4-0.8,2.1c0.1,1.2,1,2,1,2.1l0,0l0,0c1.4-0.5,2.3-1.3,2.8-2.3s0.3-2,0.2-2.3
				c0.2-0.1,0.4-0.1,0.6-0.1c0.4,0,0.7,0.1,1,0.2s0.4,0.2,0.4,0.2l0,0c2.9,2.5,6.1,3.7,9.6,3.7c2,0,3.9-0.4,5.6-1
				c3.5,1.8,8.2,1.9,9.9,1.9c0.4,0,0.6,0,0.6,0h0.1v-1.6h-0.1c-3-0.1-5.5-0.6-7.4-1.7c2.9-1.6,4.9-3.3,5.1-3.6
				C597.6,24.9,599.3,24.5,599.4,24.4z M317.3,14c-0.5,0.2-7.1,2.2-7,4.3c0.1,1.2,0.8,1.5,1.3,1.5c0.3,0,0.5-0.1,0.7-0.1
				c-1.9,4.9-5,7.5-7.5,8.9c-0.9-1-1.5-2.5-1.7-4.3c0.1,0.1,0.2,0.1,0.3,0.1l0,0l0,0c1.6-0.8,1.8-3.7,1.6-5.7
				c0.8,1.7,2.2,2.1,3.4,2.1c0.7,0,1.3-0.1,1.7-0.2c0.1,0,0.3,0,0.4-0.1h0.1l0,0l0,0l0.6-0.5l-0.7,0.3c0,0-0.2,0.1-0.4,0.1
				c-0.4-0.1-0.8-0.8-1.3-1.6c-0.2-0.4-0.5-0.9-0.8-1.4c-0.4-0.5-0.8-0.8-1.2-0.8c-0.5,0-0.8,0.3-1,0.4c-0.4-0.9,0.5-2.3,0.5-2.4
				c2.6-2.5,5.5-3.8,8.4-3.8c1.8,0,3.5,0.5,5,1.2C318.3,13,317.4,13.9,317.3,14z M327.3,15.8c-0.3,0-0.5,0-0.6,0.1
				c-1.3-1.3-2.6-2.4-3.9-3.3c1-0.5,2.2-0.9,3.7-1c0.3,0,0.5,0,0.8,0c1.9,0,3.8,0.6,5.4,1.6c-1,1.6-1.7,3.3-2,4.4
				C329.5,16,328.1,15.8,327.3,15.8z M331.4,18.4L331.4,18.4c0-0.1,0-0.1,0-0.1S331.4,18.3,331.4,18.4z M344.8,29.7
				c-5.8,0-9-4.2-9.4-4.7c-0.3-0.5-0.5-0.8-0.5-0.9c0.1,0,0.2,0,0.3,0c1.1,0,2.5-1,2.6-1l0,0c0.5-0.7,0.7-1.5,0.5-2.1
				c-0.3-0.7-1.3-0.9-2.5-0.4c-1.8,0.7-1.9,3.1-1.8,4.3c-0.1-0.8-0.1-2.4-0.1-3.8v-0.6c0-1.2-0.2-2-0.3-2.5
				c-0.2-0.5-0.3-0.7-0.3-0.7s-0.5-0.7-1-0.7c-0.2,0-0.4,0.1-0.5,0.3c0,0,0,0.1-0.1,0.1c0.5-1.3,1.1-2.5,1.9-3.4
				c4.4,3,7.4,8.1,8.1,9.4c-0.1-0.1-0.3-0.1-0.5-0.1c-0.4,0-0.9,0.2-1.3,0.7c-0.4,0.4-0.5,1-0.3,1.5c0.3,0.9,1.3,1.6,2,1.5
				c1-0.1,4.3,0.9,4.6,1c0.5,0.6,1.1,1.1,1.7,1.6C346.9,29.6,345.9,29.7,344.8,29.7z M360.8,30c-0.3,0.1-0.6,0.1-0.8,0.1
				c-0.2,0-0.3,0-0.3,0h-0.1l0,0h-0.1c-3-0.1-5.5-0.6-7.4-1.7c2.9-1.6,4.9-3.3,5.1-3.6c0.6,0,2.2-0.4,2.3-0.4h0.1l0,0h0.1
				c0.8,0,1.4-0.7,1.9-1.4c0,1.7,0.3,4.1,1.8,6.2C362.4,29.6,361.5,29.9,360.8,30z M377.2,14c-0.5,0.2-7.1,2.2-7,4.3
				c0.1,1.2,0.8,1.5,1.3,1.5c0.3,0,0.5-0.1,0.7-0.1c-1.9,4.9-5,7.5-7.5,8.9c-0.9-1-1.5-2.5-1.7-4.3c0.1,0.1,0.2,0.1,0.3,0.1l0,0l0,0
				c1.6-0.8,1.8-3.7,1.6-5.7c0.8,1.7,2.2,2.1,3.4,2.1c0.7,0,1.3-0.1,1.7-0.2c0.1,0,0.3,0,0.4-0.1h0.1l0,0l0,0l0.6-0.5l-0.7,0.3
				c0,0-0.2,0.1-0.4,0.1c-0.4-0.1-0.8-0.8-1.3-1.6c-0.2-0.4-0.5-0.9-0.8-1.4c-0.4-0.5-0.8-0.8-1.2-0.8c-0.5,0-0.8,0.3-1,0.4
				c-0.4-0.9,0.5-2.3,0.5-2.4c2.6-2.5,5.5-3.8,8.4-3.8c1.8,0,3.5,0.5,5,1.2C378.2,13,377.4,13.9,377.2,14z M387.3,15.8
				c-0.3,0-0.5,0-0.6,0.1c-1.3-1.3-2.6-2.4-3.9-3.3c1-0.5,2.2-0.9,3.7-1c0.3,0,0.5,0,0.8,0c1.9,0,3.8,0.6,5.4,1.6
				c-1,1.6-1.7,3.3-2,4.4C389.4,16,388.1,15.8,387.3,15.8z M391.3,18.4L391.3,18.4c0-0.1,0-0.1,0-0.1S391.3,18.3,391.3,18.4z
				 M404.8,29.7c-5.8,0-9-4.2-9.4-4.7c-0.3-0.5-0.5-0.8-0.5-0.9c0.1,0,0.2,0,0.3,0c1.1,0,2.5-1,2.6-1l0,0c0.5-0.7,0.7-1.5,0.5-2.1
				c-0.3-0.7-1.3-0.9-2.5-0.4c-1.8,0.7-1.9,3.1-1.8,4.3c-0.1-0.8-0.1-2.4-0.1-3.8v-0.6c0-1.2-0.2-2-0.3-2.5
				c-0.2-0.5-0.3-0.7-0.3-0.7s-0.5-0.7-1-0.7c-0.2,0-0.4,0.1-0.5,0.3c0,0,0,0.1-0.1,0.1c0.5-1.3,1.1-2.5,1.9-3.4
				c4.4,3,7.4,8.1,8.1,9.4c-0.1-0.1-0.3-0.1-0.5-0.1c-0.4,0-0.9,0.2-1.3,0.7c-0.4,0.4-0.5,1-0.3,1.5c0.3,0.9,1.3,1.6,2,1.5
				c1-0.1,4.3,0.9,4.6,1c0.5,0.6,1.1,1.1,1.7,1.6C406.9,29.6,405.8,29.7,404.8,29.7z M420.8,30c-0.3,0.1-0.6,0.1-0.8,0.1
				c-0.2,0-0.3,0-0.3,0h-0.1l0,0h-0.1c-3-0.1-5.5-0.6-7.4-1.7c2.9-1.6,4.9-3.3,5.1-3.6c0.6,0,2.2-0.4,2.3-0.4h0.1l0,0h0.1
				c0.8,0,1.4-0.7,1.9-1.4c0,1.7,0.3,4.1,1.8,6.2C422.3,29.6,421.4,29.9,420.8,30z M437.2,14c-0.5,0.2-7.1,2.2-7,4.3
				c0.1,1.2,0.8,1.5,1.3,1.5c0.3,0,0.5-0.1,0.7-0.1c-1.9,4.9-5,7.5-7.5,8.9c-0.9-1-1.5-2.5-1.7-4.3c0.1,0.1,0.2,0.1,0.3,0.1l0,0l0,0
				c1.6-0.8,1.8-3.7,1.6-5.7c0.8,1.7,2.2,2.1,3.4,2.1c0.7,0,1.3-0.1,1.7-0.2c0.1,0,0.3,0,0.4-0.1h0.1l0,0l0,0l0.6-0.5l-0.7,0.3
				c0,0-0.2,0.1-0.4,0.1c-0.4-0.1-0.8-0.8-1.3-1.6c-0.2-0.4-0.5-0.9-0.8-1.4c-0.4-0.5-0.8-0.8-1.2-0.8c-0.5,0-0.8,0.3-1,0.4
				c-0.4-0.9,0.5-2.3,0.5-2.4c2.6-2.5,5.5-3.8,8.4-3.8c1.8,0,3.5,0.5,5,1.2C438.2,13,437.3,13.9,437.2,14z M447.2,15.8
				c-0.3,0-0.5,0-0.6,0.1c-1.3-1.3-2.6-2.4-3.9-3.3c1-0.5,2.2-0.9,3.7-1c0.3,0,0.5,0,0.8,0c1.9,0,3.8,0.6,5.4,1.6
				c-1,1.6-1.7,3.3-2,4.4C449.4,16,448,15.8,447.2,15.8z M451.3,18.4L451.3,18.4c0-0.1,0-0.1,0-0.1S451.3,18.3,451.3,18.4z
				 M464.7,29.7c-5.8,0-9-4.2-9.4-4.7c-0.3-0.5-0.5-0.8-0.5-0.9c0.1,0,0.2,0,0.3,0c1.1,0,2.5-1,2.6-1l0,0c0.5-0.7,0.7-1.5,0.5-2.1
				c-0.3-0.7-1.3-0.9-2.5-0.4c-1.8,0.7-1.9,3.1-1.8,4.3c-0.1-0.8-0.1-2.4-0.1-3.8v-0.6c0-1.2-0.2-2-0.3-2.5
				c-0.2-0.5-0.3-0.7-0.3-0.7s-0.5-0.7-1-0.7c-0.2,0-0.4,0.1-0.5,0.3c0,0,0,0.1-0.1,0.1c0.5-1.3,1.1-2.5,1.9-3.4
				c4.4,3,7.4,8.1,8.1,9.4c-0.1-0.1-0.3-0.1-0.5-0.1c-0.4,0-0.9,0.2-1.3,0.7c-0.4,0.4-0.5,1-0.3,1.5c0.3,0.9,1.3,1.6,2,1.5
				c1-0.1,4.3,0.9,4.6,1c0.5,0.6,1.1,1.1,1.7,1.6C466.8,29.6,465.8,29.7,464.7,29.7z M480.7,30c-0.3,0.1-0.6,0.1-0.8,0.1
				c-0.2,0-0.3,0-0.3,0h-0.1l0,0h-0.1c-3-0.1-5.5-0.6-7.4-1.7c2.9-1.6,4.9-3.3,5.1-3.6c0.6,0,2.2-0.4,2.3-0.4h0.1l0,0h0.1
				c0.8,0,1.4-0.7,1.9-1.4c0,1.7,0.3,4.1,1.8,6.2C482.3,29.6,481.4,29.9,480.7,30z M497.1,14c-0.5,0.2-7.1,2.2-7,4.3
				c0.1,1.2,0.8,1.5,1.3,1.5c0.3,0,0.5-0.1,0.7-0.1c-1.9,4.9-5,7.5-7.5,8.9c-0.9-1-1.5-2.5-1.7-4.3c0.1,0.1,0.2,0.1,0.3,0.1l0,0l0,0
				c1.6-0.8,1.8-3.7,1.6-5.7c0.8,1.7,2.2,2.1,3.4,2.1c0.7,0,1.3-0.1,1.7-0.2c0.1,0,0.3,0,0.4-0.1h0.1l0,0l0,0l0.7-0.5l-0.7,0.3
				c0,0-0.2,0.1-0.4,0.1c-0.4-0.1-0.8-0.8-1.3-1.6c-0.2-0.4-0.5-0.9-0.8-1.4c-0.4-0.5-0.8-0.8-1.2-0.8c-0.5,0-0.8,0.3-1,0.4
				c-0.4-0.9,0.5-2.3,0.5-2.4c2.6-2.5,5.5-3.8,8.4-3.8c1.8,0,3.5,0.5,5,1.2C498.1,13,497.3,13.9,497.1,14z M507.2,15.8
				c-0.3,0-0.5,0-0.6,0.1c-1.3-1.3-2.6-2.4-3.9-3.3c1-0.5,2.2-0.9,3.7-1c0.3,0,0.5,0,0.8,0c1.9,0,3.8,0.6,5.4,1.6
				c-1,1.6-1.7,3.3-2,4.4C509.3,16,508,15.8,507.2,15.8z M511.2,18.4L511.2,18.4c0-0.1,0-0.1,0-0.1S511.2,18.3,511.2,18.4z
				 M524.7,29.7c-5.8,0-9-4.2-9.4-4.7c-0.3-0.5-0.5-0.8-0.5-0.9c0.1,0,0.2,0,0.3,0c1.1,0,2.5-1,2.6-1l0,0c0.5-0.7,0.7-1.5,0.5-2.1
				c-0.3-0.7-1.3-0.9-2.5-0.4c-1.8,0.7-1.9,3.1-1.8,4.3c-0.1-0.8-0.1-2.4-0.1-3.8v-0.6c0-1.2-0.2-2-0.3-2.5
				c-0.2-0.5-0.3-0.7-0.3-0.7s-0.5-0.7-1-0.7c-0.2,0-0.4,0.1-0.5,0.3c0,0,0,0.1-0.1,0.1c0.5-1.3,1.1-2.5,1.9-3.4
				c4.4,3,7.4,8.1,8.1,9.4c-0.1-0.1-0.3-0.1-0.5-0.1c-0.4,0-0.9,0.2-1.3,0.7c-0.4,0.4-0.5,1-0.3,1.5c0.3,0.9,1.3,1.6,2,1.5
				c1-0.1,4.3,0.9,4.6,1c0.5,0.6,1.1,1.1,1.7,1.6C526.8,29.6,525.7,29.7,524.7,29.7z M540.6,30c-0.3,0.1-0.6,0.1-0.8,0.1
				s-0.3,0-0.3,0h-0.1l0,0h-0.1c-3-0.1-5.5-0.6-7.4-1.7c2.9-1.6,4.9-3.3,5.1-3.6c0.6,0,2.2-0.4,2.3-0.4h0.1l0,0h0.1
				c0.8,0,1.4-0.7,1.9-1.4c0,1.7,0.3,4.1,1.8,6.2C542.2,29.6,541.3,29.9,540.6,30z M557.1,14c-0.5,0.2-7.1,2.2-7,4.3
				c0.1,1.2,0.8,1.5,1.3,1.5c0.3,0,0.5-0.1,0.7-0.1c-1.9,4.9-5,7.5-7.5,8.9c-0.9-1-1.5-2.5-1.7-4.3c0.1,0.1,0.2,0.1,0.3,0.1l0,0l0,0
				c1.6-0.8,1.8-3.7,1.6-5.7c0.8,1.7,2.2,2.1,3.4,2.1c0.7,0,1.3-0.1,1.7-0.2c0.1,0,0.3,0,0.4-0.1h0.1l0,0l0,0L551,20l-0.7,0.3
				c0,0-0.2,0.1-0.4,0.1c-0.4-0.1-0.8-0.8-1.3-1.6c-0.2-0.4-0.5-0.9-0.8-1.4c-0.4-0.5-0.8-0.8-1.2-0.8c-0.5,0-0.8,0.3-1,0.4
				c-0.4-0.9,0.5-2.3,0.5-2.4c2.6-2.5,5.5-3.8,8.4-3.8c1.8,0,3.5,0.5,5,1.2C558.1,13,557.2,13.9,557.1,14z M567.1,15.8
				c-0.3,0-0.5,0-0.6,0.1c-1.3-1.3-2.6-2.4-3.9-3.3c1-0.5,2.2-0.9,3.7-1c0.3,0,0.5,0,0.8,0c1.9,0,3.8,0.6,5.4,1.6
				c-1,1.6-1.7,3.3-2,4.4C569.3,16,567.9,15.8,567.1,15.8z M571.2,18.4L571.2,18.4c0-0.1,0-0.1,0-0.1S571.2,18.3,571.2,18.4z
				 M584.6,29.7c-5.8,0-9-4.2-9.4-4.7c-0.3-0.5-0.5-0.8-0.5-0.9c0.1,0,0.2,0,0.3,0c1.1,0,2.5-1,2.6-1l0,0c0.5-0.7,0.7-1.5,0.5-2.1
				c-0.3-0.7-1.3-0.9-2.5-0.4c-1.8,0.7-1.9,3.1-1.8,4.3c-0.1-0.8-0.1-2.4-0.1-3.8v-0.6c0-1.2-0.2-2-0.3-2.5
				c-0.2-0.5-0.3-0.7-0.3-0.7s-0.5-0.7-1-0.7c-0.2,0-0.4,0.1-0.5,0.3c0,0,0,0.1-0.1,0.1c0.5-1.3,1.1-2.5,1.9-3.4
				c4.4,3,7.4,8.1,8.1,9.4c-0.1-0.1-0.3-0.1-0.5-0.1c-0.4,0-0.9,0.2-1.3,0.7c-0.4,0.4-0.5,1-0.3,1.5c0.3,0.9,1.3,1.6,2,1.5
				c1-0.1,4.3,0.9,4.6,1c0.5,0.6,1.1,1.1,1.7,1.6C586.7,29.6,585.7,29.7,584.6,29.7z"/>
		</g>
	</g>
	<g>
		<g>
			<rect x="0.1" y="36.9" class="st0" width="299.7" height="4.2"/>
			<rect x="0.1" class="st0" width="299.7" height="4.2"/>
			<path class="st0" d="M299.8,24.4L299.8,24.4l0.1-8.3h-0.1c-0.1,0-0.1,0-0.2,0c-1.2,0-2.9,1.1-3.8,2.2c-0.2,0.3-0.5,0.7-0.5,1
				c0.1,0.6,1.3,0.8,2.2,0.8c0.1,0,0.2,0,0.3,0c-1.6,1.5-1.3,3.8-1.2,4.2c-1.7,1.6-3.4,2.8-5.1,3.7c-0.6-0.4-1.2-0.9-1.6-1.5
				c-1.8-2.2-1.8-4.6-1.8-5.4c0.4,0.5,0.9,0.7,1.6,0.7c0.9,0,1.6-0.4,1.6-0.5c1.1-0.8,0.9-2.5,0.8-3c1.3-0.3,1.7-1.1,1.9-1.8
				c0.2-0.7,0.1-1.4,0.1-1.4h-0.2c0,0,0,0.1,0,0.3s-0.1,0.4-0.3,0.6c-0.6,0.7-2,0.7-4.1,0c-0.6-0.2-1.2-0.3-1.7-0.3
				c-2.8,0-3.3,3.1-3.4,4.2c-1.5-2.5-6.2-6.4-6.4-6.6c-0.8-0.5-1.5-1-2.3-1.4l0.2-0.1c1.9-1.1,3.9-1.3,5.6-1.3
				c-0.4,0.5-0.7,1.1-0.7,1.7c0,1.4,1.1,2.5,2.4,2.5s2.4-1.1,2.4-2.5c0-0.1,0-0.3,0-0.4c2.1,1.7,3.9,2.3,5.3,1.8
				c2.2-0.9,2.6-4.2,2.6-4.3h-0.2c-0.1,0.5-0.3,0.9-0.8,1.2c-1.6,1-5.2,0-6.9-0.7c-1.1-0.4-2.4-0.7-3.4-0.9c-0.5-0.1-1-0.2-1.3-0.2
				s-0.5-0.1-0.5-0.1c-2.7-0.3-4.7,1-6.2,2.6c-2.2-1-4.4-1.4-6.5-1.4c-2.6,0-4.7,0.7-6.4,1.5c-2.4-1.4-4.9-2.1-7.3-2.1
				c-2.9,0-5.2,1-6.8,2.1c-0.8,0.5-1.4,1-1.8,1.4c-0.2,0.2-0.4,0.4-0.5,0.5s-0.2,0.2-0.2,0.2c-0.4,0.4-0.8,0.6-1.1,0.6
				s-0.4-0.2-0.4-0.2c0.2-1.4-0.6-2.3-1.5-2.8c-0.4-0.3-0.9-0.4-1.2-0.5c-0.2-0.1-0.3-0.1-0.4-0.1c-0.1,0-0.2,0-0.2,0h-0.1v3.8l0,0
				c0.5,0.7,1.3,1,2.5,1c0.8,0,1.5-0.2,1.9-0.3c-1.1,1-2.8,1.2-3.8,1.2c-0.3,0-0.5,0-0.5,0h-0.1l0,0h-0.1c-0.1,0-0.1,0-0.2,0
				c-1.2,0-2.9,1.1-3.8,2.2c-0.2,0.3-0.5,0.7-0.5,1c0.1,0.6,1.3,0.8,2.2,0.8c0.1,0,0.2,0,0.3,0c-1.6,1.5-1.3,3.8-1.2,4.2
				c-1.7,1.6-3.4,2.8-5.1,3.7c-0.6-0.4-1.2-0.9-1.6-1.5c-1.8-2.2-1.8-4.6-1.8-5.4c0.4,0.5,0.9,0.7,1.6,0.7c0.9,0,1.6-0.4,1.6-0.5
				c1.1-0.8,0.9-2.5,0.8-3c1.3-0.3,1.7-1.1,1.9-1.8c0.2-0.7,0.1-1.4,0.1-1.4h-0.2c0,0,0,0.1,0,0.3s-0.1,0.4-0.3,0.6
				c-0.6,0.7-2,0.7-4.1,0c-0.6-0.2-1.2-0.3-1.7-0.3c-2.8,0-3.3,3.1-3.4,4.2c-1.5-2.5-6.2-6.4-6.4-6.6c-0.8-0.5-1.5-1-2.3-1.4
				l0.2-0.1c1.9-1.1,3.9-1.3,5.6-1.3c-0.4,0.5-0.7,1.1-0.7,1.7c0,1.4,1.1,2.5,2.4,2.5c1.3,0,2.4-1.1,2.4-2.5c0-0.1,0-0.3,0-0.4
				c2.1,1.7,3.9,2.3,5.3,1.8c2.2-0.9,2.6-4.2,2.6-4.3h-0.2c-0.1,0.5-0.3,0.9-0.8,1.2c-1.6,1-5.2,0-6.9-0.7c-1.1-0.4-2.4-0.7-3.4-0.9
				c-0.5-0.1-1-0.2-1.3-0.2s-0.5-0.1-0.5-0.1c-2.7-0.3-4.7,1-6.2,2.6c-2.2-1-4.4-1.4-6.5-1.4c-2.6,0-4.7,0.7-6.4,1.5
				c-2.4-1.4-4.9-2.1-7.3-2.1c-2.9,0-5.2,1-6.8,2.1c-0.8,0.5-1.4,1-1.8,1.4c-0.2,0.2-0.4,0.4-0.5,0.5s-0.2,0.2-0.2,0.2
				c-0.4,0.4-0.8,0.6-1.1,0.6s-0.4-0.2-0.4-0.2c0.2-1.4-0.6-2.3-1.5-2.8c-0.4-0.3-0.9-0.4-1.2-0.5c-0.2-0.1-0.3-0.1-0.4-0.1
				c-0.1,0-0.2,0-0.2,0h-0.1v3.8l0,0c0.5,0.7,1.3,1,2.5,1c0.8,0,1.5-0.2,1.9-0.3c-1.1,1-2.8,1.2-3.8,1.2c-0.3,0-0.5,0-0.5,0h-0.1
				l0,0h-0.1c-0.1,0-0.1,0-0.2,0c-1.2,0-2.9,1.1-3.8,2.2c-0.2,0.3-0.5,0.7-0.5,1c0.1,0.6,1.3,0.8,2.2,0.8c0.1,0,0.2,0,0.3,0
				c-1.6,1.5-1.3,3.8-1.2,4.2c-1.7,1.6-3.4,2.8-5.1,3.7c-0.6-0.4-1.2-0.9-1.6-1.5c-1.8-2.2-1.8-4.6-1.8-5.4c0.4,0.5,0.9,0.7,1.6,0.7
				c0.9,0,1.6-0.4,1.6-0.5c1.1-0.8,0.9-2.5,0.8-3c1.3-0.3,1.7-1.1,1.9-1.8c0.2-0.7,0.1-1.4,0.1-1.4h-0.2c0,0,0,0.1,0,0.3
				s-0.1,0.4-0.3,0.6c-0.6,0.7-2,0.7-4.1,0c-0.6-0.2-1.2-0.3-1.7-0.3c-2.8,0-3.3,3.1-3.4,4.2c-1.5-2.5-6.2-6.4-6.4-6.6
				c-0.8-0.5-1.5-1-2.3-1.4l0.2-0.1c1.9-1.1,3.9-1.3,5.6-1.3c-0.4,0.5-0.7,1.1-0.7,1.7c0,1.4,1.1,2.5,2.4,2.5s2.4-1.1,2.4-2.5
				c0-0.1,0-0.3,0-0.4c2.1,1.7,3.9,2.3,5.3,1.8c2.2-0.9,2.6-4.2,2.6-4.3h-0.2c-0.1,0.5-0.3,0.9-0.8,1.2c-1.6,1-5.2,0-6.9-0.7
				c-1.1-0.4-2.4-0.7-3.4-0.9c-0.5-0.1-1-0.2-1.3-0.2s-0.5-0.1-0.5-0.1c-2.7-0.3-4.7,1-6.2,2.6c-2.2-1-4.4-1.4-6.5-1.4
				c-2.6,0-4.7,0.7-6.4,1.5c-2.4-1.4-4.9-2.1-7.3-2.1c-2.9,0-5.2,1-6.8,2.1c-0.8,0.5-1.4,1-1.8,1.4c-0.2,0.2-0.4,0.4-0.5,0.5
				s-0.2,0.2-0.2,0.2c-0.4,0.4-0.8,0.6-1.1,0.6c-0.3,0-0.4-0.2-0.4-0.2c0.2-1.4-0.6-2.3-1.5-2.8c-0.4-0.3-0.9-0.4-1.2-0.5
				c-0.2-0.1-0.3-0.1-0.4-0.1s-0.2,0-0.2,0h-0.1v3.8l0,0c0.5,0.7,1.3,1,2.5,1c0.8,0,1.5-0.2,1.9-0.3c-1.1,1-2.8,1.2-3.8,1.2
				c-0.3,0-0.5,0-0.5,0h-0.1l0,0h-0.1c-0.1,0-0.1,0-0.2,0c-1.2,0-2.9,1.1-3.8,2.2c-0.2,0.3-0.5,0.7-0.5,1c0.1,0.6,1.3,0.8,2.2,0.8
				c0.1,0,0.2,0,0.3,0c-1.6,1.5-1.3,3.8-1.2,4.2c-1.7,1.6-3.4,2.8-5.1,3.7c-0.6-0.4-1.2-0.9-1.6-1.5c-1.8-2.2-1.8-4.6-1.8-5.4
				c0.4,0.5,0.9,0.7,1.6,0.7c0.9,0,1.6-0.4,1.6-0.5c1.1-0.8,0.9-2.5,0.8-3c1.3-0.3,1.7-1.1,1.9-1.8c0.2-0.7,0.1-1.4,0.1-1.4h-0.2
				c0,0,0,0.1,0,0.3s-0.1,0.4-0.3,0.6c-0.6,0.7-2,0.7-4.1,0c-0.6-0.2-1.2-0.3-1.7-0.3c-2.8,0-3.3,3.1-3.4,4.2
				c-1.5-2.5-6.2-6.4-6.4-6.6c-0.8-0.5-1.5-1-2.3-1.4l0.2-0.1c1.9-1.1,3.9-1.3,5.6-1.3c-0.4,0.5-0.7,1.1-0.7,1.7
				c0,1.4,1.1,2.5,2.4,2.5s2.4-1.1,2.4-2.5c0-0.1,0-0.3,0-0.4c2.1,1.7,3.9,2.3,5.3,1.8c2.2-0.9,2.6-4.2,2.6-4.3H113
				c-0.1,0.5-0.3,0.9-0.8,1.2c-1.6,1-5.2,0-6.9-0.7c-1.1-0.4-2.4-0.7-3.4-0.9c-0.5-0.1-1-0.2-1.3-0.2s-0.5-0.1-0.5-0.1
				c-2.7-0.3-4.7,1-6.2,2.6c-2.2-1-4.4-1.4-6.5-1.4c-2.6,0-4.7,0.7-6.4,1.5c-2.1-1.3-4.5-2-6.9-2c-2.9,0-5.2,1-6.8,2.1
				c-0.8,0.5-1.4,1-1.8,1.4c-0.2,0.2-0.4,0.4-0.5,0.5s-0.2,0.2-0.2,0.2c-0.4,0.4-0.8,0.6-1.1,0.6s-0.4-0.2-0.4-0.2
				c0.2-1.4-0.6-2.3-1.5-2.8c-0.4-0.3-0.9-0.4-1.2-0.5c-0.2-0.1-0.3-0.1-0.4-0.1c-0.1,0-0.2,0-0.2,0h-0.1v3.8l0,0
				c0.5,0.7,1.3,1,2.5,1c0.8,0,1.5-0.2,1.9-0.3c-1.1,1-2.8,1.2-3.8,1.2c-0.3,0-0.5,0-0.5,0h-0.1l0,0h-0.1c-0.1,0-0.1,0-0.2,0
				c-1.2,0-2.9,1.1-3.8,2.2c-0.2,0.3-0.5,0.7-0.5,1c0.1,0.6,1.3,0.8,2.2,0.8c0.1,0,0.2,0,0.3,0c-1.6,1.5-1.3,3.8-1.2,4.2
				c-1.7,1.6-3.4,2.8-5.1,3.7c-0.4-0.6-0.9-1.1-1.4-1.6c-1.8-2.2-1.8-4.6-1.8-5.4c0.4,0.5,0.9,0.7,1.6,0.7c0.9,0,1.6-0.4,1.6-0.5
				c1.1-0.8,0.9-2.5,0.8-3c1.3-0.3,1.7-1.1,1.9-1.8c0.2-0.7,0.1-1.4,0.1-1.4h-0.2c0,0,0,0.1,0,0.3S54,15.8,53.8,16
				c-0.6,0.7-2,0.7-4.1,0c-0.6,0-1.1-0.1-1.6-0.1c-2.8,0-3.3,3.1-3.4,4.2c-1.5-2.5-6.2-6.4-6.4-6.6c-0.8-0.5-1.5-1-2.3-1.4l0.2-0.1
				c1.9-1.1,3.9-1.3,5.6-1.3c-0.4,0.5-0.7,1.1-0.7,1.7c0,1.4,1.1,2.5,2.4,2.5c1.3,0,2.4-1.1,2.4-2.5c0-0.1,0-0.3,0-0.4
				c2.1,1.7,3.9,2.3,5.3,1.8c2.2-0.9,2.6-4.2,2.6-4.3h-0.2c-0.1,0.5-0.3,0.9-0.8,1.2c-1.6,1-5.2,0-6.9-0.7c-1.1-0.4-2.4-0.7-3.4-0.9
				c-0.5-0.1-1-0.2-1.3-0.2s-0.5-0.1-0.5-0.1c-2.7-0.3-4.7,1-6.2,2.6c-2.2-1-4.4-1.4-6.5-1.4c-2.6,0-4.7,0.7-6.4,1.5
				c-2.4-1.4-4.9-2.1-7.3-2.1c-2.9,0-5.2,1-6.8,2.1c-0.8,0.5-1.4,1-1.8,1.4c-0.3,0.1-0.5,0.3-0.6,0.4s-0.2,0.2-0.2,0.2
				c-0.4,0.4-0.8,0.6-1.1,0.6s-0.4-0.2-0.4-0.2c0.2-1.4-0.6-2.3-1.5-2.8c-0.4-0.3-0.9-0.4-1.2-0.5c-0.2-0.1-0.3-0.1-0.4-0.1
				s-0.2,0-0.2,0H0v3.8l0,0c0.5,0.7,1.3,1,2.5,1c0.8,0,1.5-0.2,1.9-0.3c-1.1,1-2.8,1.2-3.8,1.2c-0.3,0-0.5,0-0.5,0H0v8.3h0.1
				c0.8,0,1.4-0.7,1.9-1.4c0,1.7,0.3,4.1,1.8,6.2c-1,0.4-2,0.7-2.6,0.8c-0.3,0.1-0.6,0.1-0.8,0.1s-0.3,0-0.3,0H0v1.6h0.1
				c1.9,0,3.6-0.4,5.2-1c1.6,1.2,3.8,1.9,6.5,1.9l0,0c0.8,0,1.7-0.1,2.6-0.2c0.2,0,3.7-1,5.3-2.1c0.3-0.2,0.7-0.3,1.1-0.3
				c1.2,0,2.3,1,2.4,1.9c0,0.1,0,0.2,0,0.2h0.2c0-0.1,0-0.1,0-0.2c-0.1-1-0.6-4.3-3.3-4.3c-1,0-2.3,0.5-3.8,1.6
				c0-0.2,0.1-0.3,0.1-0.5c0-1.4-1.1-2.5-2.4-2.5s-2.4,1.1-2.4,2.5c0,0.8,0.3,1.4,0.8,1.9c-0.6,0.1-1.3,0.2-2,0.2l0,0
				c-1.4,0-2.6-0.3-3.6-0.7c2.8-1.5,4.6-3.4,4.8-3.6c3.5-0.7,4.1-2.7,4.2-3.3c1.4,0.9,2.5,1.4,3.5,1.4c1.3,0,2-0.9,2.4-1.8
				c0.2-0.5,0.3-0.9,0.3-1.2c0-0.2,0-0.3,0.1-0.4c0-0.1,0-0.2,0-0.2V21H22c-0.2-0.1-0.6,0-0.9,0c-1.1,0-1.8-0.9-1.9-2.3
				c-0.1-1.7,0.9-4,3-5.5c2.6,1.6,4.3,3.6,4.5,3.8c-0.4,3.1,0.5,4.3,1.3,4.8c-1.4,0-2.4,0.9-2.4,1l0,0l0,0c-0.1,0.9,0.4,1.5,0.9,1.8
				c0.3,0.2,0.5,0.2,0.7,0.3c0.2,0.1,0.4,0.1,0.4,0.1c0.3,0,0.7,0,1.1,0c1.9,0,3.5,0.4,4.5,0.8c-0.2,0-0.5-0.1-0.8-0.1
				c-1.3,0-2.5,0.5-3.3,1.5c-0.6,0.7-0.9,1.4-0.8,2.1c0.1,1.2,1,2,1,2.1l0,0l0,0c1.4-0.5,2.3-1.3,2.8-2.3c0.5-1,0.3-2,0.2-2.3
				c0.2-0.1,0.4-0.1,0.6-0.1c0.4,0,0.7,0.1,1,0.2s0.4,0.2,0.4,0.2l0,0c2.9,2.5,6.1,3.7,9.6,3.7c2,0,3.9-0.4,5.6-1
				c3.5,1.8,8.2,1.9,9.9,1.9c0.4,0,0.6,0,0.6,0h0.1l0,0l0,0c1.9,0,3.6-0.4,5.2-1c1.6,1.2,3.8,1.9,6.5,1.9l0,0c0.8,0,1.7-0.1,2.6-0.2
				c0.2,0,3.7-1,5.3-2.1c0.3-0.2,0.7-0.3,1.1-0.3c1.2,0,2.3,1,2.4,1.9c0,0.1,0,0.2,0,0.2h0.2c0-0.1,0-0.1,0-0.2
				c-0.1-1-0.6-4.3-3.3-4.3c-1,0-2.3,0.5-3.8,1.6c0-0.2,0.1-0.3,0.1-0.5c0-1.4-1.1-2.5-2.4-2.5s-2.4,1.1-2.4,2.5
				c0,0.8,0.3,1.4,0.8,1.9c-0.6,0.1-1.3,0.2-2,0.2l0,0c-1.4,0-2.6-0.3-3.6-0.7c2.8-1.5,4.6-3.4,4.8-3.6c3.5-0.7,4.1-2.7,4.2-3.3
				c1.4,0.9,2.5,1.4,3.5,1.4c1.3,0,2-0.9,2.4-1.8c0.2-0.5,0.3-0.9,0.3-1.2c0-0.2,0-0.3,0.1-0.4c0-0.1,0-0.2,0-0.2v-0.1H82
				c-0.4,0.2-0.8,0.2-1.1,0.2c-1.1,0-1.8-0.9-1.9-2.3c-0.1-1.7,0.9-4,3-5.5c2.6,1.6,4.3,3.6,4.5,3.8c-0.4,3.1,0.5,4.3,1.3,4.8
				c-1.4,0-2.4,0.9-2.4,1l0,0l0,0c-0.1,0.9,0.4,1.5,0.9,1.8c0.3,0.2,0.5,0.2,0.7,0.3c0.2,0.1,0.4,0.1,0.4,0.1c0.3,0,0.7,0,1.1,0
				c1.9,0,3.5,0.4,4.5,0.8c-0.2,0-0.5-0.1-0.8-0.1c-1.3,0-2.5,0.5-3.3,1.5c-0.6,0.7-0.9,1.4-0.8,2.1c0.1,1.2,1,2,1,2.1l0,0l0,0
				c1.4-0.5,2.3-1.3,2.8-2.3s0.3-2,0.2-2.3c0.2-0.1,0.4-0.1,0.6-0.1c0.4,0,0.7,0.1,1,0.2s0.4,0.2,0.4,0.2l0,0
				c2.9,2.5,6.1,3.7,9.6,3.7c2,0,3.9-0.4,5.6-1c3.5,1.8,8.2,1.9,9.9,1.9c0.4,0,0.6,0,0.6,0h0.1l0,0h0.1c1.9,0,3.6-0.4,5.2-1
				c1.6,1.2,3.8,1.9,6.5,1.9l0,0c0.8,0,1.7-0.1,2.6-0.2c0.2,0,3.7-1,5.3-2.1c0.3-0.2,0.7-0.3,1.1-0.3c1.2,0,2.3,1,2.4,1.9
				c0,0.1,0,0.2,0,0.2h0.2c0-0.1,0-0.1,0-0.2c-0.1-1-0.6-4.3-3.3-4.3c-1,0-2.3,0.5-3.8,1.6c0-0.2,0.1-0.3,0.1-0.5
				c0-1.4-1.1-2.5-2.4-2.5c-1.3,0-2.4,1.1-2.4,2.5c0,0.8,0.3,1.4,0.8,1.9c-0.6,0.1-1.3,0.2-2,0.2l0,0c-1.4,0-2.6-0.3-3.6-0.7
				c2.8-1.5,4.6-3.4,4.8-3.6c3.5-0.7,4.1-2.7,4.2-3.3c1.4,0.9,2.5,1.4,3.5,1.4c1.3,0,2-0.9,2.4-1.8c0.2-0.5,0.3-0.9,0.3-1.2
				c0-0.2,0-0.3,0.1-0.4c0-0.1,0-0.2,0-0.2V21h-0.1c-0.4,0.2-0.8,0.2-1.1,0.2c-1.1,0-1.8-0.9-1.9-2.3c-0.1-1.7,0.9-4,3-5.5
				c2.6,1.6,4.3,3.6,4.5,3.8c-0.4,3.1,0.5,4.3,1.3,4.8c-1.4,0-2.4,0.9-2.4,1l0,0l0,0c-0.1,0.9,0.4,1.5,0.9,1.8
				c0.3,0.2,0.5,0.2,0.7,0.3c0.2,0.1,0.4,0.1,0.4,0.1c0.3,0,0.7,0,1.1,0c1.9,0,3.5,0.4,4.5,0.8c-0.2,0-0.5-0.1-0.8-0.1
				c-1.3,0-2.5,0.5-3.3,1.5c-0.6,0.7-0.9,1.4-0.8,2.1c0.1,1.2,1,2,1,2.1l0,0l0,0c1.4-0.5,2.3-1.3,2.8-2.3s0.3-2,0.2-2.3
				c0.2-0.1,0.4-0.1,0.6-0.1c0.4,0,0.7,0.1,1,0.2s0.4,0.2,0.4,0.2l0,0c2.9,2.5,6.1,3.7,9.6,3.7c2,0,3.9-0.4,5.6-1
				c3.5,1.8,8.2,1.9,9.9,1.9c0.4,0,0.6,0,0.6,0h0.1l0,0h0.1c1.9,0,3.6-0.4,5.2-1c1.6,1.2,3.8,1.9,6.5,1.9l0,0c0.8,0,1.7-0.1,2.6-0.2
				c0.2,0,3.7-1,5.3-2.1c0.3-0.2,0.7-0.3,1.1-0.3c1.2,0,2.3,1,2.4,1.9c0,0.1,0,0.2,0,0.2h0.2c0-0.1,0-0.1,0-0.2
				c-0.1-1-0.6-4.3-3.3-4.3c-1,0-2.3,0.5-3.8,1.6c0-0.2,0.1-0.3,0.1-0.5c0-1.4-1.1-2.5-2.4-2.5c-1.3,0-2.4,1.1-2.4,2.5
				c0,0.8,0.3,1.4,0.8,1.9c-0.6,0.1-1.3,0.2-2,0.2l0,0c-1.4,0-2.6-0.3-3.6-0.7c2.8-1.5,4.6-3.4,4.8-3.6c3.5-0.7,4.1-2.7,4.2-3.3
				c1.4,0.9,2.5,1.4,3.5,1.4c1.3,0,2-0.9,2.4-1.8c0.2-0.5,0.3-0.9,0.3-1.2c0-0.2,0-0.3,0.1-0.4c0-0.1,0-0.2,0-0.2v-0.1h-0.1
				c-0.4,0.2-0.8,0.2-1.1,0.2c-1.1,0-1.8-0.9-1.9-2.3c-0.1-1.7,0.9-4,3-5.5c2.6,1.6,4.3,3.6,4.5,3.8c-0.4,3.1,0.5,4.3,1.3,4.8
				c-1.4,0-2.4,0.9-2.4,1l0,0l0,0c-0.1,0.9,0.4,1.5,0.9,1.8c0.3,0.2,0.5,0.2,0.7,0.3c0.2,0.1,0.4,0.1,0.4,0.1c0.3,0,0.7,0,1.1,0
				c1.9,0,3.5,0.4,4.5,0.8c-0.2,0-0.5-0.1-0.8-0.1c-1.3,0-2.5,0.5-3.3,1.5c-0.6,0.7-0.9,1.4-0.8,2.1c0.1,1.2,1,2,1,2.1l0,0l0,0
				c1.4-0.5,2.3-1.3,2.8-2.3s0.3-2,0.2-2.3c0.2-0.1,0.4-0.1,0.6-0.1c0.4,0,0.7,0.1,1,0.2s0.4,0.2,0.4,0.2l0,0
				c2.9,2.5,6.1,3.7,9.6,3.7c2,0,3.9-0.4,5.6-1c3.5,1.8,8.2,1.9,9.9,1.9c0.4,0,0.6,0,0.6,0h0.1l0,0h0.1c1.9,0,3.6-0.4,5.2-1
				c1.6,1.2,3.8,1.9,6.5,1.9l0,0c0.8,0,1.7-0.1,2.6-0.2c0.2,0,3.7-1,5.3-2.1c0.3-0.2,0.7-0.3,1.1-0.3c1.2,0,2.3,1,2.4,1.9
				c0,0.1,0,0.2,0,0.2h0.2c0-0.1,0-0.1,0-0.2c-0.1-1-0.6-4.3-3.3-4.3c-1,0-2.3,0.5-3.8,1.6c0-0.2,0.1-0.3,0.1-0.5
				c0-1.4-1.1-2.5-2.4-2.5c-1.3,0-2.4,1.1-2.4,2.5c0,0.8,0.3,1.4,0.8,1.9c-0.6,0.1-1.3,0.2-2,0.2l0,0c-1.4,0-2.6-0.3-3.6-0.7
				c2.8-1.5,4.6-3.4,4.8-3.6c3.5-0.7,4.1-2.7,4.2-3.3c1.4,0.9,2.5,1.4,3.5,1.4c1.3,0,2-0.9,2.4-1.8c0.2-0.5,0.3-0.9,0.3-1.2
				c0-0.2,0-0.3,0.1-0.4c0-0.1,0-0.2,0-0.2v-0.1h-0.1c-0.4,0.2-0.8,0.2-1.1,0.2c-1.1,0-1.8-0.9-1.9-2.3c-0.1-1.7,0.9-4,3-5.5
				c2.6,1.6,4.3,3.6,4.5,3.8c-0.4,3.1,0.5,4.3,1.3,4.8c-1.4,0-2.4,0.9-2.4,1l0,0l0,0c-0.1,0.9,0.4,1.5,0.9,1.8
				c0.3,0.2,0.5,0.2,0.7,0.3c0.2,0.1,0.4,0.1,0.4,0.1c0.3,0,0.7,0,1.1,0c1.9,0,3.5,0.4,4.5,0.8c-0.2,0-0.5-0.1-0.8-0.1
				c-1.3,0-2.5,0.5-3.3,1.5c-0.6,0.7-0.9,1.4-0.8,2.1c0.1,1.2,1,2,1,2.1l0,0l0,0c1.4-0.5,2.3-1.3,2.8-2.3s0.3-2,0.2-2.3
				c0.2-0.1,0.4-0.1,0.6-0.1c0.4,0,0.7,0.1,1,0.2s0.4,0.2,0.4,0.2l0,0c2.9,2.5,6.1,3.7,9.6,3.7c2,0,3.9-0.4,5.6-1
				c3.5,1.8,8.2,1.9,9.9,1.9c0.4,0,0.6,0,0.6,0h0.1v-1.6h-0.1c-3-0.1-5.5-0.6-7.4-1.7c2.9-1.6,4.9-3.3,5.1-3.6
				C298,24.9,299.7,24.5,299.8,24.4z M17.7,14c-0.5,0.2-7.1,2.2-7,4.3c0.1,1.2,0.8,1.5,1.3,1.5c0.3,0,0.5-0.1,0.7-0.1
				c-1.9,4.9-5,7.5-7.5,8.9c-0.9-1-1.5-2.5-1.7-4.3c0.1,0.1,0.2,0.1,0.3,0.1l0,0l0,0c1.6-0.8,1.8-3.7,1.6-5.7
				c0.8,1.7,2.2,2.1,3.4,2.1c0.7,0,1.3-0.1,1.7-0.2c0.1,0,0.3,0,0.4-0.1H11l0,0l0,0l0.6-0.5l-0.7,0.3c0,0-0.2,0.1-0.4,0.1
				c-0.4-0.1-0.8-0.8-1.3-1.6c-0.2-0.4-0.5-0.9-0.8-1.4c-0.4-0.5-0.8-0.8-1.2-0.8c-0.5,0-0.8,0.3-1,0.4c-0.4-0.9,0.5-2.3,0.5-2.4
				c2.6-2.5,5.5-3.8,8.4-3.8c1.8,0,3.5,0.5,5,1.2C18.7,13,17.8,13.9,17.7,14z M27.7,15.8c-0.3,0-0.5,0-0.6,0.1
				c-1.3-1.3-2.6-2.4-3.9-3.3c1-0.5,2.2-0.9,3.7-1c0.3,0,0.5,0,0.8,0c1.9,0,3.8,0.6,5.4,1.6c-1,1.6-1.7,3.3-2,4.4
				C29.9,16,28.5,15.8,27.7,15.8z M31.8,18.4L31.8,18.4c0-0.1,0-0.1,0-0.1S31.8,18.3,31.8,18.4z M45.2,29.7c-5.8,0-9-4.2-9.4-4.7
				c-0.3-0.5-0.5-0.8-0.5-0.9c0.1,0,0.2,0,0.3,0c1.1,0,2.5-1,2.6-1l0,0c0.5-0.7,0.7-1.5,0.5-2.1c-0.3-0.7-1.3-0.9-2.5-0.4
				c-1.8,0.7-1.9,3.1-1.8,4.3c-0.1-0.8-0.1-2.4-0.1-3.8v-0.6c0-1.2-0.2-2-0.3-2.5c-0.2-0.5-0.3-0.7-0.3-0.7s-0.5-0.7-1-0.7
				c-0.2,0-0.4,0.1-0.5,0.3c0,0,0,0.1-0.1,0.1c0.5-1.3,1.1-2.5,1.9-3.4c4.4,3,7.4,8.1,8.1,9.4c-0.1-0.1-0.3-0.1-0.5-0.1
				c-0.4,0-0.9,0.2-1.3,0.7c-0.4,0.4-0.5,1-0.3,1.5c0.3,0.9,1.3,1.6,2,1.5c1-0.1,4.3,0.9,4.6,1c0.5,0.6,1.1,1.1,1.7,1.6
				C47.3,29.6,46.3,29.7,45.2,29.7z M61.2,30c-0.3,0.1-0.6,0.1-0.8,0.1s-0.3,0-0.3,0H60l0,0h-0.1c-3-0.1-5.5-0.6-7.4-1.7
				c2.9-1.6,4.9-3.3,5.1-3.6c0.6,0,2.2-0.4,2.3-0.4H60l0,0h0.1c0.8,0,1.4-0.7,1.9-1.4c0,1.7,0.3,4.1,1.8,6.2
				C62.8,29.6,61.9,29.9,61.2,30z M77.6,14c-0.5,0.2-7.1,2.2-7,4.3c0.1,1.2,0.8,1.5,1.3,1.5c0.3,0,0.5-0.1,0.7-0.1
				c-1.9,4.9-5,7.5-7.5,8.9c-0.9-1-1.5-2.5-1.7-4.3c0.1,0.1,0.2,0.1,0.3,0.1l0,0l0,0c1.6-0.8,1.8-3.7,1.6-5.7
				c0.8,1.7,2.2,2.1,3.4,2.1c0.7,0,1.3-0.1,1.7-0.2c0.1,0,0.3,0,0.4-0.1h0.1l0,0l0,0l0.6-0.5l-0.7,0.3c0,0-0.2,0.1-0.4,0.1
				c-0.4-0.1-0.8-0.8-1.3-1.6c-0.2-0.4-0.5-0.9-0.8-1.4c-0.4-0.5-0.8-0.8-1.2-0.8c-0.5,0-0.8,0.3-1,0.4c-0.4-0.9,0.5-2.3,0.5-2.4
				c2.6-2.5,5.5-3.8,8.4-3.8c1.8,0,3.5,0.5,5,1.2C78.6,13,77.8,13.9,77.6,14z M87.7,15.8c-0.3,0-0.5,0-0.6,0.1
				c-1.3-1.3-2.6-2.4-3.9-3.3c1-0.5,2.2-0.9,3.7-1c0.3,0,0.5,0,0.8,0c1.9,0,3.8,0.6,5.4,1.6c-1,1.6-1.7,3.3-2,4.4
				C89.8,16,88.5,15.8,87.7,15.8z M91.7,18.4L91.7,18.4c0-0.1,0-0.1,0-0.1S91.7,18.3,91.7,18.4z M105.2,29.7c-5.8,0-9-4.2-9.4-4.7
				c-0.3-0.5-0.5-0.8-0.5-0.9c0.1,0,0.2,0,0.3,0c1.1,0,2.5-1,2.6-1l0,0c0.5-0.7,0.7-1.5,0.5-2.1c-0.3-0.7-1.3-0.9-2.5-0.4
				c-1.8,0.7-1.9,3.1-1.8,4.3c-0.1-0.8-0.1-2.4-0.1-3.8v-0.6c0-1.2-0.2-2-0.3-2.5c-0.2-0.5-0.3-0.7-0.3-0.7s-0.5-0.7-1-0.7
				c-0.2,0-0.4,0.1-0.5,0.3c0,0,0,0.1-0.1,0.1c0.5-1.3,1.1-2.5,1.9-3.4c4.4,3,7.4,8.1,8.1,9.4c-0.1-0.1-0.3-0.1-0.5-0.1
				c-0.4,0-0.9,0.2-1.3,0.7c-0.4,0.4-0.5,1-0.3,1.5c0.3,0.9,1.3,1.6,2,1.5c1-0.1,4.3,0.9,4.6,1c0.5,0.6,1.1,1.1,1.7,1.6
				C107.3,29.6,106.2,29.7,105.2,29.7z M121.2,30c-0.3,0.1-0.6,0.1-0.8,0.1c-0.2,0-0.3,0-0.3,0H120l0,0h-0.1c-3-0.1-5.5-0.6-7.4-1.7
				c2.9-1.6,4.9-3.3,5.1-3.6c0.6,0,2.2-0.4,2.3-0.4h0.1l0,0h0.1c0.8,0,1.4-0.7,1.9-1.4c0,1.7,0.3,4.1,1.8,6.2
				C122.7,29.6,121.8,29.9,121.2,30z M137.6,14c-0.5,0.2-7.1,2.2-7,4.3c0.1,1.2,0.8,1.5,1.3,1.5c0.3,0,0.5-0.1,0.7-0.1
				c-1.9,4.9-5,7.5-7.5,8.9c-0.9-1-1.5-2.5-1.7-4.3c0.1,0.1,0.2,0.1,0.3,0.1l0,0l0,0c1.6-0.8,1.8-3.7,1.6-5.7
				c0.8,1.7,2.2,2.1,3.4,2.1c0.7,0,1.3-0.1,1.7-0.2c0.1,0,0.3,0,0.4-0.1h0.1l0,0l0,0l0.6-0.5l-0.7,0.3c0,0-0.2,0.1-0.4,0.1
				c-0.4-0.1-0.8-0.8-1.3-1.6c-0.2-0.4-0.5-0.9-0.8-1.4c-0.4-0.5-0.8-0.8-1.2-0.8c-0.5,0-0.8,0.3-1,0.4c-0.4-0.9,0.5-2.3,0.5-2.4
				c2.6-2.5,5.5-3.8,8.4-3.8c1.8,0,3.5,0.5,5,1.2C138.6,13,137.7,13.9,137.6,14z M147.6,15.8c-0.3,0-0.5,0-0.6,0.1
				c-1.3-1.3-2.6-2.4-3.9-3.3c1-0.5,2.2-0.9,3.7-1c0.3,0,0.5,0,0.8,0c1.9,0,3.8,0.6,5.4,1.6c-1,1.6-1.7,3.3-2,4.4
				C149.8,16,148.4,15.8,147.6,15.8z M151.7,18.4L151.7,18.4c0-0.1,0-0.1,0-0.1S151.7,18.3,151.7,18.4z M165.1,29.7
				c-5.8,0-9-4.2-9.4-4.7c-0.3-0.5-0.5-0.8-0.5-0.9c0.1,0,0.2,0,0.3,0c1.1,0,2.5-1,2.6-1l0,0c0.5-0.7,0.7-1.5,0.5-2.1
				c-0.3-0.7-1.3-0.9-2.5-0.4c-1.8,0.7-1.9,3.1-1.8,4.3c-0.1-0.8-0.1-2.4-0.1-3.8v-0.6c0-1.2-0.2-2-0.3-2.5
				c-0.2-0.5-0.3-0.7-0.3-0.7s-0.5-0.7-1-0.7c-0.2,0-0.4,0.1-0.5,0.3c0,0,0,0.1-0.1,0.1c0.5-1.3,1.1-2.5,1.9-3.4
				c4.4,3,7.4,8.1,8.1,9.4c-0.1-0.1-0.3-0.1-0.5-0.1c-0.4,0-0.9,0.2-1.3,0.7c-0.4,0.4-0.5,1-0.3,1.5c0.3,0.9,1.3,1.6,2,1.5
				c1-0.1,4.3,0.9,4.6,1c0.5,0.6,1.1,1.1,1.7,1.6C167.2,29.6,166.2,29.7,165.1,29.7z M181.1,30c-0.3,0.1-0.6,0.1-0.8,0.1
				s-0.3,0-0.3,0h-0.1l0,0h-0.1c-3-0.1-5.5-0.6-7.4-1.7c2.9-1.6,4.9-3.3,5.1-3.6c0.6,0,2.2-0.4,2.3-0.4h0.1l0,0h0.1
				c0.8,0,1.4-0.7,1.9-1.4c0,1.7,0.3,4.1,1.8,6.2C182.7,29.6,181.8,29.9,181.1,30z M197.5,14c-0.5,0.2-7.1,2.2-7,4.3
				c0.1,1.2,0.8,1.5,1.3,1.5c0.3,0,0.5-0.1,0.7-0.1c-1.9,4.9-5,7.5-7.5,8.9c-0.9-1-1.5-2.5-1.7-4.3c0.1,0.1,0.2,0.1,0.3,0.1l0,0l0,0
				c1.6-0.8,1.8-3.7,1.6-5.7c0.8,1.7,2.2,2.1,3.4,2.1c0.7,0,1.3-0.1,1.7-0.2c0.1,0,0.3,0,0.4-0.1h0.1l0,0l0,0l0.6-0.5l-0.7,0.3
				c0,0-0.2,0.1-0.4,0.1c-0.4-0.1-0.8-0.8-1.3-1.6c-0.2-0.4-0.5-0.9-0.8-1.4c-0.4-0.5-0.8-0.8-1.2-0.8c-0.5,0-0.8,0.3-1,0.4
				c-0.4-0.9,0.5-2.3,0.5-2.4c2.6-2.5,5.5-3.8,8.4-3.8c1.8,0,3.5,0.5,5,1.2C198.5,13,197.6,13.9,197.5,14z M207.6,15.8
				c-0.3,0-0.5,0-0.6,0.1c-1.3-1.3-2.6-2.4-3.9-3.3c1-0.5,2.2-0.9,3.7-1c0.3,0,0.5,0,0.8,0c1.9,0,3.8,0.6,5.4,1.6
				c-1,1.6-1.7,3.3-2,4.4C209.7,16,208.4,15.8,207.6,15.8z M211.6,18.4L211.6,18.4c0-0.1,0-0.1,0-0.1S211.6,18.3,211.6,18.4z
				 M225.1,29.7c-5.8,0-9-4.2-9.4-4.7c-0.3-0.5-0.5-0.8-0.5-0.9c0.1,0,0.2,0,0.3,0c1.1,0,2.5-1,2.6-1l0,0c0.5-0.7,0.7-1.5,0.5-2.1
				c-0.3-0.7-1.3-0.9-2.5-0.4c-1.8,0.7-1.9,3.1-1.8,4.3c-0.1-0.8-0.1-2.4-0.1-3.8v-0.6c0-1.2-0.2-2-0.3-2.5
				c-0.2-0.5-0.3-0.7-0.3-0.7s-0.5-0.7-1-0.7c-0.2,0-0.4,0.1-0.5,0.3c0,0,0,0.1-0.1,0.1c0.5-1.3,1.1-2.5,1.9-3.4
				c4.4,3,7.4,8.1,8.1,9.4c-0.1-0.1-0.3-0.1-0.5-0.1c-0.4,0-0.9,0.2-1.3,0.7c-0.4,0.4-0.5,1-0.3,1.5c0.3,0.9,1.3,1.6,2,1.5
				c1-0.1,4.3,0.9,4.6,1c0.5,0.6,1.1,1.1,1.7,1.6C227.2,29.6,226.1,29.7,225.1,29.7z M241,30c-0.3,0.1-0.6,0.1-0.8,0.1s-0.3,0-0.3,0
				h-0.1l0,0h-0.1c-3-0.1-5.5-0.6-7.4-1.7c2.9-1.6,4.9-3.3,5.1-3.6c0.6,0,2.2-0.4,2.3-0.4h0.1l0,0h0.1c0.8,0,1.4-0.7,1.9-1.4
				c0,1.7,0.3,4.1,1.8,6.2C242.6,29.6,241.7,29.9,241,30z M257.5,14c-0.5,0.2-7.1,2.2-7,4.3c0.1,1.2,0.8,1.5,1.3,1.5
				c0.3,0,0.5-0.1,0.7-0.1c-1.9,4.9-5,7.5-7.5,8.9c-0.9-1-1.5-2.5-1.7-4.3c0.1,0.1,0.2,0.1,0.3,0.1l0,0l0,0c1.6-0.8,1.8-3.7,1.6-5.7
				c0.8,1.7,2.2,2.1,3.4,2.1c0.7,0,1.3-0.1,1.7-0.2c0.1,0,0.3,0,0.4-0.1h0.1l0,0l0,0l0.6-0.5l-0.7,0.3c0,0-0.2,0.1-0.4,0.1
				c-0.4-0.1-0.8-0.8-1.3-1.6c-0.2-0.4-0.5-0.9-0.8-1.4c-0.4-0.5-0.8-0.8-1.2-0.8c-0.5,0-0.8,0.3-1,0.4c-0.4-0.9,0.5-2.3,0.5-2.4
				c2.6-2.5,5.5-3.8,8.4-3.8c1.8,0,3.5,0.5,5,1.2C258.5,13,257.6,13.9,257.5,14z M267.5,15.8c-0.3,0-0.5,0-0.6,0.1
				c-1.3-1.3-2.6-2.4-3.9-3.3c1-0.5,2.2-0.9,3.7-1c0.3,0,0.5,0,0.8,0c1.9,0,3.8,0.6,5.4,1.6c-1,1.6-1.7,3.3-2,4.4
				C269.7,16,268.3,15.8,267.5,15.8z M271.6,18.4L271.6,18.4c0-0.1,0-0.1,0-0.1S271.6,18.3,271.6,18.4z M285,29.7
				c-5.8,0-9-4.2-9.4-4.7c-0.3-0.5-0.5-0.8-0.5-0.9c0.1,0,0.2,0,0.3,0c1.1,0,2.5-1,2.6-1l0,0c0.5-0.7,0.7-1.5,0.5-2.1
				c-0.3-0.7-1.3-0.9-2.5-0.4c-1.8,0.7-1.9,3.1-1.8,4.3c-0.1-0.8-0.1-2.4-0.1-3.8v-0.6c0-1.2-0.2-2-0.3-2.5
				c-0.2-0.5-0.3-0.7-0.3-0.7s-0.5-0.7-1-0.7c-0.2,0-0.4,0.1-0.5,0.3c0,0,0,0.1-0.1,0.1c0.5-1.3,1.1-2.5,1.9-3.4
				c4.4,3,7.4,8.1,8.1,9.4c-0.1-0.1-0.3-0.1-0.5-0.1c-0.4,0-0.9,0.2-1.3,0.7c-0.4,0.4-0.5,1-0.3,1.5c0.3,0.9,1.3,1.6,2,1.5
				c1-0.1,4.3,0.9,4.6,1c0.5,0.6,1.1,1.1,1.7,1.6C287.1,29.6,286.1,29.7,285,29.7z"/>
		</g>
	</g>
</g>
<g>
	<g>
		<g>
			<rect x="898.9" y="36.9" class="st0" width="299.7" height="4.2"/>
			<rect x="898.9" class="st0" width="299.7" height="4.2"/>
			<path class="st0" d="M1198.5,24.4L1198.5,24.4l0.1-8.3h-0.1c-0.1,0-0.1,0-0.2,0c-1.2,0-2.9,1.1-3.8,2.2c-0.2,0.3-0.5,0.7-0.5,1
				c0.1,0.6,1.3,0.8,2.2,0.8c0.1,0,0.2,0,0.3,0c-1.6,1.5-1.3,3.8-1.2,4.2c-1.7,1.6-3.4,2.8-5.1,3.7c-0.6-0.4-1.2-0.9-1.6-1.5
				c-1.8-2.2-1.8-4.6-1.8-5.4c0.4,0.5,0.9,0.7,1.6,0.7c0.9,0,1.6-0.4,1.6-0.5c1.1-0.8,0.9-2.5,0.8-3c1.3-0.3,1.7-1.1,1.9-1.8
				c0.2-0.7,0.1-1.4,0.1-1.4h-0.2c0,0,0,0.1,0,0.3s-0.1,0.4-0.3,0.6c-0.6,0.7-2,0.7-4.1,0c-0.6-0.2-1.2-0.3-1.7-0.3
				c-2.8,0-3.3,3.1-3.4,4.2c-1.5-2.5-6.2-6.4-6.4-6.6c-0.8-0.5-1.5-1-2.3-1.4l0.2-0.1c1.9-1.1,3.9-1.3,5.6-1.3
				c-0.4,0.5-0.7,1.1-0.7,1.7c0,1.4,1.1,2.5,2.4,2.5s2.4-1.1,2.4-2.5c0-0.1,0-0.3,0-0.4c2.1,1.7,3.9,2.3,5.3,1.8
				c2.2-0.9,2.6-4.2,2.6-4.3h-0.2c-0.1,0.5-0.3,0.9-0.8,1.2c-1.6,1-5.2,0-6.9-0.7c-1.1-0.4-2.4-0.7-3.4-0.9c-0.5-0.1-1-0.2-1.3-0.2
				s-0.5-0.1-0.5-0.1c-2.7-0.3-4.7,1-6.2,2.6c-2.2-1-4.4-1.4-6.5-1.4c-2.6,0-4.7,0.7-6.4,1.5c-2.4-1.4-4.9-2.1-7.3-2.1
				c-2.9,0-5.2,1-6.8,2.1c-0.8,0.5-1.4,1-1.8,1.4c-0.2,0.2-0.4,0.4-0.5,0.5s-0.2,0.2-0.2,0.2c-0.4,0.4-0.8,0.6-1.1,0.6
				c-0.3,0-0.4-0.2-0.4-0.2c0.2-1.4-0.6-2.3-1.5-2.8c-0.4-0.3-0.9-0.4-1.2-0.5c-0.2-0.1-0.3-0.1-0.4-0.1s-0.2,0-0.2,0h-0.1v3.8l0,0
				c0.5,0.7,1.3,1,2.5,1c0.8,0,1.5-0.2,1.9-0.3c-1.1,1-2.8,1.2-3.8,1.2c-0.3,0-0.5,0-0.5,0h-0.1l0,0h-0.1c-0.1,0-0.1,0-0.2,0
				c-1.2,0-2.9,1.1-3.8,2.2c-0.2,0.3-0.5,0.7-0.5,1c0.1,0.6,1.3,0.8,2.2,0.8c0.1,0,0.2,0,0.3,0c-1.6,1.5-1.3,3.8-1.2,4.2
				c-1.7,1.6-3.4,2.8-5.1,3.7c-0.6-0.4-1.2-0.9-1.6-1.5c-1.8-2.2-1.8-4.6-1.8-5.4c0.4,0.5,0.9,0.7,1.6,0.7c0.9,0,1.6-0.4,1.6-0.5
				c1.1-0.8,0.9-2.5,0.8-3c1.3-0.3,1.7-1.1,1.9-1.8c0.2-0.7,0.1-1.4,0.1-1.4h-0.2c0,0,0,0.1,0,0.3s-0.1,0.4-0.3,0.6
				c-0.6,0.7-2,0.7-4.1,0c-0.6-0.2-1.2-0.3-1.7-0.3c-2.8,0-3.3,3.1-3.4,4.2c-1.5-2.5-6.2-6.4-6.4-6.6c-0.8-0.5-1.5-1-2.3-1.4
				l0.2-0.1c1.9-1.1,3.9-1.3,5.6-1.3c-0.4,0.5-0.7,1.1-0.7,1.7c0,1.4,1.1,2.5,2.4,2.5s2.4-1.1,2.4-2.5c0-0.1,0-0.3,0-0.4
				c2.1,1.7,3.9,2.3,5.3,1.8c2.2-0.9,2.6-4.2,2.6-4.3h-0.2c-0.1,0.5-0.3,0.9-0.8,1.2c-1.6,1-5.2,0-6.9-0.7c-1.1-0.4-2.4-0.7-3.4-0.9
				c-0.5-0.1-1-0.2-1.3-0.2s-0.5-0.1-0.5-0.1c-2.7-0.3-4.7,1-6.2,2.6c-2.2-1-4.4-1.4-6.5-1.4c-2.6,0-4.7,0.7-6.4,1.5
				c-2.4-1.4-4.9-2.1-7.3-2.1c-2.9,0-5.2,1-6.8,2.1c-0.8,0.5-1.4,1-1.8,1.4c-0.2,0.2-0.4,0.4-0.5,0.5s-0.2,0.2-0.2,0.2
				c-0.4,0.4-0.8,0.6-1.1,0.6c-0.3,0-0.4-0.2-0.4-0.2c0.2-1.4-0.6-2.3-1.5-2.8c-0.4-0.3-0.9-0.4-1.2-0.5c-0.2-0.1-0.3-0.1-0.4-0.1
				s-0.2,0-0.2,0h-0.1v3.8l0,0c0.5,0.7,1.3,1,2.5,1c0.8,0,1.5-0.2,1.9-0.3c-1.1,1-2.8,1.2-3.8,1.2c-0.3,0-0.5,0-0.5,0h-0.1l0,0h-0.1
				c-0.1,0-0.1,0-0.2,0c-1.2,0-2.9,1.1-3.8,2.2c-0.2,0.3-0.5,0.7-0.5,1c0.1,0.6,1.3,0.8,2.2,0.8c0.1,0,0.2,0,0.3,0
				c-1.6,1.5-1.3,3.8-1.2,4.2c-1.7,1.6-3.4,2.8-5.1,3.7c-0.6-0.4-1.2-0.9-1.6-1.5c-1.8-2.2-1.8-4.6-1.8-5.4c0.4,0.5,0.9,0.7,1.6,0.7
				c0.9,0,1.6-0.4,1.6-0.5c1.1-0.8,0.9-2.5,0.8-3c1.3-0.3,1.7-1.1,1.9-1.8c0.2-0.7,0.1-1.4,0.1-1.4h-0.2c0,0,0,0.1,0,0.3
				s-0.1,0.4-0.3,0.6c-0.6,0.7-2,0.7-4.1,0c-0.6-0.2-1.2-0.3-1.7-0.3c-2.8,0-3.3,3.1-3.4,4.2c-1.5-2.5-6.2-6.4-6.4-6.6
				c-0.8-0.5-1.5-1-2.3-1.4l0.2-0.1c1.9-1.1,3.9-1.3,5.6-1.3c-0.4,0.5-0.7,1.1-0.7,1.7c0,1.4,1.1,2.5,2.4,2.5s2.4-1.1,2.4-2.5
				c0-0.1,0-0.3,0-0.4c2.1,1.7,3.9,2.3,5.3,1.8c2.2-0.9,2.6-4.2,2.6-4.3h-0.2c-0.1,0.5-0.3,0.9-0.8,1.2c-1.6,1-5.2,0-6.9-0.7
				c-1.1-0.4-2.4-0.7-3.4-0.9c-0.5-0.1-1-0.2-1.3-0.2s-0.5-0.1-0.5-0.1c-2.7-0.3-4.7,1-6.2,2.6c-2.2-1-4.4-1.4-6.5-1.4
				c-2.6,0-4.7,0.7-6.4,1.5c-2.4-1.4-4.9-2.1-7.3-2.1c-2.9,0-5.2,1-6.8,2.1c-0.8,0.5-1.4,1-1.8,1.4c-0.2,0.2-0.4,0.4-0.5,0.5
				s-0.2,0.2-0.2,0.2c-0.4,0.4-0.8,0.6-1.1,0.6s-0.4-0.2-0.4-0.2c0.2-1.4-0.6-2.3-1.5-2.8c-0.4-0.3-0.9-0.4-1.2-0.5
				c-0.2-0.1-0.3-0.1-0.4-0.1c-0.1,0-0.2,0-0.2,0h-0.1v3.8l0,0c0.5,0.7,1.3,1,2.5,1c0.8,0,1.5-0.2,1.9-0.3c-1.1,1-2.8,1.2-3.8,1.2
				c-0.3,0-0.5,0-0.5,0h-0.1l0,0h-0.1c-0.1,0-0.1,0-0.2,0c-1.2,0-2.9,1.1-3.8,2.2c-0.2,0.3-0.5,0.7-0.5,1c0.1,0.6,1.3,0.8,2.2,0.8
				c0.1,0,0.2,0,0.3,0c-1.6,1.5-1.3,3.8-1.2,4.2c-1.7,1.6-3.4,2.8-5.1,3.7c-0.6-0.4-1.2-0.9-1.6-1.5c-1.8-2.2-1.8-4.6-1.8-5.4
				c0.4,0.5,0.9,0.7,1.6,0.7c0.9,0,1.6-0.4,1.6-0.5c1.1-0.8,0.9-2.5,0.8-3c1.3-0.3,1.7-1.1,1.9-1.8c0.2-0.7,0.1-1.4,0.1-1.4h-0.2
				c0,0,0,0.1,0,0.3s-0.1,0.4-0.3,0.6c-0.6,0.7-2,0.7-4.1,0c-0.6-0.2-1.2-0.3-1.7-0.3c-2.8,0-3.3,3.1-3.4,4.2
				c-1.5-2.5-6.2-6.4-6.4-6.6c-0.8-0.5-1.5-1-2.3-1.4l0.2-0.1c1.9-1.1,3.9-1.3,5.6-1.3c-0.4,0.5-0.7,1.1-0.7,1.7
				c0,1.4,1.1,2.5,2.4,2.5c1.3,0,2.4-1.1,2.4-2.5c0-0.1,0-0.3,0-0.4c2.1,1.7,3.9,2.3,5.3,1.8c2.2-0.9,2.6-4.2,2.6-4.3h-0.2
				c-0.1,0.5-0.3,0.9-0.8,1.2c-1.6,1-5.2,0-6.9-0.7c-1.1-0.4-2.4-0.7-3.4-0.9c-0.5-0.1-1-0.2-1.3-0.2s-0.5-0.1-0.5-0.1
				c-2.7-0.3-4.7,1-6.2,2.6c-2.2-1-4.4-1.4-6.5-1.4c-2.6,0-4.7,0.7-6.4,1.5c-2.4-1.4-4.9-2.1-7.3-2.1c-2.9,0-5.2,1-6.8,2.1
				c-0.8,0.5-1.4,1-1.8,1.4c-0.2,0.2-0.4,0.4-0.5,0.5s-0.2,0.2-0.2,0.2c-0.4,0.4-0.8,0.6-1.1,0.6s-0.4-0.2-0.4-0.2
				c0.2-1.4-0.6-2.3-1.5-2.8c-0.4-0.3-0.9-0.4-1.2-0.5c-0.2-0.1-0.3-0.1-0.4-0.1c-0.1,0-0.2,0-0.2,0h-0.1v3.8l0,0
				c0.5,0.7,1.3,1,2.5,1c0.8,0,1.5-0.2,1.9-0.3c-1.1,1-2.8,1.2-3.8,1.2c-0.3,0-0.5,0-0.5,0h-0.1l0,0h-0.1c-0.1,0-0.1,0-0.2,0
				c-1.2,0-2.9,1.1-3.8,2.2c-0.2,0.3-0.5,0.7-0.5,1c0.1,0.6,1.3,0.8,2.2,0.8c0.1,0,0.2,0,0.3,0c-1.6,1.5-1.3,3.8-1.2,4.2
				c-1.7,1.6-3.4,2.8-5.1,3.7c-0.6-0.4-1.2-0.9-1.6-1.5c-1.8-2.2-1.8-4.6-1.8-5.4c0.4,0.5,0.9,0.7,1.6,0.7c0.9,0,1.6-0.4,1.6-0.5
				c1.1-0.8,0.9-2.5,0.8-3c1.3-0.3,1.7-1.1,1.9-1.8c0.2-0.7,0.1-1.4,0.1-1.4h-0.2c0,0,0,0.1,0,0.3s-0.1,0.4-0.3,0.6
				c-0.6,0.7-2,0.7-4.1,0c-0.6-0.2-1.2-0.3-1.7-0.3c-2.8,0-3.3,3.1-3.4,4.2c-1.5-2.5-6.2-6.4-6.4-6.6c-0.8-0.5-1.5-1-2.3-1.4
				l0.2-0.1c1.9-1.1,3.9-1.3,5.6-1.3c-0.4,0.5-0.7,1.1-0.7,1.7c0,1.4,1.1,2.5,2.4,2.5c1.3,0,2.4-1.1,2.4-2.5c0-0.1,0-0.3,0-0.4
				c2.1,1.7,3.9,2.3,5.3,1.8c2.2-0.9,2.6-4.2,2.6-4.3h-0.2c-0.1,0.5-0.3,0.9-0.8,1.2c-1.6,1-5.2,0-6.9-0.7c-1.1-0.4-2.4-0.7-3.4-0.9
				c-0.5-0.1-1-0.2-1.3-0.2s-0.5-0.1-0.5-0.1c-2.7-0.3-4.7,1-6.2,2.6c-2.2-1-4.4-1.4-6.5-1.4c-2.6,0-4.7,0.7-6.4,1.5
				c-2.4-1.4-4.9-2.1-7.3-2.1c-2.9,0-5.2,1-6.8,2.1c-0.8,0.5-1.4,1-1.8,1.4c-0.2,0.2-0.4,0.4-0.5,0.5s-0.2,0.2-0.2,0.2
				c-0.4,0.4-0.8,0.6-1.1,0.6s-0.4-0.2-0.4-0.2c0.2-1.4-0.6-2.3-1.5-2.8c-0.4-0.3-0.9-0.4-1.2-0.5c-0.2-0.1-0.3-0.1-0.4-0.1
				c-0.1,0-0.2,0-0.2,0h-0.1v3.8l0,0c0.5,0.7,1.3,1,2.5,1c0.8,0,1.5-0.2,1.9-0.3c-1.1,1-2.8,1.2-3.8,1.2c-0.3,0-0.5,0-0.5,0h-0.1
				v8.3h0.1c0.8,0,1.4-0.7,1.9-1.4c0,1.7,0.3,4.1,1.8,6.2c-1,0.4-2,0.7-2.6,0.8c-0.3,0.1-0.6,0.1-0.8,0.1s-0.3,0-0.3,0h-0.1v1.6h0.1
				c1.9,0,3.6-0.4,5.2-1c1.6,1.2,3.8,1.9,6.5,1.9l0,0c0.8,0,1.7-0.1,2.6-0.2c0.2,0,3.7-1,5.3-2.1c0.3-0.2,0.7-0.3,1.1-0.3
				c1.2,0,2.3,1,2.4,1.9c0,0.1,0,0.2,0,0.2h0.2c0-0.1,0-0.1,0-0.2c-0.1-1-0.6-4.3-3.3-4.3c-1,0-2.3,0.5-3.8,1.6
				c0-0.2,0.1-0.3,0.1-0.5c0-1.4-1.1-2.5-2.4-2.5c-1.3,0-2.4,1.1-2.4,2.5c0,0.8,0.3,1.4,0.8,1.9c-0.6,0.1-1.3,0.2-2,0.2l0,0
				c-1.4,0-2.6-0.3-3.6-0.7c2.8-1.5,4.6-3.4,4.8-3.6c3.5-0.7,4.1-2.7,4.2-3.3c1.4,0.9,2.5,1.4,3.5,1.4c1.3,0,2-0.9,2.4-1.8
				c0.2-0.5,0.3-0.9,0.3-1.2c0-0.2,0-0.3,0.1-0.4c0-0.1,0-0.2,0-0.2v-0.1h-0.1c-0.4,0.2-0.8,0.2-1.1,0.2c-1.1,0-1.8-0.9-1.9-2.3
				c-0.1-1.7,0.9-4,3-5.5c2.6,1.6,4.3,3.6,4.5,3.8c-0.4,3.1,0.5,4.3,1.3,4.8c-1.4,0-2.4,0.9-2.4,1l0,0l0,0c-0.1,0.9,0.4,1.5,0.9,1.8
				c0.3,0.2,0.5,0.2,0.7,0.3c0.2,0.1,0.4,0.1,0.4,0.1c0.3,0,0.7,0,1.1,0c1.9,0,3.5,0.4,4.5,0.8c-0.2,0-0.5-0.1-0.8-0.1
				c-1.3,0-2.5,0.5-3.3,1.5c-0.6,0.7-0.9,1.4-0.8,2.1c0.1,1.2,1,2,1,2.1l0,0l0,0c1.4-0.5,2.3-1.3,2.8-2.3s0.3-2,0.2-2.3
				c0.2-0.1,0.4-0.1,0.6-0.1c0.4,0,0.7,0.1,1,0.2s0.4,0.2,0.4,0.2l0,0c2.9,2.5,6.1,3.7,9.6,3.7c2,0,3.9-0.4,5.6-1
				c3.5,1.8,8.2,1.9,9.9,1.9c0.4,0,0.6,0,0.6,0h0.1l0,0h0.1c1.9,0,3.6-0.4,5.2-1c1.6,1.2,3.8,1.9,6.5,1.9l0,0c0.8,0,1.7-0.1,2.6-0.2
				c0.2,0,3.7-1,5.3-2.1c0.3-0.2,0.7-0.3,1.1-0.3c1.2,0,2.3,1,2.4,1.9c0,0.1,0,0.2,0,0.2h0.2c0-0.1,0-0.1,0-0.2
				c-0.1-1-0.6-4.3-3.3-4.3c-1,0-2.3,0.5-3.8,1.6c0-0.2,0.1-0.3,0.1-0.5c0-1.4-1.1-2.5-2.4-2.5c-1.3,0-2.4,1.1-2.4,2.5
				c0,0.8,0.3,1.4,0.8,1.9c-0.6,0.1-1.3,0.2-2,0.2l0,0c-1.4,0-2.6-0.3-3.6-0.7c2.8-1.5,4.6-3.4,4.8-3.6c3.5-0.7,4.1-2.7,4.2-3.3
				c1.4,0.9,2.5,1.4,3.5,1.4c1.3,0,2-0.9,2.4-1.8c0.2-0.5,0.3-0.9,0.3-1.2c0-0.2,0-0.3,0.1-0.4c0-0.1,0-0.2,0-0.2V21H980
				c-0.4,0.2-0.8,0.2-1.1,0.2c-1.1,0-1.8-0.9-1.9-2.3c-0.1-1.7,0.9-4,3-5.5c2.6,1.6,4.3,3.6,4.5,3.8c-0.4,3.1,0.5,4.3,1.3,4.8
				c-1.4,0-2.4,0.9-2.4,1l0,0l0,0c-0.1,0.9,0.4,1.5,0.9,1.8c0.3,0.2,0.5,0.2,0.7,0.3c0.2,0.1,0.4,0.1,0.4,0.1c0.3,0,0.7,0,1.1,0
				c1.9,0,3.5,0.4,4.5,0.8c-0.2,0-0.5-0.1-0.8-0.1c-1.3,0-2.5,0.5-3.3,1.5c-0.6,0.7-0.9,1.4-0.8,2.1c0.1,1.2,1,2,1,2.1l0,0l0,0
				c1.4-0.5,2.3-1.3,2.8-2.3s0.3-2,0.2-2.3c0.2-0.1,0.4-0.1,0.6-0.1c0.4,0,0.7,0.1,1,0.2s0.4,0.2,0.4,0.2l0,0
				c2.9,2.5,6.1,3.7,9.6,3.7c2,0,3.9-0.4,5.6-1c3.5,1.8,8.2,1.9,9.9,1.9c0.4,0,0.6,0,0.6,0h0.1l0,0h0.1c1.9,0,3.6-0.4,5.2-1
				c1.6,1.2,3.8,1.9,6.5,1.9l0,0c0.8,0,1.7-0.1,2.6-0.2c0.2,0,3.7-1,5.3-2.1c0.3-0.2,0.7-0.3,1.1-0.3c1.2,0,2.3,1,2.4,1.9
				c0,0.1,0,0.2,0,0.2h0.2c0-0.1,0-0.1,0-0.2c-0.1-1-0.6-4.3-3.3-4.3c-1,0-2.3,0.5-3.8,1.6c0-0.2,0.1-0.3,0.1-0.5
				c0-1.4-1.1-2.5-2.4-2.5s-2.4,1.1-2.4,2.5c0,0.8,0.3,1.4,0.8,1.9c-0.6,0.1-1.3,0.2-2,0.2l0,0c-1.4,0-2.6-0.3-3.6-0.7
				c2.8-1.5,4.6-3.4,4.8-3.6c3.5-0.7,4.1-2.7,4.2-3.3c1.4,0.9,2.5,1.4,3.5,1.4c1.3,0,2-0.9,2.4-1.8c0.2-0.5,0.3-0.9,0.3-1.2
				c0-0.2,0-0.3,0.1-0.4c0-0.1,0-0.2,0-0.2v-0.1h-0.1c-0.4,0.2-0.8,0.2-1.1,0.2c-1.1,0-1.8-0.9-1.9-2.3c-0.1-1.7,0.9-4,3-5.5
				c2.6,1.6,4.3,3.6,4.5,3.8c-0.4,3.1,0.5,4.3,1.3,4.8c-1.4,0-2.4,0.9-2.4,1l0,0l0,0c-0.1,0.9,0.4,1.5,0.9,1.8
				c0.3,0.2,0.5,0.2,0.7,0.3c0.2,0.1,0.4,0.1,0.4,0.1c0.3,0,0.7,0,1.1,0c1.9,0,3.5,0.4,4.5,0.8c-0.2,0-0.5-0.1-0.8-0.1
				c-1.3,0-2.5,0.5-3.3,1.5c-0.6,0.7-0.9,1.4-0.8,2.1c0.1,1.2,1,2,1,2.1l0,0l0,0c1.4-0.5,2.3-1.3,2.8-2.3s0.3-2,0.2-2.3
				c0.2-0.1,0.4-0.1,0.6-0.1c0.4,0,0.7,0.1,1,0.2s0.4,0.2,0.4,0.2l0,0c2.9,2.5,6.1,3.7,9.6,3.7c2,0,3.9-0.4,5.6-1
				c3.5,1.8,8.2,1.9,9.9,1.9c0.4,0,0.6,0,0.6,0h0.1l0,0h0.1c1.9,0,3.6-0.4,5.2-1c1.6,1.2,3.8,1.9,6.5,1.9l0,0c0.8,0,1.7-0.1,2.6-0.2
				c0.2,0,3.7-1,5.3-2.1c0.3-0.2,0.7-0.3,1.1-0.3c1.2,0,2.3,1,2.4,1.9c0,0.1,0,0.2,0,0.2h0.2c0-0.1,0-0.1,0-0.2
				c-0.1-1-0.6-4.3-3.3-4.3c-1,0-2.3,0.5-3.8,1.6c0-0.2,0.1-0.3,0.1-0.5c0-1.4-1.1-2.5-2.4-2.5s-2.4,1.1-2.4,2.5
				c0,0.8,0.3,1.4,0.8,1.9c-0.6,0.1-1.3,0.2-2,0.2l0,0c-1.4,0-2.6-0.3-3.6-0.7c2.8-1.5,4.6-3.4,4.8-3.6c3.5-0.7,4.1-2.7,4.2-3.3
				c1.4,0.9,2.5,1.4,3.5,1.4c1.3,0,2-0.9,2.4-1.8c0.2-0.5,0.3-0.9,0.3-1.2c0-0.2,0-0.3,0.1-0.4c0-0.1,0-0.2,0-0.2v-0.1h-0.1
				c-0.4,0.2-0.8,0.2-1.1,0.2c-1.1,0-1.8-0.9-1.9-2.3c-0.1-1.7,0.9-4,3-5.5c2.6,1.6,4.3,3.6,4.5,3.8c-0.4,3.1,0.5,4.3,1.3,4.8
				c-1.4,0-2.4,0.9-2.4,1l0,0l0,0c-0.1,0.9,0.4,1.5,0.9,1.8c0.3,0.2,0.5,0.2,0.7,0.3c0.2,0.1,0.4,0.1,0.4,0.1c0.3,0,0.7,0,1.1,0
				c1.9,0,3.5,0.4,4.5,0.8c-0.2,0-0.5-0.1-0.8-0.1c-1.3,0-2.5,0.5-3.3,1.5c-0.6,0.7-0.9,1.4-0.8,2.1c0.1,1.2,1,2,1,2.1l0,0l0,0
				c1.4-0.5,2.3-1.3,2.8-2.3s0.3-2,0.2-2.3c0.2-0.1,0.4-0.1,0.6-0.1c0.4,0,0.7,0.1,1,0.2s0.4,0.2,0.4,0.2l0,0
				c2.9,2.5,6.1,3.7,9.6,3.7c2,0,3.9-0.4,5.6-1c3.5,1.8,8.2,1.9,9.9,1.9c0.4,0,0.6,0,0.6,0h0.1l0,0h0.1c1.9,0,3.6-0.4,5.2-1
				c1.6,1.2,3.8,1.9,6.5,1.9l0,0c0.8,0,1.7-0.1,2.6-0.2c0.2,0,3.7-1,5.3-2.1c0.3-0.2,0.7-0.3,1.1-0.3c1.2,0,2.3,1,2.4,1.9
				c0,0.1,0,0.2,0,0.2h0.2c0-0.1,0-0.1,0-0.2c-0.1-1-0.6-4.3-3.3-4.3c-1,0-2.3,0.5-3.8,1.6c0-0.2,0.1-0.3,0.1-0.5
				c0-1.4-1.1-2.5-2.4-2.5s-2.4,1.1-2.4,2.5c0,0.8,0.3,1.4,0.8,1.9c-0.6,0.1-1.3,0.2-2,0.2l0,0c-1.4,0-2.6-0.3-3.6-0.7
				c2.8-1.5,4.6-3.4,4.8-3.6c3.5-0.7,4.1-2.7,4.2-3.3c1.4,0.9,2.5,1.4,3.5,1.4c1.3,0,2-0.9,2.4-1.8c0.2-0.5,0.3-0.9,0.3-1.2
				c0-0.2,0-0.3,0.1-0.4c0-0.1,0-0.2,0-0.2v-0.1h-0.1c-0.4,0.2-0.8,0.2-1.1,0.2c-1.1,0-1.8-0.9-1.9-2.3c-0.1-1.7,0.9-4,3-5.5
				c2.6,1.6,4.3,3.6,4.5,3.8c-0.4,3.1,0.5,4.3,1.3,4.8c-1.4,0-2.4,0.9-2.4,1l0,0l0,0c-0.1,0.9,0.4,1.5,0.9,1.8
				c0.3,0.2,0.5,0.2,0.7,0.3c0.2,0.1,0.4,0.1,0.4,0.1c0.3,0,0.7,0,1.1,0c1.9,0,3.5,0.4,4.5,0.8c-0.2,0-0.5-0.1-0.8-0.1
				c-1.3,0-2.5,0.5-3.3,1.5c-0.6,0.7-0.9,1.4-0.8,2.1c0.1,1.2,1,2,1,2.1l0,0l0,0c1.4-0.5,2.3-1.3,2.8-2.3s0.3-2,0.2-2.3
				c0.2-0.1,0.4-0.1,0.6-0.1c0.4,0,0.7,0.1,1,0.2s0.4,0.2,0.4,0.2l0,0c2.9,2.5,6.1,3.7,9.6,3.7c2,0,3.9-0.4,5.6-1
				c3.5,1.8,8.2,1.9,9.9,1.9c0.4,0,0.6,0,0.6,0h0.1v-1.6h-0.1c-3-0.1-5.5-0.6-7.4-1.7c2.9-1.6,4.9-3.3,5.1-3.6
				C1196.8,24.9,1198.5,24.5,1198.5,24.4z M916.5,14c-0.5,0.2-7.1,2.2-7,4.3c0.1,1.2,0.8,1.5,1.3,1.5c0.3,0,0.5-0.1,0.7-0.1
				c-1.9,4.9-5,7.5-7.5,8.9c-0.9-1-1.5-2.5-1.7-4.3c0.1,0.1,0.2,0.1,0.3,0.1l0,0l0,0c1.6-0.8,1.8-3.7,1.6-5.7
				c0.8,1.7,2.2,2.1,3.4,2.1c0.7,0,1.3-0.1,1.7-0.2c0.1,0,0.3,0,0.4-0.1h0.1l0,0l0,0l0.6-0.5l-0.7,0.3c0,0-0.2,0.1-0.4,0.1
				c-0.4-0.1-0.8-0.8-1.3-1.6c-0.2-0.4-0.5-0.9-0.8-1.4c-0.4-0.5-0.8-0.8-1.2-0.8c-0.5,0-0.8,0.3-1,0.4c-0.4-0.9,0.5-2.3,0.5-2.4
				c2.6-2.5,5.5-3.8,8.4-3.8c1.8,0,3.5,0.5,5,1.2C917.5,13,916.6,13.9,916.5,14z M926.5,15.8c-0.3,0-0.5,0-0.6,0.1
				c-1.3-1.3-2.6-2.4-3.9-3.3c1-0.5,2.2-0.9,3.7-1c0.3,0,0.5,0,0.8,0c1.9,0,3.8,0.6,5.4,1.6c-1,1.6-1.7,3.3-2,4.4
				C928.7,16,927.3,15.8,926.5,15.8z M930.6,18.4L930.6,18.4c0-0.1,0-0.1,0-0.1S930.6,18.3,930.6,18.4z M944,29.7
				c-5.8,0-9-4.2-9.4-4.7c-0.3-0.5-0.5-0.8-0.5-0.9c0.1,0,0.2,0,0.3,0c1.1,0,2.5-1,2.6-1l0,0c0.5-0.7,0.7-1.5,0.5-2.1
				c-0.3-0.7-1.3-0.9-2.5-0.4c-1.8,0.7-1.9,3.1-1.8,4.3c-0.1-0.8-0.1-2.4-0.1-3.8v-0.6c0-1.2-0.2-2-0.3-2.5
				c-0.2-0.5-0.3-0.7-0.3-0.7s-0.5-0.7-1-0.7c-0.2,0-0.4,0.1-0.5,0.3c0,0,0,0.1-0.1,0.1c0.5-1.3,1.1-2.5,1.9-3.4
				c4.4,3,7.4,8.1,8.1,9.4c-0.1-0.1-0.3-0.1-0.5-0.1c-0.4,0-0.9,0.2-1.3,0.7c-0.4,0.4-0.5,1-0.3,1.5c0.3,0.9,1.3,1.6,2,1.5
				c1-0.1,4.3,0.9,4.6,1c0.5,0.6,1.1,1.1,1.7,1.6C946.1,29.6,945.1,29.7,944,29.7z M960,30c-0.3,0.1-0.6,0.1-0.8,0.1s-0.3,0-0.3,0
				h-0.1l0,0h-0.1c-3-0.1-5.5-0.6-7.4-1.7c2.9-1.6,4.9-3.3,5.1-3.6c0.6,0,2.2-0.4,2.3-0.4h0.1l0,0h0.1c0.8,0,1.4-0.7,1.9-1.4
				c0,1.7,0.3,4.1,1.8,6.2C961.6,29.6,960.6,29.9,960,30z M976.4,14c-0.5,0.2-7.1,2.2-7,4.3c0.1,1.2,0.8,1.5,1.3,1.5
				c0.3,0,0.5-0.1,0.7-0.1c-1.9,4.9-5,7.5-7.5,8.9c-0.9-1-1.5-2.5-1.7-4.3c0.1,0.1,0.2,0.1,0.3,0.1l0,0l0,0c1.6-0.8,1.8-3.7,1.6-5.7
				c0.8,1.7,2.2,2.1,3.4,2.1c0.7,0,1.3-0.1,1.7-0.2c0.1,0,0.3,0,0.4-0.1h0.1l0,0l0,0l0.6-0.5l-0.7,0.3c0,0-0.2,0.1-0.4,0.1
				c-0.4-0.1-0.8-0.8-1.3-1.6c-0.2-0.4-0.5-0.9-0.8-1.4c-0.4-0.5-0.8-0.8-1.2-0.8c-0.5,0-0.8,0.3-1,0.4c-0.4-0.9,0.5-2.3,0.5-2.4
				c2.6-2.5,5.5-3.8,8.4-3.8c1.8,0,3.5,0.5,5,1.2C977.4,13,976.5,13.9,976.4,14z M986.5,15.8c-0.3,0-0.5,0-0.6,0.1
				c-1.3-1.3-2.6-2.4-3.9-3.3c1-0.5,2.2-0.9,3.7-1c0.3,0,0.5,0,0.8,0c1.9,0,3.8,0.6,5.4,1.6c-1,1.6-1.7,3.3-2,4.4
				C988.6,16,987.3,15.8,986.5,15.8z M990.5,18.4L990.5,18.4c0-0.1,0-0.1,0-0.1S990.5,18.3,990.5,18.4z M1004,29.7
				c-5.8,0-9-4.2-9.4-4.7c-0.3-0.5-0.5-0.8-0.5-0.9c0.1,0,0.2,0,0.3,0c1.1,0,2.5-1,2.6-1l0,0c0.5-0.7,0.7-1.5,0.5-2.1
				c-0.3-0.7-1.3-0.9-2.5-0.4c-1.8,0.7-1.9,3.1-1.8,4.3c-0.1-0.8-0.1-2.4-0.1-3.8v-0.6c0-1.2-0.2-2-0.3-2.5
				c-0.2-0.5-0.3-0.7-0.3-0.7s-0.5-0.7-1-0.7c-0.2,0-0.4,0.1-0.5,0.3c0,0,0,0.1-0.1,0.1c0.5-1.3,1.1-2.5,1.9-3.4
				c4.4,3,7.4,8.1,8.1,9.4c-0.1-0.1-0.3-0.1-0.5-0.1c-0.4,0-0.9,0.2-1.3,0.7c-0.4,0.4-0.5,1-0.3,1.5c0.3,0.9,1.3,1.6,2,1.5
				c1-0.1,4.3,0.9,4.6,1c0.5,0.6,1.1,1.1,1.7,1.6C1006.1,29.6,1005,29.7,1004,29.7z M1019.9,30c-0.3,0.1-0.6,0.1-0.8,0.1
				s-0.3,0-0.3,0h-0.1l0,0h-0.1c-3-0.1-5.5-0.6-7.4-1.7c2.9-1.6,4.9-3.3,5.1-3.6c0.6,0,2.2-0.4,2.3-0.4h0.1l0,0h0.1
				c0.8,0,1.4-0.7,1.9-1.4c0,1.7,0.3,4.1,1.8,6.2C1021.5,29.6,1020.6,29.9,1019.9,30z M1036.4,14c-0.5,0.2-7.1,2.2-7,4.3
				c0.1,1.2,0.8,1.5,1.3,1.5c0.3,0,0.5-0.1,0.7-0.1c-1.9,4.9-5,7.5-7.5,8.9c-0.9-1-1.5-2.5-1.7-4.3c0.1,0.1,0.2,0.1,0.3,0.1l0,0l0,0
				c1.6-0.8,1.8-3.7,1.6-5.7c0.8,1.7,2.2,2.1,3.4,2.1c0.7,0,1.3-0.1,1.7-0.2c0.1,0,0.3,0,0.4-0.1h0.1l0,0l0,0l0.6-0.5l-0.7,0.3
				c0,0-0.2,0.1-0.4,0.1c-0.4-0.1-0.8-0.8-1.3-1.6c-0.2-0.4-0.5-0.9-0.8-1.4c-0.4-0.5-0.8-0.8-1.2-0.8c-0.5,0-0.8,0.3-1,0.4
				c-0.4-0.9,0.5-2.3,0.5-2.4c2.6-2.5,5.5-3.8,8.4-3.8c1.8,0,3.5,0.5,5,1.2C1037.4,13,1036.5,13.9,1036.4,14z M1046.4,15.8
				c-0.3,0-0.5,0-0.6,0.1c-1.3-1.3-2.6-2.4-3.9-3.3c1-0.5,2.2-0.9,3.7-1c0.3,0,0.5,0,0.8,0c1.9,0,3.8,0.6,5.4,1.6
				c-1,1.6-1.7,3.3-2,4.4C1048.6,16,1047.2,15.8,1046.4,15.8z M1050.5,18.4L1050.5,18.4c0-0.1,0-0.1,0-0.1S1050.5,18.3,1050.5,18.4z
				 M1063.9,29.7c-5.8,0-9-4.2-9.4-4.7c-0.3-0.5-0.5-0.8-0.5-0.9c0.1,0,0.2,0,0.3,0c1.1,0,2.5-1,2.6-1l0,0c0.5-0.7,0.7-1.5,0.5-2.1
				c-0.3-0.7-1.3-0.9-2.5-0.4c-1.8,0.7-1.9,3.1-1.8,4.3c-0.1-0.8-0.1-2.4-0.1-3.8v-0.6c0-1.2-0.2-2-0.3-2.5
				c-0.2-0.5-0.3-0.7-0.3-0.7s-0.5-0.7-1-0.7c-0.2,0-0.4,0.1-0.5,0.3c0,0,0,0.1-0.1,0.1c0.5-1.3,1.1-2.5,1.9-3.4
				c4.4,3,7.4,8.1,8.1,9.4c-0.1-0.1-0.3-0.1-0.5-0.1c-0.4,0-0.9,0.2-1.3,0.7c-0.4,0.4-0.5,1-0.3,1.5c0.3,0.9,1.3,1.6,2,1.5
				c1-0.1,4.3,0.9,4.6,1c0.5,0.6,1.1,1.1,1.7,1.6C1066,29.6,1065,29.7,1063.9,29.7z M1079.9,30c-0.3,0.1-0.6,0.1-0.8,0.1
				c-0.2,0-0.3,0-0.3,0h-0.1l0,0h-0.1c-3-0.1-5.5-0.6-7.4-1.7c2.9-1.6,4.9-3.3,5.1-3.6c0.6,0,2.2-0.4,2.3-0.4h0.1l0,0h0.1
				c0.8,0,1.4-0.7,1.9-1.4c0,1.7,0.3,4.1,1.8,6.2C1081.5,29.6,1080.5,29.9,1079.9,30z M1096.3,14c-0.5,0.2-7.1,2.2-7,4.3
				c0.1,1.2,0.8,1.5,1.3,1.5c0.3,0,0.5-0.1,0.7-0.1c-1.9,4.9-5,7.5-7.5,8.9c-0.9-1-1.5-2.5-1.7-4.3c0.1,0.1,0.2,0.1,0.3,0.1l0,0l0,0
				c1.6-0.8,1.8-3.7,1.6-5.7c0.8,1.7,2.2,2.1,3.4,2.1c0.7,0,1.3-0.1,1.7-0.2c0.1,0,0.3,0,0.4-0.1h0.1l0,0l0,0l0.6-0.5l-0.7,0.3
				c0,0-0.2,0.1-0.4,0.1c-0.4-0.1-0.8-0.8-1.3-1.6c-0.2-0.4-0.5-0.9-0.8-1.4c-0.4-0.5-0.8-0.8-1.2-0.8c-0.5,0-0.8,0.3-1,0.4
				c-0.4-0.9,0.5-2.3,0.5-2.4c2.6-2.5,5.5-3.8,8.4-3.8c1.8,0,3.5,0.5,5,1.2C1097.3,13,1096.4,13.9,1096.3,14z M1106.3,15.8
				c-0.3,0-0.5,0-0.6,0.1c-1.3-1.3-2.6-2.4-3.9-3.3c1-0.5,2.2-0.9,3.7-1c0.3,0,0.5,0,0.8,0c1.9,0,3.8,0.6,5.4,1.6
				c-1,1.6-1.7,3.3-2,4.4C1108.5,16,1107.1,15.8,1106.3,15.8z M1110.4,18.4L1110.4,18.4c0-0.1,0-0.1,0-0.1S1110.4,18.3,1110.4,18.4z
				 M1123.9,29.7c-5.8,0-9-4.2-9.4-4.7c-0.3-0.5-0.5-0.8-0.5-0.9c0.1,0,0.2,0,0.3,0c1.1,0,2.5-1,2.6-1l0,0c0.5-0.7,0.7-1.5,0.5-2.1
				c-0.3-0.7-1.3-0.9-2.5-0.4c-1.8,0.7-1.9,3.1-1.8,4.3c-0.1-0.8-0.1-2.4-0.1-3.8v-0.6c0-1.2-0.2-2-0.3-2.5
				c-0.2-0.5-0.3-0.7-0.3-0.7s-0.5-0.7-1-0.7c-0.2,0-0.4,0.1-0.5,0.3c0,0,0,0.1-0.1,0.1c0.5-1.3,1.1-2.5,1.9-3.4
				c4.4,3,7.4,8.1,8.1,9.4c-0.1-0.1-0.3-0.1-0.5-0.1c-0.4,0-0.9,0.2-1.3,0.7c-0.4,0.4-0.5,1-0.3,1.5c0.3,0.9,1.3,1.6,2,1.5
				c1-0.1,4.3,0.9,4.6,1c0.5,0.6,1.1,1.1,1.7,1.6C1126,29.6,1124.9,29.7,1123.9,29.7z M1139.8,30c-0.3,0.1-0.6,0.1-0.8,0.1
				c-0.2,0-0.3,0-0.3,0h-0.1l0,0h-0.1c-3-0.1-5.5-0.6-7.4-1.7c2.9-1.6,4.9-3.3,5.1-3.6c0.6,0,2.2-0.4,2.3-0.4h0.1l0,0h0.1
				c0.8,0,1.4-0.7,1.9-1.4c0,1.7,0.3,4.1,1.8,6.2C1141.4,29.6,1140.5,29.9,1139.8,30z M1156.2,14c-0.5,0.2-7.1,2.2-7,4.3
				c0.1,1.2,0.8,1.5,1.3,1.5c0.3,0,0.5-0.1,0.7-0.1c-1.9,4.9-5,7.5-7.5,8.9c-0.9-1-1.5-2.5-1.7-4.3c0.1,0.1,0.2,0.1,0.3,0.1l0,0l0,0
				c1.6-0.8,1.8-3.7,1.6-5.7c0.8,1.7,2.2,2.1,3.4,2.1c0.7,0,1.3-0.1,1.7-0.2c0.1,0,0.3,0,0.4-0.1h0.1l0,0l0,0l0.6-0.5l-0.7,0.3
				c0,0-0.2,0.1-0.4,0.1c-0.4-0.1-0.8-0.8-1.3-1.6c-0.2-0.4-0.5-0.9-0.8-1.4c-0.4-0.5-0.8-0.8-1.2-0.8c-0.5,0-0.8,0.3-1,0.4
				c-0.4-0.9,0.5-2.3,0.5-2.4c2.6-2.5,5.5-3.8,8.4-3.8c1.8,0,3.5,0.5,5,1.2C1157.3,13,1156.4,13.9,1156.2,14z M1166.3,15.8
				c-0.3,0-0.5,0-0.6,0.1c-1.3-1.3-2.6-2.4-3.9-3.3c1-0.5,2.2-0.9,3.7-1c0.3,0,0.5,0,0.8,0c1.9,0,3.8,0.6,5.4,1.6
				c-1,1.6-1.7,3.3-2,4.4C1168.5,16,1167.1,15.8,1166.3,15.8z M1170.4,18.4L1170.4,18.4c0-0.1,0-0.1,0-0.1S1170.4,18.3,1170.4,18.4z
				 M1183.8,29.7c-5.8,0-9-4.2-9.4-4.7c-0.3-0.5-0.5-0.8-0.5-0.9c0.1,0,0.2,0,0.3,0c1.1,0,2.5-1,2.6-1l0,0c0.5-0.7,0.7-1.5,0.5-2.1
				c-0.3-0.7-1.3-0.9-2.5-0.4c-1.8,0.7-1.9,3.1-1.8,4.3c-0.1-0.8-0.1-2.4-0.1-3.8v-0.6c0-1.2-0.2-2-0.3-2.5
				c-0.2-0.5-0.3-0.7-0.3-0.7s-0.5-0.7-1-0.7c-0.2,0-0.4,0.1-0.5,0.3c0,0,0,0.1-0.1,0.1c0.5-1.3,1.1-2.5,1.9-3.4
				c4.4,3,7.4,8.1,8.1,9.4c-0.1-0.1-0.3-0.1-0.5-0.1c-0.4,0-0.9,0.2-1.3,0.7c-0.4,0.4-0.5,1-0.3,1.5c0.3,0.9,1.3,1.6,2,1.5
				c1-0.1,4.3,0.9,4.6,1c0.5,0.6,1.1,1.1,1.7,1.6C1185.9,29.6,1184.9,29.7,1183.8,29.7z"/>
		</g>
	</g>
	<g>
		<g>
			<rect x="599.3" y="36.9" class="st0" width="299.7" height="4.2"/>
			<rect x="599.3" class="st0" width="299.7" height="4.2"/>
			<path class="st0" d="M898.9,24.4L898.9,24.4l0.1-8.3h-0.1c-0.1,0-0.1,0-0.2,0c-1.2,0-2.9,1.1-3.8,2.2c-0.2,0.3-0.5,0.7-0.5,1
				c0.1,0.6,1.3,0.8,2.2,0.8c0.1,0,0.2,0,0.3,0c-1.6,1.5-1.3,3.8-1.2,4.2c-1.7,1.6-3.4,2.8-5.1,3.7c-0.6-0.4-1.2-0.9-1.6-1.5
				c-1.8-2.2-1.8-4.6-1.8-5.4c0.4,0.5,0.9,0.7,1.6,0.7c0.9,0,1.6-0.4,1.6-0.5c1.1-0.8,0.9-2.5,0.8-3c1.3-0.3,1.7-1.1,1.9-1.8
				c0.2-0.7,0.1-1.4,0.1-1.4H893c0,0,0,0.1,0,0.3s-0.1,0.4-0.3,0.6c-0.6,0.7-2,0.7-4.1,0c-0.6-0.2-1.2-0.3-1.7-0.3
				c-2.8,0-3.3,3.1-3.4,4.2c-1.5-2.5-6.2-6.4-6.4-6.6c-0.8-0.5-1.5-1-2.3-1.4l0.2-0.1c1.9-1.1,3.9-1.3,5.6-1.3
				c-0.4,0.5-0.7,1.1-0.7,1.7c0,1.4,1.1,2.5,2.4,2.5c1.3,0,2.4-1.1,2.4-2.5c0-0.1,0-0.3,0-0.4c2.1,1.7,3.9,2.3,5.3,1.8
				c2.2-0.9,2.6-4.2,2.6-4.3h-0.2c-0.1,0.5-0.3,0.9-0.8,1.2c-1.6,1-5.2,0-6.9-0.7c-1.1-0.4-2.4-0.7-3.4-0.9c-0.5-0.1-1-0.2-1.3-0.2
				s-0.5-0.1-0.5-0.1c-2.7-0.3-4.7,1-6.2,2.6c-2.2-1-4.4-1.4-6.5-1.4c-2.6,0-4.7,0.7-6.4,1.5c-2.4-1.4-4.9-2.1-7.3-2.1
				c-2.9,0-5.2,1-6.8,2.1c-0.8,0.5-1.4,1-1.8,1.4c-0.2,0.2-0.4,0.4-0.5,0.5s-0.2,0.2-0.2,0.2c-0.4,0.4-0.8,0.6-1.1,0.6
				s-0.4-0.2-0.4-0.2c0.2-1.4-0.6-2.3-1.5-2.8c-0.4-0.3-0.9-0.4-1.2-0.5c-0.2-0.1-0.3-0.1-0.4-0.1c-0.1,0-0.2,0-0.2,0h-0.1v3.8l0,0
				c0.5,0.7,1.3,1,2.5,1c0.8,0,1.5-0.2,1.9-0.3c-1.1,1-2.8,1.2-3.8,1.2c-0.3,0-0.5,0-0.5,0h-0.1l0,0h-0.1c-0.1,0-0.1,0-0.2,0
				c-1.2,0-2.9,1.1-3.8,2.2c-0.2,0.3-0.5,0.7-0.5,1c0.1,0.6,1.3,0.8,2.2,0.8c0.1,0,0.2,0,0.3,0c-1.6,1.5-1.3,3.8-1.2,4.2
				c-1.7,1.6-3.4,2.8-5.1,3.7c-0.6-0.4-1.2-0.9-1.6-1.5c-1.8-2.2-1.8-4.6-1.8-5.4c0.4,0.5,0.9,0.7,1.6,0.7c0.9,0,1.6-0.4,1.6-0.5
				c1.1-0.8,0.9-2.5,0.8-3c1.3-0.3,1.7-1.1,1.9-1.8c0.2-0.7,0.1-1.4,0.1-1.4h-0.2c0,0,0,0.1,0,0.3s-0.1,0.4-0.3,0.6
				c-0.6,0.7-2,0.7-4.1,0c-0.6-0.2-1.2-0.3-1.7-0.3c-2.8,0-3.3,3.1-3.4,4.2c-1.5-2.5-6.2-6.4-6.4-6.6c-0.8-0.5-1.5-1-2.3-1.4
				l0.2-0.1c1.9-1.1,3.9-1.3,5.6-1.3c-0.4,0.5-0.7,1.1-0.7,1.7c0,1.4,1.1,2.5,2.4,2.5c1.3,0,2.4-1.1,2.4-2.5c0-0.1,0-0.3,0-0.4
				c2.1,1.7,3.9,2.3,5.3,1.8c2.2-0.9,2.6-4.2,2.6-4.3h-0.2c-0.1,0.5-0.3,0.9-0.8,1.2c-1.6,1-5.2,0-6.9-0.7c-1.1-0.4-2.4-0.7-3.4-0.9
				c-0.5-0.1-1-0.2-1.3-0.2s-0.5-0.1-0.5-0.1c-2.7-0.3-4.7,1-6.2,2.6c-2.2-1-4.4-1.4-6.5-1.4c-2.6,0-4.7,0.7-6.4,1.5
				c-2.4-1.4-4.9-2.1-7.3-2.1c-2.9,0-5.2,1-6.8,2.1c-0.8,0.5-1.4,1-1.8,1.4c-0.2,0.2-0.4,0.4-0.5,0.5s-0.2,0.2-0.2,0.2
				c-0.4,0.4-0.8,0.6-1.1,0.6s-0.4-0.2-0.4-0.2c0.2-1.4-0.6-2.3-1.5-2.8c-0.4-0.3-0.9-0.4-1.2-0.5c-0.2-0.1-0.3-0.1-0.4-0.1
				c-0.1,0-0.2,0-0.2,0h-0.1v3.8l0,0c0.5,0.7,1.3,1,2.5,1c0.8,0,1.5-0.2,1.9-0.3c-1.1,1-2.8,1.2-3.8,1.2c-0.3,0-0.5,0-0.5,0h-0.1
				l0,0h-0.1c-0.1,0-0.1,0-0.2,0c-1.2,0-2.9,1.1-3.8,2.2c-0.2,0.3-0.5,0.7-0.5,1c0.1,0.6,1.3,0.8,2.2,0.8c0.1,0,0.2,0,0.3,0
				c-1.6,1.5-1.3,3.8-1.2,4.2c-1.7,1.6-3.4,2.8-5.1,3.7c-0.6-0.4-1.2-0.9-1.6-1.5c-1.8-2.2-1.8-4.6-1.8-5.4c0.4,0.5,0.9,0.7,1.6,0.7
				c0.9,0,1.6-0.4,1.6-0.5c1.1-0.8,0.9-2.5,0.8-3c1.3-0.3,1.7-1.1,1.9-1.8c0.2-0.7,0.1-1.4,0.1-1.4h-0.2c0,0,0,0.1,0,0.3
				s-0.1,0.4-0.3,0.6c-0.6,0.7-2,0.7-4.1,0c-0.6-0.2-1.2-0.3-1.7-0.3c-2.8,0-3.3,3.1-3.4,4.2c-1.5-2.5-6.2-6.4-6.4-6.6
				c-0.8-0.5-1.5-1-2.3-1.4l0.2-0.1c1.9-1.1,3.9-1.3,5.6-1.3c-0.4,0.5-0.7,1.1-0.7,1.7c0,1.4,1.1,2.5,2.4,2.5c1.3,0,2.4-1.1,2.4-2.5
				c0-0.1,0-0.3,0-0.4c2.1,1.7,3.9,2.3,5.3,1.8c2.2-0.9,2.6-4.2,2.6-4.3h-0.2c-0.1,0.5-0.3,0.9-0.8,1.2c-1.6,1-5.2,0-6.9-0.7
				c-1.1-0.4-2.4-0.7-3.4-0.9c-0.5-0.1-1-0.2-1.3-0.2s-0.5-0.1-0.5-0.1c-2.7-0.3-4.7,1-6.2,2.6c-2.2-1-4.4-1.4-6.5-1.4
				c-2.6,0-4.7,0.7-6.4,1.5c-2.4-1.4-4.9-2.1-7.3-2.1c-2.9,0-5.2,1-6.8,2.1c-0.8,0.5-1.4,1-1.8,1.4c-0.2,0.2-0.4,0.4-0.5,0.5
				s-0.2,0.2-0.2,0.2c-0.4,0.4-0.8,0.6-1.1,0.6s-0.4-0.2-0.4-0.2c0.2-1.4-0.6-2.3-1.5-2.8c-0.4-0.3-0.9-0.4-1.2-0.5
				c-0.2-0.1-0.3-0.1-0.4-0.1c-0.1,0-0.2,0-0.2,0h-0.1v3.8l0,0c0.5,0.7,1.3,1,2.5,1c0.8,0,1.5-0.2,1.9-0.3c-1.1,1-2.8,1.2-3.8,1.2
				c-0.3,0-0.5,0-0.5,0h-0.1l0,0h-0.1c-0.1,0-0.1,0-0.2,0c-1.2,0-2.9,1.1-3.8,2.2c-0.2,0.3-0.5,0.7-0.5,1c0.1,0.6,1.3,0.8,2.2,0.8
				c0.1,0,0.2,0,0.3,0c-1.6,1.5-1.3,3.8-1.2,4.2c-1.7,1.6-3.4,2.8-5.1,3.7c-0.6-0.4-1.2-0.9-1.6-1.5c-1.8-2.2-1.8-4.6-1.8-5.4
				c0.4,0.5,0.9,0.7,1.6,0.7c0.9,0,1.6-0.4,1.6-0.5c1.1-0.8,0.9-2.5,0.8-3c1.3-0.3,1.7-1.1,1.9-1.8c0.2-0.7,0.1-1.4,0.1-1.4h-0.2
				c0,0,0,0.1,0,0.3s-0.1,0.4-0.3,0.6c-0.6,0.7-2,0.7-4.1,0c-0.6-0.2-1.2-0.3-1.7-0.3c-2.8,0-3.3,3.1-3.4,4.2
				c-1.5-2.5-6.2-6.4-6.4-6.6c-0.8-0.5-1.5-1-2.3-1.4l0.2-0.1c1.9-1.1,3.9-1.3,5.6-1.3c-0.4,0.5-0.7,1.1-0.7,1.7
				c0,1.4,1.1,2.5,2.4,2.5c1.3,0,2.4-1.1,2.4-2.5c0-0.1,0-0.3,0-0.4c2.1,1.7,3.9,2.3,5.3,1.8c2.2-0.9,2.6-4.2,2.6-4.3h-0.2
				c-0.1,0.5-0.3,0.9-0.8,1.2c-1.6,1-5.2,0-6.9-0.7c-1.1-0.4-2.4-0.7-3.4-0.9c-0.5-0.1-1-0.2-1.3-0.2s-0.5-0.1-0.5-0.1
				c-2.7-0.3-4.7,1-6.2,2.6c-2.2-1-4.4-1.4-6.5-1.4c-2.6,0-4.7,0.7-6.4,1.5c-2.4-1.4-4.9-2.1-7.3-2.1c-2.9,0-5.2,1-6.8,2.1
				c-0.8,0.5-1.4,1-1.8,1.4c-0.2,0.2-0.4,0.4-0.5,0.5s-0.2,0.2-0.2,0.2c-0.4,0.4-0.8,0.6-1.1,0.6s-0.4-0.2-0.4-0.2
				c0.2-1.4-0.6-2.3-1.5-2.8c-0.4-0.3-0.9-0.4-1.2-0.5c-0.2-0.1-0.3-0.1-0.4-0.1c-0.1,0-0.2,0-0.2,0h-0.1v3.8l0,0
				c0.5,0.7,1.3,1,2.5,1c0.8,0,1.5-0.2,1.9-0.3c-1.1,1-2.8,1.2-3.8,1.2c-0.3,0-0.5,0-0.5,0h-0.1l0,0h-0.1c-0.1,0-0.1,0-0.2,0
				c-1.2,0-2.9,1.1-3.8,2.2c-0.2,0.3-0.5,0.7-0.5,1c0.1,0.6,1.3,0.8,2.2,0.8c0.1,0,0.2,0,0.3,0c-1.6,1.5-1.3,3.8-1.2,4.2
				c-1.7,1.6-3.4,2.8-5.1,3.7c-0.6-0.4-1.2-0.9-1.6-1.5c-1.8-2.2-1.8-4.6-1.8-5.4c0.4,0.5,0.9,0.7,1.6,0.7c0.9,0,1.6-0.4,1.6-0.5
				c1.1-0.8,0.9-2.5,0.8-3c1.3-0.3,1.7-1.1,1.9-1.8c0.2-0.7,0.1-1.4,0.1-1.4h-0.2c0,0,0,0.1,0,0.3s-0.1,0.4-0.3,0.6
				c-0.6,0.7-2,0.7-4.1,0c-0.6-0.2-1.2-0.3-1.7-0.3c-2.8,0-3.3,3.1-3.4,4.2c-1.5-2.5-6.2-6.4-6.4-6.6c-0.8-0.5-1.5-1-2.3-1.4
				l0.2-0.1c1.9-1.1,3.9-1.3,5.6-1.3c-0.4,0.5-0.7,1.1-0.7,1.7c0,1.4,1.1,2.5,2.4,2.5c1.3,0,2.4-1.1,2.4-2.5c0-0.1,0-0.3,0-0.4
				c2.1,1.7,3.9,2.3,5.3,1.8c2.2-0.9,2.6-4.2,2.6-4.3H652c-0.1,0.5-0.3,0.9-0.8,1.2c-1.6,1-5.2,0-6.9-0.7c-1.1-0.4-2.4-0.7-3.4-0.9
				c-0.5-0.1-1-0.2-1.3-0.2s-0.5-0.1-0.5-0.1c-2.7-0.3-4.7,1-6.2,2.6c-2.2-1-4.4-1.4-6.5-1.4c-2.6,0-4.7,0.7-6.4,1.5
				c-2.4-1.4-4.9-2.1-7.3-2.1c-2.9,0-5.2,1-6.8,2.1c-0.8,0.5-1.4,1-1.8,1.4c-0.2,0.2-0.4,0.4-0.5,0.5s-0.2,0.2-0.2,0.2
				c-0.4,0.4-0.8,0.6-1.1,0.6s-0.4-0.2-0.4-0.2c0.2-1.4-0.6-2.3-1.5-2.8c-0.4-0.3-0.9-0.4-1.2-0.5c-0.2-0.1-0.3-0.1-0.4-0.1
				c-0.1,0-0.2,0-0.2,0h-0.1v3.8l0,0c0.5,0.7,1.3,1,2.5,1c0.8,0,1.5-0.2,1.9-0.3c-1.1,1-2.8,1.2-3.8,1.2c-0.3,0-0.5,0-0.5,0h-0.1
				v8.3h0.1c0.8,0,1.4-0.7,1.9-1.4c0,1.7,0.3,4.1,1.8,6.2c-1,0.4-2,0.7-2.6,0.8c-0.3,0.1-0.6,0.1-0.8,0.1s-0.3,0-0.3,0h-0.1v1.6h0.1
				c1.9,0,3.6-0.4,5.2-1c1.6,1.2,3.8,1.9,6.5,1.9l0,0c0.8,0,1.7-0.1,2.6-0.2c0.2,0,3.7-1,5.3-2.1c0.3-0.2,0.7-0.3,1.1-0.3
				c1.2,0,2.3,1,2.4,1.9c0,0.1,0,0.2,0,0.2h0.2c0-0.1,0-0.1,0-0.2c-0.1-1-0.6-4.3-3.3-4.3c-1,0-2.3,0.5-3.8,1.6
				c0-0.2,0.1-0.3,0.1-0.5c0-1.4-1.1-2.5-2.4-2.5c-1.3,0-2.4,1.1-2.4,2.5c0,0.8,0.3,1.4,0.8,1.9c-0.6,0.1-1.3,0.2-2,0.2l0,0
				c-1.4,0-2.6-0.3-3.6-0.7c2.8-1.5,4.6-3.4,4.8-3.6c3.5-0.7,4.1-2.7,4.2-3.3c1.4,0.9,2.5,1.4,3.5,1.4c1.3,0,2-0.9,2.4-1.8
				c0.2-0.5,0.3-0.9,0.3-1.2c0-0.2,0-0.3,0.1-0.4c0-0.1,0-0.2,0-0.2v-0.1h-0.1c-0.4,0.2-0.8,0.2-1.1,0.2c-1.1,0-1.8-0.9-1.9-2.3
				c-0.1-1.7,0.9-4,3-5.5c2.6,1.6,4.3,3.6,4.5,3.8c-0.4,3.1,0.5,4.3,1.3,4.8c-1.4,0-2.4,0.9-2.4,1l0,0l0,0c-0.1,0.9,0.4,1.5,0.9,1.8
				c0.3,0.2,0.5,0.2,0.7,0.3c0.2,0.1,0.4,0.1,0.4,0.1c0.3,0,0.7,0,1.1,0c1.9,0,3.5,0.4,4.5,0.8c-0.2,0-0.5-0.1-0.8-0.1
				c-1.3,0-2.5,0.5-3.3,1.5c-0.6,0.7-0.9,1.4-0.8,2.1c0.1,1.2,1,2,1,2.1l0,0l0,0c1.4-0.5,2.3-1.3,2.8-2.3s0.3-2,0.2-2.3
				c0.2-0.1,0.4-0.1,0.6-0.1c0.4,0,0.7,0.1,1,0.2s0.4,0.2,0.4,0.2l0,0c2.9,2.5,6.1,3.7,9.6,3.7c2,0,3.9-0.4,5.6-1
				c3.5,1.8,8.2,1.9,9.9,1.9c0.4,0,0.6,0,0.6,0h0.1l0,0h0.1c1.9,0,3.6-0.4,5.2-1c1.6,1.2,3.8,1.9,6.5,1.9l0,0c0.8,0,1.7-0.1,2.6-0.2
				c0.2,0,3.7-1,5.3-2.1c0.3-0.2,0.7-0.3,1.1-0.3c1.2,0,2.3,1,2.4,1.9c0,0.1,0,0.2,0,0.2h0.2c0-0.1,0-0.1,0-0.2
				c-0.1-1-0.6-4.3-3.3-4.3c-1,0-2.3,0.5-3.8,1.6c0-0.2,0.1-0.3,0.1-0.5c0-1.4-1.1-2.5-2.4-2.5c-1.3,0-2.4,1.1-2.4,2.5
				c0,0.8,0.3,1.4,0.8,1.9c-0.6,0.1-1.3,0.2-2,0.2l0,0c-1.4,0-2.6-0.3-3.6-0.7c2.8-1.5,4.6-3.4,4.8-3.6c3.5-0.7,4.1-2.7,4.2-3.3
				c1.4,0.9,2.5,1.4,3.5,1.4c1.3,0,2-0.9,2.4-1.8c0.2-0.5,0.3-0.9,0.3-1.2c0-0.2,0-0.3,0.1-0.4c0-0.1,0-0.2,0-0.2V21h-0.1
				c-0.4,0.2-0.8,0.2-1.1,0.2c-1.1,0-1.8-0.9-1.9-2.3c-0.1-1.7,0.9-4,3-5.5c2.6,1.6,4.3,3.6,4.5,3.8c-0.4,3.1,0.5,4.3,1.3,4.8
				c-1.4,0-2.4,0.9-2.4,1l0,0l0,0c-0.1,0.9,0.4,1.5,0.9,1.8c0.3,0.2,0.5,0.2,0.7,0.3c0.2,0.1,0.4,0.1,0.4,0.1c0.3,0,0.7,0,1.1,0
				c1.9,0,3.5,0.4,4.5,0.8c-0.2,0-0.5-0.1-0.8-0.1c-1.3,0-2.5,0.5-3.3,1.5c-0.6,0.7-0.9,1.4-0.8,2.1c0.1,1.2,1,2,1,2.1l0,0l0,0
				c1.4-0.5,2.3-1.3,2.8-2.3s0.3-2,0.2-2.3c0.2-0.1,0.4-0.1,0.6-0.1c0.4,0,0.7,0.1,1,0.2s0.4,0.2,0.4,0.2l0,0
				c2.9,2.5,6.1,3.7,9.6,3.7c2,0,3.9-0.4,5.6-1c3.5,1.8,8.2,1.9,9.9,1.9c0.4,0,0.6,0,0.6,0h0.1l0,0h0.1c1.9,0,3.6-0.4,5.2-1
				c1.6,1.2,3.8,1.9,6.5,1.9l0,0c0.8,0,1.7-0.1,2.6-0.2c0.2,0,3.7-1,5.3-2.1c0.3-0.2,0.7-0.3,1.1-0.3c1.2,0,2.3,1,2.4,1.9
				c0,0.1,0,0.2,0,0.2h0.2c0-0.1,0-0.1,0-0.2c-0.1-1-0.6-4.3-3.3-4.3c-1,0-2.3,0.5-3.8,1.6c0-0.2,0.1-0.3,0.1-0.5
				c0-1.4-1.1-2.5-2.4-2.5c-1.3,0-2.4,1.1-2.4,2.5c0,0.8,0.3,1.4,0.8,1.9c-0.6,0.1-1.3,0.2-2,0.2l0,0c-1.4,0-2.6-0.3-3.6-0.7
				c2.8-1.5,4.6-3.4,4.8-3.6c3.5-0.7,4.1-2.7,4.2-3.3c1.4,0.9,2.5,1.4,3.5,1.4c1.3,0,2-0.9,2.4-1.8c0.2-0.5,0.3-0.9,0.3-1.2
				c0-0.2,0-0.3,0.1-0.4c0-0.1,0-0.2,0-0.2v-0.1h-0.1c-0.4,0.2-0.8,0.2-1.1,0.2c-1.1,0-1.8-0.9-1.9-2.3c-0.1-1.7,0.9-4,3-5.5
				c2.6,1.6,4.3,3.6,4.5,3.8c-0.4,3.1,0.5,4.3,1.3,4.8c-1.4,0-2.4,0.9-2.4,1l0,0l0,0c-0.1,0.9,0.4,1.5,0.9,1.8
				c0.3,0.2,0.5,0.2,0.7,0.3c0.2,0.1,0.4,0.1,0.4,0.1c0.3,0,0.7,0,1.1,0c1.9,0,3.5,0.4,4.5,0.8c-0.2,0-0.5-0.1-0.8-0.1
				c-1.3,0-2.5,0.5-3.3,1.5c-0.6,0.7-0.9,1.4-0.8,2.1c0.1,1.2,1,2,1,2.1l0,0l0,0c1.4-0.5,2.3-1.3,2.8-2.3s0.3-2,0.2-2.3
				c0.2-0.1,0.4-0.1,0.6-0.1c0.4,0,0.7,0.1,1,0.2s0.4,0.2,0.4,0.2l0,0c2.9,2.5,6.1,3.7,9.6,3.7c2,0,3.9-0.4,5.6-1
				c3.5,1.8,8.2,1.9,9.9,1.9c0.4,0,0.6,0,0.6,0h0.1l0,0h0.1c1.9,0,3.6-0.4,5.2-1c1.6,1.2,3.8,1.9,6.5,1.9l0,0c0.8,0,1.7-0.1,2.6-0.2
				c0.2,0,3.7-1,5.3-2.1c0.3-0.2,0.7-0.3,1.1-0.3c1.2,0,2.3,1,2.4,1.9c0,0.1,0,0.2,0,0.2h0.2c0-0.1,0-0.1,0-0.2
				c-0.1-1-0.6-4.3-3.3-4.3c-1,0-2.3,0.5-3.8,1.6c0-0.2,0.1-0.3,0.1-0.5c0-1.4-1.1-2.5-2.4-2.5c-1.3,0-2.4,1.1-2.4,2.5
				c0,0.8,0.3,1.4,0.8,1.9c-0.6,0.1-1.3,0.2-2,0.2l0,0c-1.4,0-2.6-0.3-3.6-0.7c2.8-1.5,4.6-3.4,4.8-3.6c3.5-0.7,4.1-2.7,4.2-3.3
				c1.4,0.9,2.5,1.4,3.5,1.4c1.3,0,2-0.9,2.4-1.8c0.2-0.5,0.3-0.9,0.3-1.2c0-0.2,0-0.3,0.1-0.4c0-0.1,0-0.2,0-0.2v-0.1h-0.1
				c-0.4,0.2-0.8,0.2-1.1,0.2c-1.1,0-1.8-0.9-1.9-2.3c-0.1-1.7,0.9-4,3-5.5c2.6,1.6,4.3,3.6,4.5,3.8c-0.4,3.1,0.5,4.3,1.3,4.8
				c-1.4,0-2.4,0.9-2.4,1l0,0l0,0c-0.1,0.9,0.4,1.5,0.9,1.8c0.3,0.2,0.5,0.2,0.7,0.3c0.2,0.1,0.4,0.1,0.4,0.1c0.3,0,0.7,0,1.1,0
				c1.9,0,3.5,0.4,4.5,0.8c-0.2,0-0.5-0.1-0.8-0.1c-1.3,0-2.5,0.5-3.3,1.5c-0.6,0.7-0.9,1.4-0.8,2.1c0.1,1.2,1,2,1,2.1l0,0l0,0
				c1.4-0.5,2.3-1.3,2.8-2.3s0.3-2,0.2-2.3c0.2-0.1,0.4-0.1,0.6-0.1c0.4,0,0.7,0.1,1,0.2s0.4,0.2,0.4,0.2l0,0
				c2.9,2.5,6.1,3.7,9.6,3.7c2,0,3.9-0.4,5.6-1c3.5,1.8,8.2,1.9,9.9,1.9c0.4,0,0.6,0,0.6,0h0.1l0,0h0.1c1.9,0,3.6-0.4,5.2-1
				c1.6,1.2,3.8,1.9,6.5,1.9l0,0c0.8,0,1.7-0.1,2.6-0.2c0.2,0,3.7-1,5.3-2.1c0.3-0.2,0.7-0.3,1.1-0.3c1.2,0,2.3,1,2.4,1.9
				c0,0.1,0,0.2,0,0.2h0.2c0-0.1,0-0.1,0-0.2c-0.1-1-0.6-4.3-3.3-4.3c-1,0-2.3,0.5-3.8,1.6c0-0.2,0.1-0.3,0.1-0.5
				c0-1.4-1.1-2.5-2.4-2.5c-1.3,0-2.4,1.1-2.4,2.5c0,0.8,0.3,1.4,0.8,1.9c-0.6,0.1-1.3,0.2-2,0.2l0,0c-1.4,0-2.6-0.3-3.6-0.7
				c2.8-1.5,4.6-3.4,4.8-3.6c3.5-0.7,4.1-2.7,4.2-3.3c1.4,0.9,2.5,1.4,3.5,1.4c1.3,0,2-0.9,2.4-1.8c0.2-0.5,0.3-0.9,0.3-1.2
				c0-0.2,0-0.3,0.1-0.4c0-0.1,0-0.2,0-0.2v-0.1h-0.1c-0.4,0.2-0.8,0.2-1.1,0.2c-1.1,0-1.8-0.9-1.9-2.3c-0.1-1.7,0.9-4,3-5.5
				c2.6,1.6,4.3,3.6,4.5,3.8c-0.4,3.1,0.5,4.3,1.3,4.8c-1.4,0-2.4,0.9-2.4,1l0,0l0,0c-0.1,0.9,0.4,1.5,0.9,1.8
				c0.3,0.2,0.5,0.2,0.7,0.3c0.2,0.1,0.4,0.1,0.4,0.1c0.3,0,0.7,0,1.1,0c1.9,0,3.5,0.4,4.5,0.8c-0.2,0-0.5-0.1-0.8-0.1
				c-1.3,0-2.5,0.5-3.3,1.5c-0.6,0.7-0.9,1.4-0.8,2.1c0.1,1.2,1,2,1,2.1l0,0l0,0c1.4-0.5,2.3-1.3,2.8-2.3s0.3-2,0.2-2.3
				c0.2-0.1,0.4-0.1,0.6-0.1c0.4,0,0.7,0.1,1,0.2s0.4,0.2,0.4,0.2l0,0c2.9,2.5,6.1,3.7,9.6,3.7c2,0,3.9-0.4,5.6-1
				c3.5,1.8,8.2,1.9,9.9,1.9c0.4,0,0.6,0,0.6,0h0.1v-1.6h-0.1c-3-0.1-5.5-0.6-7.4-1.7c2.9-1.6,4.9-3.3,5.1-3.6
				C897.2,24.9,898.9,24.5,898.9,24.4z M616.9,14c-0.5,0.2-7.1,2.2-7,4.3c0.1,1.2,0.8,1.5,1.3,1.5c0.3,0,0.5-0.1,0.7-0.1
				c-1.9,4.9-5,7.5-7.5,8.9c-0.9-1-1.5-2.5-1.7-4.3c0.1,0.1,0.2,0.1,0.3,0.1l0,0l0,0c1.6-0.8,1.8-3.7,1.6-5.7
				c0.8,1.7,2.2,2.1,3.4,2.1c0.7,0,1.3-0.1,1.7-0.2c0.1,0,0.3,0,0.4-0.1h0.1l0,0l0,0l0.6-0.5l-0.7,0.3c0,0-0.2,0.1-0.4,0.1
				c-0.4-0.1-0.8-0.8-1.3-1.6c-0.2-0.4-0.5-0.9-0.8-1.4c-0.4-0.5-0.8-0.8-1.2-0.8c-0.5,0-0.8,0.3-1,0.4c-0.4-0.9,0.5-2.3,0.5-2.4
				c2.6-2.5,5.5-3.8,8.4-3.8c1.8,0,3.5,0.5,5,1.2C617.9,13,617,13.9,616.9,14z M626.9,15.8c-0.3,0-0.5,0-0.6,0.1
				c-1.3-1.3-2.6-2.4-3.9-3.3c1-0.5,2.2-0.9,3.7-1c0.3,0,0.5,0,0.8,0c1.9,0,3.8,0.6,5.4,1.6c-1,1.6-1.7,3.3-2,4.4
				C629.1,16,627.7,15.8,626.9,15.8z M631,18.4L631,18.4c0-0.1,0-0.1,0-0.1S631,18.3,631,18.4z M644.4,29.7c-5.8,0-9-4.2-9.4-4.7
				c-0.3-0.5-0.5-0.8-0.5-0.9c0.1,0,0.2,0,0.3,0c1.1,0,2.5-1,2.6-1l0,0c0.5-0.7,0.7-1.5,0.5-2.1c-0.3-0.7-1.3-0.9-2.5-0.4
				c-1.8,0.7-1.9,3.1-1.8,4.3c-0.1-0.8-0.1-2.4-0.1-3.8v-0.6c0-1.2-0.2-2-0.3-2.5c-0.2-0.5-0.3-0.7-0.3-0.7s-0.5-0.7-1-0.7
				c-0.2,0-0.4,0.1-0.5,0.3c0,0,0,0.1-0.1,0.1c0.5-1.3,1.1-2.5,1.9-3.4c4.4,3,7.4,8.1,8.1,9.4c-0.1-0.1-0.3-0.1-0.5-0.1
				c-0.4,0-0.9,0.2-1.3,0.7c-0.4,0.4-0.5,1-0.3,1.5c0.3,0.9,1.3,1.6,2,1.5c1-0.1,4.3,0.9,4.6,1c0.5,0.6,1.1,1.1,1.7,1.6
				C646.5,29.6,645.5,29.7,644.4,29.7z M660.4,30c-0.3,0.1-0.6,0.1-0.8,0.1s-0.3,0-0.3,0h-0.1l0,0h-0.1c-3-0.1-5.5-0.6-7.4-1.7
				c2.9-1.6,4.9-3.3,5.1-3.6c0.6,0,2.2-0.4,2.3-0.4h0.1l0,0h0.1c0.8,0,1.4-0.7,1.9-1.4c0,1.7,0.3,4.1,1.8,6.2
				C662,29.6,661,29.9,660.4,30z M676.8,14c-0.5,0.2-7.1,2.2-7,4.3c0.1,1.2,0.8,1.5,1.3,1.5c0.3,0,0.5-0.1,0.7-0.1
				c-1.9,4.9-5,7.5-7.5,8.9c-0.9-1-1.5-2.5-1.7-4.3c0.1,0.1,0.2,0.1,0.3,0.1l0,0l0,0c1.6-0.8,1.8-3.7,1.6-5.7
				c0.8,1.7,2.2,2.1,3.4,2.1c0.7,0,1.3-0.1,1.7-0.2c0.1,0,0.3,0,0.4-0.1h0.1l0,0l0,0l0.6-0.5l-0.7,0.3c0,0-0.2,0.1-0.4,0.1
				c-0.4-0.1-0.8-0.8-1.3-1.6c-0.2-0.4-0.5-0.9-0.8-1.4c-0.4-0.5-0.8-0.8-1.2-0.8c-0.5,0-0.8,0.3-1,0.4c-0.4-0.9,0.5-2.3,0.5-2.4
				c2.6-2.5,5.5-3.8,8.4-3.8c1.8,0,3.5,0.5,5,1.2C677.8,13,676.9,13.9,676.8,14z M686.8,15.8c-0.3,0-0.5,0-0.6,0.1
				c-1.3-1.3-2.6-2.4-3.9-3.3c1-0.5,2.2-0.9,3.7-1c0.3,0,0.5,0,0.8,0c1.9,0,3.8,0.6,5.4,1.6c-1,1.6-1.7,3.3-2,4.4
				C689,16,687.7,15.8,686.8,15.8z M690.9,18.4L690.9,18.4c0-0.1,0-0.1,0-0.1S690.9,18.3,690.9,18.4z M704.4,29.7
				c-5.8,0-9-4.2-9.4-4.7c-0.3-0.5-0.5-0.8-0.5-0.9c0.1,0,0.2,0,0.3,0c1.1,0,2.5-1,2.6-1l0,0c0.5-0.7,0.7-1.5,0.5-2.1
				c-0.3-0.7-1.3-0.9-2.5-0.4c-1.8,0.7-1.9,3.1-1.8,4.3c-0.1-0.8-0.1-2.4-0.1-3.8v-0.6c0-1.2-0.2-2-0.3-2.5
				c-0.2-0.5-0.3-0.7-0.3-0.7s-0.5-0.7-1-0.7c-0.2,0-0.4,0.1-0.5,0.3c0,0,0,0.1-0.1,0.1c0.5-1.3,1.1-2.5,1.9-3.4
				c4.4,3,7.4,8.1,8.1,9.4c-0.1-0.1-0.3-0.1-0.5-0.1c-0.4,0-0.9,0.2-1.3,0.7c-0.4,0.4-0.5,1-0.3,1.5c0.3,0.9,1.3,1.6,2,1.5
				c1-0.1,4.3,0.9,4.6,1c0.5,0.6,1.1,1.1,1.7,1.6C706.5,29.6,705.4,29.7,704.4,29.7z M720.3,30c-0.3,0.1-0.6,0.1-0.8,0.1
				s-0.3,0-0.3,0h-0.1l0,0H719c-3-0.1-5.5-0.6-7.4-1.7c2.9-1.6,4.9-3.3,5.1-3.6c0.6,0,2.2-0.4,2.3-0.4h0.1l0,0h0.1
				c0.8,0,1.4-0.7,1.9-1.4c0,1.7,0.3,4.1,1.8,6.2C721.9,29.6,721,29.9,720.3,30z M736.8,14c-0.5,0.2-7.1,2.2-7,4.3
				c0.1,1.2,0.8,1.5,1.3,1.5c0.3,0,0.5-0.1,0.7-0.1c-1.9,4.9-5,7.5-7.5,8.9c-0.9-1-1.5-2.5-1.7-4.3c0.1,0.1,0.2,0.1,0.3,0.1l0,0l0,0
				c1.6-0.8,1.8-3.7,1.6-5.7c0.8,1.7,2.2,2.1,3.4,2.1c0.7,0,1.3-0.1,1.7-0.2c0.1,0,0.3,0,0.4-0.1h0.1l0,0l0,0l0.6-0.5l-0.7,0.3
				c0,0-0.2,0.1-0.4,0.1c-0.4-0.1-0.8-0.8-1.3-1.6c-0.2-0.4-0.5-0.9-0.8-1.4c-0.4-0.5-0.8-0.8-1.2-0.8c-0.5,0-0.8,0.3-1,0.4
				c-0.4-0.9,0.5-2.3,0.5-2.4c2.6-2.5,5.5-3.8,8.4-3.8c1.8,0,3.5,0.5,5,1.2C737.8,13,736.9,13.9,736.8,14z M746.8,15.8
				c-0.3,0-0.5,0-0.6,0.1c-1.3-1.3-2.6-2.4-3.9-3.3c1-0.5,2.2-0.9,3.7-1c0.3,0,0.5,0,0.8,0c1.9,0,3.8,0.6,5.4,1.6
				c-1,1.6-1.7,3.3-2,4.4C749,16,747.6,15.8,746.8,15.8z M750.9,18.4L750.9,18.4c0-0.1,0-0.1,0-0.1S750.9,18.3,750.9,18.4z
				 M764.3,29.7c-5.8,0-9-4.2-9.4-4.7c-0.3-0.5-0.5-0.8-0.5-0.9c0.1,0,0.2,0,0.3,0c1.1,0,2.5-1,2.6-1l0,0c0.5-0.7,0.7-1.5,0.5-2.1
				c-0.3-0.7-1.3-0.9-2.5-0.4c-1.8,0.7-1.9,3.1-1.8,4.3c-0.1-0.8-0.1-2.4-0.1-3.8v-0.6c0-1.2-0.2-2-0.3-2.5
				c-0.2-0.5-0.3-0.7-0.3-0.7s-0.5-0.7-1-0.7c-0.2,0-0.4,0.1-0.5,0.3c0,0,0,0.1-0.1,0.1c0.5-1.3,1.1-2.5,1.9-3.4
				c4.4,3,7.4,8.1,8.1,9.4c-0.1-0.1-0.3-0.1-0.5-0.1c-0.4,0-0.9,0.2-1.3,0.7c-0.4,0.4-0.5,1-0.3,1.5c0.3,0.9,1.3,1.6,2,1.5
				c1-0.1,4.3,0.9,4.6,1c0.5,0.6,1.1,1.1,1.7,1.6C766.4,29.6,765.4,29.7,764.3,29.7z M780.3,30c-0.3,0.1-0.6,0.1-0.8,0.1
				s-0.3,0-0.3,0h-0.1l0,0H779c-3-0.1-5.5-0.6-7.4-1.7c2.9-1.6,4.9-3.3,5.1-3.6c0.6,0,2.2-0.4,2.3-0.4h0.1l0,0h0.1
				c0.8,0,1.4-0.7,1.9-1.4c0,1.7,0.3,4.1,1.8,6.2C781.8,29.6,780.9,29.9,780.3,30z M796.7,14c-0.5,0.2-7.1,2.2-7,4.3
				c0.1,1.2,0.8,1.5,1.3,1.5c0.3,0,0.5-0.1,0.7-0.1c-1.9,4.9-5,7.5-7.5,8.9c-0.9-1-1.5-2.5-1.7-4.3c0.1,0.1,0.2,0.1,0.3,0.1l0,0l0,0
				c1.6-0.8,1.8-3.7,1.6-5.7c0.8,1.7,2.2,2.1,3.4,2.1c0.7,0,1.3-0.1,1.7-0.2c0.1,0,0.3,0,0.4-0.1h0.1l0,0l0,0l0.6-0.5l-0.7,0.3
				c0,0-0.2,0.1-0.4,0.1c-0.4-0.1-0.8-0.8-1.3-1.6c-0.2-0.4-0.5-0.9-0.8-1.4c-0.4-0.5-0.8-0.8-1.2-0.8c-0.5,0-0.8,0.3-1,0.4
				c-0.4-0.9,0.5-2.3,0.5-2.4c2.6-2.5,5.5-3.8,8.4-3.8c1.8,0,3.5,0.5,5,1.2C797.7,13,796.8,13.9,796.7,14z M806.7,15.8
				c-0.3,0-0.5,0-0.6,0.1c-1.3-1.3-2.6-2.4-3.9-3.3c1-0.5,2.2-0.9,3.7-1c0.3,0,0.5,0,0.8,0c1.9,0,3.8,0.6,5.4,1.6
				c-1,1.6-1.7,3.3-2,4.4C808.9,16,807.5,15.8,806.7,15.8z M810.8,18.4L810.8,18.4c0-0.1,0-0.1,0-0.1S810.8,18.3,810.8,18.4z
				 M824.3,29.7c-5.8,0-9-4.2-9.4-4.7c-0.3-0.5-0.5-0.8-0.5-0.9c0.1,0,0.2,0,0.3,0c1.1,0,2.5-1,2.6-1l0,0c0.5-0.7,0.7-1.5,0.5-2.1
				c-0.3-0.7-1.3-0.9-2.5-0.4c-1.8,0.7-1.9,3.1-1.8,4.3c-0.1-0.8-0.1-2.4-0.1-3.8v-0.6c0-1.2-0.2-2-0.3-2.5
				c-0.2-0.5-0.3-0.7-0.3-0.7s-0.5-0.7-1-0.7c-0.2,0-0.4,0.1-0.5,0.3c0,0,0,0.1-0.1,0.1c0.5-1.3,1.1-2.5,1.9-3.4
				c4.4,3,7.4,8.1,8.1,9.4c-0.1-0.1-0.3-0.1-0.5-0.1c-0.4,0-0.9,0.2-1.3,0.7c-0.4,0.4-0.5,1-0.3,1.5c0.3,0.9,1.3,1.6,2,1.5
				c1-0.1,4.3,0.9,4.6,1c0.5,0.6,1.1,1.1,1.7,1.6C826.4,29.6,825.3,29.7,824.3,29.7z M840.2,30c-0.3,0.1-0.6,0.1-0.8,0.1
				s-0.3,0-0.3,0H839l0,0h-0.1c-3-0.1-5.5-0.6-7.4-1.7c2.9-1.6,4.9-3.3,5.1-3.6c0.6,0,2.2-0.4,2.3-0.4h0.1l0,0h0.1
				c0.8,0,1.4-0.7,1.9-1.4c0,1.7,0.3,4.1,1.8,6.2C841.8,29.6,840.9,29.9,840.2,30z M856.6,14c-0.5,0.2-7.1,2.2-7,4.3
				c0.1,1.2,0.8,1.5,1.3,1.5c0.3,0,0.5-0.1,0.7-0.1c-1.9,4.9-5,7.5-7.5,8.9c-0.9-1-1.5-2.5-1.7-4.3c0.1,0.1,0.2,0.1,0.3,0.1l0,0l0,0
				c1.6-0.8,1.8-3.7,1.6-5.7c0.8,1.7,2.2,2.1,3.4,2.1c0.7,0,1.3-0.1,1.7-0.2c0.1,0,0.3,0,0.4-0.1h0.1l0,0l0,0l0.6-0.5l-0.7,0.3
				c0,0-0.2,0.1-0.4,0.1c-0.4-0.1-0.8-0.8-1.3-1.6c-0.2-0.4-0.5-0.9-0.8-1.4c-0.4-0.5-0.8-0.8-1.2-0.8c-0.5,0-0.8,0.3-1,0.4
				c-0.4-0.9,0.5-2.3,0.5-2.4c2.6-2.5,5.5-3.8,8.4-3.8c1.8,0,3.5,0.5,5,1.2C857.7,13,856.8,13.9,856.6,14z M866.7,15.8
				c-0.3,0-0.5,0-0.6,0.1c-1.3-1.3-2.6-2.4-3.9-3.3c1-0.5,2.2-0.9,3.7-1c0.3,0,0.5,0,0.8,0c1.9,0,3.8,0.6,5.4,1.6
				c-1,1.6-1.7,3.3-2,4.4C868.9,16,867.5,15.8,866.7,15.8z M870.8,18.4L870.8,18.4c0-0.1,0-0.1,0-0.1S870.8,18.3,870.8,18.4z
				 M884.2,29.7c-5.8,0-9-4.2-9.4-4.7c-0.3-0.5-0.5-0.8-0.5-0.9c0.1,0,0.2,0,0.3,0c1.1,0,2.5-1,2.6-1l0,0c0.5-0.7,0.7-1.5,0.5-2.1
				c-0.3-0.7-1.3-0.9-2.5-0.4c-1.8,0.7-1.9,3.1-1.8,4.3c-0.1-0.8-0.1-2.4-0.1-3.8v-0.6c0-1.2-0.2-2-0.3-2.5
				c-0.2-0.5-0.3-0.7-0.3-0.7s-0.5-0.7-1-0.7c-0.2,0-0.4,0.1-0.5,0.3c0,0,0,0.1-0.1,0.1c0.5-1.3,1.1-2.5,1.9-3.4
				c4.4,3,7.4,8.1,8.1,9.4c-0.1-0.1-0.3-0.1-0.5-0.1c-0.4,0-0.9,0.2-1.3,0.7c-0.4,0.4-0.5,1-0.3,1.5c0.3,0.9,1.3,1.6,2,1.5
				c1-0.1,4.3,0.9,4.6,1c0.5,0.6,1.1,1.1,1.7,1.6C886.3,29.6,885.2,29.7,884.2,29.7z"/>
		</g>
	</g>
</g>
</svg>
