<?xml version="1.0" encoding="utf-8"?>
<!-- Generator: Adobe Illustrator 22.0.0, SVG Export Plug-In . SVG Version: 6.00 Build 0)  -->
<svg version="1.1" id="Layer_1" xmlns="http://www.w3.org/2000/svg" xmlns:xlink="http://www.w3.org/1999/xlink" x="0px" y="0px"
	 viewBox="0 0 1165.1 1059" style="enable-background:new 0 0 1165.1 1059;" xml:space="preserve">
<style type="text/css">
	.st0{fill:#01796F;}
</style>
<g>
	<path class="st0" d="M38.5,125.1c-11.9,0-21.3-2.9-28.2-8.8C3.4,110.5,0,102.9,0,93.7c0-4.8,0.5-8.6,1.4-11.2c0.9-2.6,3.6-6.3,8-11
		c4.4-4.7,8.7-9,13-13c3.5-3.5,7.1-5.2,11-5.3c11.1,0,20.2,3.6,27.4,10.9c7.2,7.3,10.8,15.5,10.8,24.5c0,3.2-0.4,6.6-1.2,10.1
		c-0.8,3.5-1.8,5.8-3,6.9c-4.2,4-9.4,8.2-15.7,12.6S41,125.1,38.5,125.1z M34.2,33.8c-5.7,6.4-10.6,11.2-14.7,14.4
		c-5.2-5.5-10-10.3-14.4-14.4c5.8-5.6,10.6-10.5,14.4-14.7C24.5,24,29.4,28.9,34.2,33.8z M16.6,72.4C16.5,79,17,84.2,18.2,87.9
		c1.2,3.7,3.4,7.1,6.6,10.3c8.8,8.5,18.2,12.3,28.3,11.5c0-6.2-0.6-11.6-1.8-16.3c-1.2-4.6-3.6-8.8-7.4-12.6
		c-3.7-3.7-7.6-6.1-11.5-7.2C28.5,72.6,23.2,72.2,16.6,72.4z M68,33.8c-5.7,6.4-10.6,11.2-14.7,14.4c-5.2-5.5-10-10.3-14.4-14.4
		c5.8-5.6,10.6-10.5,14.4-14.7C58.4,24,63.3,28.9,68,33.8z"/>
	<path class="st0" d="M85,90.1V58.3h22v31.6c0.2,8,2.2,13.6,5.8,16.8c3.7,3.2,8.6,4.8,14.8,4.8c3.7,0,7-0.5,9.7-1.4
		c1.5-3.9,2.2-9.4,2.2-16.7V58.3h22v30c0,5.6-3,11.2-9.1,16.8c-6.1,5.6-12,10.3-17.8,14.2c-5.8,3.8-10.3,5.7-13.5,5.7
		c-11.7,0-20.6-2.9-26.8-8.8C88.1,110.5,85,101.7,85,90.1z M137.1,146.2c-5.7,6.4-10.6,11.2-14.7,14.4c-5.2-5.5-10-10.3-14.4-14.4
		c5.8-5.6,10.6-10.5,14.4-14.7C127.4,136.4,132.3,141.3,137.1,146.2z"/>
	<path class="st0" d="M195.9,122.5h-22v-97l-6.4-4.7L184.1,0c8.7,9.1,17.3,16.8,25.9,22.9c-5.5,6.1-10.2,12.2-14,18.6V122.5z"/>
	<path class="st0" d="M212.9,90.1V58.3h22v31.6c0.2,8,2.2,13.6,5.8,16.8c3.7,3.2,8.6,4.8,14.8,4.8c3.7,0,7-0.5,9.7-1.4
		c1.5-3.9,2.2-9.4,2.2-16.7V58.3h22v30c0,5.6-3,11.2-9.1,16.8c-6.1,5.6-12,10.3-17.8,14.2c-5.8,3.8-10.3,5.7-13.5,5.7
		c-11.7,0-20.6-2.9-26.8-8.8C215.9,110.5,212.9,101.7,212.9,90.1z M250,33.8c-5.7,6.4-10.6,11.2-14.7,14.4
		c-5.2-5.5-9.9-10.3-14.3-14.4c5.8-5.6,10.6-10.5,14.3-14.7C240.4,24,245.3,28.9,250,33.8z M283.9,33.8
		c-5.7,6.4-10.6,11.2-14.8,14.4c-5.2-5.5-10-10.3-14.4-14.4c5.8-5.6,10.6-10.5,14.4-14.7C274.3,24,279.2,28.9,283.9,33.8z"/>
	<path class="st0" d="M331.6,58.3c10.4,0,22.7-0.2,37.1-0.7s23.5-0.7,27.3-0.7c10.7,0,20.1,3.2,28.1,9.6c8,6.4,12,14.2,12,23.3
		c0,4.5-3,10.7-9.1,18.6c-6.1,7.9-12.7,15.4-19.9,22.6c-4-3.4-7.9-5.6-11.8-6.7c-3.9-1.1-9.1-1.7-15.4-1.7h-81.4l6.8-22h84.3
		c9.2,0,18.5,3.4,27.7,10.3c0-11.5-2.2-19.7-6.5-24.7c-4.3-5-12.6-7.4-24.8-7.4c-4.7,0-13.2,0.2-25.4,0.7
		c-12.2,0.5-24.4,0.7-36.5,0.7c-6.1,0-11.5-1.4-16.1-4.3c-4.6-2.9-7-5.6-7-8.2c0-2.5,2.3-8.5,6.9-17.8c4.6-9.3,9-15.6,13-18.7
		c4-3.1,10.7-6.2,20-9.3c9.3-3.1,19.4-5.6,30.2-7.6L360,39.2c-23.1,4.8-39,10-47.6,15.4C314.9,57.1,321.3,58.3,331.6,58.3z"/>
	<path class="st0" d="M462.4,89.8V18.6h22v55.6c0,8.3-5,19.3-15,33.2c-4.3,5.8-8,10.2-11.2,13.2c-3.2,3-6.5,4.5-10.1,4.5l-5.9-0.9
		l5-17.7c5.9,1.9,10.6,2.1,14,0.6C462,101.9,462.4,96.1,462.4,89.8z"/>
	<path class="st0" d="M519,122.5h-22v-97l-6.4-4.7L507.2,0c8.7,9.1,17.3,16.8,25.8,22.9c-5.5,6.1-10.2,12.2-14,18.6V122.5z"/>
	<path class="st0" d="M587.9,124.4c0-3.6-0.1-6.4-0.2-8.4c-8.3,6.1-13.8,9.2-16.8,9.2c-11.9,0-21.3-2.9-28.2-8.8
		c-6.9-5.9-10.3-13.4-10.3-22.7c0-4.8,0.5-8.6,1.4-11.2c0.9-2.6,3.6-6.3,8-11c4.4-4.7,8.7-9,13-13c3.5-3.5,7.1-5.2,11-5.3
		c11.2,0,20.6,3.9,28.4,11.7c7.8,7.8,11.6,17.8,11.6,30c0,12.2-4,25.2-12,38.7c-5.4,9.1-11,15.9-16.7,20.4
		c-5.7,4.5-10.5,6.7-14.1,6.7c-3.7,0-7-1.5-10-4.5c-3-3-4.5-6-4.5-8.9c0-1.1,0.4-1.7,1.2-1.8c7.9-1.1,14.6-2.6,20.1-4.5
		c5.5-1.9,11.6-4.8,18.1-8.5V124.4z M586.9,109.2l0.3-0.3c-1-12.4-4.6-21.8-11-28.2c-3.5-3.7-7.2-6.1-11.1-7.1s-9.3-1.4-16.1-1.2
		c-0.1,6.7,0.4,11.8,1.6,15.6c1.2,3.7,3.4,7.1,6.6,10.3C566.3,106.9,576.2,110.5,586.9,109.2z"/>
	<path class="st0" d="M744.5,123.6c-6.1,1-13.1,1.5-20.8,1.5c-7.7,0-18.8-0.8-33.1-2.4c-14.4-1.6-22.5-2.4-24.3-2.4
		c-1.8,0-3.6,0.9-5.2,2.7l-1.3-0.5c1.1-6.5,3-12.5,5.8-17.7c2.8-5.3,5.3-7.9,7.5-7.9h1.9V18.6h22v55.3c9-7,17.3-12.2,24.8-15.5
		c7.5-3.3,15.1-4.9,22.8-4.9c10.9,0,19.1,3.2,24.5,9.6c5.4,6.4,8.1,14.2,8.1,23.3c0,1.7-2.4,6.4-7.1,14c-4.7,7.6-9.5,14.1-14.2,19.4
		C754.4,121.3,750.7,122.6,744.5,123.6z M738.2,75.4c-12.8,0-26.6,5.4-41.3,16.3v8.7c17.6,3.6,34.8,3.6,51.7,0
		c7.9-1.8,14-4,18.2-6.6c-2.9-5.2-7.1-9.5-12.6-13.1C748.7,77.2,743.4,75.4,738.2,75.4z"/>
	<path class="st0" d="M814.4,125.1c-10.6,0-20.8-2.5-30.5-7.6l8.9-19.5c8.3,3.4,15.2,5.2,20.8,5.2s15.9-1.9,30.8-5.6l2.2-0.5
		c-3.1-4.8-5.8-8.5-8.1-11.2c-2.3-2.6-5.6-5.1-9.9-7.3c-4.3-2.2-9.5-3.4-15.6-3.4c-6.1,0-13.5,3.1-22.2,9.2l-0.9-0.5
		c7.6-15.3,15-24.7,22.1-28.1c3.6-1.7,7.5-2.6,11.5-2.6c4,0,7.9,0.6,11.6,1.7c21.4,0,37.2-0.6,47.5-1.7l-6.3,16.1
		c-5.3,0.6-12.7,1-22.3,1.5c3,4.5,5.9,10,8.8,16.3c2.9,6.4,4.7,10.1,5.4,11.3c2.6,1.4,8.7,4.4,18.4,9l-13,17.7
		c-7.5-4.8-13-9.4-16.5-13.5c-2.8,0.6-5.4,1.2-7.9,2c-2.4,0.8-7.6,2.9-15.4,6.4C826,123.4,819.5,125.1,814.4,125.1z M839.8,33.8
		c-5.7,6.4-10.6,11.2-14.8,14.4c-5.2-5.5-10-10.3-14.4-14.4c5.8-5.6,10.6-10.5,14.4-14.7C830.2,24,835.1,28.9,839.8,33.8z"/>
	<path class="st0" d="M911.9,89.8V18.6h22v55.6c0,8.3-5,19.3-15,33.2c-4.3,5.8-8,10.2-11.2,13.2c-3.2,3-6.5,4.5-10.1,4.5l-5.9-0.9
		l5-17.7c5.9,1.9,10.6,2.1,14,0.6C911.4,101.9,911.9,96.1,911.9,89.8z"/>
	<path class="st0" d="M968.4,122.5h-21.9v-97l-6.4-4.7L956.6,0c8.7,9.1,17.3,16.8,25.8,22.9c-5.5,6.1-10.2,12.2-14,18.6V122.5z"/>
	<path class="st0" d="M1037.6,90.1V58.3h22v31.6c0.2,8,2.2,13.6,5.8,16.8c3.7,3.2,8.6,4.8,14.8,4.8c3.7,0,7-0.5,9.7-1.4
		c1.5-3.9,2.2-9.4,2.2-16.7V58.3h22v30c0,5.6-3,11.2-9.1,16.8c-6.1,5.6-12,10.3-17.8,14.2c-5.8,3.8-10.3,5.7-13.5,5.7
		c-11.7,0-20.6-2.9-26.8-8.8C1040.7,110.5,1037.6,101.7,1037.6,90.1z M1090.4,33.8c-5.7,6.4-10.6,11.2-14.7,14.4
		c-5.2-5.5-10-10.3-14.4-14.4c5.8-5.6,10.6-10.5,14.4-14.7C1080.7,24,1085.6,28.9,1090.4,33.8z"/>
	<path class="st0" d="M1139.3,125.3c3,0,6.4,0.7,10.2,2.2l-3.1,12.8c-2.6-1-5.3-1.5-8.2-1.5c-2.9,0-5.4,0.9-7.7,2.6
		c4.2,3.1,9.2,5,15,5.6c1-0.1,2.6-0.2,4.9-0.4c2.3-0.1,4-0.2,5.1-0.4l-4.8,10.7c-4.7,0.6-7.9,0.9-9.7,1.2c-4.5,0.5-11.3,3-20.5,7.3
		l4.7-12.5l4.7-1.9c-1.5-1-3.2-2.8-5-5.4c2.3-9.6,4.4-15.4,6.4-17.4C1133.7,126.2,1136.3,125.3,1139.3,125.3z M1150.3,122.5h-21.9
		v-97l-6.4-4.7L1138.5,0c8.7,9.1,17.3,16.8,25.8,22.9c-5.5,6.1-10.2,12.2-14,18.6V122.5z"/>
	<path class="st0" d="M145.1,306.8c6.1,0,11.1-0.4,14.9-1.2c3.9-0.8,9.1-2.3,15.8-4.4l0.7,0.5l-4.7,22.9c-8.6,2.8-18.3,4.2-29.3,4.2
		c-11,0-20-1.9-27.2-5.7c-7.2-3.8-10.7-9.6-10.7-17.4c0-2.6,0.8-7.2,2.5-13.8c1.7-6.6,2.8-10.5,3.5-11.5c2.1-2.6,6.1-5.2,11.8-7.9
		c-7.6-6.7-11.4-13.5-11.4-20.6c0-3.1,2.1-8.3,6.4-15.6c4.3-7.3,7.8-12.3,10.6-14.9c2.8-2.6,5.7-4,8.7-4c3,0,6.3,0.4,10,1.4
		c3.6,0.9,7.1,1.4,10.3,1.4c7.4,0,14.1-1.5,20-4.5l0.5,0.3c-2.8,12.5-5,19.6-6.4,21.3c-2.7,3.2-8.3,4.9-16.8,4.9
		c-2.5,0-6.2-0.5-11.2-1.4c-5-0.9-9.2-1.4-12.5-1.4c-3.3,0-6.5,0.8-9.3,2.5c4.2,5.6,8.4,10.2,12.5,13.7c4.1,3.5,9,6.5,14.7,9l15-3.5
		c6.4-1.6,11.6-3.7,15.4-6.3l1,0.3l-0.5,23.3c-4.8,2.8-10.6,5.1-17.4,6.9c-10.9,2.2-20.7,4.2-29.5,6c-8.8,1.8-15.5,3.8-20.2,6
		C119.1,303.6,130.1,306.8,145.1,306.8z"/>
	<path class="st0" d="M191.5,254.1v-31.8h22v31.6c0.2,8,2.2,13.6,5.8,16.8c3.7,3.2,8.6,4.8,14.8,4.8c3.7,0,7-0.5,9.7-1.4
		c1.5-3.9,2.2-9.4,2.2-16.7v-35.2h22v30c0,5.6-3,11.2-9,16.9c-6,5.6-12,10.4-17.8,14.2c-5.9,3.8-10.4,5.7-13.5,5.7
		c-11.7,0-20.6-2.9-26.8-8.8C194.6,274.5,191.5,265.7,191.5,254.1z M231.7,167.9c3.6,0,7.6,0.7,12,2.2l-4.4,15.3
		c-7.7-3-14-2.6-19.1,1.2c4.7,4.3,11.1,6.5,19.1,6.8l10.7-0.6l-6.3,14c-5.2,0.6-8.9,1.1-11.1,1.4c-5.6,0.9-13.6,3.7-24,8.4l6.1-15.8
		l5.6-2.2c-1.7-1.3-3.7-3.4-6-6.3c0.7-3.9,1.9-8.1,3.6-12.7c1.8-4.6,3.3-7.4,4.6-8.5C225.1,169,228.1,167.9,231.7,167.9z"/>
	<path class="st0" d="M302.4,286.5h-22v-97l-6.4-4.7l16.5-20.8c8.7,9.1,17.3,16.8,25.9,22.9c-5.5,6.1-10.2,12.2-14,18.6V286.5z"/>
	<path class="st0" d="M319.4,254.1v-31.8h22v31.6c0.2,8,2.2,13.6,5.8,16.8c3.7,3.2,8.6,4.8,14.8,4.8c3.7,0,7-0.5,9.7-1.4
		c1.5-3.9,2.2-9.4,2.2-16.7v-35.2h22v30c0,5.6-3,11.2-9.1,16.8c-6.1,5.6-12,10.3-17.8,14.2c-5.8,3.8-10.3,5.7-13.5,5.7
		c-11.7,0-20.6-2.9-26.8-8.8C322.4,274.5,319.4,265.7,319.4,254.1z M372.1,197.8c-5.7,6.4-10.6,11.2-14.7,14.4
		c-5.2-5.5-10-10.3-14.4-14.4c5.8-5.6,10.6-10.5,14.4-14.7C362.4,188,367.3,192.9,372.1,197.8z"/>
	<path class="st0" d="M411.8,258.4v-35.9h22v16.7c9.4-7.5,17.9-12.9,25.6-16.5c7.7-3.5,15.5-5.3,23.4-5.3c10.9,0,19.1,3.2,24.5,9.6
		c5.4,6.4,8.1,14.2,8.1,23.4c0,1.7-2.4,6.4-7.1,14c-4.7,7.6-9.5,14.1-14.2,19.4c-1.4,1.5-5.1,2.7-11.3,3.8c-6.1,1-12.2,1.5-18.3,1.5
		c-13.9,0-27-3.9-39.5-11.8c-5,5.1-11.8,9-20.5,11.8l-1.4-1.2c3.1-3.5,5.4-7.4,6.7-11.7S411.8,265.9,411.8,258.4z M476.5,239.4
		c-13,0-27.2,5.9-42.7,17.6c0,0.9-0.1,1.5-0.2,2c8.7,5.4,18.9,8.1,30.6,8.1c7.2,0,14.8-0.9,22.7-2.6c7.9-1.7,14-4,18.1-6.7
		c-2.9-5.2-7.1-9.6-12.6-13.1C487,241.2,481.6,239.4,476.5,239.4z"/>
	<path class="st0" d="M541.5,253.8v-71.2h22v55.6c0,8.3-5,19.3-15,33.2c-4.3,5.8-8,10.2-11.2,13.2c-3.2,3-6.5,4.5-10.1,4.5l-5.9-0.9
		l5-17.7c5.9,1.9,10.6,2.1,14,0.6C541.1,265.9,541.5,260.1,541.5,253.8z"/>
	<path class="st0" d="M598.1,286.5h-21.9v-97l-6.4-4.7l16.6-20.8c8.7,9.1,17.3,16.8,25.8,22.9c-5.5,6.1-10.2,12.2-14,18.6V286.5z"/>
	<path class="st0" d="M713.2,258.2c0,3-1.6,8.3-4.9,15.9c-3.2,7.6-6.4,11.9-9.3,12.9c-4.1,1.4-9.6,2.1-16.5,2.1
		c-6.9,0-12.2-0.3-16-1c-3.8-0.7-6.6-1.4-8.4-2.2c-1.8-0.8-2.7-1.4-2.7-1.9c0-1,0.9-4.4,2.6-10.2c1.8-5.8,3.2-9.7,4.3-11.7l1,0.2
		c0.7,3.2,6.5,4.9,17.6,4.9s19.3-0.9,24.8-2.6c-4-7.4-8.7-14.9-13.9-22.6c-5.3-7.6-8.8-12.8-10.6-15.6l18.2-12.5
		c3.6,6.8,6.8,14.3,9.6,22.7C711.8,244.7,713.2,252,713.2,258.2z"/>
	<path class="st0" d="M748.7,286.5h-21.9v-97l-6.4-4.7l16.6-20.8c8.7,9.1,17.3,16.8,25.8,22.9c-5.5,6.1-10.2,12.2-14,18.6V286.5z"/>
	<path class="st0" d="M753.9,284c0-1,0.9-4.4,2.6-10.2s3.2-9.7,4.3-11.7l1,0.2c0.7,3.3,7.1,4.9,19.1,4.9c5.7,0,11.4-0.9,17-2.7
		c0.7-3.2,1.1-5.8,1.3-8.1l-6.7-35.8l21.5-5l12.2,69.6l-20.8,3.9l-3.5-18.6c-3.4,9.3-7.1,14.9-11.1,16.6c-3.1,1.4-8.1,2.1-14.9,2.1
		c-6.8,0-12.2-0.7-16.1-2.2C755.8,285.4,753.9,284.4,753.9,284z"/>
	<path class="st0" d="M894,286.5h-23.5c-12,0-23,1.8-32.8,5.4l-0.7-0.6l7.1-22.9c4.3-1.1,7.2-1.8,8.8-2.2c-3.7-4.6-5.6-9.4-5.6-14.4
		c0-3.1,2.1-8.3,6.4-15.6c4.3-7.3,7.8-12.3,10.6-14.9c2.8-2.7,5.7-4,8.8-4c3.1,0,6.4,0.5,10.1,1.4c3.6,0.9,7.1,1.4,10.4,1.4
		c7.4,0,14.1-1.5,19.9-4.5l0.5,0.3c-2.8,12.5-4.9,19.6-6.4,21.3c-2.7,3.2-8.3,4.9-16.9,4.9c-2.5,0-6.2-0.5-11.3-1.4
		c-5-0.9-9.1-1.4-12.5-1.4c-3.4,0-6.6,0.8-9.5,2.5c4.3,5.6,8.6,10.2,12.8,13.7c4.2,3.5,9.3,6.6,15.3,9.2H902
		c6.8,0,12.2-0.7,16.2-2.1l0.9,0.5l-5.8,21.9C908.2,286,901.8,286.5,894,286.5z"/>
	<path class="st0" d="M981.4,254.1v-31.8h22v31.6c0.2,8,2.2,13.6,5.8,16.8c3.7,3.2,8.6,4.8,14.8,4.8c3.7,0,7-0.5,9.7-1.4
		c1.5-3.9,2.2-9.4,2.2-16.7v-35.2h22v30c0,5.6-3,11.2-9.1,16.8c-6.1,5.6-12,10.3-17.8,14.2c-5.8,3.8-10.3,5.7-13.5,5.7
		c-11.7,0-20.6-2.9-26.8-8.8C984.5,274.5,981.4,265.7,981.4,254.1z M1034.1,197.8c-5.7,6.4-10.6,11.2-14.7,14.4
		c-5.2-5.5-10-10.3-14.4-14.4c5.8-5.6,10.6-10.5,14.4-14.7C1024.5,188,1029.4,192.9,1034.1,197.8z"/>
	<path class="st0" d="M1122.5,289.1c-16.4,0-27.9-5.2-34.3-15.6c-2.6,10.3-6,15.5-10.3,15.6c-5.5,0-10.8-1-15.8-2.9l8.3-21.3
		c3.8,2.5,8,2.8,12.5,0.8c0.7-2,1.1-3.5,1.4-4.5c-0.1-0.8-0.2-2.8-0.2-6c0-3.2,0.4-6.1,1.3-8.7c0.9-2.6,3.5-6.3,7.9-11
		c4.4-4.7,8.7-9,13-13c3.5-3.5,7.1-5.2,10.8-5.2c3.7,0,7.7,0.5,11.9,1.7c14.4,0,26.5-0.6,36.1-1.7l-5.1,16.1
		c-1.5,0.2-3.4,0.4-5.7,0.6c-2.3,0.2-3.9,0.3-4.6,0.4c3.8,5.7,5.8,11.9,5.8,18.4c0,3.2-0.4,6.6-1.2,10.1c-0.8,3.5-1.8,5.8-3,6.9
		c-4.2,4-9.4,8.2-15.6,12.6C1129.3,286.9,1125,289.1,1122.5,289.1z M1100.5,236.4c-0.1,6.7,0.4,11.8,1.6,15.6
		c1.2,3.7,3.4,7.1,6.7,10.3c8.8,8.5,18.2,12.3,28.2,11.5c0-6.2-0.6-11.6-1.8-16.3c-1.2-4.6-3.6-8.8-7.4-12.6
		c-3.7-3.7-7.6-6.1-11.5-7.2C1112.4,236.6,1107.1,236.2,1100.5,236.4z"/>
	<path class="st0" d="M561,453.1c-11.9,0-21.3-2.9-28.2-8.8c-6.9-5.9-10.3-13.4-10.3-22.7c0-4.8,0.5-8.6,1.4-11.2
		c0.9-2.6,3.6-6.3,8-11c4.4-4.7,8.7-9,13-13c3.5-3.5,7.1-5.2,11-5.3c11.1,0,20.2,3.6,27.4,10.9c7.2,7.3,10.8,15.5,10.8,24.5
		c0,3.2-0.4,6.6-1.2,10.1c-0.8,3.5-1.8,5.8-3,6.9c-4.2,4-9.4,8.2-15.7,12.6C567.8,450.9,563.5,453.1,561,453.1z M556.6,361.8
		c-5.7,6.4-10.6,11.2-14.7,14.4c-5.2-5.5-10-10.3-14.4-14.4c5.8-5.6,10.6-10.5,14.4-14.7C547,352,551.9,356.9,556.6,361.8z
		 M539,400.4c-0.1,6.7,0.4,11.8,1.6,15.6c1.2,3.7,3.4,7.1,6.6,10.3c8.8,8.5,18.2,12.3,28.3,11.5c0-6.2-0.6-11.6-1.8-16.3
		c-1.2-4.6-3.6-8.8-7.4-12.6c-3.7-3.7-7.6-6.1-11.5-7.2C551,400.6,545.7,400.2,539,400.4z M590.4,361.8
		c-5.7,6.4-10.6,11.2-14.7,14.4c-5.2-5.5-10-10.3-14.4-14.4c5.8-5.6,10.6-10.5,14.4-14.7C580.8,352,585.7,356.9,590.4,361.8z"/>
	<path class="st0" d="M607.4,418.1v-31.8h22v31.6c0.2,8,2.2,13.6,5.8,16.8c3.7,3.2,8.6,4.8,14.8,4.8c3.7,0,7-0.5,9.7-1.4
		c1.5-3.9,2.2-9.4,2.2-16.7v-35.2h22v30c0,5.6-3,11.2-9.1,16.8c-6.1,5.6-12,10.3-17.8,14.2c-5.8,3.8-10.3,5.7-13.5,5.7
		c-11.7,0-20.6-2.9-26.8-8.8C610.5,438.5,607.4,429.7,607.4,418.1z M642,474.2c-5.7,6.4-10.6,11.2-14.7,14.4
		c-5.2-5.5-9.9-10.3-14.3-14.4c5.8-5.6,10.6-10.5,14.3-14.7C632.4,464.4,637.3,469.3,642,474.2z M675.9,474.2
		c-5.7,6.4-10.6,11.2-14.7,14.4c-5.2-5.5-10-10.3-14.4-14.4c5.8-5.6,10.6-10.5,14.4-14.7C666.3,464.5,671.2,469.4,675.9,474.2z"/>
	<path class="st0" d="M698.1,418.1v-31.8h22v31.6c0.2,8,2.2,13.6,5.8,16.8c3.7,3.2,8.6,4.8,14.8,4.8c3.7,0,7-0.5,9.7-1.4
		c1.5-3.9,2.2-9.4,2.2-16.7v-35.2h22v30c0,5.6-3,11.2-9.1,16.8c-6.1,5.6-12,10.3-17.8,14.2c-5.8,3.8-10.3,5.7-13.5,5.7
		c-11.7,0-20.6-2.9-26.8-8.8C701.2,438.5,698.1,429.7,698.1,418.1z M750.9,361.8c-5.7,6.4-10.6,11.2-14.7,14.4
		c-5.2-5.5-10-10.3-14.4-14.4c5.8-5.6,10.6-10.5,14.4-14.7C741.2,352,746.1,356.9,750.9,361.8z"/>
	<path class="st0" d="M806.8,450.5h-22v-97l-6.4-4.7L795,328c8.7,9.1,17.3,16.8,25.9,22.9c-5.5,6.1-10.2,12.2-14,18.6V450.5z"/>
	<path class="st0" d="M825.5,422.3v-36h21.9v30c0.3,7.8,2,13.6,5.2,17.4c3.1,3.9,7.1,5.8,12.1,5.8c2.6,0,5.2-0.5,7.9-1.4
		c1.5-3.9,2.2-9.4,2.2-16.7v-35.2h22v30c0.3,7.8,2,13.6,5.2,17.4c3.1,3.9,7.1,5.8,12.1,5.8c2.6,0,5.2-0.5,7.9-1.4
		c1.5-3.9,2.2-9.4,2.2-16.7v-35.2h21.9v30c0,5.6-3,11.2-9,16.9c-6,5.6-12,10.4-17.8,14.2c-5.9,3.8-10.4,5.7-13.5,5.7
		c-9,0-16.6-5.2-22.7-15.6c-12,10.3-20.9,15.5-26.7,15.6c-7.6,0-14.1-3.5-19.3-10.5c-4.3,4-10.6,7.5-18.9,10.5l-1.4-1.2
		c3.1-3.5,5.4-7.4,6.7-11.7C824.8,435.8,825.5,429.9,825.5,422.3z"/>
	<path class="st0" d="M960.4,418.1v-31.8h22v31.6c0.2,8,2.2,13.6,5.8,16.8c3.7,3.2,8.6,4.8,14.8,4.8c3.7,0,7-0.5,9.7-1.4
		c1.5-3.9,2.2-9.4,2.2-16.7v-35.2h22v30c0,5.6-3,11.2-9.1,16.8c-6.1,5.6-12,10.3-17.8,14.2c-5.8,3.8-10.3,5.7-13.5,5.7
		c-11.7,0-20.6-2.9-26.8-8.8C963.5,438.5,960.4,429.7,960.4,418.1z M1013.1,361.8c-5.7,6.4-10.6,11.2-14.7,14.4
		c-5.2-5.5-10-10.3-14.4-14.4c5.8-5.6,10.6-10.5,14.4-14.7C1003.5,352,1008.4,356.9,1013.1,361.8z"/>
	<path class="st0" d="M1097.9,450.5h-61.2l8.3-22c5.5,0,10.2-0.6,14-1.7c3.8-1.1,8.3-3.1,13.4-6.1c4.6-5.1,8.2-9.6,10.8-13.7
		c-10.3-6.2-18-11.2-23-14.9c-5-3.7-9.4-7.6-13.4-11.7c-3.9-4.1-8.3-9.5-13.2-16.2l12-21.1c5.3,7.9,9.9,14,13.8,18.5
		c9.1,10.3,19.5,19.8,31.2,28.3c0.8-3.1,1.2-6.8,1.2-11v-39.2h21.9v35.6c0,9-3,17.6-9.1,25.7c6.1,5.7,9.1,11.7,9.1,18.1
		c0,2.4-1.2,6.1-3.7,11.3c-2.5,5.2-5,9.8-7.6,13.9C1099.8,448.5,1098.3,450.5,1097.9,450.5z M1079.9,454.8c3.1,0,6.5,0.6,10.2,1.7
		l-3.1,13.5c-6.6-2.8-11.9-2.5-16,0.9c4.2,3.3,9.2,5.2,15,5.7c1-0.1,2.6-0.2,4.9-0.3c2.3-0.1,4-0.2,5.1-0.3l-4.7,10.7
		c-4.7,0.6-8,1-9.7,1.2c-4.7,0.7-11.5,3.1-20.5,7.3l4.8-12.6l4.7-1.9c-1.5-1-3.2-2.9-5-5.6c2.3-9.6,4.4-15.5,6.4-17.4
		C1074.2,455.8,1076.9,454.8,1079.9,454.8z M1104.5,428.6c-1.9-5.7-5.7-10.8-11.4-15.3c-6.3,5.4-13.8,10.5-22.4,15.3H1104.5z"/>
	<path class="st0" d="M1150.3,450.5h-21.9v-97l-6.4-4.7l16.6-20.8c8.7,9.1,17.3,16.8,25.8,22.9c-5.5,6.1-10.2,12.2-14,18.6V450.5z"
		/>
</g>
<g>
	<path class="st0" d="M406.2,722.6v-23.3h16.1v23.2c0.2,5.9,1.6,10,4.3,12.3c2.7,2.4,6.3,3.5,10.8,3.5c2.7,0,5.1-0.3,7.1-1
		c1.1-2.8,1.6-6.9,1.6-12.2v-70.5h16.1v66.7c0,4.1-2.2,8.2-6.7,12.4c-4.4,4.1-8.8,7.6-13.1,10.4c-4.3,2.8-7.6,4.2-9.9,4.2
		c-8.6,0-15.1-2.2-19.6-6.4C408.5,737.6,406.2,731.2,406.2,722.6z"/>
	<path class="st0" d="M490.7,730.9h-16.1v-71.2l-4.7-3.5L482,641c6.4,6.7,12.7,12.3,19,16.8c-4,4.4-7.5,9-10.3,13.6V730.9z"/>
	<path class="st0" d="M505,702.1c0-5.1,2.8-10.2,8.3-15.5c5.5-5.2,10.7-7.8,15.5-7.8c6.4,0,12,2.3,16.8,6.9
		c4.8,4.6,7.3,10.2,7.3,16.9c0,4.1-5.6,13-16.9,26.4c-1,1.2-3,2.1-5.9,2.8c-2.9,0.7-6,1-9.4,1c-6.9,0-14.5-1.2-22.6-3.6l4.4-15.8
		c2.1,0.6,4,1.1,5.8,1.5C506.1,711.5,505,707.2,505,702.1z M528.2,665.9c-4.2,4.7-7.8,8.2-10.8,10.5c-3.8-4-7.3-7.5-10.5-10.5
		c4.3-4.1,7.8-7.7,10.5-10.8C521.1,658.6,524.7,662.2,528.2,665.9z M525.6,716.7c6.1,0,11.2-0.5,15.4-1.6c-0.3-5.5-2-10.2-4.9-14.2
		c-2.9-4-7.1-6-12.6-6c-3.9,0-8.4,1.5-13.6,4.4c1.2,1.7,3.5,4.4,7,8.1s5.9,6.8,7.1,9.3H525.6z M553,665.9
		c-4.2,4.7-7.8,8.2-10.8,10.5c-3.8-4-7.3-7.5-10.6-10.5c4.3-4.1,7.8-7.7,10.6-10.8C546,658.6,549.6,662.2,553,665.9z"/>
	<path class="st0" d="M618,730.9h-16.1v-71.2l-4.7-3.5l12.2-15.3c6.4,6.7,12.7,12.3,19,16.8c-4,4.4-7.5,9-10.3,13.6V730.9z"/>
	<path class="st0" d="M664.1,710.2c0,2.2-1.2,6.1-3.6,11.7c-2.4,5.6-4.7,8.7-6.8,9.4c-3,1-7,1.5-12.1,1.5c-5.1,0-9-0.3-11.7-0.8
		c-2.8-0.5-4.8-1-6.1-1.6s-2-1-2-1.4c0-0.7,0.6-3.2,1.9-7.5c1.3-4.2,2.3-7.1,3.1-8.6l0.7,0.1c0.5,2.4,4.8,3.6,12.9,3.6
		s14.2-0.6,18.2-1.9c-2.9-5.4-6.3-11-10.2-16.6c-3.9-5.6-6.4-9.4-7.8-11.5l13.3-9.2c2.7,5,5,10.5,7.1,16.6
		C663.1,700.3,664.1,705.6,664.1,710.2z M658.9,665.9c-4.2,4.7-7.8,8.2-10.8,10.5c-3.8-4-7.3-7.5-10.5-10.5
		c4.3-4.1,7.8-7.7,10.5-10.8C651.9,658.6,655.5,662.2,658.9,665.9z"/>
	<path class="st0" d="M688.9,730.9h-16.1v-71.2l-4.7-3.5l12.1-15.3c6.4,6.7,12.7,12.3,19,16.8c-4,4.4-7.5,9-10.3,13.6V730.9z"/>
	<path class="st0" d="M738.3,732.8c-12.1,0-20.5-3.8-25.2-11.4c-1.9,7.6-4.4,11.4-7.6,11.4c-4,0-7.9-0.7-11.6-2.1l6.1-15.6
		c2.8,1.9,5.9,2.1,9.1,0.6c0.5-1.5,0.8-2.6,1-3.3c-0.1-0.6-0.1-2-0.1-4.4s0.3-4.5,1-6.4c0.6-1.9,2.6-4.6,5.8-8.1
		c3.2-3.5,6.4-6.6,9.6-9.5c2.5-2.5,5.2-3.8,7.9-3.8c2.7,0,5.7,0.4,8.7,1.2c10.6,0,19.4-0.4,26.5-1.3l-3.8,11.8
		c-1.1,0.2-2.5,0.3-4.2,0.4c-1.7,0.1-2.8,0.2-3.4,0.3c2.8,4.2,4.2,8.7,4.2,13.5c0,2.4-0.3,4.9-0.9,7.4c-0.6,2.6-1.3,4.3-2.2,5.1
		c-3.1,2.9-6.9,6-11.5,9.3C743.3,731.2,740.1,732.8,738.3,732.8z M722.1,694.1c-0.1,4.9,0.3,8.7,1.2,11.4c0.9,2.7,2.5,5.2,4.9,7.5
		c6.5,6.2,13.4,9,20.7,8.4c0-4.6-0.4-8.5-1.3-12c-0.9-3.4-2.7-6.5-5.4-9.2c-2.7-2.7-5.6-4.5-8.4-5.3
		C730.9,694.3,727,694,722.1,694.1z"/>
	<path class="st0" d="M827.5,730.9h-16.1v-71.2l-4.7-3.5l12.2-15.3c6.4,6.7,12.7,12.3,19,16.8c-4,4.4-7.5,9-10.3,13.6V730.9z"/>
	<path class="st0" d="M878.1,732.3c0-2.7,0-4.7-0.1-6.2c-6.1,4.5-10.2,6.7-12.3,6.7c-8.8,0-15.7-2.2-20.7-6.4
		c-5-4.3-7.6-9.8-7.6-16.6c0-3.6,0.3-6.3,1-8.2c0.7-1.9,2.6-4.6,5.8-8.1c3.2-3.5,6.4-6.6,9.6-9.5c2.5-2.5,5.2-3.8,8.1-3.9
		c8.2,0,15.1,2.9,20.8,8.6c5.7,5.7,8.5,13.1,8.5,22c0,9-2.9,18.5-8.8,28.4c-4,6.7-8,11.7-12.3,15c-4.2,3.3-7.7,4.9-10.4,4.9
		c-2.7,0-5.1-1.1-7.3-3.3c-2.2-2.2-3.3-4.4-3.3-6.5c0-0.8,0.3-1.3,0.8-1.3c5.8-0.8,10.7-1.9,14.7-3.3c4.1-1.4,8.5-3.5,13.3-6.2
		V732.3z M877.3,721.1l0.2-0.2c-0.7-9.1-3.4-16-8.1-20.7c-2.5-2.7-5.3-4.5-8.2-5.2s-6.8-1-11.8-0.8c-0.1,4.9,0.3,8.7,1.2,11.4
		c0.9,2.7,2.5,5.2,4.9,7.5C862.2,719.5,869.5,722.1,877.3,721.1z"/>
	<path class="st0" d="M940.4,730.9h-17.3c-8.8,0-16.9,1.3-24,4l-0.5-0.4l5.2-16.8c3.1-0.8,5.3-1.4,6.5-1.6
		c-2.7-3.4-4.1-6.9-4.1-10.5c0-2.3,1.6-6.1,4.7-11.5s5.8-9,7.8-10.9c2.1-2,4.2-3,6.5-3c2.3,0,4.7,0.3,7.4,1s5.2,1,7.6,1
		c5.4,0,10.3-1.1,14.6-3.3l0.4,0.2c-2.1,9.2-3.6,14.4-4.7,15.6c-2,2.4-6.1,3.6-12.4,3.6c-1.8,0-4.6-0.3-8.3-1c-3.6-0.7-6.7-1-9.2-1
		c-2.5,0-4.8,0.6-7,1.8c3.1,4.1,6.3,7.5,9.4,10.1c3.1,2.6,6.8,4.8,11.2,6.7h12c5,0,8.9-0.5,11.9-1.5l0.7,0.4l-4.2,16
		C950.8,730.5,946.1,730.9,940.4,730.9z"/>
	<path class="st0" d="M1004.4,732.8c-12.1,0-20.5-3.8-25.2-11.4c-1.9,7.6-4.4,11.4-7.6,11.4c-4,0-7.9-0.7-11.6-2.1l6.1-15.6
		c2.8,1.9,5.9,2.1,9.1,0.6c0.5-1.5,0.8-2.6,1-3.3c-0.1-0.6-0.1-2-0.1-4.4s0.3-4.5,1-6.4c0.6-1.9,2.6-4.6,5.8-8.1
		c3.2-3.5,6.4-6.6,9.6-9.5c2.5-2.5,5.2-3.8,7.9-3.8c2.7,0,5.7,0.4,8.7,1.2c10.6,0,19.4-0.4,26.5-1.3l-3.8,11.8
		c-1.1,0.2-2.5,0.3-4.2,0.4c-1.7,0.1-2.8,0.2-3.4,0.3c2.8,4.2,4.2,8.7,4.2,13.5c0,2.4-0.3,4.9-0.9,7.4c-0.6,2.6-1.3,4.3-2.2,5.1
		c-3.1,2.9-6.9,6-11.5,9.3C1009.4,731.2,1006.2,732.8,1004.4,732.8z M988.2,694.1c-0.1,4.9,0.3,8.7,1.2,11.4
		c0.9,2.7,2.5,5.2,4.9,7.5c6.5,6.2,13.4,9,20.7,8.4c0-4.6-0.4-8.5-1.3-12c-0.9-3.4-2.7-6.5-5.4-9.2c-2.7-2.7-5.6-4.5-8.4-5.3
		C997,694.3,993.1,694,988.2,694.1z"/>
	<path class="st0" d="M1039.7,710.2v-26.4h16.1v22c0.2,5.7,1.5,10,3.8,12.8c2.3,2.8,5.2,4.2,8.9,4.2c1.9,0,3.8-0.3,5.8-1
		c1.1-2.8,1.6-6.9,1.6-12.2v-25.8h16.1v22c0.2,5.7,1.5,10,3.8,12.8c2.3,2.8,5.2,4.2,8.9,4.2c1.9,0,3.8-0.3,5.8-1
		c1.1-2.8,1.6-6.9,1.6-12.2v-25.8h16.1v22c0,4.1-2.2,8.2-6.6,12.4c-4.4,4.1-8.8,7.6-13.1,10.4s-7.6,4.2-9.9,4.2
		c-6.6,0-12.2-3.8-16.7-11.4c-8.8,7.6-15.4,11.4-19.6,11.4c-5.6,0-10.3-2.6-14.2-7.7c-3.2,2.9-7.8,5.5-13.9,7.7l-1-0.9
		c2.3-2.5,3.9-5.4,4.9-8.6S1039.7,715.8,1039.7,710.2z"/>
	<path class="st0" d="M1154.8,730.9h-16.1v-71.2l-4.7-3.5l12.2-15.3c6.4,6.7,12.7,12.3,19,16.8c-4,4.4-7.5,9-10.3,13.6V730.9z"/>
	<path class="st0" d="M112.2,850.8c-8.8,0-15.7-2.2-20.7-6.4c-5-4.3-7.6-9.8-7.6-16.6c0-3.6,0.3-6.3,1-8.2c0.7-1.9,2.6-4.6,5.8-8.1
		c3.2-3.5,6.4-6.6,9.6-9.5c2.5-2.5,5.2-3.8,8.1-3.9c8.1,0,14.8,2.7,20.1,8c5.3,5.3,7.9,11.4,7.9,18c0,2.4-0.3,4.9-0.9,7.4
		c-0.6,2.6-1.3,4.3-2.2,5.1c-3.1,2.9-6.9,6-11.5,9.3S114,850.8,112.2,850.8z M96.1,812.1c-0.1,4.9,0.3,8.7,1.2,11.4
		c0.9,2.7,2.5,5.2,4.9,7.5c6.5,6.2,13.4,9,20.8,8.4c0-4.6-0.4-8.5-1.3-12c-0.9-3.4-2.7-6.5-5.4-9.2c-2.7-2.7-5.6-4.5-8.4-5.3
		C104.9,812.3,101,812,96.1,812.1z"/>
	<path class="st0" d="M183.3,850.8c-12.1,0-20.5-3.8-25.2-11.4c-1.9,7.6-4.4,11.4-7.6,11.4c-4,0-7.9-0.7-11.6-2.1l6.1-15.6
		c2.8,1.9,5.9,2.1,9.1,0.6c0.5-1.5,0.8-2.6,1-3.3c-0.1-0.6-0.1-2-0.1-4.4s0.3-4.5,1-6.4c0.6-1.9,2.6-4.6,5.8-8.1
		c3.2-3.5,6.4-6.6,9.6-9.5c2.5-2.5,5.2-3.8,7.9-3.8c2.7,0,5.7,0.4,8.7,1.2c10.6,0,19.4-0.4,26.5-1.3l-3.8,11.8
		c-1.1,0.2-2.5,0.3-4.2,0.4c-1.7,0.1-2.8,0.2-3.4,0.3c2.8,4.2,4.2,8.7,4.2,13.5c0,2.4-0.3,4.9-0.9,7.4c-0.6,2.6-1.3,4.3-2.2,5.1
		c-3.1,2.9-6.9,6-11.5,9.3C188.3,849.2,185.1,850.8,183.3,850.8z M167.1,812.1c-0.1,4.9,0.3,8.7,1.2,11.4c0.9,2.7,2.5,5.2,4.9,7.5
		c6.5,6.2,13.4,9,20.7,8.4c0-4.6-0.4-8.5-1.3-12c-0.9-3.4-2.7-6.5-5.4-9.2c-2.7-2.7-5.6-4.5-8.4-5.3
		C175.9,812.3,172,812,167.1,812.1z"/>
	<path class="st0" d="M224.6,750.4c2.2,0,4.7,0.5,7.5,1.6l-2.2,9.4c-1.9-0.7-3.9-1.1-6-1.1s-4,0.6-5.7,1.9c3.1,2.3,6.7,3.7,11,4.1
		c0.7-0.1,1.9-0.2,3.6-0.3c1.7-0.1,2.9-0.2,3.7-0.3l-3.5,7.8c-3.5,0.4-5.9,0.7-7.1,0.9c-3.3,0.4-8.3,2.3-15.1,5.6l3.5-9.1l3.5-1.4
		c-1.1-0.7-2.3-2-3.7-3.9c1.7-7.2,3.2-11.6,4.7-13.1C220.5,751.1,222.4,750.4,224.6,750.4z M233.5,848.9h-16.1v-52.7l-4.7-3.5
		l12.2-15.3c6.4,6.7,12.7,12.3,19,16.8c-4,4.4-7.5,9-10.3,13.6V848.9z"/>
	<path class="st0" d="M284.6,825.1v-23.3h16.1V825c0.2,5.9,1.6,10,4.3,12.3c2.7,2.4,6.3,3.5,10.8,3.5c2.8,0,5.1-0.3,7.1-1
		c1.1-2.8,1.6-6.9,1.6-12.2v-25.8h16.1v22c0,4.1-2.2,8.2-6.7,12.4c-4.4,4.1-8.8,7.6-13.1,10.4c-4.3,2.8-7.6,4.2-9.9,4.2
		c-8.6,0-15.1-2.2-19.7-6.4C286.9,840.1,284.6,833.7,284.6,825.1z M311.9,783.9c-4.2,4.7-7.8,8.2-10.8,10.5
		c-3.8-4-7.3-7.5-10.5-10.5c4.3-4.1,7.8-7.7,10.5-10.8C304.8,776.6,308.4,780.2,311.9,783.9z M336.8,783.9
		c-4.2,4.7-7.8,8.2-10.8,10.5c-3.8-4-7.3-7.5-10.6-10.5c4.3-4.1,7.8-7.7,10.6-10.8C329.7,776.6,333.3,780.2,336.8,783.9z"/>
	<path class="st0" d="M387.2,848.9h-44.9l6.1-16.1c4,0,7.5-0.4,10.3-1.2c2.8-0.8,6.1-2.3,9.8-4.4c3.4-3.7,6-7.1,7.9-10.1
		c-7.6-4.6-13.2-8.2-16.9-10.9c-3.7-2.7-6.9-5.6-9.8-8.6c-2.9-3-6.1-6.9-9.7-11.9l8.8-15.5c3.9,5.8,7.2,10.3,10.1,13.6
		c6.7,7.6,14.3,14.5,22.9,20.8c0.6-2.3,0.8-5,0.8-8.1v-28.8h16.1v26.2c0,6.6-2.2,12.9-6.7,18.8c4.5,4.2,6.7,8.6,6.7,13.3
		c0,1.7-0.9,4.5-2.7,8.3s-3.7,7.2-5.6,10.2C388.6,847.5,387.5,848.9,387.2,848.9z M392,832.8c-1.4-4.2-4.2-7.9-8.4-11.2
		c-4.6,4-10.1,7.7-16.5,11.2H392z"/>
	<path class="st0" d="M426,848.9h-16.1v-71.2l-4.7-3.5l12.1-15.3c6.4,6.7,12.7,12.3,19,16.8c-4,4.4-7.5,9-10.3,13.6V848.9z"/>
	<path class="st0" d="M475.4,850.8c-12.1,0-20.5-3.8-25.2-11.4c-1.9,7.6-4.4,11.4-7.6,11.4c-4,0-7.9-0.7-11.6-2.1l6.1-15.6
		c2.8,1.9,5.9,2.1,9.1,0.6c0.5-1.5,0.8-2.6,1-3.3c-0.1-0.6-0.1-2-0.1-4.4s0.3-4.5,1-6.4c0.6-1.9,2.6-4.6,5.8-8.1
		c3.2-3.5,6.4-6.6,9.6-9.5c2.5-2.5,5.2-3.8,7.9-3.8c2.7,0,5.7,0.4,8.7,1.2c10.6,0,19.4-0.4,26.5-1.3l-3.8,11.8
		c-1.1,0.2-2.5,0.3-4.2,0.4c-1.7,0.1-2.8,0.2-3.4,0.3c2.8,4.2,4.2,8.7,4.2,13.5c0,2.4-0.3,4.9-0.9,7.4c-0.6,2.6-1.3,4.3-2.2,5.1
		c-3.1,2.9-6.9,6-11.5,9.3C480.4,849.2,477.2,850.8,475.4,850.8z M459.3,812.1c-0.1,4.9,0.3,8.7,1.2,11.4c0.9,2.7,2.5,5.2,4.9,7.5
		c6.5,6.2,13.4,9,20.7,8.4c0-4.6-0.4-8.5-1.3-12c-0.9-3.4-2.7-6.5-5.4-9.2c-2.7-2.7-5.6-4.5-8.4-5.3
		C468,812.3,464.1,812,459.3,812.1z"/>
	<path class="st0" d="M530.1,801.8c7.6,0,16.7-0.2,27.2-0.5s17.2-0.5,20-0.5c7.9,0,14.8,2.3,20.6,7c5.9,4.7,8.8,10.4,8.8,17.1
		c0,3.3-2.2,7.9-6.7,13.6c-4.5,5.8-9.3,11.3-14.6,16.6c-2.9-2.5-5.8-4.1-8.7-4.9c-2.9-0.8-6.7-1.2-11.3-1.2h-59.8l5-16.1h61.9
		c6.8,0,13.6,2.5,20.3,7.6c0-8.4-1.6-14.5-4.8-18.1s-9.2-5.4-18.2-5.4c-3.5,0-9.7,0.2-18.6,0.5c-8.9,0.4-17.9,0.5-26.8,0.5
		c-4.5,0-8.4-1.1-11.8-3.2c-3.4-2.1-5.1-4.1-5.1-6c0-1.9,1.7-6.2,5.1-13.1s6.6-11.4,9.5-13.7s7.9-4.6,14.7-6.8
		c6.8-2.2,14.2-4.1,22.2-5.6l-8.2,18.2c-17,3.6-28.6,7.3-34.9,11.3C517.7,800.9,522.5,801.8,530.1,801.8z"/>
	<path class="st0" d="M653.6,825.1v-23.3h16.1V825c0.2,5.9,1.6,10,4.3,12.3s6.3,3.5,10.8,3.5c2.8,0,5.1-0.3,7.1-1
		c1.1-2.8,1.6-6.9,1.6-12.2v-25.8h16.1v22c0,4.1-2.2,8.2-6.7,12.4c-4.4,4.1-8.8,7.6-13.1,10.4c-4.3,2.8-7.6,4.2-9.9,4.2
		c-8.6,0-15.1-2.2-19.7-6.4C655.9,840.1,653.6,833.7,653.6,825.1z M692.3,783.9c-4.2,4.7-7.8,8.2-10.8,10.5
		c-3.8-4-7.3-7.5-10.6-10.5c4.3-4.1,7.8-7.7,10.6-10.8C685.2,776.6,688.8,780.2,692.3,783.9z"/>
	<path class="st0" d="M759.5,848.9h-17.3c-8.8,0-16.9,1.3-24,4l-0.5-0.4l5.2-16.8c3.1-0.8,5.3-1.4,6.5-1.6
		c-2.7-3.4-4.1-6.9-4.1-10.5c0-2.3,1.6-6.1,4.7-11.5s5.8-9,7.8-10.9c2.1-2,4.2-3,6.5-3c2.3,0,4.7,0.3,7.4,1s5.2,1,7.6,1
		c5.4,0,10.3-1.1,14.6-3.3l0.4,0.2c-2.1,9.2-3.6,14.4-4.7,15.6c-2,2.4-6.1,3.6-12.4,3.6c-1.8,0-4.6-0.3-8.3-1c-3.6-0.7-6.7-1-9.2-1
		c-2.5,0-4.8,0.6-7,1.8c3.1,4.1,6.3,7.5,9.4,10.1c3.1,2.6,6.8,4.8,11.2,6.7h12c5,0,8.9-0.5,11.9-1.5l0.7,0.4l-4.2,16
		C769.9,848.5,765.2,848.9,759.5,848.9z"/>
	<path class="st0" d="M824,825.1v-23.3h16.1V825c0.2,5.9,1.6,10,4.3,12.3s6.3,3.5,10.8,3.5c2.8,0,5.1-0.3,7.1-1
		c1.1-2.8,1.6-6.9,1.6-12.2v-25.8h16.1v22c0,4.1-2.2,8.2-6.7,12.4c-4.4,4.1-8.8,7.6-13.1,10.4c-4.3,2.8-7.6,4.2-9.9,4.2
		c-8.6,0-15.1-2.2-19.7-6.4C826.3,840.1,824,833.7,824,825.1z M862.2,866.3c-4.2,4.7-7.8,8.2-10.8,10.5c-3.8-4-7.3-7.5-10.6-10.5
		c4.3-4.1,7.8-7.7,10.6-10.8C855.2,859.1,858.8,862.7,862.2,866.3z"/>
	<path class="st0" d="M890.6,825.1v-23.3h16.1V825c0.2,5.9,1.6,10,4.3,12.3s6.3,3.5,10.8,3.5c2.8,0,5.1-0.3,7.1-1
		c1.1-2.8,1.6-6.9,1.6-12.2v-25.8h16.1v22c0,4.1-2.2,8.2-6.7,12.4c-4.4,4.1-8.8,7.6-13.1,10.4c-4.3,2.8-7.6,4.2-9.9,4.2
		c-8.6,0-15.1-2.2-19.7-6.4C892.8,840.1,890.6,833.7,890.6,825.1z M916,866.3c-4.2,4.7-7.8,8.2-10.8,10.5c-3.8-4-7.3-7.5-10.5-10.5
		c4.3-4.1,7.8-7.7,10.5-10.8C908.9,859.1,912.5,862.7,916,866.3z M940.8,866.3c-4.2,4.7-7.8,8.2-10.8,10.5c-3.8-4-7.3-7.5-10.6-10.5
		c4.3-4.1,7.8-7.7,10.6-10.8C933.8,859.2,937.4,862.8,940.8,866.3z"/>
	<path class="st0" d="M957.1,825.1v-23.3h16.1V825c0.2,5.9,1.6,10,4.3,12.3s6.3,3.5,10.8,3.5c2.8,0,5.1-0.3,7.1-1
		c1.1-2.8,1.6-6.9,1.6-12.2v-25.8h16.1v22c0,4.1-2.2,8.2-6.7,12.4c-4.4,4.1-8.8,7.6-13.1,10.4c-4.3,2.8-7.6,4.2-9.9,4.2
		c-8.6,0-15.1-2.2-19.7-6.4C959.4,840.1,957.1,833.7,957.1,825.1z M995.3,866.3c-4.2,4.7-7.8,8.2-10.8,10.5
		c-3.8-4-7.3-7.5-10.6-10.5c4.3-4.1,7.8-7.7,10.6-10.8C988.2,859.1,991.8,862.7,995.3,866.3z"/>
	<path class="st0" d="M1041.8,850.8c-7.8,0-15.3-1.8-22.4-5.5l6.5-14.3c6.1,2.5,11.1,3.8,15.3,3.8s11.6-1.4,22.6-4.1l1.6-0.4
		c-2.3-3.5-4.3-6.3-6-8.2c-1.7-1.9-4.1-3.7-7.3-5.4c-3.2-1.6-7-2.5-11.4-2.5c-4.4,0-9.9,2.3-16.3,6.8l-0.7-0.4
		c5.6-11.2,11-18.1,16.2-20.6c2.7-1.3,5.5-1.9,8.4-1.9c2.9,0,5.8,0.4,8.5,1.3c15.7,0,27.3-0.4,34.9-1.3l-4.6,11.8
		c-3.9,0.4-9.3,0.8-16.3,1.1c2.2,3.3,4.3,7.3,6.4,12c2.1,4.7,3.4,7.4,4,8.3c1.9,1,6.4,3.2,13.5,6.6l-9.6,13
		c-5.5-3.6-9.6-6.9-12.1-9.9c-2.1,0.4-4,0.9-5.8,1.5c-1.8,0.6-5.6,2.1-11.3,4.7C1050.3,849.6,1045.5,850.8,1041.8,850.8z"/>
	<path class="st0" d="M1113.3,824.9v-52.3h16.1v40.8c0,6.1-3.7,14.2-11,24.3c-3.1,4.3-5.9,7.5-8.2,9.7c-2.3,2.2-4.8,3.3-7.4,3.3
		l-4.4-0.7l3.6-13c4.4,1.4,7.8,1.6,10.3,0.4C1113,833.8,1113.3,829.5,1113.3,824.9z"/>
	<path class="st0" d="M1154.8,848.9h-16.1v-71.2l-4.7-3.5l12.2-15.3c6.4,6.7,12.7,12.3,19,16.8c-4,4.4-7.5,9-10.3,13.6V848.9z"/>
	<path class="st0" d="M468.5,943.1v-23.3h16.1V943c0.2,5.9,1.6,10,4.3,12.3c2.7,2.4,6.3,3.5,10.8,3.5c2.8,0,5.1-0.3,7.1-1
		c1.1-2.8,1.6-6.9,1.6-12.2v-25.8h16.1v22c0,4.1-2.2,8.2-6.7,12.4c-4.4,4.1-8.8,7.6-13.1,10.4c-4.3,2.8-7.6,4.2-9.9,4.2
		c-8.6,0-15.1-2.2-19.7-6.4C470.8,958.1,468.5,951.7,468.5,943.1z M506.7,984.3c-4.2,4.7-7.8,8.2-10.8,10.5
		c-3.8-4-7.3-7.5-10.6-10.5c4.3-4.1,7.8-7.7,10.6-10.8C499.6,977.1,503.2,980.7,506.7,984.3z"/>
	<path class="st0" d="M570.5,968.8c-8.4,0-15.2-1.9-20.3-5.6c-7,3.7-13.7,5.6-20.1,5.6l6.2-17c2.3-0.2,4.1-0.3,5.3-0.5
		c-0.6-2-1-4.6-1-7.9s0.4-6,1.2-8.1c0.8-2.2,3.2-5.3,7.2-9.5s7-7.1,8.9-8.7c2.7-2.7,5.5-4.1,8.4-4.1c2.9,0,5.7,0.4,8.2,1.2V914
		c1.9-0.6,6-2.8,12.4-6.6l2.7-1.8l0.7,0.4c-2.1,5.4-3.8,9.8-5.3,13.2c3.5,2.7,6.2,5.9,8.1,9.7s2.9,7.3,2.9,10.5
		c0,3.2-0.3,6.1-0.9,8.9c-0.6,2.8-1.4,4.6-2.3,5.5c-3.5,3.1-7.6,6.4-12.4,9.8C575.8,967.1,572.4,968.8,570.5,968.8z M553.3,927.4
		c-0.9,9.2,0.1,16,3.1,20.5c2-0.7,5.4-2.1,10.4-4.1c1.3-4.6,2.7-9.5,4.1-14.9C566.8,927.2,560.9,926.7,553.3,927.4z M577.8,934.1
		c-2.7,5-5.1,8.9-7.2,11.7s-4.5,5.6-7.4,8.3c4.7,2.9,11.1,4,19,3.2c0.2-2.7,0.3-5.2,0.4-7.7s-0.2-5.1-1-8.1
		C580.8,938.6,579.6,936.1,577.8,934.1z"/>
	<path class="st0" d="M643,968.3c0-2.7,0-4.7-0.1-6.2c-6.1,4.5-10.2,6.7-12.3,6.7c-8.8,0-15.7-2.2-20.7-6.4c-5-4.3-7.6-9.8-7.6-16.6
		c0-3.6,0.3-6.3,1-8.2c0.7-1.9,2.6-4.6,5.8-8.1c3.2-3.5,6.4-6.6,9.6-9.5c2.5-2.5,5.2-3.8,8.1-3.9c8.2,0,15.1,2.9,20.8,8.6
		c5.7,5.7,8.5,13.1,8.5,22c0,9-2.9,18.5-8.8,28.4c-4,6.7-8,11.7-12.3,15c-4.2,3.3-7.7,4.9-10.4,4.9c-2.7,0-5.1-1.1-7.3-3.3
		c-2.2-2.2-3.3-4.4-3.3-6.5c0-0.8,0.3-1.3,0.8-1.3c5.8-0.8,10.7-1.9,14.7-3.3c4.1-1.4,8.5-3.5,13.3-6.2V968.3z M642.3,957.1l0.2-0.2
		c-0.7-9.1-3.4-16-8.1-20.7c-2.5-2.7-5.3-4.5-8.2-5.2s-6.8-1-11.8-0.8c-0.1,4.9,0.3,8.7,1.2,11.4c0.9,2.7,2.5,5.2,4.9,7.5
		C627.2,955.5,634.4,958.1,642.3,957.1z"/>
	<path class="st0" d="M703.8,943.1v-23.3h16.1V943c0.2,5.9,1.6,10,4.3,12.3s6.3,3.5,10.8,3.5c2.8,0,5.1-0.3,7.1-1
		c1.1-2.8,1.6-6.9,1.6-12.2v-25.8h16.1v22c0,4.1-2.2,8.2-6.7,12.4c-4.4,4.1-8.8,7.6-13.1,10.4c-4.3,2.8-7.6,4.2-9.9,4.2
		c-8.6,0-15.1-2.2-19.7-6.4C706.1,958.1,703.8,951.7,703.8,943.1z M731.1,901.9c-4.2,4.7-7.8,8.2-10.8,10.5
		c-3.8-4-7.3-7.5-10.5-10.5c4.3-4.1,7.8-7.7,10.5-10.8C724,894.6,727.6,898.2,731.1,901.9z M755.9,901.9c-4.2,4.7-7.8,8.2-10.8,10.5
		c-3.8-4-7.3-7.5-10.6-10.5c4.3-4.1,7.8-7.7,10.6-10.8C748.9,894.6,752.5,898.2,755.9,901.9z"/>
	<path class="st0" d="M770.4,943.1v-23.3h16.1V943c0.2,5.9,1.6,10,4.3,12.3s6.3,3.5,10.8,3.5c2.8,0,5.1-0.3,7.1-1
		c1.1-2.8,1.6-6.9,1.6-12.2v-25.8h16.1v22c0,4.1-2.2,8.2-6.7,12.4c-4.4,4.1-8.8,7.6-13.1,10.4c-4.3,2.8-7.6,4.2-9.9,4.2
		c-8.6,0-15.1-2.2-19.7-6.4C772.6,958.1,770.4,951.7,770.4,943.1z M809,901.9c-4.2,4.7-7.8,8.2-10.8,10.5c-3.8-4-7.3-7.5-10.6-10.5
		c4.3-4.1,7.8-7.7,10.6-10.8C802,894.6,805.6,898.2,809,901.9z"/>
	<path class="st0" d="M836.9,943.1v-23.3H853V943c0.2,5.9,1.6,10,4.3,12.3s6.3,3.5,10.8,3.5c2.8,0,5.1-0.3,7.1-1
		c1.1-2.8,1.6-6.9,1.6-12.2v-25.8H893v22c0,4.1-2.2,8.2-6.7,12.4c-4.4,4.1-8.8,7.6-13.1,10.4c-4.3,2.8-7.6,4.2-9.9,4.2
		c-8.6,0-15.1-2.2-19.7-6.4C839.1,958.1,836.9,951.7,836.9,943.1z M875.1,984.3c-4.2,4.7-7.8,8.2-10.8,10.5
		c-3.8-4-7.3-7.5-10.6-10.5c4.3-4.1,7.8-7.7,10.6-10.8C868,977.1,871.6,980.7,875.1,984.3z"/>
	<path class="st0" d="M967,968.8c-8.8,0-15.7-2.2-20.7-6.4c-5-4.3-7.6-9.8-7.6-16.6c0-3.6,0.3-6.3,1-8.2c0.7-1.9,2.6-4.6,5.8-8.1
		c3.2-3.5,6.4-6.6,9.6-9.5c2.5-2.5,5.2-3.8,8.1-3.9c8.1,0,14.8,2.7,20.1,8c5.3,5.3,7.9,11.4,7.9,18c0,2.4-0.3,4.9-0.9,7.4
		c-0.6,2.6-1.3,4.3-2.2,5.1c-3.1,2.9-6.9,6-11.5,9.3S968.8,968.8,967,968.8z M963.8,901.9c-4.2,4.7-7.8,8.2-10.8,10.5
		c-3.8-4-7.3-7.5-10.5-10.5c4.3-4.1,7.8-7.7,10.5-10.8C956.7,894.6,960.3,898.2,963.8,901.9z M950.9,930.1
		c-0.1,4.9,0.3,8.7,1.2,11.4c0.9,2.7,2.5,5.2,4.9,7.5c6.5,6.2,13.4,9,20.8,8.4c0-4.6-0.4-8.5-1.3-12c-0.9-3.4-2.7-6.5-5.4-9.2
		c-2.7-2.7-5.6-4.5-8.4-5.3C959.7,930.3,955.8,930,950.9,930.1z M988.6,901.9c-4.2,4.7-7.8,8.2-10.8,10.5c-3.8-4-7.3-7.5-10.6-10.5
		c4.3-4.1,7.8-7.7,10.6-10.8C981.5,894.6,985.1,898.2,988.6,901.9z"/>
	<path class="st0" d="M1001.1,943.1v-23.3h16.1V943c0.2,5.9,1.6,10,4.3,12.3s6.3,3.5,10.8,3.5c2.8,0,5.1-0.3,7.1-1
		c1.1-2.8,1.6-6.9,1.6-12.2v-25.8h16.1v22c0,4.1-2.2,8.2-6.7,12.4c-4.4,4.1-8.8,7.6-13.1,10.4c-4.3,2.8-7.6,4.2-9.9,4.2
		c-8.6,0-15.1-2.2-19.7-6.4C1003.3,958.1,1001.1,951.7,1001.1,943.1z M1039.8,901.9c-4.2,4.7-7.8,8.2-10.8,10.5
		c-3.8-4-7.3-7.5-10.6-10.5c4.3-4.1,7.8-7.7,10.6-10.8C1032.7,894.6,1036.3,898.2,1039.8,901.9z"/>
	<path class="st0" d="M1104.6,968.8c-12.1,0-20.5-3.8-25.2-11.4c-1.9,7.6-4.4,11.4-7.6,11.4c-4,0-7.9-0.7-11.6-2.1l6.1-15.6
		c2.8,1.9,5.9,2.1,9.1,0.6c0.5-1.5,0.8-2.6,1-3.3c-0.1-0.6-0.1-2-0.1-4.4s0.3-4.5,1-6.4c0.6-1.9,2.6-4.6,5.8-8.1
		c3.2-3.5,6.4-6.6,9.6-9.5c2.5-2.5,5.2-3.8,7.9-3.8c2.7,0,5.7,0.4,8.7,1.2c10.6,0,19.4-0.4,26.5-1.3l-3.8,11.8
		c-1.1,0.2-2.5,0.3-4.2,0.4c-1.7,0.1-2.8,0.2-3.4,0.3c2.8,4.2,4.2,8.7,4.2,13.5c0,2.4-0.3,4.9-0.9,7.4c-0.6,2.6-1.3,4.3-2.2,5.1
		c-3.1,2.9-6.9,6-11.5,9.3C1109.6,967.2,1106.4,968.8,1104.6,968.8z M1088.5,930.1c-0.1,4.9,0.3,8.7,1.2,11.4
		c0.9,2.7,2.5,5.2,4.9,7.5c6.5,6.2,13.4,9,20.7,8.4c0-4.6-0.4-8.5-1.3-12c-0.9-3.4-2.7-6.5-5.4-9.2c-2.7-2.7-5.6-4.5-8.4-5.3
		C1097.2,930.3,1093.3,930,1088.5,930.1z"/>
	<path class="st0" d="M1146,868.4c2.2,0,4.7,0.5,7.5,1.6l-2.2,9.4c-1.9-0.7-3.9-1.1-6-1.1s-4,0.6-5.7,1.9c3.1,2.3,6.7,3.7,11,4.1
		c0.7-0.1,1.9-0.2,3.6-0.3s2.9-0.2,3.7-0.3l-3.5,7.8c-3.5,0.4-5.9,0.7-7.1,0.9c-3.3,0.4-8.3,2.3-15.1,5.6l3.5-9.1l3.5-1.4
		c-1.1-0.7-2.3-2-3.7-3.9c1.7-7.2,3.2-11.6,4.7-13.1C1141.8,869.1,1143.7,868.4,1146,868.4z M1154.8,966.9h-16.1v-52.7l-4.7-3.5
		l12.2-15.3c6.4,6.7,12.7,12.3,19,16.8c-4,4.4-7.5,9-10.3,13.6V966.9z"/>
</g>
<rect y="563" class="st0" width="1165" height="11"/>
<rect y="1056" class="st0" width="1165" height="3"/>
</svg>
