<?xml version="1.0" encoding="utf-8"?>
<!-- Generator: Adobe Illustrator 22.0.0, SVG Export Plug-In . SVG Version: 6.00 Build 0)  -->
<svg version="1.1" id="Layer_1" xmlns="http://www.w3.org/2000/svg" xmlns:xlink="http://www.w3.org/1999/xlink" x="0px" y="0px"
	 viewBox="0 0 1165.1 1059" style="enable-background:new 0 0 1165.1 1059;" xml:space="preserve">
<style type="text/css">
	.st0{fill:#01796F;}
</style>
<rect y="563" class="st0" width="1165" height="11"/>
<rect y="1056" class="st0" width="1165" height="3"/>
<rect y="870" class="st0" width="1165" height="3"/>
<g>
	<path class="st0" d="M6,109.2c0-4.8,0.9-9.4,2.8-13.7c1.8-4.3,4.4-8,7.6-11.2c3.2-3.2,6.9-5.7,11.2-7.5c4.2-1.8,8.7-2.8,13.6-2.8
		s9.4,0.9,13.6,2.8c4.2,1.8,7.9,4.4,11.1,7.5c3.2,3.2,5.7,6.9,7.5,11.2c1.8,4.3,2.8,8.8,2.8,13.7s-0.9,9.4-2.8,13.7
		c-1.8,4.3-4.4,8-7.5,11.1c-3.2,3.1-6.9,5.6-11.1,7.4c-4.2,1.8-8.7,2.8-13.6,2.8s-9.4-0.9-13.6-2.8c-4.2-1.8-7.9-4.3-11.2-7.4
		c-3.2-3.1-5.8-6.8-7.6-11.1C6.9,118.6,6,114.1,6,109.2z M14.5,50.8l10.9-11.1l11.2,11.1L25.4,61.7L14.5,50.8z M19.8,109.2
		c0,3,0.6,5.8,1.7,8.3c1.2,2.5,2.7,4.8,4.6,6.7c1.9,2,4.2,3.5,6.7,4.6c2.6,1.1,5.3,1.6,8.2,1.6c2.9,0,5.6-0.5,8.2-1.6
		c2.6-1.1,4.8-2.6,6.7-4.6c1.9-2,3.4-4.2,4.6-6.7c1.2-2.5,1.7-5.3,1.7-8.3c0-2.9-0.6-5.6-1.7-8.2c-1.2-2.6-2.7-4.9-4.6-6.8
		c-1.9-2-4.2-3.5-6.7-4.6C46.7,88.5,44,88,41.1,88c-2.9,0-5.6,0.5-8.2,1.6c-2.6,1.1-4.8,2.6-6.7,4.6c-1.9,2-3.4,4.2-4.6,6.8
		C20.4,103.6,19.8,106.4,19.8,109.2z M45.1,50.8L56,39.7l11.2,11.1L56,61.7L45.1,50.8z"/>
	<path class="st0" d="M123.6,144.2c-7.6,0-13.8-0.7-18.6-2.1c-4.8-1.4-8.7-2.8-11.7-4.2V75.9h13.8v52.1c1.2,0.3,2.3,0.7,3.5,1
		c1.2,0.3,2.4,0.6,3.6,0.8c1.3,0.2,2.7,0.3,4.3,0.4c1.6,0.1,3.5,0.2,5.7,0.2c8.3,0,14.5-2.4,18.6-7.1c4.1-4.7,6.1-11.6,6.1-20.6
		c0-4.4-0.5-8.8-1.5-13.3c-1-4.5-1.9-8.4-2.9-11.6l13.5-3.6c1.4,5.2,2.5,10,3.4,14.4c0.9,4.4,1.3,9.2,1.3,14.4c0,5-0.7,9.9-2,14.9
		c-1.3,5-3.5,9.4-6.6,13.3c-3.1,3.9-7.1,7.1-12.1,9.5C137.2,143,131,144.2,123.6,144.2z M115.5,165.8l10.9-11.1l11.2,11.1
		l-11.2,10.9L115.5,165.8z"/>
	<path class="st0" d="M181.9,35.2h13.8v106.4h-13.8V35.2z"/>
	<path class="st0" d="M250.2,144.2c-7.6,0-13.8-0.7-18.6-2.1c-4.8-1.4-8.7-2.8-11.7-4.2V75.9h13.8v52.1c1.2,0.3,2.3,0.7,3.5,1
		c1.2,0.3,2.4,0.6,3.6,0.8c1.3,0.2,2.7,0.3,4.3,0.4c1.6,0.1,3.5,0.2,5.7,0.2c8.3,0,14.5-2.4,18.6-7.1c4.1-4.7,6.1-11.6,6.1-20.6
		c0-4.4-0.5-8.8-1.5-13.3c-1-4.5-1.9-8.4-2.9-11.6l13.5-3.6c1.4,5.2,2.5,10,3.4,14.4c0.9,4.4,1.3,9.2,1.3,14.4c0,5-0.7,9.9-2,14.9
		c-1.3,5-3.5,9.4-6.6,13.3c-3.1,3.9-7.1,7.1-12.1,9.5C263.8,143,257.6,144.2,250.2,144.2z M228.9,50.8l10.9-11.1l11.2,11.1
		l-11.2,10.9L228.9,50.8z M259.6,50.8l10.9-11.1l11.2,11.1l-11.2,10.9L259.6,50.8z"/>
	<path class="st0" d="M347.2,52.3c-4.4,1.9-8.5,4.2-12.3,6.8c-3.7,2.7-6.9,5.7-9.5,9.1c-2.6,3.4-4.2,7.1-4.8,11.2H391
		c5.1,0,9.9,0.8,14.4,2.2c4.6,1.5,8.6,3.7,12,6.7c3.5,2.9,6.2,6.6,8.2,10.9c2,4.3,3,9.4,3,15.1c0,3.6-0.6,7.2-1.8,10.7
		c-1.2,3.6-3,6.9-5.3,10.1c-2.3,3.2-5.1,6.1-8.3,8.6c-3.2,2.6-6.9,4.8-10.9,6.5c-2.3-1.6-4.5-3-6.5-4.1c-2-1.1-4.1-2-6.2-2.7
		c-2.1-0.7-4.4-1.2-6.8-1.5c-2.4-0.3-5.2-0.4-8.3-0.4h-71.3v-13.8h72.5c3,0,5.7,0.1,8.1,0.4c2.4,0.3,4.7,0.7,6.8,1.2
		c2.1,0.5,4.2,1.2,6.2,2c2,0.8,4.1,1.8,6.3,2.9c3.2-2.7,6-5.6,8.2-8.9c2.2-3.3,3.4-6.8,3.4-10.5c0-6.2-2-11.4-6-15.6
		c-4-4.2-9.8-6.2-17.6-6.2h-81.5c-1.2-2.5-2-4.8-2.5-6.8c-0.5-2-0.8-4.4-0.8-7c0-2.4,0.5-4.9,1.4-7.4c0.9-2.5,2.1-5,3.6-7.5
		c1.5-2.5,3.2-4.8,5-6.9c1.8-2.1,3.7-3.9,5.5-5.4c3.7-3,8.4-6.1,14.2-9.4c5.8-3.3,11.9-5.7,18.5-7.4l5.4,12.8
		C356,48.9,351.6,50.4,347.2,52.3z"/>
	<path class="st0" d="M437.4,141.6v-13.8h5.2c5.2,0,8.8-1.2,10.8-3.6c2-2.4,3-6.6,3-12.5V35.2h13.8v75.9c0,10.1-2.4,17.8-7.1,22.8
		c-4.7,5.1-11.6,7.6-20.6,7.6H437.4z"/>
	<path class="st0" d="M496.2,35.2H510v106.4h-13.8V35.2z"/>
	<path class="st0" d="M537.5,165.8c4.5-1.2,8.9-2.5,13.1-4c4.3-1.5,8.3-3.3,12-5.4c3.7-2.1,7.2-4.5,10.4-7.2c3.2-2.7,5.9-5.7,8-9.1
		c-2.7,1.3-5.4,2.2-8.2,2.9c-2.8,0.7-5.7,1-8.7,1c-4.8,0-9.4-0.9-13.6-2.8c-4.2-1.8-7.9-4.3-11.2-7.4c-3.2-3.1-5.8-6.8-7.6-11.1
		c-1.8-4.3-2.8-8.8-2.8-13.7s0.9-9.4,2.8-13.7c1.8-4.3,4.4-8,7.6-11.2c3.2-3.2,6.9-5.7,11.2-7.5c4.2-1.8,8.7-2.8,13.6-2.8
		c5.8,0,10.9,1.1,15.3,3.4c4.4,2.2,8.2,5.3,11.2,9.3c3.1,3.9,5.4,8.4,6.9,13.6c1.6,5.1,2.3,10.5,2.3,16.2c0,7.8-1.4,15.1-4.3,21.8
		c-2.9,6.7-6.9,12.7-12.1,17.9c-5.2,5.2-11.4,9.8-18.5,13.7c-7.2,3.9-14.9,6.9-23.4,9.3L537.5,165.8z M586.3,117.2
		c0-3.8-0.4-7.5-1.2-11c-0.8-3.5-2.1-6.6-3.8-9.3c-1.7-2.7-4-4.9-6.8-6.5c-2.8-1.6-6.3-2.4-10.3-2.4c-2.9,0-5.6,0.5-8.2,1.6
		c-2.6,1.1-4.8,2.6-6.7,4.6c-1.9,2-3.4,4.2-4.6,6.8c-1.2,2.6-1.7,5.3-1.7,8.2c0,3,0.6,5.8,1.7,8.3c1.2,2.5,2.7,4.8,4.6,6.7
		c1.9,2,4.2,3.5,6.7,4.6c2.6,1.1,5.3,1.6,8.2,1.6c4.3,0,8.1-0.3,11.5-1c3.4-0.6,6.7-1.8,9.9-3.4c0.2-1.4,0.4-2.8,0.5-4.3
		C586.2,120.4,586.3,118.8,586.3,117.2z"/>
	<path class="st0" d="M667.4,127.8h10.4V35.2h13.8v66.6c3.3-3.8,6.9-7.4,10.6-10.7c3.7-3.3,7.6-6.3,11.8-8.7c4.2-2.5,8.5-4.5,13.1-6
		c4.6-1.5,9.5-2.2,14.7-2.2c5.6,0,10.6,0.9,14.9,2.8c4.3,1.8,7.8,4.3,10.7,7.3c2.9,3,5,6.4,6.5,10.3c1.4,3.9,2.2,7.8,2.2,11.8
		c0,5.2-1.1,9.9-3.4,14.3c-2.2,4.3-5.5,8-9.8,11.2c-4.3,3.1-9.5,5.5-15.7,7.3c-6.2,1.7-13.4,2.6-21.4,2.6h-58.3V127.8z M741.1,88
		c-4.8,0-9.7,1-14.4,3.1c-4.8,2.1-9.3,4.7-13.7,8c-4.3,3.2-8.3,6.7-12,10.5c-3.7,3.7-6.8,7.2-9.3,10.5v7.8h33.7c4.5,0,9-0.3,13.4-1
		c4.4-0.6,8.4-1.8,11.8-3.5c3.5-1.7,6.3-3.9,8.4-6.7c2.1-2.8,3.2-6.3,3.2-10.6c0-2.2-0.4-4.4-1.2-6.6c-0.8-2.2-2.1-4.2-3.8-5.9
		c-1.7-1.7-3.9-3.1-6.6-4.2C747.9,88.5,744.8,88,741.1,88z"/>
	<path class="st0" d="M814.9,144.2c-5.5,0-10.7-0.5-15.6-1.5c-4.8-1-9.7-2.8-14.7-5.4l4.8-13.1c5.2,2.9,9.9,4.6,14.1,5.3
		c4.2,0.6,8,1,11.5,1c4.3,0,9-0.7,14.1-2.2c5.1-1.5,10.6-3,16.3-4.5c2-0.5,4.1-0.8,6.3-1.1c2.2-0.3,4.5-0.5,6.8-0.6
		c-0.8-1.2-1.6-2.4-2.5-3.6c-0.9-1.3-1.8-2.6-2.7-4c-3.5-5.3-6.6-9.7-9.5-13.1c-2.9-3.4-5.6-6.1-8.1-8c-2.5-2-5-3.3-7.3-4.1
		c-2.3-0.7-4.6-1.1-6.9-1.1c-2.4,0-4.6,0.2-6.5,0.6c-1.9,0.4-3.6,1-5.2,1.7c-1.6,0.8-3.1,1.6-4.5,2.7c-1.4,1-2.9,2.1-4.4,3.3
		l-9.3-10.2c5.2-4.6,10.3-7.8,15.2-9.4c5-1.7,10.7-2.5,17.3-2.5h48.1l-3.5,8.6h-19.4l-4.2-0.2c3.3,2.8,6.3,5.9,9,9.4
		c2.7,3.5,5.2,7.1,7.6,10.8c2.4,3.7,4.6,6.9,6.4,9.7c1.8,2.8,3.7,5.3,5.7,7.6c2,2.3,4,4.4,6.2,6.4c2.2,2,4.8,4,8,6.1l-7.6,11.6
		c-2-1.5-4-3.1-6.1-4.8c-2.1-1.7-4.3-3.7-6.6-6.1c-3.3,0.2-6.7,0.7-10.1,1.3c-3.4,0.6-6.9,1.5-10.6,2.7c-4.8,1.5-9.8,3-14.9,4.6
		C827.3,143.4,821.5,144.2,814.9,144.2z M811.5,50.8l10.9-11.1l11.2,11.1l-11.2,10.9L811.5,50.8z"/>
	<path class="st0" d="M895.2,141.6v-13.8h5.2c5.2,0,8.8-1.2,10.8-3.6c2-2.4,3-6.6,3-12.5V35.2H928v75.9c0,10.1-2.4,17.8-7.1,22.8
		c-4.7,5.1-11.6,7.6-20.6,7.6H895.2z"/>
	<path class="st0" d="M954,35.2h13.8v106.4H954V35.2z"/>
	<path class="st0" d="M1065.5,112.5c0,5.8,1.8,10.2,5.4,13.2c3.6,3.1,8.4,4.6,14.5,4.6c6.1,0,11-1.5,14.5-4.5
		c3.6-3,5.4-7.4,5.4-13.3V75.9h13.8V112c0,4.7-0.8,9.1-2.4,13.1c-1.6,4-3.9,7.4-6.9,10.2c-3,2.8-6.6,5-10.7,6.6
		c-4.2,1.6-8.7,2.3-13.7,2.3c-4.8,0-9.3-0.7-13.4-2.2c-4.1-1.4-7.7-3.5-10.7-6.3c-3.1-2.8-5.4-6.1-7.1-10.1c-1.7-4-2.5-8.5-2.5-13.6
		V75.9h13.8V112.5z M1074.5,50.8l10.9-11.1l11.2,11.1l-11.2,10.9L1074.5,50.8z"/>
	<path class="st0" d="M1133.7,178.3l5.4-1.7c-1-1.3-1.9-2.6-2.5-4c-0.6-1.4-1-3.1-1-5c0-4,1.5-7.6,4.4-10.6c2.9-3,6.8-4.5,11.7-4.5
		c1.6,0,3.3,0.2,4.9,0.6c1.7,0.4,3.7,1.1,6,2l-3.1,8.1c-1-0.3-2.1-0.6-3.1-0.9c-1-0.2-2.1-0.3-3.1-0.3c-2,0-3.8,0.5-5.6,1.4
		c-1.8,0.9-2.7,2.6-2.7,5c0,2.7,1.2,4.7,3.5,6.2c2.2-0.2,4.6-0.4,7.1-0.6c2.5-0.2,5.3-0.3,8.3-0.3l-0.9,8.6c-3.1,0-5.9,0.1-8.4,0.3
		c-2.5,0.2-4.8,0.4-7,0.8c-2.2,0.3-4.4,0.8-6.6,1.4c-2.2,0.6-4.6,1.3-7.1,2.1L1133.7,178.3z M1142.5,35.2h13.8v106.4h-13.8V35.2z"/>
	<path class="st0" d="M157.5,351.5c-5.4,0-10.4-0.6-15-1.8c-4.6-1.2-8.6-3-11.8-5.3c-3.3-2.3-5.9-5.1-7.7-8.4
		c-1.8-3.3-2.8-7-2.8-11.2c0-6.2,1.5-11.6,4.6-16.2c3.1-4.6,7.2-8.3,12.4-11.2c-3.7-3-6.7-6.5-9.2-10.5s-3.6-8.7-3.6-14.3
		s1.1-10.3,3.2-14.4c2.1-4,4.9-7.4,8.3-9.9c3.4-2.6,7.2-4.5,11.5-5.8c4.3-1.3,8.5-1.9,12.8-1.9c3.9,0,7.8,0.4,11.6,1.2
		c3.8,0.8,8.2,2,13.3,3.6l-4,13.5c-2.4-0.9-4.6-1.7-6.5-2.2c-1.9-0.6-3.6-1-5.2-1.4c-1.6-0.3-3.1-0.6-4.5-0.7
		c-1.4-0.1-3-0.2-4.6-0.2c-2.8,0-5.5,0.3-8.1,1c-2.7,0.6-5,1.7-7.1,3.1c-2.1,1.4-3.7,3.3-5,5.6c-1.3,2.3-1.9,5.1-1.9,8.3
		c0,4.3,1.1,8.1,3.4,11.5c2.2,3.4,5.2,6.3,8.7,8.6l25.6-6.2c2.7-0.6,5.2-1.3,7.7-2.2c2.5-0.9,4.8-1.9,6.8-3.2l3.3,13.3
		c-2,1.2-4.4,2.2-7.4,3.3c-2.9,1-5.7,1.9-8.4,2.6l-25.6,6.1c-2.2,0.6-4.4,1.3-6.6,2.1c-2.2,0.8-4.2,1.9-5.9,3.3
		c-1.7,1.4-3.1,3.1-4.2,5.1c-1.1,2-1.6,4.4-1.6,7.2c0,4.4,2.1,7.8,6.4,10.1c4.3,2.4,9.9,3.5,16.8,3.5c3.3,0,6.3-0.1,9-0.4
		c2.7-0.3,5.2-0.7,7.5-1.2c2.4-0.5,4.7-1.1,7.1-1.8c2.4-0.7,5-1.4,7.9-2.2l2.9,13.7c-5.1,1.7-10.2,3.1-15.5,4.2
		C170.9,350.9,164.7,351.5,157.5,351.5z"/>
	<path class="st0" d="M239.5,310.8c-7.6,0-13.8-0.7-18.6-2.1c-4.8-1.4-8.7-2.8-11.7-4.2v-62.1h13.8v52.1c1.2,0.3,2.3,0.7,3.5,1
		c1.2,0.3,2.4,0.6,3.6,0.8c1.3,0.2,2.7,0.3,4.3,0.4c1.6,0.1,3.5,0.2,5.7,0.2c8.3,0,14.5-2.4,18.6-7.1c4.1-4.7,6.1-11.6,6.1-20.6
		c0-4.4-0.5-8.8-1.5-13.3c-1-4.5-1.9-8.4-2.9-11.6l13.5-3.6c1.4,5.2,2.5,10,3.4,14.4c0.9,4.4,1.3,9.2,1.3,14.4c0,5-0.7,9.9-2,14.9
		c-1.3,5-3.5,9.4-6.6,13.3c-3.1,3.9-7.1,7.1-12.1,9.5C253.1,309.6,246.9,310.8,239.5,310.8z M227.7,216.7l6.6-2.1
		c-2.8-3-4.2-6.5-4.2-10.6c0-2.4,0.5-4.7,1.4-6.8c0.9-2.1,2.2-4,3.9-5.7c1.7-1.7,3.7-3,6-4c2.3-1,4.9-1.5,7.8-1.5
		c2,0,3.9,0.3,5.9,0.8c2,0.5,4.3,1.3,7.1,2.3l-3.6,9.7c-2.8-0.9-5.2-1.4-7.4-1.4c-2.3,0-4.5,0.5-6.7,1.6c-2.1,1.1-3.2,3.1-3.2,6
		c0,1.8,0.3,3.3,1,4.4c0.7,1.1,1.7,2,2.9,2.9c2.7-0.3,5.5-0.6,8.5-0.8c3-0.2,6.3-0.3,10-0.3l-1,10.4c-3.8,0-7.2,0.1-10.1,0.3
		c-2.9,0.2-5.7,0.5-8.3,1c-2.6,0.5-5.2,1-7.8,1.6c-2.6,0.6-5.4,1.5-8.4,2.5L227.7,216.7z"/>
	<path class="st0" d="M297.8,201.9h13.8v106.4h-13.8V201.9z"/>
	<path class="st0" d="M347.1,279.2c0,5.8,1.8,10.2,5.4,13.2c3.6,3.1,8.4,4.6,14.5,4.6c6.1,0,11-1.5,14.5-4.5c3.6-3,5.4-7.4,5.4-13.3
		v-36.7h13.8v36.1c0,4.7-0.8,9.1-2.4,13.1c-1.6,4-3.9,7.4-6.9,10.2c-3,2.8-6.6,5-10.7,6.6c-4.2,1.6-8.7,2.3-13.7,2.3
		c-4.8,0-9.3-0.7-13.4-2.2c-4.1-1.4-7.7-3.5-10.7-6.3c-3.1-2.8-5.4-6.1-7.1-10.1c-1.7-4-2.5-8.5-2.5-13.6v-36.1h13.8V279.2z
		 M356.1,217.4l10.9-11.1l11.2,11.1L367,228.3L356.1,217.4z"/>
	<path class="st0" d="M486.3,240.8c5.6,0,10.6,0.9,14.9,2.8c4.3,1.8,7.8,4.3,10.7,7.3c2.9,3,5,6.4,6.5,10.3
		c1.4,3.9,2.2,7.8,2.2,11.8c0,5.2-1.1,10.1-3.4,14.7c-2.2,4.6-5.5,8.6-9.8,12c-4.3,3.4-9.5,6.1-15.7,8.1c-6.2,2-13.4,3-21.4,3
		c-7.6,0-14.4-0.8-20.2-2.3c-5.9-1.6-11.3-3.6-16.3-6.1c-0.6,2.3-1.2,4.5-2,6.5c-0.8,2-1.5,3.8-2.2,5.4l-12.5-6.1
		c1.8-3.7,3.2-7.4,4-11.1c0.8-3.7,1.2-7.3,1.2-10.9v-43.8h13.8v25.9c3.3-3.8,6.9-7.4,10.6-10.7c3.7-3.3,7.6-6.3,11.8-8.7
		c4.2-2.5,8.5-4.5,13.1-6C476.2,241.5,481.1,240.8,486.3,240.8z M436.1,286.6c0,0.2,0,0.5-0.1,0.9c-0.1,0.3-0.1,0.7-0.1,1
		c4.4,2.7,9.3,4.7,14.8,6.2c5.5,1.5,11.8,2.2,19.1,2.2c4.5,0,9-0.5,13.4-1.4c4.4-0.9,8.4-2.4,11.8-4.3c3.5-2,6.3-4.5,8.4-7.5
		c2.1-3.1,3.2-6.7,3.2-11c0-2.2-0.4-4.4-1.2-6.6c-0.8-2.2-2.1-4.2-3.8-5.9c-1.7-1.7-3.9-3.1-6.6-4.2c-2.7-1-5.8-1.6-9.5-1.6
		c-4.8,0-9.7,1-14.4,3.1c-4.8,2.1-9.3,4.7-13.7,8c-4.3,3.2-8.3,6.7-12,10.5C441.8,279.9,438.7,283.4,436.1,286.6z"/>
	<path class="st0" d="M529.2,308.2v-13.8h5.2c5.2,0,8.8-1.2,10.8-3.6c2-2.4,3-6.6,3-12.5v-76.4h13.8v75.9c0,10.1-2.4,17.8-7.1,22.8
		c-4.7,5.1-11.6,7.6-20.6,7.6H529.2z"/>
	<path class="st0" d="M588,201.9h13.8v106.4H588V201.9z"/>
	<path class="st0" d="M674.5,294.4h47l-10.2-54.3l13.5-3.6l12.6,69.4l-1.9,2.4h-61.1V294.4z"/>
	<path class="st0" d="M758.2,201.9H772v106.4h-13.8V201.9z"/>
	<path class="st0" d="M784.1,294.4h47L821,240.1l13.5-3.6l12.6,69.4l-1.9,2.4h-61.1V294.4z"/>
	<path class="st0" d="M890.7,308.2c-3.6,0-7.2,0.4-10.9,1.2c-3.7,0.8-7.4,2.1-11.1,4l-6.1-12.5c3.6-1.7,8.4-3.3,14.4-4.8
		c-3.2-3-5.9-6.4-8-10.1c-2.1-3.7-3.2-8.2-3.2-13.2c0-5.5,1.1-10.3,3.2-14.4c2.1-4,4.9-7.4,8.3-9.9c3.4-2.6,7.2-4.5,11.5-5.8
		c4.3-1.3,8.5-1.9,12.8-1.9c4.6,0,9.3,0.6,13.9,1.8c4.7,1.2,9.8,2.7,15.3,4.4l-4,13.5c-5.3-2-9.8-3.4-13.6-4.4
		c-3.7-1-7.6-1.5-11.5-1.5c-2.8,0-5.5,0.3-8.1,1c-2.7,0.6-5,1.7-7.1,3.1c-2.1,1.4-3.7,3.3-5,5.6c-1.3,2.3-1.9,5.1-1.9,8.3
		c0,4.8,1.4,9.1,4.2,12.8c2.8,3.7,6.3,6.7,10.7,9h23.7c2.8,0,5.4-0.1,8-0.4c2.6-0.3,5-0.8,7.4-1.5v13.8c-2.2,0.6-4.8,1-8,1.4
		c-3.1,0.3-6,0.5-8.6,0.5H890.7z"/>
	<path class="st0" d="M1022.7,279.2c0,5.8,1.8,10.2,5.4,13.2c3.6,3.1,8.4,4.6,14.5,4.6c6.1,0,11-1.5,14.5-4.5
		c3.6-3,5.4-7.4,5.4-13.3v-36.7h13.8v36.1c0,4.7-0.8,9.1-2.4,13.1c-1.6,4-3.9,7.4-6.9,10.2c-3,2.8-6.6,5-10.7,6.6
		c-4.2,1.6-8.7,2.3-13.7,2.3c-4.8,0-9.3-0.7-13.4-2.2c-4.1-1.4-7.7-3.5-10.7-6.3c-3.1-2.8-5.4-6.1-7.1-10.1c-1.7-4-2.5-8.5-2.5-13.6
		v-36.1h13.8V279.2z M1031.6,217.4l10.9-11.1l11.2,11.1l-11.2,10.9L1031.6,217.4z"/>
	<path class="st0" d="M1089.2,303l18.9-6.7c-2-1.2-3.7-2.4-5.4-3.8c-1.6-1.4-3-3-4.2-4.8c-1.2-1.8-2-4-2.7-6.5c-0.6-2.5-1-5.4-1-8.7
		c0-4.3,0.9-8.3,2.7-12.2c1.8-3.9,4.2-7.2,7.4-10.1c3.1-2.9,6.8-5.2,11.1-6.8c4.3-1.7,8.9-2.5,14-2.5c4.8,0,9.4,0.9,13.6,2.8
		c4.2,1.8,7.9,4.4,11.1,7.5c3.2,3.2,5.7,6.9,7.5,11.2c1.8,4.3,2.8,8.8,2.8,13.7c0,4.6-0.6,8.9-1.8,12.8c-1.2,3.9-2.9,7.6-5,10.9
		c-2.1,3.3-4.6,6.5-7.5,9.3c-2.9,2.9-5.9,5.5-9.2,8c-5.1-4.6-10-8.2-14.9-10.7c-4.8-2.5-9.3-4.8-13.3-6.9v9l-24,8.6V303z
		 M1108.8,272.4c0,3.7,0.9,6.6,2.8,8.6c1.8,2.1,4.3,3.9,7.4,5.5c3.1,1.6,6.5,3.3,10.4,5c3.9,1.7,7.8,4.1,11.8,7.1
		c3.2-3.3,5.7-6.9,7.5-10.8c1.8-3.9,2.7-7.9,2.7-12c0-2.8-0.6-5.4-1.7-8c-1.2-2.6-2.8-4.9-4.8-6.8c-2.1-2-4.5-3.5-7.2-4.7
		c-2.7-1.2-5.6-1.7-8.7-1.7c-2.8,0-5.4,0.4-7.8,1.3c-2.4,0.9-4.6,2.1-6.4,3.6c-1.8,1.6-3.3,3.4-4.3,5.6
		C1109.3,267.3,1108.8,269.8,1108.8,272.4z"/>
	<path class="st0" d="M535.4,442.5c0-4.8,0.9-9.4,2.8-13.7c1.8-4.3,4.4-8,7.6-11.2c3.2-3.2,6.9-5.7,11.2-7.5
		c4.2-1.8,8.7-2.8,13.6-2.8s9.4,0.9,13.6,2.8c4.2,1.8,7.9,4.4,11.1,7.5c3.2,3.2,5.7,6.9,7.5,11.2c1.8,4.3,2.8,8.8,2.8,13.7
		s-0.9,9.4-2.8,13.7c-1.8,4.3-4.4,8-7.5,11.1c-3.2,3.1-6.9,5.6-11.1,7.4c-4.2,1.8-8.7,2.8-13.6,2.8s-9.4-0.9-13.6-2.8
		c-4.2-1.8-7.9-4.3-11.2-7.4c-3.2-3.1-5.8-6.8-7.6-11.1C536.3,451.9,535.4,447.4,535.4,442.5z M543.9,384.1l10.9-11.1l11.2,11.1
		L554.8,395L543.9,384.1z M549.3,442.5c0,3,0.6,5.8,1.7,8.3c1.2,2.5,2.7,4.8,4.6,6.7c1.9,2,4.2,3.5,6.7,4.6c2.6,1.1,5.3,1.6,8.2,1.6
		c2.9,0,5.6-0.5,8.2-1.6c2.6-1.1,4.8-2.6,6.7-4.6c1.9-2,3.4-4.2,4.6-6.7c1.2-2.5,1.7-5.3,1.7-8.3c0-2.9-0.6-5.6-1.7-8.2
		c-1.2-2.6-2.7-4.9-4.6-6.8c-1.9-2-4.2-3.5-6.7-4.6c-2.6-1.1-5.3-1.6-8.2-1.6c-2.9,0-5.6,0.5-8.2,1.6c-2.6,1.1-4.8,2.6-6.7,4.6
		c-1.9,2-3.4,4.2-4.6,6.8C549.8,436.9,549.3,439.6,549.3,442.5z M574.5,384.1l10.9-11.1l11.2,11.1L585.4,395L574.5,384.1z"/>
	<path class="st0" d="M653,477.5c-7.6,0-13.8-0.7-18.6-2.1c-4.8-1.4-8.7-2.8-11.7-4.2v-62.1h13.8v52.1c1.2,0.3,2.3,0.7,3.5,1
		c1.2,0.3,2.4,0.6,3.6,0.8c1.3,0.2,2.7,0.3,4.3,0.4c1.6,0.1,3.5,0.2,5.7,0.2c8.3,0,14.5-2.4,18.6-7.1c4.1-4.7,6.1-11.6,6.1-20.6
		c0-4.4-0.5-8.8-1.5-13.3c-1-4.5-1.9-8.4-2.9-11.6l13.5-3.6c1.4,5.2,2.5,10,3.4,14.4c0.9,4.4,1.3,9.2,1.3,14.4c0,5-0.7,9.9-2,14.9
		c-1.3,5-3.5,9.4-6.6,13.3c-3.1,3.9-7.1,7.1-12.1,9.5C666.6,476.2,660.4,477.5,653,477.5z M629.2,499.1l10.9-11.1l11.2,11.1
		L640.1,510L629.2,499.1z M659.8,499.1l10.9-11.1l11.2,11.1L670.7,510L659.8,499.1z"/>
	<path class="st0" d="M722.6,445.8c0,5.8,1.8,10.2,5.4,13.2c3.6,3.1,8.4,4.6,14.5,4.6c6.1,0,11-1.5,14.5-4.5c3.6-3,5.4-7.4,5.4-13.3
		v-36.7h13.8v36.1c0,4.7-0.8,9.1-2.4,13.1c-1.6,4-3.9,7.4-6.9,10.2c-3,2.8-6.6,5-10.7,6.6c-4.2,1.6-8.7,2.3-13.7,2.3
		c-4.8,0-9.3-0.7-13.4-2.2c-4.1-1.4-7.7-3.5-10.7-6.3c-3.1-2.8-5.4-6.1-7.1-10.1c-1.7-4-2.5-8.5-2.5-13.6v-36.1h13.8V445.8z
		 M731.6,384.1l10.9-11.1l11.2,11.1L742.5,395L731.6,384.1z"/>
	<path class="st0" d="M797.8,368.5h13.8v106.4h-13.8V368.5z"/>
	<path class="st0" d="M830.7,474.9c1.8-3.7,3.2-7.4,4-11.1c0.8-3.7,1.2-7.3,1.2-10.9v-43.8h13.8v43.2c0,1.4-0.1,2.8-0.2,4.2
		c-0.1,1.4-0.3,2.8-0.5,4.3c2.7,1.3,5.2,2,7.8,2.3c2.5,0.3,5.1,0.4,7.6,0.4c8.3,0,14.2-2.4,17.7-7.1c3.5-4.7,5.3-11.6,5.3-20.6
		c0-4.4-0.5-8.8-1.5-13.3c-1-4.5-1.9-8.4-2.9-11.6l13.5-3.6c1.4,5.2,2.5,10,3.4,14.4c0.9,4.4,1.3,9.2,1.3,14.4c0,4-0.3,8-1,12
		c-0.7,4-1.9,7.8-3.6,11.3c3,1.5,5.9,2.6,8.6,3.2c2.8,0.6,5.6,1,8.5,1c8.3,0,14.2-2.4,17.7-7.1c3.5-4.7,5.3-11.6,5.3-20.6
		c0-4.4-0.5-8.8-1.5-13.3c-1-4.5-1.9-8.4-2.9-11.6l13.5-3.6c1.4,5.2,2.5,10,3.4,14.4c0.9,4.4,1.3,9.2,1.3,14.4c0,5-0.6,9.9-1.7,14.9
		c-1.2,5-3.1,9.4-6,13.3c-2.8,3.9-6.7,7.1-11.5,9.5s-11,3.6-18.3,3.6c-5.9,0-10.8-0.8-14.6-2.2c-3.9-1.5-7.3-3.2-10.3-5.2
		c-2.9,2.3-6.3,4.1-10.3,5.4c-4,1.3-8.7,2-14.1,2c-3.3,0-6.5-0.3-9.6-1c-3.1-0.7-5.8-1.6-8.2-2.6c-0.5,1.3-0.9,2.5-1.4,3.8
		c-0.5,1.3-0.9,2.4-1.4,3.3L830.7,474.9z"/>
	<path class="st0" d="M980.8,445.8c0,5.8,1.8,10.2,5.4,13.2c3.6,3.1,8.4,4.6,14.5,4.6c6.1,0,11-1.5,14.5-4.5c3.6-3,5.4-7.4,5.4-13.3
		v-36.7h13.8v36.1c0,4.7-0.8,9.1-2.4,13.1c-1.6,4-3.9,7.4-6.9,10.2c-3,2.8-6.6,5-10.7,6.6c-4.2,1.6-8.7,2.3-13.7,2.3
		c-4.8,0-9.3-0.7-13.4-2.2c-4.1-1.4-7.7-3.5-10.7-6.3c-3.1-2.8-5.4-6.1-7.1-10.1c-1.7-4-2.5-8.5-2.5-13.6v-36.1h13.8V445.8z
		 M989.8,384.1l10.9-11.1l11.2,11.1l-11.2,10.9L989.8,384.1z"/>
	<path class="st0" d="M1053.6,474.9l-3.5-9.9c6.7-3.8,13.3-8.5,19.8-14.1c6.5-5.6,12.4-11.7,17.6-18.2c-3.3-3.6-6.7-6.9-10.2-10.1
		c-3.5-3.2-6.3-6-8.6-8.6c-2.8-2.9-5.2-5.5-7.4-7.9c-2.1-2.4-4.2-4.8-6.3-7.4s-4.2-5.5-6.5-8.6c-2.2-3.2-4.9-7-8-11.5l11.4-7.8
		c2.4,4,4.8,7.7,7.2,11.1c2.4,3.3,4.7,6.5,7.1,9.3c2.4,2.9,4.7,5.6,7,8c2.3,2.5,4.6,4.9,6.9,7.4c2.7,2.8,5.3,5.4,7.9,7.9
		c2.6,2.5,5,4.9,7.4,7.4c3.3-5.5,6-11,8-16.5c2-5.5,2.9-10.9,2.9-16.2v-27.5h13.8v26.1c0,7.8-1.5,15.4-4.4,22.6
		c-2.9,7.2-6.8,14.2-11.7,20.8c4.4,5.2,7.9,10.8,10.5,16.8c2.6,6,3.9,13.3,3.9,21.8v5.2H1053.6z M1103.9,461c0-3.1-0.8-6.3-2.3-9.6
		c-1.6-3.3-3.6-6.5-6.1-9.8c-3.1,3.5-6.4,6.8-9.9,10c-3.5,3.2-7,6.3-10.7,9.3H1103.9z M1075.9,511.5l5.4-1.7c-1-1.3-1.9-2.6-2.5-4
		c-0.6-1.4-1-3.1-1-5c0-4,1.5-7.6,4.4-10.6c2.9-3,6.8-4.5,11.7-4.5c1.6,0,3.3,0.2,4.9,0.6c1.7,0.4,3.7,1.1,6,2l-3.1,8.1
		c-1-0.3-2.1-0.6-3.1-0.9c-1-0.2-2.1-0.3-3.1-0.3c-2,0-3.8,0.5-5.6,1.4c-1.8,0.9-2.7,2.6-2.7,5c0,2.7,1.2,4.7,3.5,6.2
		c2.2-0.2,4.6-0.4,7.1-0.6c2.5-0.2,5.3-0.3,8.3-0.3l-0.9,8.6c-3.1,0-5.9,0.1-8.4,0.3c-2.5,0.2-4.8,0.4-7,0.8
		c-2.2,0.3-4.4,0.8-6.6,1.4c-2.2,0.6-4.6,1.3-7.1,2.1L1075.9,511.5z"/>
	<path class="st0" d="M1142.5,368.5h13.8v106.4h-13.8V368.5z"/>
</g>
<g>
	<path class="st0" d="M113,660.1c0,3.4,1.1,6.1,3.2,7.9c2.1,1.8,5,2.7,8.7,2.7c3.6,0,6.5-0.9,8.7-2.7c2.1-1.8,3.2-4.4,3.2-7.9v-21.8
		h8.2v21.5c0,2.8-0.5,5.4-1.4,7.8c-1,2.4-2.3,4.4-4.1,6.1c-1.8,1.7-3.9,3-6.4,3.9c-2.5,0.9-5.2,1.4-8.1,1.4c-2.9,0-5.5-0.4-8-1.3
		c-2.4-0.9-4.6-2.1-6.4-3.8c-1.8-1.6-3.2-3.7-4.2-6c-1-2.4-1.5-5.1-1.5-8.1v-21.5h8.2V660.1z M118.3,623.3l6.5-6.6l6.7,6.6l-6.7,6.5
		L118.3,623.3z"/>
	<path class="st0" d="M172.4,677.4c-2.1,0-4.3,0.2-6.5,0.7c-2.2,0.5-4.4,1.3-6.6,2.4l-3.6-7.4c2.1-1,5-2,8.5-2.9
		c-1.9-1.8-3.5-3.8-4.8-6c-1.3-2.2-1.9-4.9-1.9-7.9c0-3.3,0.6-6.1,1.9-8.5c1.3-2.4,2.9-4.4,4.9-5.9c2-1.5,4.3-2.7,6.8-3.5
		c2.5-0.8,5.1-1.1,7.6-1.1c2.7,0,5.5,0.4,8.3,1.1c2.8,0.7,5.8,1.6,9.1,2.6l-2.4,8c-3.2-1.2-5.9-2-8.1-2.6c-2.2-0.6-4.5-0.9-6.8-0.9
		c-1.6,0-3.3,0.2-4.8,0.6c-1.6,0.4-3,1-4.2,1.9c-1.2,0.9-2.2,2-3,3.3c-0.8,1.4-1.1,3-1.1,4.9c0,2.9,0.8,5.4,2.5,7.6
		c1.6,2.2,3.8,4,6.4,5.4h14.1c1.6,0,3.2-0.1,4.8-0.3c1.5-0.2,3-0.5,4.4-0.9v8.2c-1.3,0.3-2.9,0.6-4.7,0.8c-1.9,0.2-3.6,0.3-5.1,0.3
		H172.4z"/>
	<path class="st0" d="M262.3,678.9c-4.5,0-8.2-0.4-11.1-1.2c-2.8-0.8-5.2-1.6-7-2.5v-37h8.2v31c0.7,0.2,1.4,0.4,2.1,0.6
		c0.7,0.2,1.4,0.4,2.2,0.5c0.8,0.1,1.6,0.2,2.6,0.3c1,0.1,2.1,0.1,3.4,0.1c4.9,0,8.6-1.4,11.1-4.2c2.4-2.8,3.7-6.9,3.7-12.3
		c0-2.6-0.3-5.3-0.9-7.9c-0.6-2.7-1.2-5-1.7-6.9l8-2.2c0.8,3.1,1.5,5.9,2,8.5c0.5,2.6,0.8,5.5,0.8,8.5c0,3-0.4,5.9-1.2,8.9
		c-0.8,3-2.1,5.6-3.9,7.9c-1.8,2.3-4.2,4.2-7.2,5.7S266.7,678.9,262.3,678.9z M257.5,691.8l6.5-6.6l6.7,6.6l-6.7,6.5L257.5,691.8z"
		/>
	<path class="st0" d="M315.1,678.9c-4.5,0-8.2-0.4-11.1-1.2c-2.8-0.8-5.2-1.6-7-2.5v-37h8.2v31c0.7,0.2,1.4,0.4,2.1,0.6
		c0.7,0.2,1.4,0.4,2.2,0.5c0.8,0.1,1.6,0.2,2.6,0.3c1,0.1,2.1,0.1,3.4,0.1c4.9,0,8.6-1.4,11.1-4.2c2.4-2.8,3.7-6.9,3.7-12.3
		c0-2.6-0.3-5.3-0.9-7.9c-0.6-2.7-1.2-5-1.7-6.9l8-2.2c0.8,3.1,1.5,5.9,2,8.5c0.5,2.6,0.8,5.5,0.8,8.5c0,3-0.4,5.9-1.2,8.9
		c-0.8,3-2.1,5.6-3.9,7.9c-1.8,2.3-4.2,4.2-7.2,5.7S319.5,678.9,315.1,678.9z M300.8,691.8l6.5-6.6l6.7,6.6l-6.7,6.5L300.8,691.8z
		 M319.1,691.8l6.5-6.6l6.7,6.6l-6.7,6.5L319.1,691.8z"/>
	<path class="st0" d="M367.8,678.9c-4.5,0-8.2-0.4-11.1-1.2c-2.8-0.8-5.2-1.6-7-2.5v-37h8.2v31c0.7,0.2,1.4,0.4,2.1,0.6
		c0.7,0.2,1.4,0.4,2.2,0.5c0.8,0.1,1.6,0.2,2.6,0.3c1,0.1,2.1,0.1,3.4,0.1c4.9,0,8.6-1.4,11.1-4.2c2.4-2.8,3.7-6.9,3.7-12.3
		c0-2.6-0.3-5.3-0.9-7.9c-0.6-2.7-1.2-5-1.7-6.9l8-2.2c0.8,3.1,1.5,5.9,2,8.5c0.5,2.6,0.8,5.5,0.8,8.5c0,3-0.4,5.9-1.2,8.9
		c-0.8,3-2.1,5.6-3.9,7.9c-1.8,2.3-4.2,4.2-7.2,5.7S372.2,678.9,367.8,678.9z M363,691.8l6.5-6.6l6.7,6.6l-6.7,6.5L363,691.8z"/>
	<path class="st0" d="M415.4,678.9c-3.3,0-6.4-0.3-9.3-0.9c-2.9-0.6-5.8-1.7-8.8-3.2l2.9-7.8c3.1,1.7,5.9,2.8,8.4,3.1
		c2.5,0.4,4.8,0.6,6.8,0.6c2.5,0,5.3-0.4,8.4-1.3c3.1-0.9,6.3-1.8,9.7-2.7c1.2-0.3,2.4-0.5,3.8-0.7s2.7-0.3,4.1-0.4
		c-0.5-0.7-1-1.4-1.5-2.2s-1-1.5-1.6-2.4c-2.1-3.2-3.9-5.8-5.7-7.8c-1.7-2-3.3-3.6-4.8-4.8c-1.5-1.2-3-2-4.3-2.4
		c-1.4-0.4-2.7-0.7-4.1-0.7c-1.4,0-2.7,0.1-3.9,0.4c-1.1,0.2-2.2,0.6-3.1,1c-0.9,0.4-1.8,1-2.7,1.6c-0.9,0.6-1.7,1.3-2.6,2l-5.6-6.1
		c3.1-2.7,6.1-4.6,9.1-5.6c3-1,6.4-1.5,10.3-1.5h28.6l-2.1,5.2H436l-2.5-0.1c2,1.6,3.8,3.5,5.4,5.6c1.6,2.1,3.1,4.2,4.5,6.4
		c1.4,2.2,2.7,4.1,3.8,5.8c1.1,1.6,2.2,3.2,3.4,4.5c1.2,1.4,2.4,2.6,3.7,3.8c1.3,1.2,2.9,2.4,4.7,3.6l-4.5,6.9
		c-1.2-0.9-2.4-1.8-3.6-2.8c-1.2-1-2.5-2.2-3.9-3.7c-2,0.1-4,0.4-6,0.8c-2,0.4-4.1,0.9-6.3,1.6c-2.9,0.9-5.8,1.8-8.9,2.7
		C422.8,678.5,419.3,678.9,415.4,678.9z"/>
	<path class="st0" d="M463.2,677.4v-8.2h3.1c3.1,0,5.2-0.7,6.4-2.2c1.2-1.4,1.8-3.9,1.8-7.4v-45.5h8.2v45.2c0,6-1.4,10.6-4.2,13.6
		c-2.8,3-6.9,4.5-12.3,4.5H463.2z"/>
	<path class="st0" d="M498.2,614.1h8.2v63.3h-8.2V614.1z"/>
	<path class="st0" d="M563.1,673c0,3.4,1.1,6.1,3.2,7.9c2.1,1.8,5,2.7,8.7,2.7c3.6,0,6.5-0.9,8.7-2.7c2.1-1.8,3.2-4.4,3.2-7.9v-58.9
		h8.2v58.6c0,2.8-0.5,5.4-1.4,7.8c-1,2.4-2.3,4.4-4.1,6.1c-1.8,1.7-3.9,3-6.4,3.9c-2.5,0.9-5.2,1.4-8.1,1.4c-2.9,0-5.5-0.4-8-1.3
		c-2.4-0.9-4.6-2.1-6.4-3.8c-1.8-1.6-3.2-3.7-4.2-6c-1-2.4-1.5-5.1-1.5-8.1v-22.6h8.2V673z"/>
	<path class="st0" d="M610.5,614.1h8.2v63.3h-8.2V614.1z"/>
	<path class="st0" d="M631.6,668.1c2.8,0.9,5.7,1.6,8.5,2.2c-0.4-0.8-0.8-1.4-1.3-2c-0.4-0.5-1-1.3-1.7-2.3
		c-1.4-1.8-2.4-3.7-3.2-5.6c-0.8-2-1.1-3.8-1.1-5.4c0-2.4,0.5-4.7,1.5-7c1-2.3,2.4-4.3,4.2-6c1.8-1.8,3.9-3.2,6.3-4.2
		c2.4-1.1,5.1-1.6,7.9-1.6c3,0,5.8,0.6,8.3,1.8c2.5,1.2,4.7,2.7,6.5,4.7s3.2,4.2,4.3,6.8c1,2.6,1.5,5.3,1.5,8.2
		c0,3.1-0.6,5.9-1.9,8.5s-3,4.8-5.3,6.7c-2.3,1.9-5,3.4-8.1,4.5c-3.1,1.1-6.6,1.6-10.4,1.6c-2.2,0-4.2-0.1-5.9-0.2
		c-1.7-0.1-3.3-0.3-4.7-0.6c-1.4-0.3-2.8-0.6-4.1-0.9c-1.3-0.3-2.7-0.7-4.1-1.1L631.6,668.1z M636.8,623.3l6.5-6.6l6.7,6.6l-6.7,6.5
		L636.8,623.3z M641.2,656.1c0,1.4,0.3,2.6,0.8,3.7c0.5,1.1,1.1,2.2,1.9,3.3c0.8,1.1,1.5,2.3,2.4,3.6c0.8,1.3,1.6,2.8,2.3,4.5h2.5
		c2.5,0,4.6-0.4,6.4-1.2c1.8-0.8,3.3-1.9,4.4-3.1c1.2-1.3,2-2.7,2.6-4.3c0.5-1.6,0.8-3.2,0.8-4.9c0-1.9-0.3-3.7-1-5.3
		c-0.7-1.6-1.6-3-2.7-4.2c-1.1-1.2-2.5-2.1-4-2.7c-1.5-0.7-3.1-1-4.7-1c-1.4,0-2.7,0.2-4.1,0.7c-1.4,0.4-2.6,1.1-3.7,2.1
		c-1.1,0.9-2,2.1-2.7,3.6C641.5,652.3,641.2,654,641.2,656.1z M655.1,623.3l6.5-6.6l6.7,6.6l-6.7,6.5L655.1,623.3z"/>
	<path class="st0" d="M720.8,614.1h8.2v63.3h-8.2V614.1z"/>
	<path class="st0" d="M736.2,669.2h28l-6.1-32.3l8-2.2l7.5,41.3l-1.1,1.4h-36.4V669.2z M755.9,623.3l6.5-6.6l6.7,6.6l-6.7,6.5
		L755.9,623.3z"/>
	<path class="st0" d="M785,614.1h8.2v63.3H785V614.1z"/>
	<path class="st0" d="M802.5,674.3l11.2-4c-1.2-0.7-2.2-1.4-3.2-2.3c-1-0.8-1.8-1.8-2.5-2.9c-0.7-1.1-1.2-2.4-1.6-3.9
		c-0.4-1.5-0.6-3.2-0.6-5.2c0-2.5,0.5-5,1.6-7.3c1.1-2.3,2.5-4.3,4.4-6c1.9-1.7,4.1-3.1,6.6-4.1c2.5-1,5.3-1.5,8.3-1.5
		c2.9,0,5.6,0.6,8.1,1.6c2.5,1.1,4.7,2.6,6.6,4.5c1.9,1.9,3.4,4.1,4.5,6.6c1.1,2.5,1.6,5.3,1.6,8.1c0,2.7-0.4,5.3-1.1,7.6
		c-0.7,2.3-1.7,4.5-3,6.5c-1.3,2-2.8,3.8-4.5,5.6c-1.7,1.7-3.5,3.3-5.5,4.7c-3-2.7-6-4.9-8.9-6.4c-2.9-1.5-5.5-2.9-7.9-4.1v5.4
		l-14.3,5.2V674.3z M814.2,656.1c0,2.2,0.5,3.9,1.6,5.1c1.1,1.2,2.6,2.3,4.4,3.3c1.8,1,3.9,2,6.2,3c2.3,1,4.7,2.4,7.1,4.2
		c1.9-2,3.4-4.1,4.5-6.4c1.1-2.3,1.6-4.7,1.6-7.2c0-1.6-0.3-3.2-1-4.8c-0.7-1.5-1.6-2.9-2.9-4.1c-1.2-1.2-2.7-2.1-4.3-2.8
		c-1.6-0.7-3.3-1-5.2-1c-1.6,0-3.2,0.3-4.6,0.8c-1.4,0.5-2.7,1.2-3.8,2.2c-1.1,0.9-2,2-2.6,3.3S814.2,654.5,814.2,656.1z"/>
	<path class="st0" d="M895,614.1h8.2v63.3H895V614.1z"/>
	<path class="st0" d="M920.7,691.8c2.7-0.7,5.3-1.5,7.8-2.4c2.5-0.9,4.9-2,7.2-3.2c2.2-1.2,4.3-2.7,6.2-4.3c1.9-1.6,3.5-3.4,4.8-5.4
		c-1.6,0.8-3.2,1.3-4.9,1.8c-1.7,0.4-3.4,0.6-5.2,0.6c-2.9,0-5.6-0.6-8.1-1.6c-2.5-1.1-4.7-2.6-6.6-4.4c-1.9-1.9-3.4-4.1-4.5-6.6
		c-1.1-2.5-1.6-5.3-1.6-8.1c0-2.9,0.5-5.6,1.6-8.1c1.1-2.5,2.6-4.8,4.5-6.6c1.9-1.9,4.1-3.4,6.6-4.5c2.5-1.1,5.2-1.6,8.1-1.6
		c3.4,0,6.5,0.7,9.1,2c2.6,1.3,4.9,3.2,6.7,5.5c1.8,2.3,3.2,5,4.1,8.1c0.9,3.1,1.4,6.3,1.4,9.6c0,4.7-0.9,9-2.6,13
		c-1.7,4-4.1,7.5-7.2,10.7c-3.1,3.1-6.8,5.8-11,8.1c-4.3,2.3-8.9,4.1-13.9,5.5L920.7,691.8z M949.7,662.9c0-2.3-0.2-4.4-0.7-6.5
		c-0.5-2.1-1.2-3.9-2.3-5.6c-1-1.6-2.4-2.9-4.1-3.9c-1.7-1-3.7-1.4-6.1-1.4c-1.7,0-3.3,0.3-4.9,1c-1.5,0.7-2.9,1.6-4,2.7
		c-1.1,1.2-2,2.5-2.7,4.1c-0.7,1.5-1,3.2-1,4.9c0,1.8,0.3,3.4,1,4.9c0.7,1.5,1.6,2.8,2.7,4c1.1,1.2,2.5,2.1,4,2.7
		c1.5,0.7,3.2,1,4.9,1c2.5,0,4.8-0.2,6.8-0.6c2-0.4,4-1,5.9-2c0.1-0.8,0.2-1.7,0.3-2.6C949.7,664.8,949.7,663.8,949.7,662.9z"/>
	<path class="st0" d="M983.8,677.4c-2.1,0-4.3,0.2-6.5,0.7c-2.2,0.5-4.4,1.3-6.6,2.4l-3.6-7.4c2.1-1,5-2,8.5-2.9
		c-1.9-1.8-3.5-3.8-4.8-6c-1.3-2.2-1.9-4.9-1.9-7.9c0-3.3,0.6-6.1,1.9-8.5c1.3-2.4,2.9-4.4,4.9-5.9c2-1.5,4.3-2.7,6.8-3.5
		c2.5-0.8,5.1-1.1,7.6-1.1c2.7,0,5.5,0.4,8.3,1.1c2.8,0.7,5.8,1.6,9.1,2.6l-2.4,8c-3.2-1.2-5.9-2-8.1-2.6c-2.2-0.6-4.5-0.9-6.8-0.9
		c-1.6,0-3.3,0.2-4.8,0.6c-1.6,0.4-3,1-4.2,1.9c-1.2,0.9-2.2,2-3,3.3c-0.8,1.4-1.1,3-1.1,4.9c0,2.9,0.8,5.4,2.5,7.6
		c1.6,2.2,3.8,4,6.4,5.4h14.1c1.6,0,3.2-0.1,4.8-0.3c1.5-0.2,3-0.5,4.4-0.9v8.2c-1.3,0.3-2.9,0.6-4.7,0.8c-1.9,0.2-3.6,0.3-5.1,0.3
		H983.8z"/>
	<path class="st0" d="M1016.6,674.3l11.2-4c-1.2-0.7-2.2-1.4-3.2-2.3c-1-0.8-1.8-1.8-2.5-2.9c-0.7-1.1-1.2-2.4-1.6-3.9
		c-0.4-1.5-0.6-3.2-0.6-5.2c0-2.5,0.5-5,1.6-7.3c1.1-2.3,2.5-4.3,4.4-6c1.9-1.7,4.1-3.1,6.6-4.1c2.5-1,5.3-1.5,8.3-1.5
		c2.9,0,5.6,0.6,8.1,1.6c2.5,1.1,4.7,2.6,6.6,4.5c1.9,1.9,3.4,4.1,4.5,6.6c1.1,2.5,1.6,5.3,1.6,8.1c0,2.7-0.4,5.3-1.1,7.6
		c-0.7,2.3-1.7,4.5-3,6.5c-1.3,2-2.8,3.8-4.5,5.6c-1.7,1.7-3.5,3.3-5.5,4.7c-3-2.7-6-4.9-8.9-6.4c-2.9-1.5-5.5-2.9-7.9-4.1v5.4
		l-14.3,5.2V674.3z M1028.2,656.1c0,2.2,0.5,3.9,1.6,5.1c1.1,1.2,2.6,2.3,4.4,3.3c1.8,1,3.9,2,6.2,3c2.3,1,4.7,2.4,7.1,4.2
		c1.9-2,3.4-4.1,4.5-6.4c1.1-2.3,1.6-4.7,1.6-7.2c0-1.6-0.3-3.2-1-4.8c-0.7-1.5-1.6-2.9-2.9-4.1c-1.2-1.2-2.7-2.1-4.3-2.8
		c-1.6-0.7-3.3-1-5.2-1c-1.6,0-3.2,0.3-4.6,0.8c-1.4,0.5-2.7,1.2-3.8,2.2c-1.1,0.9-2,2-2.6,3.3S1028.2,654.5,1028.2,656.1z"/>
	<path class="st0" d="M1068.9,677.4c1.1-2.2,1.9-4.4,2.4-6.6c0.5-2.2,0.7-4.4,0.7-6.5v-26.1h8.2V664c0,0.8,0,1.6-0.1,2.5
		c-0.1,0.8-0.2,1.7-0.3,2.6c1.6,0.8,3.1,1.2,4.6,1.4c1.5,0.2,3,0.3,4.5,0.3c4.9,0,8.5-1.4,10.6-4.2c2.1-2.8,3.1-6.9,3.1-12.3
		c0-2.6-0.3-5.3-0.9-7.9c-0.6-2.7-1.2-5-1.7-6.9l8-2.2c0.8,3.1,1.5,5.9,2,8.5c0.5,2.6,0.8,5.5,0.8,8.5c0,2.4-0.2,4.8-0.6,7.2
		s-1.1,4.6-2.2,6.7c1.8,0.9,3.5,1.5,5.1,1.9c1.6,0.4,3.3,0.6,5,0.6c4.9,0,8.5-1.4,10.6-4.2c2.1-2.8,3.1-6.9,3.1-12.3
		c0-2.6-0.3-5.3-0.9-7.9c-0.6-2.7-1.2-5-1.7-6.9l8-2.2c0.8,3.1,1.5,5.9,2,8.5c0.5,2.6,0.8,5.5,0.8,8.5c0,3-0.3,5.9-1,8.9
		c-0.7,3-1.9,5.6-3.6,7.9c-1.7,2.3-4,4.2-6.8,5.7c-2.9,1.4-6.5,2.2-10.9,2.2c-3.5,0-6.4-0.4-8.7-1.3c-2.3-0.9-4.3-1.9-6.1-3.1
		c-1.7,1.4-3.8,2.5-6.1,3.2s-5.2,1.2-8.4,1.2c-2,0-3.9-0.2-5.7-0.6c-1.8-0.4-3.5-0.9-4.9-1.5c-0.3,0.8-0.5,1.5-0.8,2.3
		c-0.3,0.8-0.6,1.4-0.8,2L1068.9,677.4z"/>
	<path class="st0" d="M1152.6,614.1h8.2v63.3h-8.2V614.1z"/>
	<path class="st0" d="M179.8,792.9c-4.5,0-8.2-0.4-11.1-1.2c-2.8-0.8-5.2-1.6-7-2.5v-37h8.2v31c0.7,0.2,1.4,0.4,2.1,0.6
		c0.7,0.2,1.4,0.4,2.2,0.5c0.8,0.1,1.6,0.2,2.6,0.3c1,0.1,2.1,0.1,3.4,0.1c4.9,0,8.6-1.4,11.1-4.2c2.4-2.8,3.7-6.9,3.7-12.3
		c0-2.6-0.3-5.3-0.9-7.9c-0.6-2.7-1.2-5-1.7-6.9l8-2.2c0.8,3.1,1.5,5.9,2,8.5c0.5,2.6,0.8,5.5,0.8,8.5c0,3-0.4,5.9-1.2,8.9
		c-0.8,3-2.1,5.6-3.9,7.9c-1.8,2.3-4.2,4.2-7.2,5.7S184.2,792.9,179.8,792.9z M175,805.8l6.5-6.6l6.7,6.6l-6.7,6.5L175,805.8z"/>
	<path class="st0" d="M247,749c1.9,1,3.7,2.1,5.3,3.6c1.6,1.4,3,3,4.2,4.8c1.2,1.8,2.1,3.8,2.7,5.9c0.7,2.1,1,4.3,1,6.5
		c0,3.2-0.6,6.2-1.9,9c-1.2,2.8-2.9,5.2-5,7.4c-2.1,2.1-4.5,3.8-7.4,5c-2.8,1.2-5.8,1.8-9,1.8c-4.3,0-8.3-1.1-11.9-3.4
		c-1.7,1.2-3.6,2.2-5.7,3.2c-2.1,1-4.3,2-6.8,2.9l-3.2-7.5c3.1-1.2,6.2-2.7,9.3-4.3c-1.5-2-2.7-4.2-3.6-6.6
		c-0.9-2.4-1.3-4.9-1.3-7.5c0-3.2,0.6-6.1,1.9-9c1.2-2.8,2.9-5.3,5-7.4c2.1-2.1,4.5-3.8,7.4-5c2.8-1.2,5.8-1.9,9-1.9
		c1.2,0,2.4,0.1,3.6,0.3l5.3-6.6l2.4,1L247,749z M221.8,769.9c0,1.9,0.3,3.7,0.9,5.5c0.6,1.7,1.5,3.3,2.7,4.6
		c1.3-1.2,2.5-2.5,3.7-3.9c1.1-1.4,2.1-2.8,2.8-4.2c0.8-1.5,1.6-2.9,2.2-4.2c0.7-1.3,1.3-2.6,1.8-4c0.5-1.3,1.1-2.7,1.5-4.2
		c0.5-1.4,1-3.1,1.5-4.8c-0.3-0.1-0.7-0.1-1.1-0.1c-0.4,0-0.7,0-1.1,0c-2.1,0-4,0.4-5.8,1.2c-1.8,0.8-3.4,1.9-4.8,3.3
		c-1.4,1.4-2.5,3-3.2,4.9C222.2,765.9,221.8,767.8,221.8,769.9z M252,769.9c0-2.6-0.6-5.1-1.9-7.4c-1.2-2.3-2.9-4.2-4.9-5.6
		c-1,4-2.1,7.6-3.3,10.8c-1.2,3.2-2.6,6.1-4.2,8.7c-1.8,2.9-3.9,5.5-6.3,7.9c1.3,0.6,3.1,0.8,5.5,0.8c2.1,0,4-0.4,5.9-1.2
		c1.9-0.8,3.5-1.9,4.8-3.3c1.4-1.4,2.5-3,3.2-4.9C251.6,773.9,252,771.9,252,769.9z"/>
	<path class="st0" d="M271.4,805.8c2.7-0.7,5.3-1.5,7.8-2.4c2.5-0.9,4.9-2,7.2-3.2c2.2-1.2,4.3-2.7,6.2-4.3c1.9-1.6,3.5-3.4,4.8-5.4
		c-1.6,0.8-3.2,1.3-4.9,1.8c-1.7,0.4-3.4,0.6-5.2,0.6c-2.9,0-5.6-0.6-8.1-1.6c-2.5-1.1-4.7-2.6-6.6-4.4c-1.9-1.9-3.4-4.1-4.5-6.6
		c-1.1-2.5-1.6-5.3-1.6-8.1c0-2.9,0.5-5.6,1.6-8.1c1.1-2.5,2.6-4.8,4.5-6.6c1.9-1.9,4.1-3.4,6.6-4.5c2.5-1.1,5.2-1.6,8.1-1.6
		c3.4,0,6.5,0.7,9.1,2c2.6,1.3,4.9,3.2,6.7,5.5c1.8,2.3,3.2,5,4.1,8.1c0.9,3.1,1.4,6.3,1.4,9.6c0,4.7-0.9,9-2.6,13
		c-1.7,4-4.1,7.5-7.2,10.7c-3.1,3.1-6.8,5.8-11,8.1c-4.3,2.3-8.9,4.1-13.9,5.5L271.4,805.8z M300.4,776.9c0-2.3-0.2-4.4-0.7-6.5
		c-0.5-2.1-1.2-3.9-2.3-5.6c-1-1.6-2.4-2.9-4.1-3.9c-1.7-1-3.7-1.4-6.1-1.4c-1.7,0-3.3,0.3-4.9,1c-1.5,0.7-2.9,1.6-4,2.7
		c-1.1,1.2-2,2.5-2.7,4.1c-0.7,1.5-1,3.2-1,4.9c0,1.8,0.3,3.4,1,4.9c0.7,1.5,1.6,2.8,2.7,4c1.1,1.2,2.5,2.1,4,2.7
		c1.5,0.7,3.2,1,4.9,1c2.5,0,4.8-0.2,6.8-0.6c2-0.4,4-1,5.9-2c0.1-0.8,0.2-1.7,0.3-2.6C300.4,778.8,300.4,777.8,300.4,776.9z"/>
	<path class="st0" d="M372.9,792.9c-4.5,0-8.2-0.4-11.1-1.2c-2.8-0.8-5.2-1.6-7-2.5v-37h8.2v31c0.7,0.2,1.4,0.4,2.1,0.6
		c0.7,0.2,1.4,0.4,2.2,0.5c0.8,0.1,1.6,0.2,2.6,0.3c1,0.1,2.1,0.1,3.4,0.1c4.9,0,8.6-1.4,11.1-4.2c2.4-2.8,3.7-6.9,3.7-12.3
		c0-2.6-0.3-5.3-0.9-7.9c-0.6-2.7-1.2-5-1.7-6.9l8-2.2c0.8,3.1,1.5,5.9,2,8.5c0.5,2.6,0.8,5.5,0.8,8.5c0,3-0.4,5.9-1.2,8.9
		c-0.8,3-2.1,5.6-3.9,7.9c-1.8,2.3-4.2,4.2-7.2,5.7S377.3,792.9,372.9,792.9z M360.3,737.3l6.5-6.6l6.7,6.6l-6.7,6.5L360.3,737.3z
		 M378.5,737.3l6.5-6.6l6.7,6.6l-6.7,6.5L378.5,737.3z"/>
	<path class="st0" d="M414.3,774.1c0,3.4,1.1,6.1,3.2,7.9c2.1,1.8,5,2.7,8.7,2.7c3.6,0,6.5-0.9,8.7-2.7c2.1-1.8,3.2-4.4,3.2-7.9
		v-21.8h8.2v21.5c0,2.8-0.5,5.4-1.4,7.8c-1,2.4-2.3,4.4-4.1,6.1c-1.8,1.7-3.9,3-6.4,3.9c-2.5,0.9-5.2,1.4-8.1,1.4
		c-2.9,0-5.5-0.4-8-1.3c-2.4-0.9-4.6-2.1-6.4-3.8c-1.8-1.6-3.2-3.7-4.2-6c-1-2.4-1.5-5.1-1.5-8.1v-21.5h8.2V774.1z M419.7,737.3
		l6.5-6.6l6.7,6.6l-6.7,6.5L419.7,737.3z"/>
	<path class="st0" d="M477.2,792.9c-4.5,0-8.2-0.4-11.1-1.2c-2.8-0.8-5.2-1.6-7-2.5v-37h8.2v31c0.7,0.2,1.4,0.4,2.1,0.6
		c0.7,0.2,1.4,0.4,2.2,0.5c0.8,0.1,1.6,0.2,2.6,0.3c1,0.1,2.1,0.1,3.4,0.1c4.9,0,8.6-1.4,11.1-4.2c2.4-2.8,3.7-6.9,3.7-12.3
		c0-2.6-0.3-5.3-0.9-7.9c-0.6-2.7-1.2-5-1.7-6.9l8-2.2c0.8,3.1,1.5,5.9,2,8.5c0.5,2.6,0.8,5.5,0.8,8.5c0,3-0.4,5.9-1.2,8.9
		c-0.8,3-2.1,5.6-3.9,7.9c-1.8,2.3-4.2,4.2-7.2,5.7S481.6,792.9,477.2,792.9z M472.3,805.8l6.5-6.6l6.7,6.6l-6.7,6.5L472.3,805.8z"
		/>
	<path class="st0" d="M543.8,772.1c0-2.9,0.5-5.6,1.6-8.1c1.1-2.5,2.6-4.8,4.5-6.6c1.9-1.9,4.1-3.4,6.6-4.5c2.5-1.1,5.2-1.6,8.1-1.6
		s5.6,0.6,8.1,1.6c2.5,1.1,4.7,2.6,6.6,4.5c1.9,1.9,3.4,4.1,4.5,6.6c1.1,2.5,1.6,5.3,1.6,8.1c0,2.9-0.5,5.6-1.6,8.1
		c-1.1,2.5-2.6,4.7-4.5,6.6c-1.9,1.9-4.1,3.3-6.6,4.4c-2.5,1.1-5.2,1.6-8.1,1.6s-5.6-0.6-8.1-1.6c-2.5-1.1-4.7-2.6-6.6-4.4
		c-1.9-1.9-3.4-4.1-4.5-6.6C544.4,777.7,543.8,775,543.8,772.1z M548.9,737.3l6.5-6.6l6.7,6.6l-6.7,6.5L548.9,737.3z M552.1,772.1
		c0,1.8,0.3,3.4,1,4.9c0.7,1.5,1.6,2.8,2.7,4c1.1,1.2,2.5,2.1,4,2.7c1.5,0.7,3.2,1,4.9,1c1.7,0,3.3-0.3,4.9-1c1.5-0.7,2.9-1.6,4-2.7
		c1.1-1.2,2-2.5,2.7-4c0.7-1.5,1-3.2,1-4.9c0-1.7-0.3-3.3-1-4.9c-0.7-1.5-1.6-2.9-2.7-4.1c-1.1-1.2-2.5-2.1-4-2.7
		c-1.5-0.7-3.2-1-4.9-1c-1.7,0-3.3,0.3-4.9,1c-1.5,0.7-2.9,1.6-4,2.7c-1.1,1.2-2,2.5-2.7,4.1C552.4,768.8,552.1,770.4,552.1,772.1z
		 M567.1,737.3l6.5-6.6l6.7,6.6l-6.7,6.5L567.1,737.3z"/>
	<path class="st0" d="M602.5,774.1c0,3.4,1.1,6.1,3.2,7.9c2.1,1.8,5,2.7,8.7,2.7c3.6,0,6.5-0.9,8.7-2.7c2.1-1.8,3.2-4.4,3.2-7.9
		v-21.8h8.2v21.5c0,2.8-0.5,5.4-1.4,7.8c-1,2.4-2.3,4.4-4.1,6.1c-1.8,1.7-3.9,3-6.4,3.9c-2.5,0.9-5.2,1.4-8.1,1.4
		c-2.9,0-5.5-0.4-8-1.3c-2.4-0.9-4.6-2.1-6.4-3.8c-1.8-1.6-3.2-3.7-4.2-6c-1-2.4-1.5-5.1-1.5-8.1v-21.5h8.2V774.1z M607.9,737.3
		l6.5-6.6l6.7,6.6l-6.7,6.5L607.9,737.3z"/>
	<path class="st0" d="M642.2,788.3l11.2-4c-1.2-0.7-2.2-1.4-3.2-2.3c-1-0.8-1.8-1.8-2.5-2.9c-0.7-1.1-1.2-2.4-1.6-3.9
		c-0.4-1.5-0.6-3.2-0.6-5.2c0-2.5,0.5-5,1.6-7.3c1.1-2.3,2.5-4.3,4.4-6c1.9-1.7,4.1-3.1,6.6-4.1c2.5-1,5.3-1.5,8.3-1.5
		c2.9,0,5.6,0.6,8.1,1.6c2.5,1.1,4.7,2.6,6.6,4.5c1.9,1.9,3.4,4.1,4.5,6.6c1.1,2.5,1.6,5.3,1.6,8.1c0,2.7-0.4,5.3-1.1,7.6
		c-0.7,2.3-1.7,4.5-3,6.5c-1.3,2-2.8,3.8-4.5,5.6c-1.7,1.7-3.5,3.3-5.5,4.7c-3-2.7-6-4.9-8.9-6.4c-2.9-1.5-5.5-2.9-7.9-4.1v5.4
		l-14.3,5.2V788.3z M653.8,770.1c0,2.2,0.5,3.9,1.6,5.1c1.1,1.2,2.6,2.3,4.4,3.3c1.8,1,3.9,2,6.2,3c2.3,1,4.7,2.4,7.1,4.2
		c1.9-2,3.4-4.1,4.5-6.4c1.1-2.3,1.6-4.7,1.6-7.2c0-1.6-0.3-3.2-1-4.8c-0.7-1.5-1.6-2.9-2.9-4.1c-1.2-1.2-2.7-2.1-4.3-2.8
		c-1.6-0.7-3.3-1-5.2-1c-1.6,0-3.2,0.3-4.6,0.8c-1.4,0.5-2.7,1.2-3.8,2.2c-1.1,0.9-2,2-2.6,3.3S653.8,768.5,653.8,770.1z"/>
	<path class="st0" d="M692.8,729.3l3.2-1c-0.6-0.8-1.1-1.5-1.5-2.4c-0.4-0.8-0.6-1.8-0.6-3c0-2.4,0.9-4.5,2.6-6.3s4.1-2.7,7-2.7
		c1,0,1.9,0.1,2.9,0.4c1,0.2,2.2,0.6,3.6,1.2l-1.9,4.8c-0.6-0.2-1.2-0.4-1.9-0.5c-0.6-0.1-1.2-0.2-1.9-0.2c-1.2,0-2.3,0.3-3.3,0.8
		c-1.1,0.6-1.6,1.5-1.6,3c0,1.6,0.7,2.8,2.1,3.7c1.3-0.1,2.7-0.3,4.2-0.4c1.5-0.1,3.2-0.2,4.9-0.2l-0.5,5.2c-1.9,0-3.5,0.1-5,0.2
		c-1.5,0.1-2.9,0.3-4.2,0.5c-1.3,0.2-2.6,0.5-3.9,0.8c-1.3,0.3-2.7,0.8-4.2,1.2L692.8,729.3z M698.6,737.3h8.2v54.1h-8.2V737.3z"/>
	<path class="st0" d="M754.2,772.1c0-2.9,0.5-5.6,1.6-8.1c1.1-2.5,2.6-4.8,4.5-6.6c1.9-1.9,4.1-3.4,6.6-4.5c2.5-1.1,5.2-1.6,8.1-1.6
		s5.6,0.6,8.1,1.6c2.5,1.1,4.7,2.6,6.6,4.5c1.9,1.9,3.4,4.1,4.5,6.6c1.1,2.5,1.6,5.3,1.6,8.1c0,2.9-0.5,5.6-1.6,8.1
		c-1.1,2.5-2.6,4.7-4.5,6.6c-1.9,1.9-4.1,3.3-6.6,4.4c-2.5,1.1-5.2,1.6-8.1,1.6s-5.6-0.6-8.1-1.6c-2.5-1.1-4.7-2.6-6.6-4.4
		c-1.9-1.9-3.4-4.1-4.5-6.6C754.8,777.7,754.2,775,754.2,772.1z M762.5,772.1c0,1.8,0.3,3.4,1,4.9c0.7,1.5,1.6,2.8,2.7,4
		c1.1,1.2,2.5,2.1,4,2.7c1.5,0.7,3.2,1,4.9,1c1.7,0,3.3-0.3,4.9-1c1.5-0.7,2.9-1.6,4-2.7c1.1-1.2,2-2.5,2.7-4c0.7-1.5,1-3.2,1-4.9
		c0-1.7-0.3-3.3-1-4.9c-0.7-1.5-1.6-2.9-2.7-4.1c-1.1-1.2-2.5-2.1-4-2.7c-1.5-0.7-3.2-1-4.9-1c-1.7,0-3.3,0.3-4.9,1
		c-1.5,0.7-2.9,1.6-4,2.7c-1.1,1.2-2,2.5-2.7,4.1C762.8,768.8,762.5,770.4,762.5,772.1z"/>
	<path class="st0" d="M801.1,788.3l11.2-4c-1.2-0.7-2.2-1.4-3.2-2.3c-1-0.8-1.8-1.8-2.5-2.9c-0.7-1.1-1.2-2.4-1.6-3.9
		c-0.4-1.5-0.6-3.2-0.6-5.2c0-2.5,0.5-5,1.6-7.3c1.1-2.3,2.5-4.3,4.4-6c1.9-1.7,4.1-3.1,6.6-4.1c2.5-1,5.3-1.5,8.3-1.5
		c2.9,0,5.6,0.6,8.1,1.6c2.5,1.1,4.7,2.6,6.6,4.5c1.9,1.9,3.4,4.1,4.5,6.6c1.1,2.5,1.6,5.3,1.6,8.1c0,2.7-0.4,5.3-1.1,7.6
		c-0.7,2.3-1.7,4.5-3,6.5c-1.3,2-2.8,3.8-4.5,5.6c-1.7,1.7-3.5,3.3-5.5,4.7c-3-2.7-6-4.9-8.9-6.4c-2.9-1.5-5.5-2.9-7.9-4.1v5.4
		l-14.3,5.2V788.3z M812.7,770.1c0,2.2,0.5,3.9,1.6,5.1c1.1,1.2,2.6,2.3,4.4,3.3c1.8,1,3.9,2,6.2,3c2.3,1,4.7,2.4,7.1,4.2
		c1.9-2,3.4-4.1,4.5-6.4c1.1-2.3,1.6-4.7,1.6-7.2c0-1.6-0.3-3.2-1-4.8c-0.7-1.5-1.6-2.9-2.9-4.1c-1.2-1.2-2.7-2.1-4.3-2.8
		c-1.6-0.7-3.3-1-5.2-1c-1.6,0-3.2,0.3-4.6,0.8c-1.4,0.5-2.7,1.2-3.8,2.2c-1.1,0.9-2,2-2.6,3.3S812.7,768.5,812.7,770.1z"/>
	<path class="st0" d="M851.7,729.3l3.2-1c-0.6-0.8-1.1-1.5-1.5-2.4c-0.4-0.8-0.6-1.8-0.6-3c0-2.4,0.9-4.5,2.6-6.3s4.1-2.7,7-2.7
		c1,0,1.9,0.1,2.9,0.4c1,0.2,2.2,0.6,3.6,1.2l-1.9,4.8c-0.6-0.2-1.2-0.4-1.9-0.5c-0.6-0.1-1.2-0.2-1.9-0.2c-1.2,0-2.3,0.3-3.3,0.8
		c-1.1,0.6-1.6,1.5-1.6,3c0,1.6,0.7,2.8,2.1,3.7c1.3-0.1,2.7-0.3,4.2-0.4c1.5-0.1,3.2-0.2,4.9-0.2l-0.5,5.2c-1.9,0-3.5,0.1-5,0.2
		c-1.5,0.1-2.9,0.3-4.2,0.5c-1.3,0.2-2.6,0.5-3.9,0.8c-1.3,0.3-2.7,0.8-4.2,1.2L851.7,729.3z M857.6,737.3h8.2v54.1h-8.2V737.3z"/>
	<path class="st0" d="M935.3,792.9c-4.5,0-8.2-0.4-11.1-1.2c-2.8-0.8-5.2-1.6-7-2.5v-37h8.2v31c0.7,0.2,1.4,0.4,2.1,0.6
		c0.7,0.2,1.4,0.4,2.2,0.5c0.8,0.1,1.6,0.2,2.6,0.3c1,0.1,2.1,0.1,3.4,0.1c4.9,0,8.6-1.4,11.1-4.2c2.4-2.8,3.7-6.9,3.7-12.3
		c0-2.6-0.3-5.3-0.9-7.9c-0.6-2.7-1.2-5-1.7-6.9l8-2.2c0.8,3.1,1.5,5.9,2,8.5c0.5,2.6,0.8,5.5,0.8,8.5c0,3-0.4,5.9-1.2,8.9
		c-0.8,3-2.1,5.6-3.9,7.9c-1.8,2.3-4.2,4.2-7.2,5.7S939.7,792.9,935.3,792.9z M922.6,737.3l6.5-6.6l6.7,6.6l-6.7,6.5L922.6,737.3z
		 M940.9,737.3l6.5-6.6l6.7,6.6l-6.7,6.5L940.9,737.3z"/>
	<path class="st0" d="M968.6,791.4l-2.1-5.9c4-2.3,7.9-5.1,11.8-8.4c3.9-3.3,7.4-7,10.5-10.9c-2-2.1-4-4.1-6.1-6
		c-2.1-1.9-3.8-3.6-5.2-5.1c-1.6-1.7-3.1-3.3-4.4-4.7c-1.3-1.4-2.5-2.9-3.8-4.4c-1.2-1.5-2.5-3.3-3.9-5.2c-1.3-1.9-2.9-4.2-4.8-6.8
		l6.8-4.6c1.4,2.4,2.9,4.6,4.3,6.6c1.4,2,2.8,3.8,4.2,5.6c1.4,1.7,2.8,3.3,4.2,4.8c1.4,1.5,2.7,2.9,4.1,4.4c1.6,1.6,3.1,3.2,4.7,4.7
		s3,2.9,4.4,4.4c2-3.3,3.6-6.6,4.7-9.8c1.2-3.3,1.8-6.5,1.8-9.6v-16.4h8.2v15.6c0,4.7-0.9,9.2-2.6,13.4c-1.8,4.3-4.1,8.4-7,12.4
		c2.6,3.1,4.7,6.4,6.2,10c1.5,3.6,2.3,7.9,2.3,13v3.1H968.6z M998.6,783.2c0-1.9-0.5-3.8-1.4-5.7s-2.1-3.9-3.7-5.8
		c-1.9,2.1-3.8,4.1-5.9,6c-2.1,1.9-4.2,3.8-6.4,5.6H998.6z"/>
	<path class="st0" d="M1020.5,728.1h8.2v63.3h-8.2V728.1z"/>
	<path class="st0" d="M1038,788.3l11.2-4c-1.2-0.7-2.2-1.4-3.2-2.3c-1-0.8-1.8-1.8-2.5-2.9c-0.7-1.1-1.2-2.4-1.6-3.9
		c-0.4-1.5-0.6-3.2-0.6-5.2c0-2.5,0.5-5,1.6-7.3c1.1-2.3,2.5-4.3,4.4-6c1.9-1.7,4.1-3.1,6.6-4.1c2.5-1,5.3-1.5,8.3-1.5
		c2.9,0,5.6,0.6,8.1,1.6c2.5,1.1,4.7,2.6,6.6,4.5c1.9,1.9,3.4,4.1,4.5,6.6c1.1,2.5,1.6,5.3,1.6,8.1c0,2.7-0.4,5.3-1.1,7.6
		c-0.7,2.3-1.7,4.5-3,6.5c-1.3,2-2.8,3.8-4.5,5.6c-1.7,1.7-3.5,3.3-5.5,4.7c-3-2.7-6-4.9-8.9-6.4c-2.9-1.5-5.5-2.9-7.9-4.1v5.4
		l-14.3,5.2V788.3z M1049.6,770.1c0,2.2,0.5,3.9,1.6,5.1c1.1,1.2,2.6,2.3,4.4,3.3c1.8,1,3.9,2,6.2,3c2.3,1,4.7,2.4,7.1,4.2
		c1.9-2,3.4-4.1,4.5-6.4c1.1-2.3,1.6-4.7,1.6-7.2c0-1.6-0.3-3.2-1-4.8c-0.7-1.5-1.6-2.9-2.9-4.1c-1.2-1.2-2.7-2.1-4.3-2.8
		c-1.6-0.7-3.3-1-5.2-1c-1.6,0-3.2,0.3-4.6,0.8c-1.4,0.5-2.7,1.2-3.8,2.2c-1.1,0.9-2,2-2.6,3.3S1049.6,768.5,1049.6,770.1z"/>
	<path class="st0" d="M1116.4,738.2c-2.6,1.1-5.1,2.5-7.3,4.1c-2.2,1.6-4.1,3.4-5.7,5.4c-1.5,2-2.5,4.2-2.8,6.6h41.9
		c3,0,5.9,0.4,8.6,1.3c2.7,0.9,5.1,2.2,7.2,4c2.1,1.8,3.7,3.9,4.9,6.5c1.2,2.6,1.8,5.6,1.8,9c0,2.1-0.4,4.3-1.1,6.4
		c-0.7,2.1-1.8,4.1-3.1,6c-1.4,1.9-3,3.6-4.9,5.1c-1.9,1.5-4.1,2.8-6.5,3.9c-1.4-1-2.7-1.8-3.9-2.4c-1.2-0.7-2.4-1.2-3.7-1.6
		c-1.3-0.4-2.6-0.7-4.1-0.9c-1.4-0.2-3.1-0.3-4.9-0.3h-42.4v-8.2h43.2c1.8,0,3.4,0.1,4.8,0.3c1.4,0.2,2.8,0.4,4.1,0.7
		c1.3,0.3,2.5,0.7,3.7,1.2c1.2,0.5,2.5,1.1,3.8,1.8c1.9-1.6,3.6-3.3,4.9-5.3c1.3-2,2-4,2-6.2c0-3.7-1.2-6.8-3.6-9.3
		c-2.4-2.5-5.9-3.7-10.5-3.7h-48.5c-0.7-1.5-1.2-2.9-1.5-4.1c-0.3-1.2-0.5-2.6-0.5-4.2c0-1.4,0.3-2.9,0.8-4.4c0.5-1.5,1.3-3,2.2-4.5
		c0.9-1.5,1.9-2.8,3-4.1c1.1-1.3,2.2-2.4,3.3-3.2c2.2-1.8,5-3.7,8.4-5.6c3.4-2,7.1-3.4,11-4.4l3.2,7.6
		C1121.7,736.2,1119.1,737.1,1116.4,738.2z"/>
</g>
<g>
	<path class="st0" d="M214,979.7c0,2.3,0.7,4,2.1,5.2c1.4,1.2,3.3,1.8,5.7,1.8c2.4,0,4.3-0.6,5.7-1.8c1.4-1.2,2.1-2.9,2.1-5.2v-38.9
		h5.4v38.7c0,1.9-0.3,3.6-1,5.1c-0.6,1.6-1.5,2.9-2.7,4c-1.2,1.1-2.6,2-4.2,2.6c-1.6,0.6-3.4,0.9-5.4,0.9c-1.9,0-3.7-0.3-5.3-0.9
		c-1.6-0.6-3-1.4-4.2-2.5c-1.2-1.1-2.1-2.4-2.8-4c-0.7-1.6-1-3.3-1-5.3v-14.9h5.4V979.7z"/>
	<path class="st0" d="M245.3,940.8h5.4v41.8h-5.4V940.8z"/>
	<path class="st0" d="M272.2,983.6c-3,0-5.4-0.3-7.3-0.8c-1.9-0.5-3.4-1.1-4.6-1.6v-24.4h5.4v20.5c0.5,0.1,0.9,0.3,1.4,0.4
		c0.5,0.1,0.9,0.2,1.4,0.3c0.5,0.1,1.1,0.1,1.7,0.2c0.6,0,1.4,0.1,2.2,0.1c3.3,0,5.7-0.9,7.3-2.8c1.6-1.9,2.4-4.6,2.4-8.1
		c0-1.7-0.2-3.5-0.6-5.2c-0.4-1.8-0.8-3.3-1.1-4.6l5.3-1.4c0.5,2,1,3.9,1.3,5.6s0.5,3.6,0.5,5.6c0,2-0.3,3.9-0.8,5.8
		c-0.5,1.9-1.4,3.7-2.6,5.2c-1.2,1.5-2.8,2.8-4.8,3.7C277.5,983.1,275.1,983.6,272.2,983.6z M269,992.1l4.3-4.4l4.4,4.4l-4.4,4.3
		L269,992.1z"/>
	<path class="st0" d="M291,982.6v-5.4h2c2,0,3.5-0.5,4.3-1.4c0.8-1,1.2-2.6,1.2-4.9v-30.1h5.4v29.9c0,4-0.9,7-2.8,9
		c-1.9,2-4.6,3-8.1,3H291z"/>
	<path class="st0" d="M314.1,940.8h5.4v41.8h-5.4V940.8z"/>
	<path class="st0" d="M350.9,969.9c0-1.9,0.4-3.7,1.1-5.4c0.7-1.7,1.7-3.1,3-4.4c1.3-1.2,2.7-2.2,4.4-3c1.7-0.7,3.4-1.1,5.3-1.1
		c1.9,0,3.7,0.4,5.3,1.1c1.7,0.7,3.1,1.7,4.4,3c1.2,1.2,2.2,2.7,3,4.4c0.7,1.7,1.1,3.5,1.1,5.4c0,1.9-0.4,3.7-1.1,5.4
		c-0.7,1.7-1.7,3.1-3,4.4c-1.2,1.2-2.7,2.2-4.4,2.9c-1.7,0.7-3.4,1.1-5.3,1.1c-1.9,0-3.7-0.4-5.3-1.1c-1.7-0.7-3.1-1.7-4.4-2.9
		c-1.3-1.2-2.3-2.7-3-4.4C351.2,973.6,350.9,971.8,350.9,969.9z M354.2,946.9l4.3-4.4l4.4,4.4l-4.4,4.3L354.2,946.9z M356.3,969.9
		c0,1.2,0.2,2.3,0.7,3.3c0.5,1,1.1,1.9,1.8,2.7c0.7,0.8,1.6,1.4,2.7,1.8c1,0.4,2.1,0.6,3.2,0.6c1.1,0,2.2-0.2,3.2-0.6
		c1-0.4,1.9-1,2.7-1.8c0.7-0.8,1.3-1.7,1.8-2.7c0.5-1,0.7-2.1,0.7-3.3c0-1.1-0.2-2.2-0.7-3.2c-0.5-1-1.1-1.9-1.8-2.7
		c-0.7-0.8-1.6-1.4-2.7-1.8c-1-0.4-2.1-0.6-3.2-0.6c-1.1,0-2.2,0.2-3.2,0.6c-1,0.4-1.9,1-2.7,1.8c-0.7,0.8-1.3,1.7-1.8,2.7
		C356.5,967.7,356.3,968.8,356.3,969.9z M366.2,946.9l4.3-4.4l4.4,4.4l-4.4,4.3L366.2,946.9z"/>
	<path class="st0" d="M393.7,983.6c-2.2,0-4.2-0.2-6.1-0.6c-1.9-0.4-3.8-1.1-5.8-2.1l1.9-5.2c2,1.1,3.9,1.8,5.5,2.1
		c1.7,0.2,3.2,0.4,4.5,0.4c1.7,0,3.5-0.3,5.5-0.9c2-0.6,4.2-1.2,6.4-1.8c0.8-0.2,1.6-0.3,2.5-0.4c0.9-0.1,1.8-0.2,2.7-0.2
		c-0.3-0.5-0.6-0.9-1-1.4c-0.3-0.5-0.7-1-1.1-1.6c-1.4-2.1-2.6-3.8-3.7-5.1c-1.1-1.3-2.2-2.4-3.2-3.2c-1-0.8-2-1.3-2.9-1.6
		c-0.9-0.3-1.8-0.4-2.7-0.4c-1,0-1.8,0.1-2.5,0.2c-0.7,0.2-1.4,0.4-2,0.7c-0.6,0.3-1.2,0.6-1.8,1.1c-0.6,0.4-1.1,0.8-1.7,1.3l-3.7-4
		c2-1.8,4-3,6-3.7c1.9-0.7,4.2-1,6.8-1h18.9l-1.4,3.4h-7.6l-1.6-0.1c1.3,1.1,2.5,2.3,3.5,3.7c1,1.4,2,2.8,3,4.3
		c1,1.5,1.8,2.7,2.5,3.8c0.7,1.1,1.5,2.1,2.2,3c0.8,0.9,1.6,1.7,2.4,2.5c0.9,0.8,1.9,1.6,3.1,2.4l-3,4.6c-0.8-0.6-1.6-1.2-2.4-1.9
		c-0.8-0.7-1.7-1.5-2.6-2.4c-1.3,0.1-2.6,0.3-4,0.5c-1.3,0.3-2.7,0.6-4.2,1.1c-1.9,0.6-3.9,1.2-5.8,1.8
		C398.6,983.3,396.3,983.6,393.7,983.6z"/>
	<path class="st0" d="M430,940.8h5.4v41.8H430V940.8z"/>
	<path class="st0" d="M438.2,990.7c1.9-1.5,3.5-2.9,4.7-4.3c1.2-1.4,2.2-2.7,2.9-4.1c0.7-1.4,1.2-2.8,1.4-4.3
		c0.2-1.5,0.4-3.1,0.4-4.9v-16.5h5.4v15.6c0,2.8-0.2,5.3-0.7,7.4c-0.5,2.2-1.2,4.1-2.1,5.8c-0.9,1.7-2.1,3.4-3.5,4.8
		c-1.4,1.5-3.1,2.9-5,4.4L438.2,990.7z"/>
	<path class="st0" d="M457.7,982.6v-5.4h2c2,0,3.5-0.5,4.3-1.4c0.8-1,1.2-2.6,1.2-4.9v-30.1h5.4v29.9c0,4-0.9,7-2.8,9
		c-1.9,2-4.6,3-8.1,3H457.7z"/>
	<path class="st0" d="M501.2,969.9c0-1.9,0.4-3.7,1.1-5.4c0.7-1.7,1.7-3.1,3-4.4c1.3-1.2,2.7-2.2,4.4-3c1.7-0.7,3.4-1.1,5.3-1.1
		c1.9,0,3.7,0.4,5.3,1.1c1.7,0.7,3.1,1.7,4.4,3c1.2,1.2,2.2,2.7,3,4.4c0.7,1.7,1.1,3.5,1.1,5.4c0,1.9-0.4,3.7-1.1,5.4
		c-0.7,1.7-1.7,3.1-3,4.4c-1.2,1.2-2.7,2.2-4.4,2.9c-1.7,0.7-3.4,1.1-5.3,1.1c-1.9,0-3.7-0.4-5.3-1.1c-1.7-0.7-3.1-1.7-4.4-2.9
		c-1.3-1.2-2.3-2.7-3-4.4C501.6,973.6,501.2,971.8,501.2,969.9z M506.6,969.9c0,1.2,0.2,2.3,0.7,3.3c0.5,1,1.1,1.9,1.8,2.7
		c0.7,0.8,1.6,1.4,2.7,1.8c1,0.4,2.1,0.6,3.2,0.6c1.1,0,2.2-0.2,3.2-0.6c1-0.4,1.9-1,2.7-1.8c0.7-0.8,1.3-1.7,1.8-2.7
		c0.5-1,0.7-2.1,0.7-3.3c0-1.1-0.2-2.2-0.7-3.2c-0.5-1-1.1-1.9-1.8-2.7c-0.7-0.8-1.6-1.4-2.7-1.8c-1-0.4-2.1-0.6-3.2-0.6
		c-1.1,0-2.2,0.2-3.2,0.6c-1,0.4-1.9,1-2.7,1.8c-0.7,0.8-1.3,1.7-1.8,2.7C506.9,967.7,506.6,968.8,506.6,969.9z"/>
	<path class="st0" d="M530.1,977.2h18.5l-4-21.4l5.3-1.4l5,27.3l-0.7,1h-24V977.2z"/>
	<path class="st0" d="M577.5,947.5c-1.7,0.7-3.4,1.6-4.8,2.7c-1.5,1-2.7,2.2-3.7,3.6c-1,1.3-1.6,2.8-1.9,4.4h27.7
		c2,0,3.9,0.3,5.7,0.9c1.8,0.6,3.4,1.5,4.7,2.6c1.4,1.2,2.4,2.6,3.2,4.3c0.8,1.7,1.2,3.7,1.2,5.9c0,1.4-0.2,2.8-0.7,4.2
		c-0.5,1.4-1.2,2.7-2.1,4c-0.9,1.2-2,2.4-3.3,3.4c-1.3,1-2.7,1.9-4.3,2.5c-0.9-0.6-1.8-1.2-2.5-1.6c-0.8-0.4-1.6-0.8-2.4-1.1
		c-0.8-0.3-1.7-0.5-2.7-0.6s-2-0.2-3.3-0.2h-28v-5.4h28.5c1.2,0,2.2,0.1,3.2,0.2s1.8,0.3,2.7,0.5c0.8,0.2,1.7,0.5,2.4,0.8
		c0.8,0.3,1.6,0.7,2.5,1.2c1.3-1,2.3-2.2,3.2-3.5s1.3-2.7,1.3-4.1c0-2.4-0.8-4.5-2.3-6.1c-1.6-1.6-3.9-2.4-6.9-2.4h-32
		c-0.5-1-0.8-1.9-1-2.7c-0.2-0.8-0.3-1.7-0.3-2.8c0-1,0.2-1.9,0.5-2.9c0.4-1,0.8-2,1.4-3c0.6-1,1.2-1.9,2-2.7
		c0.7-0.8,1.5-1.6,2.2-2.1c1.5-1.2,3.3-2.4,5.6-3.7c2.3-1.3,4.7-2.3,7.3-2.9l2.1,5C581,946.2,579.3,946.7,577.5,947.5z"/>
	<path class="st0" d="M645.3,971.2c0,2.3,0.7,4,2.1,5.2c1.4,1.2,3.3,1.8,5.7,1.8c2.4,0,4.3-0.6,5.7-1.8c1.4-1.2,2.1-2.9,2.1-5.2
		v-14.4h5.4V971c0,1.9-0.3,3.6-1,5.1c-0.6,1.6-1.5,2.9-2.7,4c-1.2,1.1-2.6,2-4.2,2.6s-3.4,0.9-5.4,0.9c-1.9,0-3.7-0.3-5.3-0.9
		c-1.6-0.6-3-1.4-4.2-2.5s-2.1-2.4-2.8-4c-0.7-1.6-1-3.3-1-5.3v-14.2h5.4V971.2z M648.8,946.9l4.3-4.4l4.4,4.4l-4.4,4.3L648.8,946.9
		z"/>
	<path class="st0" d="M671.5,980.6l7.4-2.7c-0.8-0.5-1.5-1-2.1-1.5c-0.6-0.5-1.2-1.2-1.6-1.9c-0.5-0.7-0.8-1.6-1.1-2.5
		c-0.2-1-0.4-2.1-0.4-3.4c0-1.7,0.4-3.3,1.1-4.8c0.7-1.5,1.7-2.8,2.9-4c1.2-1.1,2.7-2,4.4-2.7c1.7-0.7,3.5-1,5.5-1
		c1.9,0,3.7,0.4,5.3,1.1c1.7,0.7,3.1,1.7,4.4,3c1.2,1.2,2.2,2.7,3,4.4c0.7,1.7,1.1,3.5,1.1,5.4c0,1.8-0.2,3.5-0.7,5
		c-0.5,1.5-1.1,3-2,4.3c-0.8,1.3-1.8,2.5-3,3.7c-1.1,1.1-2.3,2.2-3.6,3.1c-2-1.8-3.9-3.2-5.8-4.2s-3.6-1.9-5.2-2.7v3.5l-9.5,3.4
		V980.6z M679.1,968.5c0,1.5,0.4,2.6,1.1,3.4c0.7,0.8,1.7,1.5,2.9,2.2c1.2,0.6,2.6,1.3,4.1,2s3.1,1.6,4.7,2.8c1.3-1.3,2.3-2.7,3-4.3
		c0.7-1.5,1.1-3.1,1.1-4.7c0-1.1-0.2-2.1-0.7-3.2c-0.5-1-1.1-1.9-1.9-2.7c-0.8-0.8-1.8-1.4-2.8-1.8c-1.1-0.5-2.2-0.7-3.4-0.7
		c-1.1,0-2.1,0.2-3.1,0.5c-1,0.3-1.8,0.8-2.5,1.4c-0.7,0.6-1.3,1.3-1.7,2.2C679.4,966.5,679.1,967.5,679.1,968.5z"/>
	<path class="st0" d="M728.4,980.6l7.4-2.7c-0.8-0.5-1.5-1-2.1-1.5c-0.6-0.5-1.2-1.2-1.6-1.9c-0.5-0.7-0.8-1.6-1.1-2.5
		c-0.2-1-0.4-2.1-0.4-3.4c0-1.7,0.4-3.3,1.1-4.8c0.7-1.5,1.7-2.8,2.9-4c1.2-1.1,2.7-2,4.4-2.7c1.7-0.7,3.5-1,5.5-1
		c1.9,0,3.7,0.4,5.3,1.1c1.7,0.7,3.1,1.7,4.4,3c1.2,1.2,2.2,2.7,3,4.4c0.7,1.7,1.1,3.5,1.1,5.4c0,1.8-0.2,3.5-0.7,5
		c-0.5,1.5-1.1,3-2,4.3c-0.8,1.3-1.8,2.5-3,3.7c-1.1,1.1-2.3,2.2-3.6,3.1c-2-1.8-3.9-3.2-5.8-4.2s-3.6-1.9-5.2-2.7v3.5l-9.5,3.4
		V980.6z M736.1,968.5c0,1.5,0.4,2.6,1.1,3.4c0.7,0.8,1.7,1.5,2.9,2.2c1.2,0.6,2.6,1.3,4.1,2s3.1,1.6,4.7,2.8c1.3-1.3,2.3-2.7,3-4.3
		c0.7-1.5,1.1-3.1,1.1-4.7c0-1.1-0.2-2.1-0.7-3.2c-0.5-1-1.1-1.9-1.9-2.7c-0.8-0.8-1.8-1.4-2.8-1.8c-1.1-0.5-2.2-0.7-3.4-0.7
		c-1.1,0-2.1,0.2-3.1,0.5c-1,0.3-1.8,0.8-2.5,1.4c-0.7,0.6-1.3,1.3-1.7,2.2C736.3,966.5,736.1,967.5,736.1,968.5z"/>
	<path class="st0" d="M761,977.2h4.1v-36.4h5.4V967c1.3-1.5,2.7-2.9,4.1-4.2c1.5-1.3,3-2.5,4.6-3.4s3.4-1.8,5.2-2.3
		c1.8-0.6,3.7-0.9,5.8-0.9c2.2,0,4.2,0.4,5.8,1.1c1.7,0.7,3.1,1.7,4.2,2.9c1.1,1.2,2,2.5,2.5,4c0.6,1.5,0.8,3.1,0.8,4.7
		c0,2-0.4,3.9-1.3,5.6c-0.9,1.7-2.2,3.2-3.8,4.4c-1.7,1.2-3.7,2.2-6.2,2.9c-2.4,0.7-5.3,1-8.4,1H761V977.2z M789.9,961.5
		c-1.9,0-3.8,0.4-5.7,1.2c-1.9,0.8-3.7,1.9-5.4,3.1c-1.7,1.3-3.3,2.6-4.7,4.1c-1.5,1.5-2.7,2.8-3.7,4.1v3.1h13.3
		c1.8,0,3.5-0.1,5.3-0.4c1.7-0.2,3.3-0.7,4.7-1.4c1.4-0.7,2.5-1.5,3.3-2.6s1.3-2.5,1.3-4.1c0-0.9-0.2-1.7-0.5-2.6
		c-0.3-0.9-0.8-1.6-1.5-2.3c-0.7-0.7-1.5-1.2-2.6-1.6C792.6,961.7,791.4,961.5,789.9,961.5z M785.8,946.9l4.3-4.4l4.4,4.4l-4.4,4.3
		L785.8,946.9z"/>
	<path class="st0" d="M820.1,982.6c-1.4,0-2.8,0.2-4.3,0.5c-1.5,0.3-2.9,0.8-4.4,1.6l-2.4-4.9c1.4-0.7,3.3-1.3,5.6-1.9
		c-1.3-1.2-2.3-2.5-3.2-4c-0.8-1.5-1.3-3.2-1.3-5.2c0-2.2,0.4-4.1,1.3-5.6c0.8-1.6,1.9-2.9,3.3-3.9c1.3-1,2.8-1.8,4.5-2.3
		c1.7-0.5,3.4-0.7,5-0.7c1.8,0,3.6,0.2,5.5,0.7s3.8,1.1,6,1.7l-1.6,5.3c-2.1-0.8-3.9-1.3-5.3-1.7c-1.5-0.4-3-0.6-4.5-0.6
		c-1.1,0-2.2,0.1-3.2,0.4c-1,0.2-2,0.7-2.8,1.2c-0.8,0.6-1.5,1.3-2,2.2c-0.5,0.9-0.7,2-0.7,3.3c0,1.9,0.5,3.6,1.6,5
		c1.1,1.5,2.5,2.6,4.2,3.5h9.3c1.1,0,2.1-0.1,3.2-0.2c1-0.1,2-0.3,2.9-0.6v5.4c-0.9,0.2-1.9,0.4-3.1,0.5c-1.2,0.1-2.4,0.2-3.4,0.2
		H820.1z"/>
	<path class="st0" d="M840.6,941.6l2.1-0.7c-0.4-0.5-0.7-1-1-1.6c-0.2-0.5-0.4-1.2-0.4-2c0-1.6,0.6-3,1.7-4.1
		c1.2-1.2,2.7-1.8,4.6-1.8c0.6,0,1.3,0.1,1.9,0.2c0.7,0.2,1.4,0.4,2.3,0.8l-1.2,3.2c-0.4-0.1-0.8-0.2-1.2-0.3
		c-0.4-0.1-0.8-0.1-1.2-0.1c-0.8,0-1.5,0.2-2.2,0.5c-0.7,0.4-1.1,1-1.1,2c0,1,0.5,1.9,1.4,2.4c0.9-0.1,1.8-0.2,2.8-0.2
		c1-0.1,2.1-0.1,3.3-0.1l-0.3,3.4c-1.2,0-2.3,0-3.3,0.1c-1,0.1-1.9,0.2-2.8,0.3c-0.9,0.1-1.7,0.3-2.6,0.5c-0.9,0.2-1.8,0.5-2.8,0.8
		L840.6,941.6z M844.5,946.9h5.4v35.7h-5.4V946.9z"/>
	<path class="st0" d="M900.3,992.1c-3.3,0-6.1-0.3-8.3-1c-2.2-0.7-4-1.6-5.3-2.7c-1.3-1.2-2.2-2.5-2.8-4.1c-0.5-1.6-0.8-3.3-0.8-5.2
		v-14.6h5.4V979c0,1.1,0.1,2.2,0.4,3.1c0.2,0.9,0.8,1.7,1.6,2.4c0.8,0.7,2,1.2,3.5,1.6c1.5,0.4,3.6,0.6,6.2,0.6c1.5,0,3-0.1,4.5-0.4
		c1.5-0.3,2.9-0.7,4.1-1.3c1.2-0.6,2.2-1.3,3-2.2c0.8-0.9,1.2-1.9,1.2-3c0-1-0.3-1.8-1-2.4c-0.7-0.6-1.5-1.2-2.5-1.7
		c-1-0.5-2.1-1-3.3-1.5c-1.2-0.5-2.3-1.1-3.3-1.8c-1-0.7-1.8-1.5-2.5-2.5c-0.7-1-1-2.2-1-3.6c0-1.4,0.4-2.8,1.3-4.2s2-2.7,3.4-4
		c1.4-1.3,2.9-2.5,4.6-3.6c1.7-1.1,3.4-2.1,5-2.9l2.6,4.8c-1.2,0.5-2.5,1.1-3.9,1.9c-1.4,0.8-2.6,1.6-3.7,2.4
		c-1.1,0.8-2,1.7-2.8,2.6c-0.7,0.9-1.1,1.7-1.1,2.5c0,0.6,0.3,1.2,1,1.7s1.5,1,2.5,1.5s2.1,1,3.3,1.6c1.2,0.6,2.3,1.3,3.3,2.1
		c1,0.8,1.8,1.7,2.5,2.9c0.7,1.1,1,2.4,1,4c0,2.2-0.5,4.1-1.6,5.6c-1.1,1.6-2.5,2.9-4.2,4c-1.7,1.1-3.7,1.8-5.8,2.3
		S902.5,992.1,900.3,992.1z M890.6,999.6l4.3-4.4l4.4,4.4l-4.4,4.3L890.6,999.6z M902.7,999.6l4.3-4.4l4.4,4.4l-4.4,4.3L902.7,999.6
		z"/>
	<path class="st0" d="M925,976.5c1.9,0.6,3.7,1.1,5.6,1.4c-0.3-0.5-0.6-0.9-0.8-1.3c-0.3-0.4-0.7-0.9-1.1-1.5
		c-0.9-1.2-1.6-2.4-2.1-3.7s-0.7-2.5-0.7-3.6c0-1.6,0.3-3.1,1-4.6c0.7-1.5,1.6-2.8,2.8-4c1.2-1.2,2.6-2.1,4.2-2.8
		c1.6-0.7,3.3-1.1,5.2-1.1c2,0,3.8,0.4,5.5,1.2c1.7,0.8,3.1,1.8,4.3,3.1c1.2,1.3,2.1,2.8,2.8,4.5c0.7,1.7,1,3.5,1,5.4
		c0,2-0.4,3.9-1.2,5.6c-0.8,1.7-2,3.2-3.5,4.5c-1.5,1.3-3.3,2.3-5.3,3c-2.1,0.7-4.3,1.1-6.8,1.1c-1.5,0-2.7,0-3.9-0.1
		c-1.1-0.1-2.2-0.2-3.1-0.4c-1-0.2-1.9-0.4-2.7-0.6c-0.9-0.2-1.8-0.5-2.7-0.7L925,976.5z M931.4,968.5c0,0.9,0.2,1.7,0.5,2.4
		s0.8,1.5,1.3,2.2c0.5,0.7,1,1.5,1.6,2.4c0.5,0.9,1,1.9,1.5,3h1.6c1.6,0,3-0.3,4.2-0.8c1.2-0.5,2.2-1.2,2.9-2.1
		c0.8-0.8,1.3-1.8,1.7-2.9c0.4-1.1,0.5-2.1,0.5-3.2c0-1.3-0.2-2.4-0.7-3.5c-0.5-1.1-1.1-2-1.8-2.8c-0.7-0.8-1.6-1.4-2.6-1.8
		c-1-0.4-2-0.6-3.1-0.6c-0.9,0-1.8,0.1-2.7,0.4c-0.9,0.3-1.7,0.7-2.4,1.4c-0.7,0.6-1.3,1.4-1.8,2.4
		C931.6,966,931.4,967.2,931.4,968.5z M934.6,946.9l4.3-4.4l4.4,4.4l-4.4,4.3L934.6,946.9z"/>
	<path class="st0" d="M983.2,940.8h5.4v41.8h-5.4V940.8z"/>
	<path class="st0" d="M994.8,980.6l7.4-2.7c-0.8-0.5-1.5-1-2.1-1.5c-0.6-0.5-1.2-1.2-1.6-1.9c-0.5-0.7-0.8-1.6-1.1-2.5
		c-0.2-1-0.4-2.1-0.4-3.4c0-1.7,0.4-3.3,1.1-4.8c0.7-1.5,1.7-2.8,2.9-4c1.2-1.1,2.7-2,4.4-2.7c1.7-0.7,3.5-1,5.5-1
		c1.9,0,3.7,0.4,5.3,1.1c1.7,0.7,3.1,1.7,4.4,3c1.2,1.2,2.2,2.7,3,4.4c0.7,1.7,1.1,3.5,1.1,5.4c0,1.8-0.2,3.5-0.7,5
		c-0.5,1.5-1.1,3-2,4.3c-0.8,1.3-1.8,2.5-3,3.7c-1.1,1.1-2.3,2.2-3.6,3.1c-2-1.8-3.9-3.2-5.8-4.2s-3.6-1.9-5.2-2.7v3.5l-9.5,3.4
		V980.6z M1002.5,968.5c0,1.5,0.4,2.6,1.1,3.4c0.7,0.8,1.7,1.5,2.9,2.2c1.2,0.6,2.6,1.3,4.1,2s3.1,1.6,4.7,2.8
		c1.3-1.3,2.3-2.7,3-4.3c0.7-1.5,1.1-3.1,1.1-4.7c0-1.1-0.2-2.1-0.7-3.2c-0.5-1-1.1-1.9-1.9-2.7c-0.8-0.8-1.8-1.4-2.8-1.8
		c-1.1-0.5-2.2-0.7-3.4-0.7c-1.1,0-2.1,0.2-3.1,0.5c-1,0.3-1.8,0.8-2.5,1.4c-0.7,0.6-1.3,1.3-1.7,2.2
		C1002.7,966.5,1002.5,967.5,1002.5,968.5z"/>
	<path class="st0" d="M1052.5,969.9c0-1.9,0.4-3.7,1.1-5.4c0.7-1.7,1.7-3.1,3-4.4c1.3-1.2,2.7-2.2,4.4-3c1.7-0.7,3.4-1.1,5.3-1.1
		c1.9,0,3.7,0.4,5.3,1.1c1.7,0.7,3.1,1.7,4.4,3c1.2,1.2,2.2,2.7,3,4.4c0.7,1.7,1.1,3.5,1.1,5.4c0,1.9-0.4,3.7-1.1,5.4
		c-0.7,1.7-1.7,3.1-3,4.4c-1.2,1.2-2.7,2.2-4.4,2.9c-1.7,0.7-3.4,1.1-5.3,1.1c-1.9,0-3.7-0.4-5.3-1.1c-1.7-0.7-3.1-1.7-4.4-2.9
		c-1.3-1.2-2.3-2.7-3-4.4C1052.8,973.6,1052.5,971.8,1052.5,969.9z M1057.9,969.9c0,1.2,0.2,2.3,0.7,3.3c0.5,1,1.1,1.9,1.8,2.7
		c0.7,0.8,1.6,1.4,2.7,1.8c1,0.4,2.1,0.6,3.2,0.6c1.1,0,2.2-0.2,3.2-0.6c1-0.4,1.9-1,2.7-1.8c0.7-0.8,1.3-1.7,1.8-2.7
		c0.5-1,0.7-2.1,0.7-3.3c0-1.1-0.2-2.2-0.7-3.2c-0.5-1-1.1-1.9-1.8-2.7c-0.7-0.8-1.6-1.4-2.7-1.8c-1-0.4-2.1-0.6-3.2-0.6
		c-1.1,0-2.2,0.2-3.2,0.6c-1,0.4-1.9,1-2.7,1.8c-0.7,0.8-1.3,1.7-1.8,2.7C1058.1,967.7,1057.9,968.8,1057.9,969.9z"/>
	<path class="st0" d="M1082.7,982.6v-5.4h2c2,0,3.5-0.5,4.3-1.4c0.8-1,1.2-2.6,1.2-4.9v-30.1h5.4v29.9c0,4-0.9,7-2.8,9
		c-1.9,2-4.6,3-8.1,3H1082.7z"/>
	<path class="st0" d="M1101.1,982.6v-5.4h2c2,0,3.5-0.5,4.3-1.4c0.8-1,1.2-2.6,1.2-4.9v-30.1h5.4v29.9c0,4-0.9,7-2.8,9
		c-1.9,2-4.6,3-8.1,3H1101.1z"/>
	<path class="st0" d="M1124.2,940.8h5.4v41.8h-5.4V940.8z"/>
	<path class="st0" d="M1140.5,992.1c1.8-0.5,3.5-1,5.2-1.6c1.7-0.6,3.3-1.3,4.7-2.1c1.5-0.8,2.8-1.8,4.1-2.8s2.3-2.3,3.2-3.6
		c-1,0.5-2.1,0.9-3.2,1.2c-1.1,0.3-2.3,0.4-3.4,0.4c-1.9,0-3.7-0.4-5.3-1.1c-1.7-0.7-3.1-1.7-4.4-2.9c-1.3-1.2-2.3-2.7-3-4.4
		c-0.7-1.7-1.1-3.5-1.1-5.4c0-1.9,0.4-3.7,1.1-5.4c0.7-1.7,1.7-3.1,3-4.4c1.3-1.2,2.7-2.2,4.4-3c1.7-0.7,3.4-1.1,5.3-1.1
		c2.3,0,4.3,0.4,6,1.3c1.7,0.9,3.2,2.1,4.4,3.6c1.2,1.5,2.1,3.3,2.7,5.3s0.9,4.1,0.9,6.4c0,3.1-0.6,5.9-1.7,8.6
		c-1.1,2.6-2.7,5-4.8,7s-4.5,3.9-7.3,5.4c-2.8,1.5-5.9,2.7-9.2,3.6L1140.5,992.1z M1159.6,973c0-1.5-0.2-2.9-0.5-4.3
		c-0.3-1.4-0.8-2.6-1.5-3.7c-0.7-1.1-1.6-1.9-2.7-2.5c-1.1-0.6-2.5-1-4-1c-1.1,0-2.2,0.2-3.2,0.6c-1,0.4-1.9,1-2.7,1.8
		c-0.7,0.8-1.3,1.7-1.8,2.7c-0.5,1-0.7,2.1-0.7,3.2c0,1.2,0.2,2.3,0.7,3.3c0.5,1,1.1,1.9,1.8,2.7c0.7,0.8,1.6,1.4,2.7,1.8
		c1,0.4,2.1,0.6,3.2,0.6c1.7,0,3.2-0.1,4.5-0.4c1.3-0.2,2.6-0.7,3.9-1.3c0.1-0.5,0.2-1.1,0.2-1.7
		C1159.6,974.3,1159.6,973.6,1159.6,973z"/>
</g>
</svg>
