<?xml version="1.0" encoding="utf-8"?>
<!-- Generator: Adobe Illustrator 22.0.0, SVG Export Plug-In . SVG Version: 6.00 Build 0)  -->
<svg version="1.1" id="Layer_1" xmlns="http://www.w3.org/2000/svg" xmlns:xlink="http://www.w3.org/1999/xlink" x="0px" y="0px"
	 viewBox="0 0 1165.1 1059" style="enable-background:new 0 0 1165.1 1059;" xml:space="preserve">
<style type="text/css">
	.st0{fill:#01796F;}
</style>
<rect y="632" class="st0" width="1165" height="11"/>
<rect y="1056" class="st0" width="1165" height="3"/>
<g>
	<path class="st0" d="M188.2,118v24.3l-20.1,8.6l-3.6-8.6h-15.4c-20.6,0-34-11.8-34-27.7c0-16.4,15.9-33.9,42.1-38.9h1.6l18.6,42.3
		H188.2z M130.3,54.7c0-6.2,5.2-11.2,11.5-11.2c6.2,0,11.2,5,11.2,11.2c0,6.5-5,11.5-11.2,11.5C135.5,66.2,130.3,61.1,130.3,54.7z
		 M151.1,112.5c0-3.2-2.9-5.8-5.7-5.8c-3.1,0-5.7,2.6-5.7,5.8c0,3.1,2.6,5.5,5.7,5.5S151.1,115.6,151.1,112.5z M160,54.7
		c0-6.2,5-11.2,11.3-11.2c6.2,0,11.3,5,11.3,11.2c0,6.5-5.2,11.5-11.3,11.5C165,66.2,160,61.1,160,54.7z"/>
	<path class="st0" d="M216.3,142.3h-37.9V118h28.5l-9.6-25.1l20.1-8.3l22.2,57.7l-20.1,8.6L216.3,142.3z M222.3,170.2
		c0,6.5-5,11.5-11.2,11.5c-6.3,0-11.5-5-11.5-11.5c0-6.2,5.2-11.2,11.5-11.2C217.3,159,222.3,164,222.3,170.2z"/>
	<path class="st0" d="M290.7,118v24.3H251V32.1l21.7-6.2v80.4l9.7,11.7H290.7z"/>
	<path class="st0" d="M355.2,118v24.3h-3.1l-14.6,8.6l-6.2-8.6h-47.1V118h7.8l29.8-23l14.7,23H355.2z M295.1,76.7
		c0-6.2,5.2-11.2,11.5-11.2c6.2,0,11.2,5,11.2,11.2c0,6.5-5,11.5-11.2,11.5C300.3,88.2,295.1,83.2,295.1,76.7z M324.7,76.7
		c0-6.2,5-11.2,11.3-11.2c6.2,0,11.3,5,11.3,11.2c0,6.5-5.2,11.5-11.3,11.5C329.7,88.2,324.7,83.2,324.7,76.7z"/>
	<path class="st0" d="M493.2,118v24.3h-2.4l-19.8,8.9l-3.9-8.9H348.7V118h107.6l-3.6-8.1h-94.6l-1.5-2.6l50.5-49.2V32.1h32.1
		l-54.8,53.5H442l19.8-8.9l18.3,41.3H493.2z"/>
	<path class="st0" d="M519.4,26v116.3h-32.7V118h11V32.1L519.4,26z"/>
	<path class="st0" d="M576.5,139.9l-1.5,2.4h-38.6V32.1l21.7-6.2v92L576.5,139.9z"/>
	<path class="st0" d="M646.1,129l-11,13.3l-51.8,51.8l-2.9-2.9l49.1-48.9h-16.5c-20.6,0-34-11.8-34-27.7c0-16.4,15.9-33.9,42.1-38.9
		h1.6L646.1,129z M614.9,112.5c0-3.2-2.9-5.8-5.7-5.8c-3.1,0-5.7,2.6-5.7,5.8c0,3.1,2.6,5.5,5.7,5.5S614.9,115.6,614.9,112.5z"/>
	<path class="st0" d="M827.1,118v24.3h-9.7l-19.8,8.9l-3.9-8.9H680.8l-1.5-2.4l18.3-21.9h7.3l32.4-32.4H766l28.4-27.5V32.1h30.5
		l-39.2,38.4l21.1,47.5H827.1z M782,115.9l-2.8-6h-60.8l-7.9,8.1h72.3L782,115.9z"/>
	<path class="st0" d="M899,157.7l-15.4-15.4h-63V118h38.9l-30.3-30.3l15.4-15.4l45.8,46V118h22.4v22.7l1.6,1.6L899,157.7z
		 M874.2,76.9c0-6.2,5.2-11.2,11.5-11.2c6.2,0,11.2,5,11.2,11.2c0,6.5-5,11.5-11.2,11.5C879.4,88.4,874.2,83.3,874.2,76.9z"/>
	<path class="st0" d="M939,26v116.3h-32.7V118h11V32.1L939,26z"/>
	<path class="st0" d="M996,139.9l-1.5,2.4H956V32.1l21.7-6.2v92L996,139.9z"/>
	<path class="st0" d="M1030.1,161.6l15.7-14.9l24,24.3l19-18.5V81.4l21.7-3.9v58.8l-38.7,38.4h-29.5L1030.1,161.6z M1050,106.3
		c0-6.2,5.2-11.2,11.5-11.2c6.2,0,11.2,5,11.2,11.2c0,6.5-5,11.5-11.2,11.5C1055.2,117.8,1050,112.8,1050,106.3z"/>
	<path class="st0" d="M1158.4,167.9l1,1.1l-5.7,12.8l-30,8.3l-1-1.1l5.8-12.8l3.9-1.1c-3.7-3.2-4.2-8.6-0.2-12.6l12-12l2.9,2.8
		l-7.6,7.6c2.1,5.5,6.6,9.4,15.9,7.9L1158.4,167.9z M1165,139.9l-1.5,2.4H1125V32.1l21.7-6.2v92L1165,139.9z"/>
	<path class="st0" d="M251.7,299v24.3h-11.2l-13,13l-24.5-24l-26.9,26.6l43.9,44.4l-13,13l-46.7-47.3l13-13l26.9-26.6l-35.5-36.3
		c12-13.9,25.3-21.4,39-21.4c12.3,0,25.4,7.5,38.9,21.4L218.1,299H251.7z M197.9,277.6c0,3.1,2.4,5.7,5.7,5.7c3.1,0,5.7-2.6,5.7-5.7
		s-2.6-5.7-5.7-5.7C200.3,271.9,197.9,274.5,197.9,277.6z"/>
	<path class="st0" d="M286.3,331.9l-3.2-8.6h-37.9V299h28.5l-9.6-25.1l20.1-8.3l22.2,57.7L286.3,331.9z M251.3,261.6l-1-1.1
		l5.8-12.8l3.9-1.1c-3.7-3.2-4.2-8.6-0.2-12.6l12-12l2.9,2.8l-7.6,7.6c2.1,5.5,6.6,9.4,15.9,7.9l2.9-0.8l1,1.1l-5.7,12.8
		L251.3,261.6z"/>
	<path class="st0" d="M352.6,299v24.3h-39.7V213.1l21.7-6.2v80.4l9.7,11.7H352.6z"/>
	<path class="st0" d="M417.1,299v24.3H414l-14.6,8.6l-6.2-8.6h-47.1V299h7.8l29.8-23l14.7,23H417.1z M371.9,257.9
		c0-6.2,5.2-11.2,11.5-11.2c6.2,0,11.2,5,11.2,11.2c0,6.5-5,11.5-11.2,11.5C377,269.4,371.9,264.3,371.9,257.9z"/>
	<path class="st0" d="M549.7,299v24.3h-8.3l-19.8,8.9l-3.9-8.9H410.6V299h12.3v-43.9l21.7-3.9v15.4h48.1l19.8-8.9l18.3,41.3H549.7z
		 M507,299l-3.6-8.1h-58.8v8.1H507z"/>
	<path class="st0" d="M576,207v116.3h-32.7V299h11v-85.9L576,207z"/>
	<path class="st0" d="M633,320.9l-1.5,2.4H593V213.1l21.7-6.2v92L633,320.9z"/>
	<path class="st0" d="M750.4,307.9l-15.4,15.4h-69l-1.5-2.4l18.3-21.9h32.4L689,266.6l16.7-13.8L750.4,307.9z"/>
	<path class="st0" d="M801.8,320.9l-1.5,2.4h-38.6V213.1l21.7-6.2v92L801.8,320.9z"/>
	<path class="st0" d="M894.5,299v24.3h-86.3l-1.5-2.4L825,299h32.4l-26.2-32.4l16.7-13.8l37.4,46.2H894.5z"/>
	<path class="st0" d="M977.9,301.8l-18,21.5H888V299h13.3c-1.6-2.6-2.4-5.5-2.4-8.1c0-4.2,2.4-9.4,6-13l33-33l2.8,2.9l-26.1,26.2
		c6,10.2,15.6,19.4,26.2,24.9h35.6L977.9,301.8z"/>
	<path class="st0" d="M1092.3,323.3h-13l-39.5,32.4h-29.5l-12.1-13.1l15.7-14.9l24,24.3l29.8-24.5l-27.7-60.9l19.8-9.2l18.6,41.6
		h13.9V323.3z M1015.3,301.1c0-6.2,5.2-11.2,11.5-11.2c6.2,0,11.2,5,11.2,11.2c0,6.5-5,11.5-11.2,11.5
		C1020.5,312.6,1015.3,307.6,1015.3,301.1z"/>
	<path class="st0" d="M1144.9,331.9l-3.4-8.6h-55.7V299h6.3c-0.2-1.1-0.2-2.3-0.2-3.4c0-16.4,15.9-33.9,42.1-38.9h1.6l23.5,53.3
		l5.8,13.3L1144.9,331.9z M1116.6,293.5c0,3.1,2.6,5.5,5.7,5.5c3.1,0,5.7-2.4,5.7-5.5c0-3.2-2.9-5.8-5.7-5.8
		C1119.2,287.7,1116.6,290.3,1116.6,293.5z"/>
	<path class="st0" d="M644.7,480v24.3l-20.1,8.6l-3.6-8.6h-15.4c-20.6,0-34-11.8-34-27.7c0-16.4,15.9-33.9,42.1-38.9h1.6L634,480
		H644.7z M586.8,416.7c0-6.2,5.2-11.2,11.5-11.2c6.2,0,11.2,5,11.2,11.2c0,6.5-5,11.5-11.2,11.5C592,428.2,586.8,423.1,586.8,416.7z
		 M607.6,474.5c0-3.2-2.9-5.8-5.7-5.8c-3.1,0-5.7,2.6-5.7,5.8c0,3.1,2.6,5.5,5.7,5.5S607.6,477.6,607.6,474.5z M616.5,416.7
		c0-6.2,5-11.2,11.3-11.2c6.2,0,11.3,5,11.3,11.2c0,6.5-5.2,11.5-11.3,11.5C621.5,428.2,616.5,423.1,616.5,416.7z"/>
	<path class="st0" d="M705.9,480v24.3h-3.1l-14.6,8.6l-6.2-8.6h-47.1V480h7.8l29.8-23l14.7,23H705.9z M666.2,532.2
		c0,6.5-5,11.5-11.2,11.5c-6.3,0-11.5-5-11.5-11.5c0-6.2,5.2-11.2,11.5-11.2C661.2,521,666.2,526,666.2,532.2z M695.9,532.2
		c0,6.5-5.2,11.5-11.3,11.5c-6.3,0-11.3-5-11.3-11.5c0-6.2,5-11.2,11.3-11.2C690.7,521,695.9,526,695.9,532.2z"/>
	<path class="st0" d="M748.7,512.9l-3.2-8.6h-46V480H736l-9.6-25.1l20.1-8.3l22.2,57.7L748.7,512.9z M717.2,427.3
		c0-6.2,5.2-11.2,11.5-11.2c6.2,0,11.2,5,11.2,11.2c0,6.5-5,11.5-11.2,11.5C722.4,438.9,717.2,433.8,717.2,427.3z"/>
	<path class="st0" d="M819.8,480v24.3h-39.7V394.1l21.7-6.2v80.4l9.7,11.7H819.8z"/>
	<path class="st0" d="M930.4,504.3h-13.1l-8.3,13.4h-13.4c-9.9,0-18.3-1.9-21.7-13.1l-0.2-0.3h-60.4V480h11l28-17.2l5.5,17.2h8.4
		l-6.5-20.9l19.1-11.2l12.5,39.7c1.5,4.5,3.2,5.8,8.4,5.8h1.8l-15.1-48.9l19.3-10.4l16.4,45.8h8.3V504.3z"/>
	<path class="st0" d="M973.2,512.9l-3.2-8.6h-46V480h36.6l-9.6-25.1l20.1-8.3l22.2,57.7L973.2,512.9z M941.8,427.3
		c0-6.2,5.2-11.2,11.5-11.2c6.2,0,11.2,5,11.2,11.2c0,6.5-5,11.5-11.2,11.5C946.9,438.9,941.8,433.8,941.8,427.3z"/>
	<path class="st0" d="M1064.1,443.5l45.2,45.4l-15.2,15.4l-11.5-11.7l-11.5,11.7h-69.8l-1.5-2.4l46.2-45.8l-33.4-33.4l15.2-15.4
		l33.5,33.5l20.7-20.7v-25.8h31.6L1064.1,443.5z M1059.5,529.9l1,1.1l-5.7,12.8l-30,8.3l-1-1.1l5.8-12.8l3.9-1.1
		c-3.7-3.2-4.2-8.6-0.2-12.6l12-12l2.9,2.8l-7.6,7.6c2.1,5.5,6.6,9.4,15.9,7.9L1059.5,529.9z M1048.7,458.9l-21.2,21.1h42.3
		L1048.7,458.9z"/>
	<path class="st0" d="M1165,501.9l-1.5,2.4H1125V394.1l21.7-6.2v92L1165,501.9z"/>
</g>
<g>
	<path class="st0" d="M139.5,814.8H131l-26.1,21.4H85.4l-8-8.7l10.4-9.8l15.8,16l19.7-16.2L105,777.4l13.1-6.1l12.3,27.5h9.2V814.8z
		 M88.7,800.1c0-4.1,3.4-7.4,7.6-7.4c4.1,0,7.4,3.3,7.4,7.4c0,4.3-3.3,7.6-7.4,7.6C92.1,807.7,88.7,804.4,88.7,800.1z"/>
	<path class="st0" d="M194.6,800.6l-11.9,14.2h-47.5v-16h8.8c-1.1-1.7-1.6-3.6-1.6-5.3c0-2.8,1.6-6.2,4-8.6l21.8-21.8l1.8,1.9
		l-17.2,17.3c4,6.7,10.3,12.8,17.3,16.5h23.5L194.6,800.6z"/>
	<path class="st0" d="M318.9,798.8v16h-2l-9.6,5.7l-4.1-5.7h-85.6l-1-1.6l12.1-14.4h48.5l19.7-15.2l9.7,15.2H318.9z M277.8,833.2
		c0,4.3-3.3,7.6-7.4,7.6c-4.2,0-7.6-3.3-7.6-7.6c0-4.1,3.4-7.4,7.6-7.4C274.5,825.8,277.8,829.1,277.8,833.2z"/>
	<path class="st0" d="M361.4,798.8v16h-2l-9.6,5.7l-4.1-5.7h-31.1v-16h5.1l19.7-15.2l9.7,15.2H361.4z M335.2,833.2
		c0,4.3-3.3,7.6-7.4,7.6c-4.2,0-7.6-3.3-7.6-7.6c0-4.1,3.4-7.4,7.6-7.4C331.9,825.8,335.2,829.1,335.2,833.2z M354.8,833.2
		c0,4.3-3.4,7.6-7.5,7.6c-4.2,0-7.5-3.3-7.5-7.6c0-4.1,3.3-7.4,7.5-7.4C351.4,825.8,354.8,829.1,354.8,833.2z"/>
	<path class="st0" d="M404,798.8v16h-2l-9.6,5.7l-4.1-5.7h-31.1v-16h5.1l19.7-15.2l9.7,15.2H404z M387.6,833.2
		c0,4.3-3.3,7.6-7.4,7.6c-4.2,0-7.6-3.3-7.6-7.6c0-4.1,3.4-7.4,7.6-7.4C384.2,825.8,387.6,829.1,387.6,833.2z"/>
	<path class="st0" d="M451.5,825l-10.2-10.2h-41.6v-16h25.7l-20-20l10.2-10.2l30.3,30.4v-0.2h14.8v15l1.1,1.1L451.5,825z"/>
	<path class="st0" d="M478,738v76.8h-21.6v-16h7.3V742L478,738z"/>
	<path class="st0" d="M515.6,813.2l-1,1.6h-25.5V742l14.3-4.1v60.8L515.6,813.2z"/>
	<path class="st0" d="M579,738v98.2h-46.9l-1-1.6l12.1-14.4h21.4V742L579,738z"/>
	<path class="st0" d="M616.4,798.8v16h-26.2V742l14.3-4.1V791l6.4,7.7H616.4z"/>
	<path class="st0" d="M662.8,806l-7.3,8.8h-43.3v-16h6.3c-0.1-0.7-0.1-1.5-0.1-2.2c0-10.8,10.5-22.4,27.8-25.7h1.1L662.8,806z
		 M619.8,757.7c0-4.1,3.4-7.4,7.6-7.4c4.1,0,7.4,3.3,7.4,7.4c0,4.3-3.3,7.6-7.4,7.6C623.3,765.3,619.8,761.9,619.8,757.7z
		 M638.4,798.8c2,0,3.7-1.6,3.7-3.6c0-2.1-1.9-3.9-3.7-3.9c-2,0-3.7,1.7-3.7,3.9C634.6,797.1,636.3,798.8,638.4,798.8z M639.4,757.7
		c0-4.1,3.3-7.4,7.5-7.4c4.1,0,7.5,3.3,7.5,7.4c0,4.3-3.4,7.6-7.5,7.6C642.7,765.3,639.4,761.9,639.4,757.7z"/>
	<path class="st0" d="M714.3,813.2l-1,1.6h-25.5V742l14.3-4.1v60.8L714.3,813.2z"/>
	<path class="st0" d="M774.2,804.6l-10.2,10.2h-45.6l-1-1.6l12.1-14.4H751l-17.3-21.4l11-9.1L774.2,804.6z M723,761
		c0-4.1,3.4-7.4,7.6-7.4c4.1,0,7.4,3.3,7.4,7.4c0,4.3-3.3,7.6-7.4,7.6C726.4,768.6,723,765.3,723,761z"/>
	<path class="st0" d="M807.9,798.8v16h-26.2V742l14.3-4.1V791l6.4,7.7H807.9z"/>
	<path class="st0" d="M842.7,820.5l-2.2-5.7h-36.8v-16h4.2c-0.1-0.7-0.1-1.5-0.1-2.2c0-10.8,10.5-22.4,27.8-25.7h1.1l15.5,35.2
		l3.9,8.8L842.7,820.5z M824,795.1c0,2,1.7,3.6,3.7,3.6c2,0,3.7-1.6,3.7-3.6c0-2.1-1.9-3.9-3.7-3.9C825.7,791.3,824,793,824,795.1z"
		/>
	<path class="st0" d="M907.6,813.2l-1,1.6h-25.5V742l14.3-4.1v60.8L907.6,813.2z"/>
	<path class="st0" d="M955,798.8v16h-8.7L912.1,849l-1.9-1.9l32.4-32.3h-10.9c-13.6,0-22.5-7.8-22.5-18.3
		c0-10.8,10.5-22.4,27.8-25.7h1.1l12.3,27.9H955z M932.9,795.1c0-2.1-1.9-3.9-3.7-3.9c-2,0-3.7,1.7-3.7,3.9c0,2,1.7,3.6,3.7,3.6
		C931.2,798.8,932.9,797.1,932.9,795.1z"/>
	<path class="st0" d="M1012.8,798.8v16h-7.1l-8.6,8.6l-8.8-8.6h-37.8v-16h21.9l-16.8-17.1c7.9-9.2,16.7-14.1,25.8-14.1
		c8.1,0,16.8,4.9,25.7,14.1L991,798.8H1012.8z M977.6,784.6c0,2,1.6,3.7,3.7,3.7c2,0,3.7-1.7,3.7-3.7s-1.7-3.7-3.7-3.7
		C979.3,780.9,977.6,782.6,977.6,784.6z"/>
	<path class="st0" d="M1061,798.8v16h-0.1l-13.3,5.7l-2.2-5.7h-36.8v-16h4.2c-0.1-0.7-0.1-1.5-0.1-2.2c0-10.8,10.5-22.4,27.8-25.7
		h1.1l12.3,27.9H1061z M1028.9,795.1c0,2,1.7,3.6,3.7,3.6c2,0,3.7-1.6,3.7-3.6c0-2.1-1.9-3.9-3.7-3.9
		C1030.6,791.3,1028.9,793,1028.9,795.1z"/>
	<path class="st0" d="M1131.1,805.6l-11.1,18.1h-8.9c-6.5,0-12.1-1.3-14.3-8.7l-0.1-0.2h-39.9v-16h7.3l18.5-11.3l3.6,11.3h5.6
		l-4.3-13.8l12.6-7.4l8.2,26.2c1,3,2.1,3.9,5.6,3.9h1.2l-10-32.3l12.7-6.8L1131.1,805.6z"/>
	<path class="st0" d="M1165,813.2l-1,1.6h-25.5V742l14.3-4.1v60.8L1165,813.2z"/>
	<path class="st0" d="M135.2,934.8v16h-2l-9.6,5.7l-4.1-5.7H33.9l-1-1.6L45,934.8h48.5l19.7-15.2l9.7,15.2H135.2z M94.2,969.2
		c0,4.3-3.3,7.6-7.4,7.6c-4.2,0-7.6-3.3-7.6-7.6c0-4.1,3.4-7.4,7.6-7.4C90.8,961.8,94.2,965.1,94.2,969.2z"/>
	<path class="st0" d="M189.2,959l-5.9-8.2H131v-16h8.2c-0.9-2-1.3-4.3-1.3-6.7c0-10.8,10.7-22,27.8-25.4h1.1l12.2,17.2l0.7-0.7
		v-16.5h20.8l-20,19.3l20.5,28.9L189.2,959z M148.3,921.8c-0.1,2.6,2,4.6,4.5,4.6c2.5,0,4.5-2,4.6-4.6c-0.1-2.5-2.1-4.5-4.6-4.5
		C150.3,917.3,148.2,919.3,148.3,921.8z M158.1,931c0,2,1.7,3.7,3.7,3.7c2,0,3.7-1.7,3.7-3.7c0-2-1.7-3.7-3.7-3.7
		C159.9,927.3,158.1,929,158.1,931z"/>
	<path class="st0" d="M250.3,942l-7.3,8.8L208.8,985l-1.9-1.9l32.4-32.3h-10.9c-13.6,0-22.5-7.8-22.5-18.3
		c0-10.8,10.5-22.4,27.8-25.7h1.1L250.3,942z M229.6,931.1c0-2.1-1.9-3.9-3.7-3.9c-2,0-3.7,1.7-3.7,3.9c0,2,1.7,3.6,3.7,3.6
		C227.9,934.8,229.6,933.1,229.6,931.1z"/>
	<path class="st0" d="M374.5,934.8v16h-2l-9.6,5.7l-4.1-5.7h-85.6l-1-1.6l12.1-14.4h48.5l19.7-15.2l9.7,15.2H374.5z M297.9,916.5
		c0-4.1,3.4-7.4,7.6-7.4c4.1,0,7.4,3.3,7.4,7.4c0,4.3-3.3,7.6-7.4,7.6C301.3,924.1,297.9,920.7,297.9,916.5z M317.5,916.5
		c0-4.1,3.3-7.4,7.5-7.4c4.1,0,7.5,3.3,7.5,7.4c0,4.3-3.4,7.6-7.5,7.6C320.8,924.1,317.5,920.7,317.5,916.5z"/>
	<path class="st0" d="M417.1,934.8v16h-2l-9.6,5.7l-4.1-5.7h-31.1v-16h5.1l19.7-15.2l9.7,15.2H417.1z M387.2,907.6
		c0-4.1,3.4-7.4,7.6-7.4c4.1,0,7.4,3.3,7.4,7.4c0,4.3-3.3,7.6-7.4,7.6C390.7,915.2,387.2,911.9,387.2,907.6z"/>
	<path class="st0" d="M437.8,950.8h-25v-16h18.8l-6.3-16.6l13.3-5.5l14.7,38.1l-13.3,5.7L437.8,950.8z M441.8,969.2
		c0,4.3-3.3,7.6-7.4,7.6c-4.2,0-7.6-3.3-7.6-7.6c0-4.1,3.4-7.4,7.6-7.4C438.5,961.8,441.8,965.1,441.8,969.2z"/>
	<path class="st0" d="M524,934.8v16l-13.3,5.7l-2.4-5.7h-10.2c-13.6,0-22.5-7.8-22.5-18.3c0-10.8,10.5-22.4,27.8-25.7h1.1l12.3,27.9
		H524z M485.8,892.9c0-4.1,3.4-7.4,7.6-7.4c4.1,0,7.4,3.3,7.4,7.4c0,4.3-3.3,7.6-7.4,7.6C489.2,900.5,485.8,897.2,485.8,892.9z
		 M499.5,931.1c0-2.1-1.9-3.9-3.7-3.9c-2,0-3.7,1.7-3.7,3.9c0,2,1.7,3.6,3.7,3.6C497.8,934.8,499.5,933.1,499.5,931.1z M505.4,892.9
		c0-4.1,3.3-7.4,7.5-7.4c4.1,0,7.5,3.3,7.5,7.4c0,4.3-3.4,7.6-7.5,7.6C508.7,900.5,505.4,897.2,505.4,892.9z"/>
	<path class="st0" d="M564.4,934.8v16h-2l-9.6,5.7l-4.1-5.7h-31.1v-16h5.1l19.7-15.2l9.7,15.2H564.4z M534.6,907.6
		c0-4.1,3.4-7.4,7.6-7.4c4.1,0,7.4,3.3,7.4,7.4c0,4.3-3.3,7.6-7.4,7.6C538,915.2,534.6,911.9,534.6,907.6z"/>
	<path class="st0" d="M599.2,956.5l-2.2-5.7h-36.8v-16h4.2c-0.1-0.7-0.1-1.5-0.1-2.2c0-10.8,10.5-22.4,27.8-25.7h1.1l15.5,35.2
		l3.9,8.8L599.2,956.5z M580.5,931.1c0,2,1.7,3.6,3.7,3.6c2,0,3.7-1.6,3.7-3.6c0-2.1-1.9-3.9-3.7-3.9
		C582.2,927.3,580.5,929,580.5,931.1z"/>
	<path class="st0" d="M634.8,881.9l-19.8,5.5l-0.6-0.7l3.9-8.5l2.6-0.7c-2.5-2.1-2.8-5.7-0.1-8.3l7.9-7.9l1.9,1.8l-5,5
		c1.4,3.6,4.4,6.2,10.5,5.2l1.9-0.5l0.6,0.7L634.8,881.9z M646.4,949.2l-1,1.6h-25.5v-60.1l14.3-4.1v48.1L646.4,949.2z"/>
	<path class="st0" d="M716,934.8v16l-13.3,5.7l-2.4-5.7h-10.2c-13.6,0-22.5-7.8-22.5-18.3c0-10.8,10.5-22.4,27.8-25.7h1.1l12.3,27.9
		H716z M691.5,931.1c0-2.1-1.9-3.9-3.7-3.9c-2,0-3.7,1.7-3.7,3.9c0,2,1.7,3.6,3.7,3.6C689.8,934.8,691.5,933.1,691.5,931.1z"/>
	<path class="st0" d="M748.7,956.5l-2.2-5.7h-36.8v-16h4.2c-0.1-0.7-0.1-1.5-0.1-2.2c0-10.8,10.5-22.4,27.8-25.7h1.1l15.5,35.2
		l3.9,8.8L748.7,956.5z M729.9,931.1c0,2,1.7,3.6,3.7,3.6c2,0,3.7-1.6,3.7-3.6c0-2.1-1.9-3.9-3.7-3.9
		C731.7,927.3,729.9,929,729.9,931.1z"/>
	<path class="st0" d="M784.3,881.9l-19.8,5.5l-0.6-0.7l3.9-8.5l2.6-0.7c-2.5-2.1-2.8-5.7-0.1-8.3l7.9-7.9l1.9,1.8l-5,5
		c1.4,3.6,4.4,6.2,10.5,5.2l1.9-0.5l0.6,0.7L784.3,881.9z M795.9,949.2l-1,1.6h-25.5v-60.1l14.3-4.1v48.1L795.9,949.2z"/>
	<path class="st0" d="M900.8,956.5l-2.1-5.7h-81l-1-1.6l12.1-14.4h63.7l-6.3-16.6l13.3-5.5l14.7,38.1L900.8,956.5z M842.4,916.5
		c0-4.1,3.4-7.4,7.6-7.4c4.1,0,7.4,3.3,7.4,7.4c0,4.3-3.3,7.6-7.4,7.6C845.8,924.1,842.4,920.7,842.4,916.5z M862,916.5
		c0-4.1,3.3-7.4,7.5-7.4c4.1,0,7.5,3.3,7.5,7.4c0,4.3-3.4,7.6-7.5,7.6C865.3,924.1,862,920.7,862,916.5z"/>
	<path class="st0" d="M960.8,910.7l29.9,30l-10.1,10.2l-7.6-7.7l-7.6,7.7h-46.1l-1-1.6l30.5-30.3l-22-22l10.1-10.2l22.1,22.1
		l13.7-13.7v-17h20.9L960.8,910.7z M950.7,920.8l-14,13.9h27.9L950.7,920.8z"/>
	<path class="st0" d="M1027.3,934.8v16h-26.2V878l14.3-4.1V927l6.4,7.7H1027.3z"/>
	<path class="st0" d="M1075.4,934.8v16h-0.1l-13.3,5.7l-2.2-5.7H1023v-16h4.2c-0.1-0.7-0.1-1.5-0.1-2.2c0-10.8,10.5-22.4,27.8-25.7
		h1.1l12.3,27.9H1075.4z M1043.3,931.1c0,2,1.7,3.6,3.7,3.6c2,0,3.7-1.6,3.7-3.6c0-2.1-1.9-3.9-3.7-3.9
		C1045.1,927.3,1043.3,929,1043.3,931.1z"/>
	<path class="st0" d="M1151.9,956.7l-2.6-5.9h-78.2v-16h71l-2.4-5.3h-62.5l-1-1.7l33.4-32.5V878h21.2l-36.2,35.3h38l13.1-5.9
		l19.2,43.3L1151.9,956.7z"/>
</g>
</svg>
