<?xml version="1.0" encoding="utf-8"?>
<!-- Generator: Adobe Illustrator 22.0.0, SVG Export Plug-In . SVG Version: 6.00 Build 0)  -->
<svg version="1.1" id="Layer_1" xmlns="http://www.w3.org/2000/svg" xmlns:xlink="http://www.w3.org/1999/xlink" x="0px" y="0px"
	 viewBox="0 0 1200 804" style="enable-background:new 0 0 1200 804;" xml:space="preserve">
<style type="text/css">
	.st0{fill:#01796F;}
	.st1{fill:#FFFFFF;}
</style>
<g>
	<g>
		<path class="st0" d="M279.7,761.6c-3.1-0.8-5.9-2-8.6-3.5c-2.6-1.5-5-3.3-7.2-5.4c-2.2-2.1-4-4.5-5.5-7.1
			c-1.5-2.6-2.7-5.5-3.6-8.6c-0.8-3.1-1.3-6.3-1.3-9.7c0-3.4,0.4-6.7,1.3-9.7c0.8-3.1,2-6,3.6-8.6c1.5-2.6,3.4-5,5.6-7.1
			c2.2-2.1,4.6-3.9,7.3-5.4c2.7-1.5,5.6-2.7,8.7-3.5c3.1-0.8,6.4-1.2,9.8-1.2c1.9,0,3.6,0.1,5.1,0.4c1.5,0.3,2.9,0.6,4.1,1
			c1.2,0.4,2.3,0.8,3.3,1.3c1,0.5,1.8,0.9,2.6,1.3c0.8,0.4,1.4,0.7,2,1c0.6,0.3,1.1,0.4,1.6,0.4c0.5,0,0.9-0.1,1.2-0.4
			c0.3-0.3,0.5-0.6,0.7-1c0.2-0.4,0.4-0.8,0.6-1.3c0.2-0.4,0.4-0.9,0.6-1.3c0.2-0.4,0.5-0.7,0.9-1c0.4-0.3,0.8-0.4,1.5-0.4h0.3v23.9
			h-0.5c-0.9,0-1.6-0.2-2.2-0.6c-0.6-0.4-1.1-1.1-1.5-1.9c-0.4-0.8-0.8-1.8-1.1-3c-0.3-1.2-0.6-2.5-1-3.9c-0.4-1.7-1.1-3.3-2-4.8
			c-0.9-1.5-2.2-2.8-3.7-3.9c-1.5-1.1-3.3-2-5.3-2.6c-2-0.6-4.4-0.9-7-0.9c-3.2,0-6.1,0.7-8.7,2.2c-2.6,1.5-4.9,3.6-6.8,6.4
			c-1.9,2.8-3.4,6.3-4.4,10.4c-1,4.1-1.6,8.8-1.6,14.1c0,5.3,0.5,10,1.6,14.1c1,4.1,2.5,7.6,4.4,10.4c1.9,2.8,4.1,5,6.7,6.4
			c2.6,1.5,5.4,2.2,8.4,2.2c2,0,3.8-0.2,5.3-0.7c1.5-0.4,2.8-1.1,3.8-2.1c1-0.9,1.8-2.1,2.3-3.6c0.5-1.4,0.8-3.1,0.8-5.1v-14.1
			h-10.2v-2.4h33.9v2.4h-10.3v27.6h-0.3c-0.9,0-1.6-0.1-2.2-0.4c-0.5-0.3-1-0.6-1.4-1c-0.4-0.4-0.7-0.8-0.9-1.3
			c-0.2-0.5-0.5-0.9-0.8-1.3c-0.3-0.4-0.7-0.7-1.1-1c-0.4-0.3-1-0.4-1.7-0.4c-0.6,0-1.2,0.1-1.8,0.4c-0.6,0.3-1.2,0.6-1.9,1.1
			s-1.4,0.9-2.2,1.4c-0.8,0.5-1.7,0.9-2.8,1.3c-1.1,0.4-2.3,0.8-3.7,1c-1.4,0.3-3,0.4-4.9,0.4C285.9,762.8,282.7,762.4,279.7,761.6z
			"/>
		<path class="st0" d="M334.4,762c-1.9-0.5-3.6-1.3-5-2.3s-2.5-2.3-3.3-3.8c-0.8-1.5-1.2-3.3-1.2-5.2c0-2,0.4-3.7,1.1-5.2
			c0.7-1.5,1.7-2.8,3.1-3.9c1.3-1.1,2.9-2,4.7-2.7c1.8-0.7,3.7-1.3,5.9-1.8c2.1-0.4,4.4-0.8,6.7-1c2.4-0.2,4.8-0.4,7.2-0.5v-7.2
			c0-1.9-0.1-3.5-0.4-5c-0.2-1.4-0.7-2.6-1.3-3.6c-0.6-1-1.4-1.7-2.4-2.2c-1-0.5-2.3-0.8-3.8-0.8c-1,0-1.9,0.1-2.8,0.2
			c-0.9,0.1-1.7,0.4-2.4,0.7c-0.7,0.3-1.3,0.7-1.7,1.2c-0.4,0.5-0.6,1.1-0.6,1.8c0,0.6,0.1,1.1,0.4,1.5c0.3,0.4,0.6,0.9,0.9,1.3
			c0.3,0.4,0.7,0.9,1,1.4c0.3,0.5,0.5,1.2,0.5,2c0,1.7-0.5,3-1.6,3.8c-1.1,0.9-2.5,1.3-4.2,1.3c-0.8,0-1.6-0.2-2.4-0.5
			c-0.7-0.3-1.4-0.7-1.9-1.3c-0.5-0.5-1-1.2-1.3-1.9c-0.3-0.8-0.5-1.6-0.5-2.5c0-1.7,0.5-3.2,1.5-4.6c1-1.4,2.4-2.6,4.1-3.6
			c1.7-1,3.6-1.7,5.9-2.3c2.2-0.5,4.5-0.8,6.9-0.8c2.9,0,5.4,0.3,7.8,1c2.3,0.7,4.3,1.7,5.9,3.1c1.6,1.4,2.9,3.2,3.7,5.4
			c0.9,2.2,1.3,4.8,1.3,7.9l-0.2,20.2c0,1.3,0.1,2.4,0.2,3.3c0.1,0.9,0.3,1.6,0.6,2.2c0.3,0.5,0.6,0.9,1.1,1.2
			c0.4,0.2,1,0.4,1.7,0.4c0.5,0,0.9,0,1.3-0.2c0.4-0.1,0.8-0.2,1.2-0.4c0.4-0.2,0.7-0.3,1-0.5c0.3-0.2,0.6-0.4,0.8-0.6l1.3,1.8
			c-0.4,0.4-0.9,0.8-1.5,1.1c-0.6,0.4-1.4,0.7-2.3,1.1c-0.9,0.3-1.8,0.6-2.8,0.8c-1,0.2-2.1,0.3-3.1,0.3c-2.1,0-3.9-0.2-5.4-0.7
			c-1.4-0.4-2.6-1.1-3.4-1.8c-0.9-0.8-1.5-1.7-1.8-2.7c-0.4-1-0.5-2.1-0.5-3.2v-0.1c-0.5,1.3-1.1,2.4-1.9,3.5
			c-0.8,1-1.7,1.9-2.7,2.7c-1.1,0.8-2.3,1.3-3.8,1.8c-1.5,0.4-3.1,0.6-5,0.6C338.4,762.8,336.3,762.5,334.4,762z M347.9,758.6
			c1.1-0.7,2.1-1.7,3-3c0.8-1.3,1.5-3,1.9-5c0.5-2,0.7-4.3,0.7-6.9v-5.8c-2.9,0-5.3,0.2-7.2,0.6c-1.9,0.4-3.5,1.1-4.7,2
			c-1.2,0.9-2.1,2.2-2.6,3.7c-0.5,1.5-0.8,3.4-0.8,5.7c0,1.7,0.1,3.2,0.4,4.4c0.3,1.2,0.6,2.3,1.1,3c0.5,0.8,1.1,1.4,1.9,1.7
			c0.8,0.4,1.6,0.5,2.5,0.5C345.5,759.7,346.8,759.3,347.9,758.6z"/>
		<path class="st0" d="M378.7,690.8h-8v-2.4h20.4v36.2l-1.8,14.3l1.3,13.4l-0.1,9.4h-11.9L378.7,690.8z M399.9,761.9
			c-1.6-0.6-3-1.3-4.2-2.3c-1.2-1-2.3-2.1-3.2-3.3s-1.6-2.6-2.1-3.9l-2.3-13.6l2.4-13.8c0.5-1.4,1.1-2.6,2-3.9
			c0.9-1.2,1.9-2.3,3.1-3.2c1.2-0.9,2.6-1.7,4.2-2.2c1.6-0.5,3.3-0.8,5.2-0.8c3,0,5.8,0.6,8.5,1.7c2.7,1.1,5,2.7,7.1,4.8
			c2,2.1,3.7,4.6,4.9,7.6c1.2,2.9,1.8,6.2,1.8,9.9s-0.6,6.9-1.8,9.9c-1.2,2.9-2.8,5.5-4.9,7.6c-2,2.1-4.4,3.7-7.1,4.8
			c-2.7,1.1-5.5,1.7-8.5,1.7C403.2,762.8,401.5,762.5,399.9,761.9z M407.7,758.1c1.4-1.1,2.6-2.6,3.6-4.5c1-1.9,1.7-4.1,2.1-6.7
			c0.5-2.6,0.7-5.3,0.7-8.2c0-2.9-0.2-5.6-0.7-8.2c-0.5-2.5-1.2-4.8-2.1-6.6c-1-1.9-2.2-3.4-3.6-4.5c-1.4-1.1-3.2-1.6-5.2-1.6
			c-1.9,0-3.7,0.5-5.2,1.6c-1.5,1.1-2.8,2.6-3.9,4.5c-1.1,1.9-1.9,4.1-2.5,6.6c-0.6,2.5-0.9,5.3-0.9,8.2c0,2.9,0.3,5.6,0.9,8.2
			c0.6,2.6,1.4,4.8,2.5,6.7c1.1,1.9,2.4,3.4,3.9,4.5c1.5,1.1,3.3,1.6,5.2,1.6C404.5,759.7,406.2,759.2,407.7,758.1z"/>
		<path class="st0" d="M447.8,761.1c-3.1-1.1-5.8-2.7-8.1-4.7c-2.3-2-4-4.5-5.3-7.4s-1.9-6.1-1.9-9.6c0-2.8,0.3-5.3,1-7.6
			c0.7-2.3,1.6-4.4,2.8-6.2c1.2-1.8,2.5-3.4,4.1-4.8c1.6-1.4,3.3-2.5,5.1-3.4c1.8-0.9,3.7-1.5,5.6-2c1.9-0.4,3.8-0.7,5.7-0.7
			c3.3,0,6.3,0.6,8.9,1.7c2.6,1.1,4.8,2.7,6.6,4.6c1.8,2,3.1,4.3,4,7c0.9,2.7,1.2,5.6,1.1,8.8h-35l0.1-2.4h22.2
			c0.2-2.9,0.1-5.5-0.1-7.7c-0.2-2.2-0.7-4-1.4-5.5c-0.7-1.4-1.6-2.5-2.7-3.2c-1.1-0.7-2.5-1.1-4-1.1c-1.9,0-3.5,0.5-4.9,1.5
			c-1.4,1-2.5,2.4-3.4,4.3c-0.9,1.9-1.5,4.2-1.9,7c-0.4,2.8-0.6,5.9-0.6,9.6c0,3.5,0.3,6.5,0.8,9.1c0.6,2.6,1.4,4.8,2.5,6.5
			c1.1,1.7,2.5,3,4.2,3.9c1.7,0.9,3.7,1.3,5.9,1.3c1.8,0,3.6-0.3,5.3-0.8c1.7-0.5,3.3-1.3,4.7-2.4c1.4-1.1,2.6-2.4,3.7-4
			c1.1-1.6,1.9-3.5,2.5-5.6l2.5,0.6c-0.6,2.4-1.6,4.5-2.8,6.4c-1.2,1.9-2.7,3.4-4.4,4.7c-1.7,1.3-3.6,2.2-5.8,2.8
			c-2.1,0.6-4.4,1-6.9,1C454.3,762.8,450.9,762.2,447.8,761.1z"/>
		<path class="st0" d="M478.3,759.2h8v-40.3h-8v-2.4h19.8l0,10.4h0.5v32.3h10.2v2.4h-30.6V759.2z M514.1,730.9
			c-0.8-0.2-1.4-0.6-1.9-1.1c-0.5-0.5-1-1-1.3-1.7c-0.3-0.7-0.5-1.4-0.5-2.3c0-0.9,0.1-1.7,0.4-2.3c0.2-0.6,0.5-1.1,0.8-1.6
			c0.3-0.5,0.5-0.9,0.7-1.3c0.2-0.4,0.3-0.8,0.3-1.3c0-0.3-0.1-0.5-0.2-0.8c-0.1-0.2-0.3-0.5-0.6-0.6c-0.2-0.2-0.6-0.3-1-0.4
			c-0.4-0.1-0.9-0.2-1.4-0.2c-1.6,0-3.1,0.6-4.5,1.7c-1.3,1.1-2.5,2.6-3.4,4.5c-0.9,1.8-1.7,4-2.2,6.3c-0.5,2.4-0.8,4.8-0.8,7.3
			l-0.7-10.1c0.5-1.8,1.2-3.5,2-5c0.8-1.5,1.7-2.8,2.8-3.8c1.1-1.1,2.3-1.9,3.7-2.4c1.4-0.6,2.9-0.8,4.5-0.8c1.7,0,3.3,0.2,4.8,0.7
			c1.5,0.5,2.7,1.1,3.8,2c1.1,0.9,1.9,1.9,2.5,3.1c0.6,1.2,0.9,2.5,0.8,3.9c0,1-0.1,2-0.4,2.8c-0.3,0.8-0.7,1.5-1.2,2
			c-0.5,0.6-1.2,1-1.9,1.3c-0.8,0.3-1.6,0.4-2.6,0.4C515.7,731.2,514.9,731.1,514.1,730.9z"/>
		<path class="st0" d="M533.3,759.2h10.3v-63.9h-10.3v-2.4h31.3c4.3,0,8.2,0.3,11.6,0.9c3.4,0.6,6.2,1.6,8.6,2.9
			c2.3,1.3,4.1,3,5.4,5c1.2,2,1.9,4.4,1.9,7.2c0,2.3-0.5,4.3-1.4,6.2c-0.9,1.8-2.2,3.5-3.9,4.9c-1.6,1.4-3.6,2.5-5.8,3.4
			c-2.3,0.9-4.7,1.5-7.4,1.9v0.1c2.9,0.3,5.7,0.8,8.4,1.6c2.6,0.8,5,1.8,7,3.2c2,1.4,3.6,3.1,4.8,5c1.2,2,1.8,4.4,1.8,7.1
			c0,3.1-0.7,5.9-2.1,8.4c-1.4,2.4-3.4,4.5-6,6.1c-2.6,1.6-5.8,2.9-9.7,3.7c-3.8,0.8-8.2,1.3-13.1,1.3h-31.2V759.2z M556,724.5h8.1
			c2.4,0,4.5-0.3,6.2-1c1.8-0.6,3.2-1.6,4.4-2.8c1.2-1.2,2-2.8,2.6-4.6c0.5-1.8,0.8-3.9,0.8-6.3c0-2.4-0.3-4.5-0.8-6.3
			c-0.5-1.8-1.4-3.3-2.6-4.5c-1.2-1.2-2.6-2.2-4.4-2.8c-1.8-0.6-3.8-0.9-6.2-0.9H557v63.9h7.3c3.4,0,6.2-0.4,8.4-1.1
			c2.2-0.7,3.9-1.8,5.2-3.2c1.3-1.4,2.2-3.1,2.7-5.1c0.5-2,0.7-4.2,0.7-6.7s-0.3-4.7-0.8-6.7c-0.5-2-1.5-3.7-2.8-5.1
			c-1.3-1.4-3.1-2.5-5.4-3.2c-2.2-0.7-5.1-1.1-8.5-1.1H556V724.5z"/>
		<path class="st0" d="M608.1,762c-1.9-0.5-3.6-1.3-5-2.3s-2.5-2.3-3.3-3.8c-0.8-1.5-1.2-3.3-1.2-5.2c0-2,0.4-3.7,1.1-5.2
			c0.7-1.5,1.7-2.8,3.1-3.9c1.3-1.1,2.9-2,4.7-2.7c1.8-0.7,3.7-1.3,5.9-1.8c2.1-0.4,4.4-0.8,6.7-1c2.4-0.2,4.8-0.4,7.2-0.5v-7.2
			c0-1.9-0.1-3.5-0.4-5c-0.2-1.4-0.7-2.6-1.3-3.6c-0.6-1-1.4-1.7-2.4-2.2c-1-0.5-2.3-0.8-3.8-0.8c-1,0-1.9,0.1-2.8,0.2
			c-0.9,0.1-1.7,0.4-2.4,0.7c-0.7,0.3-1.3,0.7-1.7,1.2c-0.4,0.5-0.6,1.1-0.6,1.8c0,0.6,0.1,1.1,0.4,1.5c0.3,0.4,0.6,0.9,0.9,1.3
			c0.3,0.4,0.7,0.9,1,1.4c0.3,0.5,0.5,1.2,0.5,2c0,1.7-0.5,3-1.6,3.8c-1.1,0.9-2.5,1.3-4.2,1.3c-0.8,0-1.6-0.2-2.4-0.5
			c-0.7-0.3-1.4-0.7-1.9-1.3c-0.5-0.5-1-1.2-1.3-1.9c-0.3-0.8-0.5-1.6-0.5-2.5c0-1.7,0.5-3.2,1.5-4.6c1-1.4,2.4-2.6,4.1-3.6
			c1.7-1,3.6-1.7,5.9-2.3c2.2-0.5,4.5-0.8,6.9-0.8c2.9,0,5.4,0.3,7.8,1c2.3,0.7,4.3,1.7,5.9,3.1c1.6,1.4,2.9,3.2,3.7,5.4
			c0.9,2.2,1.3,4.8,1.3,7.9l-0.2,20.2c0,1.3,0.1,2.4,0.2,3.3c0.1,0.9,0.3,1.6,0.6,2.2c0.3,0.5,0.6,0.9,1.1,1.2
			c0.4,0.2,1,0.4,1.7,0.4c0.5,0,0.9,0,1.3-0.2c0.4-0.1,0.8-0.2,1.2-0.4c0.4-0.2,0.7-0.3,1-0.5c0.3-0.2,0.6-0.4,0.8-0.6l1.3,1.8
			c-0.4,0.4-0.9,0.8-1.5,1.1c-0.6,0.4-1.4,0.7-2.3,1.1c-0.9,0.3-1.8,0.6-2.8,0.8c-1,0.2-2.1,0.3-3.1,0.3c-2.1,0-3.9-0.2-5.4-0.7
			c-1.4-0.4-2.6-1.1-3.4-1.8c-0.9-0.8-1.5-1.7-1.8-2.7c-0.4-1-0.5-2.1-0.5-3.2v-0.1c-0.5,1.3-1.1,2.4-1.9,3.5s-1.7,1.9-2.7,2.7
			c-1.1,0.8-2.3,1.3-3.8,1.8c-1.5,0.4-3.1,0.6-5,0.6C612.1,762.8,610.1,762.5,608.1,762z M621.7,758.6c1.1-0.7,2.1-1.7,3-3
			c0.8-1.3,1.5-3,1.9-5c0.5-2,0.7-4.3,0.7-6.9v-5.8c-2.9,0-5.3,0.2-7.2,0.6c-1.9,0.4-3.5,1.1-4.7,2c-1.2,0.9-2.1,2.2-2.6,3.7
			c-0.5,1.5-0.8,3.4-0.8,5.7c0,1.7,0.1,3.2,0.4,4.4c0.3,1.2,0.6,2.3,1.1,3s1.1,1.4,1.9,1.7c0.8,0.4,1.6,0.5,2.5,0.5
			C619.2,759.7,620.5,759.3,621.7,758.6z"/>
		<path class="st0" d="M657.2,785c-2.9-0.7-5.5-1.8-7.6-3.3c-2.2-1.5-3.8-3.3-5.1-5.4c-1.2-2.2-1.8-4.6-1.8-7.4
			c0-2.4,0.4-4.5,1.3-6.4c0.9-1.8,2-3.3,3.4-4.6s2.9-2.2,4.6-2.8c1.7-0.6,3.3-0.9,5-0.9c2.3,0,4,0.5,5.2,1.5c1.2,1,1.8,2.2,1.8,3.8
			c0,1-0.2,1.9-0.5,2.7c-0.3,0.8-0.9,1.5-1.6,2c-0.8,0.6-1.7,1-3,1.3c-1.2,0.3-2.8,0.5-4.7,0.6c-1.5,0-2.7,0.1-3.7,0.3
			c-1,0.2-1.8,0.5-2.4,0.9c-0.6,0.4-1,0.9-1.3,1.6c-0.3,0.6-0.4,1.4-0.4,2.4c0,1.8,0.5,3.5,1.4,5c1,1.5,2.3,2.8,4.1,3.9
			c1.7,1.1,3.8,2,6.3,2.6c2.4,0.6,5.1,1,8.1,1c2.6,0,5-0.3,7-0.9c2.1-0.6,3.8-1.5,5.2-2.7c1.4-1.2,2.4-2.6,3.2-4.2
			c0.7-1.7,1.1-3.6,1.1-5.7c0-2-0.3-3.8-1-5.3s-1.5-2.7-2.6-3.7c-1.1-1-2.4-1.7-3.9-2.2c-1.5-0.5-3.1-0.7-4.9-0.7h-1.3v-2.4h1.5
			c1.7,0,3.3-0.1,4.6-0.4c1.3-0.2,2.5-0.6,3.4-1.1c1-0.5,1.7-1,2.2-1.7c0.5-0.6,0.7-1.4,0.7-2.1c0-0.6-0.1-1.1-0.4-1.6
			c-0.2-0.5-0.7-1-1.3-1.3c-0.6-0.4-1.6-0.6-2.7-0.8c-1.2-0.2-2.7-0.3-4.5-0.3l0.9-1.4c1.9-0.1,3.8-0.1,5.6,0
			c1.8,0.1,3.5,0.4,4.9,0.8c1.4,0.4,2.6,1,3.5,1.8c0.9,0.8,1.3,1.8,1.3,2.9c0,0.9-0.2,1.7-0.7,2.5c-0.5,0.8-1.2,1.4-2.2,1.9
			c-1,0.5-2.2,1-3.7,1.3s-3.3,0.5-5.5,0.6v0.1c2.7,0.2,5.3,0.5,7.6,1.1c2.3,0.6,4.3,1.4,6,2.4c1.7,1,3,2.3,3.9,3.8
			c0.9,1.5,1.4,3.3,1.4,5.3c0,2.6-0.8,5-2.3,7c-1.6,2-3.7,3.7-6.3,5.1c-2.7,1.4-5.7,2.4-9.2,3.1c-3.5,0.7-7.2,1.1-11,1.1
			C663.3,786.1,660.1,785.7,657.2,785z M659.7,745.7c-2.6-0.8-4.9-1.9-6.8-3.3c-2-1.4-3.5-3.1-4.7-5.1s-1.8-4.1-1.8-6.5
			s0.6-4.5,1.8-6.5c1.2-2,2.7-3.7,4.7-5.1c2-1.4,4.2-2.5,6.8-3.3c2.6-0.8,5.3-1.1,8.1-1.1c2.8,0,5.5,0.4,8.1,1.1
			c2.6,0.8,4.9,1.9,6.8,3.3c2,1.4,3.5,3.1,4.7,5.1c1.2,2,1.8,4.2,1.8,6.5s-0.6,4.5-1.8,6.5c-1.2,2-2.7,3.7-4.7,5.1
			c-2,1.4-4.2,2.5-6.8,3.3c-2.6,0.8-5.3,1.2-8.1,1.2C665,746.9,662.3,746.5,659.7,745.7z M671.6,743.9c1.1-0.5,2-1.4,2.7-2.5
			c0.7-1.1,1.3-2.6,1.7-4.3c0.4-1.7,0.6-3.8,0.6-6.2c0-2.4-0.2-4.5-0.6-6.3c-0.4-1.7-1-3.2-1.7-4.3c-0.7-1.1-1.6-2-2.7-2.5
			c-1.1-0.5-2.3-0.8-3.8-0.8c-1.4,0-2.6,0.3-3.7,0.8c-1.1,0.5-2,1.4-2.8,2.5c-0.7,1.1-1.3,2.6-1.7,4.3s-0.6,3.8-0.6,6.3
			c0,2.4,0.2,4.5,0.6,6.2c0.4,1.7,1,3.2,1.7,4.3c0.7,1.1,1.7,2,2.8,2.5c1.1,0.5,2.3,0.8,3.7,0.8
			C669.3,744.7,670.5,744.5,671.6,743.9z M683.7,721.2c0.9-2.1,2.3-3.8,4-5.1c1.7-1.3,3.7-1.9,6-1.9c1.2,0,2.2,0.2,3.3,0.5
			c1,0.3,1.9,0.7,2.7,1.3c0.8,0.6,1.4,1.3,1.9,2.1c0.5,0.8,0.7,1.8,0.7,2.9c0,0.7-0.1,1.3-0.3,1.9c-0.2,0.6-0.5,1.1-0.8,1.6
			c-0.4,0.4-0.8,0.8-1.4,1.1c-0.6,0.3-1.2,0.4-2,0.4c-1.3,0-2.3-0.3-3.2-1c-0.9-0.7-1.3-1.7-1.3-2.9c0-0.5,0.1-0.9,0.2-1.3
			c0.1-0.4,0.3-0.7,0.5-1.1c0.2-0.3,0.3-0.6,0.5-1c0.2-0.3,0.2-0.6,0.2-1c0-0.4-0.2-0.8-0.5-1c-0.3-0.3-0.8-0.4-1.5-0.4
			c-0.7,0-1.3,0.1-2,0.4c-0.7,0.2-1.3,0.6-1.9,1.1c-0.6,0.5-1.2,1.2-1.7,1.9c-0.5,0.8-1,1.7-1.4,2.7L683.7,721.2z"/>
		<path class="st0" d="M698.5,759.2h8v-68.4h-8v-2.4h20.4v70.8h7v2.4h-27.4V759.2z M730.9,759.2h7v-26.8c0-2-0.1-3.9-0.3-5.6
			c-0.2-1.7-0.5-3.1-1.1-4.3c-0.5-1.2-1.3-2.1-2.3-2.8c-1-0.6-2.3-1-3.9-1c-1.7,0-3.2,0.5-4.6,1.4c-1.4,0.9-2.6,2.2-3.6,3.8
			c-1,1.6-1.8,3.5-2.4,5.6c-0.6,2.1-0.9,4.4-0.9,6.7l0-10.8c0.6-1.6,1.5-3.1,2.5-4.3c1-1.3,2.2-2.3,3.5-3.2c1.3-0.9,2.8-1.6,4.4-2
			c1.6-0.5,3.4-0.7,5.2-0.7c2.4,0,4.6,0.3,6.5,0.9c1.9,0.6,3.6,1.5,5,2.8c1.4,1.3,2.4,3,3.2,5.2c0.8,2.2,1.1,4.8,1.1,7.9v27.1h8v2.4
			h-27.4V759.2z"/>
		<path class="st0" d="M771.4,761.1c-2.7-1.1-5-2.7-7.1-4.7c-2-2.1-3.6-4.6-4.8-7.5c-1.2-3-1.8-6.3-1.8-10c0-3.7,0.6-7.1,1.8-10
			c1.2-3,2.8-5.5,4.8-7.5c2-2.1,4.4-3.6,7.1-4.7c2.7-1.1,5.5-1.6,8.5-1.6c1.9,0,3.7,0.3,5.3,0.8c1.6,0.5,3,1.3,4.2,2.2
			c1.2,0.9,2.3,2,3.1,3.2c0.9,1.2,1.5,2.5,2,3.9l2.4,13.8l-2.3,13.6c-0.5,1.4-1.1,2.7-2,3.9c-0.9,1.3-1.9,2.4-3.2,3.3
			c-1.2,1-2.7,1.7-4.2,2.3c-1.6,0.6-3.3,0.8-5.3,0.8C776.9,762.8,774.1,762.2,771.4,761.1z M787.7,758.1c1.5-1.1,2.9-2.6,3.9-4.5
			c1.1-1.9,1.9-4.1,2.5-6.7c0.6-2.6,0.9-5.3,0.9-8.2c0-2.9-0.3-5.6-0.9-8.2c-0.6-2.5-1.4-4.8-2.5-6.6c-1.1-1.9-2.4-3.4-3.9-4.5
			c-1.5-1.1-3.3-1.6-5.2-1.6c-2,0-3.7,0.5-5.1,1.6c-1.5,1.1-2.7,2.6-3.6,4.5c-0.9,1.9-1.6,4.1-2.1,6.6c-0.5,2.5-0.7,5.3-0.7,8.2
			c0,2.9,0.2,5.6,0.7,8.2c0.5,2.6,1.2,4.8,2.1,6.7c0.9,1.9,2.1,3.4,3.6,4.5c1.5,1.1,3.2,1.6,5.1,1.6
			C784.4,759.7,786.2,759.2,787.7,758.1z M794.4,752.2l1.3-13.3l-1.7-14.3v-33.7h-8.2v-2.4h20.7v70.8h8v2.4h-19.9L794.4,752.2z"/>
		<path class="st0" d="M824.4,762c-1.9-0.5-3.6-1.3-5-2.3s-2.5-2.3-3.3-3.8c-0.8-1.5-1.2-3.3-1.2-5.2c0-2,0.4-3.7,1.1-5.2
			c0.7-1.5,1.7-2.8,3.1-3.9c1.3-1.1,2.9-2,4.7-2.7c1.8-0.7,3.7-1.3,5.9-1.8c2.1-0.4,4.4-0.8,6.7-1c2.4-0.2,4.8-0.4,7.2-0.5v-7.2
			c0-1.9-0.1-3.5-0.4-5c-0.2-1.4-0.7-2.6-1.3-3.6c-0.6-1-1.4-1.7-2.4-2.2c-1-0.5-2.3-0.8-3.8-0.8c-1,0-1.9,0.1-2.8,0.2
			c-0.9,0.1-1.7,0.4-2.4,0.7c-0.7,0.3-1.3,0.7-1.7,1.2c-0.4,0.5-0.6,1.1-0.6,1.8c0,0.6,0.1,1.1,0.4,1.5c0.3,0.4,0.6,0.9,0.9,1.3
			c0.3,0.4,0.7,0.9,1,1.4c0.3,0.5,0.5,1.2,0.5,2c0,1.7-0.5,3-1.6,3.8c-1.1,0.9-2.5,1.3-4.2,1.3c-0.8,0-1.6-0.2-2.4-0.5
			c-0.7-0.3-1.4-0.7-1.9-1.3c-0.5-0.5-1-1.2-1.3-1.9c-0.3-0.8-0.5-1.6-0.5-2.5c0-1.7,0.5-3.2,1.5-4.6c1-1.4,2.4-2.6,4.1-3.6
			c1.7-1,3.6-1.7,5.9-2.3c2.2-0.5,4.5-0.8,6.9-0.8c2.9,0,5.4,0.3,7.8,1c2.3,0.7,4.3,1.7,5.9,3.1c1.6,1.4,2.9,3.2,3.7,5.4
			c0.9,2.2,1.3,4.8,1.3,7.9l-0.2,20.2c0,1.3,0.1,2.4,0.2,3.3c0.1,0.9,0.3,1.6,0.6,2.2c0.3,0.5,0.6,0.9,1.1,1.2
			c0.4,0.2,1,0.4,1.7,0.4c0.5,0,0.9,0,1.3-0.2c0.4-0.1,0.8-0.2,1.2-0.4c0.4-0.2,0.7-0.3,1-0.5c0.3-0.2,0.6-0.4,0.8-0.6l1.3,1.8
			c-0.4,0.4-0.9,0.8-1.5,1.1c-0.6,0.4-1.4,0.7-2.3,1.1c-0.9,0.3-1.8,0.6-2.8,0.8c-1,0.2-2.1,0.3-3.1,0.3c-2.1,0-3.9-0.2-5.4-0.7
			c-1.4-0.4-2.6-1.1-3.4-1.8c-0.9-0.8-1.5-1.7-1.8-2.7s-0.5-2.1-0.5-3.2v-0.1c-0.5,1.3-1.1,2.4-1.9,3.5c-0.8,1-1.7,1.9-2.7,2.7
			c-1.1,0.8-2.3,1.3-3.8,1.8c-1.5,0.4-3.1,0.6-5,0.6C828.4,762.8,826.4,762.5,824.4,762z M838,758.6c1.1-0.7,2.1-1.7,3-3
			c0.8-1.3,1.5-3,1.9-5c0.5-2,0.7-4.3,0.7-6.9v-5.8c-2.9,0-5.3,0.2-7.2,0.6c-2,0.4-3.5,1.1-4.7,2c-1.2,0.9-2.1,2.2-2.6,3.7
			c-0.5,1.5-0.8,3.4-0.8,5.7c0,1.7,0.1,3.2,0.4,4.4c0.3,1.2,0.6,2.3,1.1,3s1.1,1.4,1.9,1.7c0.8,0.4,1.6,0.5,2.5,0.5
			C835.5,759.7,836.8,759.3,838,758.6z"/>
		<path class="st0" d="M876.8,761.1c-2.7-1.1-5-2.7-7.1-4.7c-2-2.1-3.6-4.6-4.8-7.5c-1.2-3-1.8-6.3-1.8-10c0-3.7,0.6-7.1,1.8-10
			c1.2-3,2.8-5.5,4.8-7.5c2-2.1,4.4-3.6,7.1-4.7c2.7-1.1,5.5-1.6,8.5-1.6c1.9,0,3.7,0.3,5.3,0.8c1.6,0.5,3,1.3,4.2,2.2
			c1.2,0.9,2.3,2,3.1,3.2c0.9,1.2,1.5,2.5,2,3.9l2.4,13.8l-2.3,13.6c-0.5,1.4-1.1,2.7-2,3.9s-1.9,2.4-3.2,3.3
			c-1.2,1-2.7,1.7-4.2,2.3c-1.6,0.6-3.3,0.8-5.3,0.8C882.3,762.8,879.5,762.2,876.8,761.1z M893.1,758.1c1.5-1.1,2.9-2.6,3.9-4.5
			c1.1-1.9,1.9-4.1,2.5-6.7c0.6-2.6,0.9-5.3,0.9-8.2c0-2.9-0.3-5.6-0.9-8.2c-0.6-2.5-1.4-4.8-2.5-6.6c-1.1-1.9-2.4-3.4-3.9-4.5
			c-1.5-1.1-3.3-1.6-5.2-1.6c-2,0-3.7,0.5-5.1,1.6c-1.5,1.1-2.7,2.6-3.6,4.5c-0.9,1.9-1.6,4.1-2.1,6.6c-0.5,2.5-0.7,5.3-0.7,8.2
			c0,2.9,0.2,5.6,0.7,8.2c0.5,2.6,1.2,4.8,2.1,6.7c0.9,1.9,2.1,3.4,3.6,4.5c1.5,1.1,3.2,1.6,5.1,1.6
			C889.9,759.7,891.6,759.2,893.1,758.1z M899.8,752.2l1.3-13.3l-1.7-14.3v-33.7h-8.2v-2.4h20.7v70.8h8v2.4h-19.9L899.8,752.2z"/>
		<path class="st0" d="M918,759.2h8v-40.3h-8v-2.4h20.4v42.7h8v2.4H918V759.2z M929.2,702.4c-1-0.4-1.8-0.9-2.4-1.6
			c-0.7-0.7-1.2-1.5-1.6-2.4c-0.4-0.9-0.6-1.9-0.6-3.1c0-1.1,0.2-2.1,0.6-3c0.4-0.9,0.9-1.7,1.6-2.4c0.7-0.7,1.5-1.2,2.4-1.6
			c0.9-0.4,2-0.6,3.1-0.6c1,0,2,0.2,2.9,0.6c0.9,0.4,1.7,0.9,2.4,1.6c0.7,0.7,1.2,1.5,1.6,2.4c0.4,0.9,0.6,1.9,0.6,3
			c0,1.1-0.2,2.2-0.6,3.1c-0.4,0.9-0.9,1.7-1.6,2.4c-0.7,0.7-1.5,1.2-2.4,1.6c-0.9,0.4-1.9,0.6-2.9,0.6
			C931.1,703,930.1,702.8,929.2,702.4z"/>
	</g>
	<g>
		<g>
			<path class="st0" d="M822.2,230.8c0.4-0.3,1-0.2,1.1,0.3c3.3,8.9,27.6,80.8,8.2,204.6c-13.3,84.6,2.1,141.8,49.4,154.7
				c47.1,12.8,84.2-30.5,139-38.6c0.4-0.1,0.6-0.4,0.6-0.7v-3.5c0-0.3-0.2-0.6-0.5-0.7c-8.1-2.5-111.4-33.8-134.1-15.2
				c-23.6,19.3,0.7,48,15,86.7c0,0-10.5,13.8-14.8,28.6c-0.4,1.4-2.4,1.4-2.8-0.1c-4.8-21.4-19.9-91.3-18.6-111.2
				c1.4-23.6,19-58.2,79.5-41.5c67.5,18.5,124.8,30.2,150.8,29.4c0.9,0,1.6,0.8,1.4,1.7l-6.3,32.6c-0.1,0.6-0.6,1.1-1.2,1.2
				c-6.4,0.7-40.4,5-60.2,13.1c-20.4,8.4-89.5,51.6-136.8,57.3s-79.5-43-81.6-98.1s9-142.2,5-186.2c-2.1-23.1-8.5-57.6-20.5-70.7
				c-0.1-0.2-0.2-0.4-0.2-0.6C795.2,271,799,251.1,822.2,230.8z"/>
			<path class="st0" d="M544.4,469.6l4.9,6c0.1,0.1,0.1,0.2,0.2,0.4c0.6,4.9,11.6,94.3,41.5,118.7c30.8,25.1,67.3,11.5,70.9-42.3
				s11.4-93.9,31.5-119.6c17.9-22.9,34.2-27.1,68,8.6c39.4,41.5,85.9,35.1,114.6-25.1c20.7-43.4,45.8-70.9,50.8-12.9
				c4,46.8-6.4,55.9-10.5,57.6c-0.6,0.3-1.2-0.4-0.9-1c2.3-4.9,9-23.1-0.7-50.9c0,0-8.6,22.9-27.6,54.1
				c-23.2,38.1-69.8,59.8-109.6,33.7c-30.2-19.9-48-50.8-68-30.1c-20.1,20.8-27.9,52.3-32.2,99.5c-4.3,47.3-22.6,97-67.3,68.8
				c-48.3-30.6-62.7-96.7-66.8-165C543.1,469.4,543.9,469,544.4,469.6z"/>
			<path class="st0" d="M677,342.4c2.1-9.5,8-35.1,14.8-48.9c0.1-0.2,0.3-0.4,0.5-0.4c3-0.4,22.3-1.7,24.3,33.4
				c2.1,38-5.7,50.1-15,72.3c-9.3,22.2-47.3,63.7-78.8,24.4c0,0-34.4,44.4-59.4,45.8c-25.1,1.4-20.1-42.3-26.5-54.4
				c-6.4-12.2-20.1,17.2-27.9,39.4c-7.9,22.2-36.2,104.2-79.1,101.3s-41.7-68.4-38.7-91.7c3.9-30.1,19.7-79.2,38.5-106.3
				c0.3-0.4,0.9-0.4,1.2,0l1.3,1.7c0.2,0.2,0.2,0.5,0.1,0.8c-2.1,3.8-18.5,33.9-24.8,68.4c-5.6,30.1-5.4,67.7,9,79.1
				c14.3,11.5,41.9,6.1,60.5-24.7c18.6-30.8,30.1-78.1,44.4-98.1c14.3-20.1,27.2-18.6,32.9-0.7s-0.5,32.8,8.6,40.8
				c12.5,11.1,34.7,1.1,43-13.6c6.8-12.1,6.8-21.1-3.2-24.7s-17.5,8.2-25.4,6.1c0,0-2.9-14.3,10.7-34.4
				c13.6-20.1,30.8-25.8,57.3-17.2c26.5,8.6,22.2,22.9,5.7,54.4c0,0,20.1,4.3,33.7-7.9s22-25.6,10-39.4c-6.3-7.2-12.1-5.8-15.4-4
				C678,344.5,676.7,343.6,677,342.4z"/>
			<path class="st0" d="M453.5,437.1c-19.2-34.5-68.2-32.4-99.9-69.7c8.1-0.6,16.2-1.8,20.8-2.6c1.3-0.2,1.6-2,0.5-2.7
				c-12.9-7.1-29.7-14.2-35.4-16.6c-0.9-0.4-2,0.3-2,1.3v21.5c0,0,9.3,26.5,53.7,52.3c44.4,25.8,70.2,28.6,55.1,43
				c-15,14.3-63,55.9-108.9,70.2c-27.5,8.6-46.8,6.4-33.7-67.8c0-0.1,0-0.3,0-0.4l-1.3-3.6c-0.2-0.6-1.2-0.6-1.4,0
				c-4.3,14.1-11.6,43.2-11.6,62.5c0,23.6,4.6,39.4,25.4,39.7c24.7,0.4,82.7-29,112.1-57.7C455.6,478.6,467.8,462.9,453.5,437.1z"/>
			<path class="st0" d="M359.6,418.4c-15.2-6.9-76.6-7.2-89.5-23.6c-9.7-12.4,34.4-67.3,58-80.2c23.6-12.9,26.5,10,26.5,10
				c1.8,6.1,3.2,7.5,9.7-6.8c6.4-14.3,4.3-54.4-27.2-39.4s-80.2,70.9-81.6,116.7s45.5,46.2,74.1,49.1c30.3,3,40.5,4.7-8.2,39
				s-117.5,53-161.9,45.1s-51.6-48-48.7-82.4c2-23.4,10.9-45.2,16.7-58.9c0.1-0.1,0.1-0.3,0-0.4l-0.4-2.1c-0.1-0.7-1-0.8-1.3-0.2
				c-9.5,16.9-25.8,51.8-28.3,95.6c-3.6,62.3,32.2,91,98.1,83.8s139.5-58.5,160.4-84.5C376.8,453.5,381.8,428.5,359.6,418.4z"/>
			<path class="st0" d="M597.2,258.4c4.8,1.6,25.7,9.1,37.8,24c0.2,0.3,0.3,0.6,0.3,0.9c-0.1,2.9-1.5,17.4-19.1,43.5
				c-0.4,0.7-1.4,0.8-2,0.3c-4.5-3.6-21.3-16.6-36.9-22.7c-0.6-0.3-1-0.9-0.8-1.6c1.2-4.9,6.4-24.6,19.1-44
				C596,258.4,596.6,258.2,597.2,258.4z"/>
			<path class="st0" d="M613.7,472.5c4.8,1.6,25.7,9.1,37.8,24c0.2,0.3,0.3,0.6,0.3,0.9c-0.1,2.9-1.5,17.4-19.1,43.5
				c-0.4,0.7-1.4,0.8-2,0.3c-4.5-3.6-21.3-16.6-36.9-22.7c-0.6-0.3-1-0.9-0.8-1.6c1.2-4.9,6.4-24.6,19.1-44
				C612.4,472.6,613.1,472.3,613.7,472.5z"/>
			<path class="st0" d="M734.7,497.6c4.8,1.6,25.7,9.1,37.8,24c0.2,0.3,0.3,0.6,0.3,0.9c-0.1,2.9-1.5,17.4-19.1,43.5
				c-0.4,0.7-1.4,0.8-2,0.3c-4.5-3.6-21.3-16.6-36.9-22.7c-0.6-0.3-1-0.9-0.8-1.6c1.2-4.9,6.4-24.6,19.1-44
				C733.5,497.6,734.1,497.4,734.7,497.6z"/>
			<path class="st0" d="M1038.4,581.4c4.8,1.6,25.7,9.1,37.8,24c0.2,0.3,0.3,0.6,0.3,0.9c-0.1,2.9-1.5,17.4-19.1,43.5
				c-0.4,0.7-1.4,0.8-2,0.3c-4.5-3.6-21.3-16.6-36.9-22.7c-0.6-0.3-1-0.9-0.8-1.6c1.2-4.9,6.4-24.6,19.1-44
				C1037.1,581.4,1037.8,581.2,1038.4,581.4z"/>
			<g>
				<path class="st0" d="M474.7,236.4c0,0,18.2,33.8,35.4,73.9c0,0-22.3-17.2-47.2-38.2C462.9,272.1,465.9,256.4,474.7,236.4z"/>
				<path class="st0" d="M462.9,272.1c0,0,6.4,3.6,9.8,23s14.8,256.5,14.8,256.5s5.8,68.1-5.8,89.5c0,0,34.2-28.9,28.1-91.4
					C503.2,483.1,490,286,490,286S480.1,262.3,462.9,272.1z"/>
			</g>
		</g>
		<g>
			<g>
				<g>
					<g>
						<path class="st1" d="M283.3,227.5l-1.2,0.6c-0.1,0.1-0.2,0.2-0.3,0.3c-1,2.2-9.7,21-12.1,32c-2.1,10-5.4,26.1,3.2,32.6
							c8.5,6.4,18.5-11.9,18.6-22.7c0-0.1,0-0.3-0.1-0.4l-0.3-0.5c-0.3-0.5-1-0.5-1.2,0c-1.5,2.7-5.6,9.5-10.2,8.9
							c-5.7-0.7-6.4-5-5-18.6c1.2-11,7.3-26.1,9.5-31.4C284.6,227.8,283.9,227.2,283.3,227.5z"/>
						<path class="st1" d="M164.4,417.3l-1.2,0.6c-0.1,0.1-0.2,0.2-0.3,0.3c-1,2.2-9.7,21-12.1,32c-2.1,10-5.4,26.1,3.2,32.6
							c8.5,6.4,18.5-11.9,18.6-22.7c0-0.1,0-0.3-0.1-0.4l-0.3-0.5c-0.3-0.5-1-0.5-1.2,0c-1.5,2.7-5.6,9.5-10.2,8.9
							c-5.7-0.7-6.4-5-5-18.6c1.2-11,7.3-26.1,9.5-31.4C165.7,417.6,165,417,164.4,417.3z"/>
						<path class="st1" d="M753.8,251.9l-1.2,0.6c-0.1,0.1-0.2,0.2-0.3,0.3c-1,2.2-9.7,21-12.1,32c-2.1,10-5.4,26.1,3.2,32.6
							c8.5,6.4,18.5-11.9,18.6-22.7c0-0.1,0-0.3-0.1-0.4l-0.3-0.5c-0.3-0.5-1-0.5-1.2,0c-1.5,2.7-5.6,9.5-10.2,8.9
							c-5.7-0.7-6.4-5-5-18.6c1.2-11,7.3-26.1,9.5-31.4C755.1,252.2,754.4,251.6,753.8,251.9z"/>
						<path class="st1" d="M534.7,576.3l-1.2,0.6c-0.1,0.1-0.2,0.2-0.3,0.3c-1,2.2-9.7,21-12.1,32c-2.1,10-5.4,26.1,3.2,32.6
							c8.5,6.4,18.5-11.9,18.6-22.7c0-0.1,0-0.3-0.1-0.4l-0.3-0.5c-0.3-0.5-1-0.5-1.2,0c-1.5,2.7-5.6,9.5-10.2,8.9
							c-5.7-0.7-6.4-5-5-18.6c1.2-11,7.3-26.1,9.5-31.4C535.9,576.6,535.3,576,534.7,576.3z"/>
						<path class="st1" d="M442.3,625.8c0,0-3.9-29-19-34c0,0-4.3-2.1-7.9,5.7c-3.6,7.9,0,8.6,3.6,10.7s5-2.9,6.4-2.9
							s13.6,18.6,13.6,35.1c0,0,3.6-0.7,4.3-3.6s5-29.4,8.6-35.8c3.6-6.4,7.2-1.4,9.3,1.4s6.4-2.1,5-7.2c-1.4-5-6.1-11.8-12.5-6.8
							S442.7,620.4,442.3,625.8z"/>
						<path class="st1" d="M231.1,625.8c0,0-3.9-29-19-34c0,0-4.3-2.1-7.9,5.7c-3.6,7.9,0,8.6,3.6,10.7s5-2.9,6.4-2.9
							s13.6,18.6,13.6,35.1c0,0,3.6-0.7,4.3-3.6s5-29.4,8.6-35.8c3.6-6.4,7.2-1.4,9.3,1.4s6.4-2.1,5-7.2c-1.4-5-6.1-11.8-12.5-6.8
							C236.1,593.6,231.4,620.4,231.1,625.8z"/>
						<path class="st1" d="M226.8,471.8c0,0-3.9-29-19-34c0,0-4.3-2.1-7.9,5.7s0,8.6,3.6,10.7s5-2.9,6.4-2.9s13.6,18.6,13.6,35.1
							c0,0,3.6-0.7,4.3-3.6s5-29.4,8.6-35.8s7.2-1.4,9.3,1.4c2.1,2.9,6.4-2.1,5-7.2s-6.1-11.8-12.5-6.8S227.1,466.4,226.8,471.8z"/>
						<path class="st1" d="M875.6,344.3c0,0-3.9-29-19-34c0,0-4.3-2.1-7.9,5.7c-3.6,7.9,0,8.6,3.6,10.7s5-2.9,6.4-2.9
							s13.6,18.6,13.6,35.1c0,0,3.6-0.7,4.3-3.6s5-29.4,8.6-35.8s7.2-1.4,9.3,1.4s6.4-2.1,5-7.2c-1.4-5-6.1-11.8-12.5-6.8
							C880.7,312.1,876,339,875.6,344.3z"/>
						<path class="st1" d="M976.6,405.2c0,0-3.9-29-19-34c0,0-4.3-2.1-7.9,5.7s0,8.6,3.6,10.7s5-2.9,6.4-2.9s13.6,18.6,13.6,35.1
							c0,0,3.6-0.7,4.3-3.6c0.7-2.9,5-29.4,8.6-35.8s7.2-1.4,9.3,1.4s6.4-2.1,5-7.2s-6.1-11.8-12.5-6.8S977,399.8,976.6,405.2z"/>
						<path class="st1" d="M939.4,322.8c0,0-3.9-29-19-34c0,0-4.3-2.1-7.9,5.7s0,8.6,3.6,10.7s5-2.9,6.4-2.9s13.6,18.6,13.6,35.1
							c0,0,3.6-0.7,4.3-3.6s5-29.4,8.6-35.8s7.2-1.4,9.3,1.4s6.4-2.1,5-7.2s-6.1-11.8-12.5-6.8S939.7,317.5,939.4,322.8z"/>
						<path class="st1" d="M183.2,322.2l-1.1-0.3c-0.5-0.1-1,0-1.4,0.4c-1.9,1.9-7.9,8.3-7.3,13.8c0.7,6.4,3.6,2.9,5,7.2
							s2.1,20.8,9.3,28.6c5.9,6.5,17.9,11.5,27.9-12.9c0,0,7.2,12.2,17.5,8.2c12.9-4.9,12.2-21.5,7.9-33.7
							c-4-11.4-13.1-22.2-15.4-27.7c-0.2-0.5-0.8-0.6-1.2-0.2c-1.9,2-5.9,7.7-1.3,15.7c5.7,10,13.6,18.6,14.3,25.8
							c0,0-4.3,8.6-11.5,5s-7.9-11.5-12.2-24.4c-3.5-10.4-4.6-14.3-7.4-17.1c-0.9-0.9-2.4-0.3-2.4,0.9l-0.9,15.5
							c0,0,7.9,11.5,6.4,20.8s-9.3,17.2-15,12.9c-5.6-4.2-8.5-15.4-10.3-37.3C184.2,322.9,183.8,322.4,183.2,322.2z"/>
						<path class="st1" d="M391.7,255.1c-0.5,0-0.8-0.4-0.7-0.9c0.6-3,3.4-15.4,17.4-16.1c19.5-1,43.3-1.5,44.8,5.8
							c1,5-15.2,23-19.2,26.9s-20.3,8.8-33.5,11.1c-13.2,2.3-14.1,0.4-2.9-3.5s22.9-7.2,28-10.6c11.5-7.5,12.7-12.4,1.2-12.1
							C414.9,256,401.2,255,391.7,255.1z"/>
						<path class="st1" d="M532.1,250c-0.5,0-0.8-0.4-0.7-0.9c0.6-3,3.4-15.4,17.4-16.1c19.5-1,43.3-1.5,44.8,5.8
							c1,5-15.2,23-19.2,26.9c-4,3.9-20.3,8.8-33.5,11.1c-13.2,2.3-14.1,0.4-2.9-3.5c11.2-3.9,22.9-7.2,28-10.6
							c11.5-7.5,12.7-12.4,1.2-12.1C555.3,251,541.6,250,532.1,250z"/>
						<path class="st1" d="M649.6,258.5l120.4-46c0.4-0.2,0.9,0.1,1,0.5c0.4,2.5,1,9.8-6.6,12.8c-9.5,3.7-10.3,3.7-117.9,46.1
							c-1.2,0.5-2.3-0.7-1.9-1.9l4.3-10.7C648.9,258.9,649.2,258.7,649.6,258.5z"/>
						<path class="st1" d="M683.9,620.9l120.4-46c0.4-0.2,0.9,0.1,1,0.5c0.4,2.5,1,9.8-6.6,12.8c-9.5,3.7-10.3,3.7-117.9,46.1
							c-1.2,0.5-2.3-0.7-1.9-1.9l4.3-10.7C683.3,621.3,683.6,621,683.9,620.9z"/>
						<path class="st1" d="M280,618l120.4-46c0.4-0.2,0.9,0.1,1,0.5c0.4,2.5,1,9.8-6.6,12.8c-9.5,3.7-10.3,3.7-117.9,46.1
							c-1.2,0.5-2.3-0.7-1.9-1.9l4.3-10.7C279.3,618.5,279.6,618.2,280,618z"/>
						<path class="st1" d="M509.9,343.7l69.5-25.3c0.4-0.2,0.9,0.1,1,0.5c0.4,2.5,1,9.8-6.6,12.8c-9.5,3.7,40.6-17.1-67.1,25.3
							c-1.2,0.5-2.3-0.7-1.9-1.9l4.3-10.7C509.2,344.2,509.5,343.9,509.9,343.7z"/>
						<path class="st1" d="M951.1,461.9l144-56.1c0.4-0.2,0.9,0.1,1,0.5c0.4,2.5,1,9.8-6.6,12.8c-9.5,3.7-33.9,13.7-141.6,56.1
							c-1.2,0.5-2.3-0.7-1.9-1.9l4.3-10.7C950.4,462.3,950.7,462.1,951.1,461.9z"/>
						<path class="st1" d="M792.6,363.7c-11.8-12.5-19.3-15.8-16.5-25.8s5.7-14.3,5.7-17.9c0,0-4.3-2.1-6.1,1.8
							c0,0-15,26.5-20.4,54.8c-5.1,27,3.6,30.2,21.1,23.3C791.8,393.7,802.1,373.8,792.6,363.7z M771.1,388
							c-7.9,2.1-11.5,0-10.7-6.4c0.6-5.3,4.5-15.8,5.9-19.5c0.3-0.8,1.1-1.1,1.9-0.8c4.4,1.9,13.5,8.7,18,13.9
							C791.1,380.8,779,385.9,771.1,388z"/>
						<path class="st1" d="M683.3,272.3c-3-1-4.3,3.6-5,3.6s-1.4,2.1-1.4,2.1c-7.9,15.8-38,23.6-38,23.6c-1.1,1.8,1.8,1.1,16.8-2.5
							s20.8-17.2,20.8-17.2c0-2.9,2.9,0.7,5,2.1s5.1,1.2,6.1-3.2C688.7,276.3,686.6,273.4,683.3,272.3z M685.1,281.3
							c-0.7,0.7-5.7-1.4-5-3.6c0,0,0.7-1.4,2.9-0.7S685.9,280.6,685.1,281.3z"/>
					</g>
				</g>
				<g>
					<g>
						<path class="st1" d="M475.7,127c-7.3-13.2-26.1-12.4-38.3-26.7c3.1-0.2,6.2-0.7,8-1c0.5-0.1,0.6-0.8,0.2-1
							c-4.9-2.7-11.4-5.5-13.6-6.4c-0.4-0.1-0.8,0.1-0.8,0.5v8.2c0,0,3.6,10.2,20.6,20s26.9,11,21.1,16.5
							c-5.8,5.5-24.2,21.4-41.7,26.9c-10.6,3.3-17.9,2.5-12.9-26c0,0,0-0.1,0-0.1l-0.5-1.4c-0.1-0.2-0.4-0.2-0.5,0
							c-1.7,5.4-4.4,16.6-4.4,23.9c0,9.1,1.8,15.1,9.7,15.2c9.5,0.1,31.7-11.1,43-22.1C476.5,142.9,481.2,136.9,475.7,127z"/>
						<path class="st1" d="M523.7,125.6c-7.3-13.2-26.1-12.4-38.3-26.7c3.1-0.2,6.2-0.7,8-1c0.5-0.1,0.6-0.8,0.2-1
							c-4.9-2.7-11.4-5.5-13.6-6.4c-0.4-0.1-0.8,0.1-0.8,0.5v8.2c0,0,3.6,10.2,20.6,20s26.9,11,21.1,16.5
							c-5.8,5.5-24.2,21.4-41.7,26.9c-10.6,3.3-17.9,2.5-12.9-26c0,0,0-0.1,0-0.1l-0.5-1.4c-0.1-0.2-0.4-0.2-0.5,0
							c-1.7,5.4-4.4,16.6-4.4,23.9c0,9.1,1.8,15.1,9.7,15.2c9.5,0.1,31.7-11.1,43-22.1C524.5,141.5,529.2,135.4,523.7,125.6z"/>
						<path class="st1" d="M675.4,131.5l-0.7,0.4c-0.1,0-0.1,0.1-0.2,0.2c-0.6,1.3-6,13-7.4,19.7c-1.3,6.2-3.3,16.1,2,20.1
							c5.3,3.9,11.4-7.4,11.5-14c0-0.1,0-0.2-0.1-0.2l-0.2-0.3c-0.2-0.3-0.6-0.3-0.8,0c-0.9,1.7-3.4,5.8-6.3,5.5
							c-3.5-0.4-4-3.1-3.1-11.5c0.7-6.8,4.5-16.1,5.9-19.3C676.2,131.6,675.7,131.3,675.4,131.5z"/>
						<path class="st1" d="M532.1,64.1l-0.7,0.4c-0.1,0-0.1,0.1-0.2,0.2c-0.6,1.3-6,13-7.4,19.7c-1.3,6.2-3.3,16.1,2,20.1
							c5.3,3.9,11.4-7.4,11.5-14c0-0.1,0-0.2-0.1-0.2L537,90c-0.2-0.3-0.6-0.3-0.8,0c-0.9,1.7-3.4,5.8-6.3,5.5
							c-3.5-0.4-4-3.1-3.1-11.5c0.7-6.8,4.5-16.1,5.9-19.3C532.9,64.3,532.5,63.9,532.1,64.1z"/>
						<path class="st1" d="M439.5,146.2c0,0-1.9-14.3-9.4-16.8c0,0-2.1-1.1-3.9,2.8c-1.8,3.9,0,4.2,1.8,5.3c1.8,1.1,2.5-1.4,3.2-1.4
							c0.7,0,6.7,9.2,6.7,17.3c0,0,1.8-0.4,2.1-1.8c0.4-1.4,2.5-14.5,4.2-17.7c1.8-3.2,3.5-0.7,4.6,0.7c1.1,1.4,3.2-1.1,2.5-3.5
							c-0.7-2.5-3-5.8-6.2-3.4C441.9,130.3,439.6,143.6,439.5,146.2z"/>
						<path class="st1" d="M674.1,67.1c0,0-2.3-17-11.1-19.9c0,0-2.5-1.3-4.6,3.4c-2.1,4.6,0,5,2.1,6.3c2.1,1.3,2.9-1.7,3.8-1.7
							c0.8,0,8,10.9,8,20.6c0,0,2.1-0.4,2.5-2.1c0.4-1.7,2.9-17.2,5-21c2.1-3.8,4.2-0.8,5.5,0.8c1.3,1.7,3.8-1.3,2.9-4.2
							c-0.8-2.9-3.6-6.9-7.3-4C677.1,48.2,674.3,64,674.1,67.1z"/>
						<path class="st1" d="M580.9,161.2c0,0-1.3-9.5-6.2-11.1c0,0-1.4-0.7-2.6,1.9c-1.2,2.6,0,2.8,1.2,3.5c1.2,0.7,1.6-0.9,2.1-0.9
							c0.5,0,4.5,6.1,4.5,11.5c0,0,1.2-0.2,1.4-1.2c0.2-0.9,1.6-9.6,2.8-11.7s2.3-0.5,3.1,0.5s2.1-0.7,1.6-2.3s-2-3.9-4.1-2.2
							C582.5,150.6,581,159.4,580.9,161.2z"/>
						<path class="st1" d="M674.1,67.5c0,0-2.3-17-11.1-20c0,0-2.5-1.3-4.6,3.4s0,5,2.1,6.3c2.1,1.3,2.9-1.7,3.8-1.7
							c0.8,0,8,10.9,8,20.6c0,0,2.1-0.4,2.5-2.1c0.4-1.7,2.9-17.2,5-21c2.1-3.8,4.2-0.8,5.5,0.8c1.3,1.7,3.8-1.3,2.9-4.2
							c-0.8-2.9-3.6-6.9-7.4-4S674.4,64.3,674.1,67.5z"/>
						<path class="st1" d="M580.7,162c0,0-1.4-10.1-6.6-11.8c0,0-1.5-0.7-2.7,2s0,3,1.2,3.7c1.2,0.7,1.7-1,2.2-1
							c0.5,0,4.7,6.5,4.7,12.2c0,0,1.2-0.2,1.5-1.2c0.2-1,1.7-10.2,3-12.4c1.2-2.2,2.5-0.5,3.2,0.5s2.2-0.7,1.7-2.5
							c-0.5-1.7-2.1-4.1-4.3-2.4S580.8,160.1,580.7,162z"/>
						<path class="st1" d="M502.8,204l56.5-21.6c0.2-0.1,0.4,0,0.5,0.3c0.2,1.2,0.5,4.6-3.1,6c-4.5,1.7-4.8,1.7-55.3,21.6
							c-0.5,0.2-1.1-0.3-0.9-0.9l2-5C502.5,204.2,502.7,204,502.8,204z"/>
						<path class="st1" d="M693.6,72.3l72.1-27.6c0.3-0.1,0.5,0.1,0.6,0.3c0.3,1.5,0.6,5.9-4,7.6c-5.7,2.2-6.1,2.2-70.6,27.6
							c-0.7,0.3-1.4-0.4-1.1-1.1l2.6-6.4C693.2,72.6,693.4,72.4,693.6,72.3z"/>
						<g>
							<path class="st1" d="M588.7,26.7c0,0,6.7,12.5,13.1,27.3c0,0-8.2-6.3-17.4-14.1C584.3,39.8,585.4,34,588.7,26.7z"/>
							<path class="st1" d="M584.3,39.8c0,0,2.4,1.3,3.6,8.5c1.3,7.1,5.5,94.7,5.5,94.7s2.1,25.1-2.2,33c0,0,12.6-10.7,10.4-33.7
								c-2.4-24.6-7.3-97.4-7.3-97.4S590.7,36.2,584.3,39.8z"/>
						</g>
						<g>
							<path class="st1" d="M454.7,30.2c0,0,6.7,12.5,13.1,27.3c0,0-8.2-6.3-17.4-14.1C450.4,43.4,451.5,37.6,454.7,30.2z"/>
							<path class="st1" d="M450.4,43.4c0,0,2.4,1.3,3.6,8.5c1.3,7.1,5.5,94.7,5.5,94.7s2.1,25.1-2.2,33c0,0,12.6-10.7,10.4-33.7
								c-2.4-24.6-7.3-97.4-7.3-97.4S456.8,39.8,450.4,43.4z"/>
						</g>
						<path class="st1" d="M690.9,105.1c-18.6,15-27.5,15.9-32.9,13.6c-13.6-5.7-13.6-25.1-13.6-25.1c10.7-10,35.8-3.6,35.8-3.6
							c-22.9-21.5-40.1-2.9-41.5,7.9c-1.2,8.6,4.3,20.1,4.3,20.1c-10.7-2.1-10-45.1-10-62.3S627.5,21,627.5,21l-6.1,9.7
							c0,0,1.4,2.9,3.6,16.5c2.1,13.6,2.9,49.4,3.6,62.3s-19.3,17.9-19.3,17.9l-5,9.3c0,0,7.9,1.4,27.9,5.7
							c15.7,3.4-3.6,12.2-19.3,20.1c-15.8,7.9-35.3,14.5-48.7-1.4c-1.7-2-3-4.1-4-6.2c0.8-1.6,1-3.4,1-5c3.1-0.1,7.6-1.1,11.6-4.6
							c5.7-5,8.6-12.9,8.6-28.6c0-25-2.3-54.8-3.2-64.7c4.2,3.4,7.1,5.6,7.1,5.6c-6.3-14.8-13.1-27.3-13.1-27.3
							c-3.2,7.4-4.4,13.2-4.4,13.2c0.1,0.1,0.3,0.2,0.4,0.4c0.7,0.7,2.3,2.8,3.2,8.1c0.8,4.8,4.8,38.9,4.8,65.4
							c0,12.8-2.1,22.8-16.9,22.2c-0.6-1.9-1.5-4.3-2.6-6.8c1-11.6,5.2-21.2,5.2-21.2c-0.2,0.4-0.5-1.4-0.7-1.1
							c-3.4,5.5-5.6,11.5-7,17.1c-2.2-4-5-7.6-8-8.9c-8.6-3.6-15.8,7.9-16.5,14.3c-0.6,5.7,0,12.2,9.3,12.9c7,0.5,10-0.1,12.9,1
							c0,4.8,0.4,7.9,0.4,7.9c-13.6,15.8-41.5,35.1-55.1,23.6c-13.6-11.5-3.6-35.1-3.6-35.1v-2.1c0,0-9,13.2-6.1,30.4
							s10,21.5,25.1,20.8c15-0.7,42.3-30.1,42.3-30.1c5.7,11.5,13.6,18.6,27.9,19.3s45.8-15.8,54.4-22.9c8.6-7.2,7.9-17.2,4.3-21.5
							c-3.6-4.3-20.1-7.9-20.1-7.9c10-5,10-19.3,10-19.3s2.1,7.9,7.9,15.8s25.5,6.9,40.1-3.6C694.4,111.6,690.9,105.1,690.9,105.1z
							 M538.3,135.2c0,0-5-1.4-2.9-5s10.7-2.1,12.9,5H538.3z"/>
						<path class="st1" d="M729.9,139.1l-6.4-15.8c0,0-19.3-13.6-21.5-22.2s6.4-16.5,12.9-16.5c6.4,0,41.4,2.8,75.3,14.6
							c0.7,0.3,1.1,1,0.9,1.8l-3,10.1c-0.1,0.5-0.5,0.8-0.9,1c-6.4,2-53.3,16.4-72.7,23.1c0,0,20.8,5.7,20.8,12.2
							s-3.6,20.8-25.1,32.2c-21.5,11.5-58.7,25.1-70.2,0s7.2-55.1,7.2-55.1l2.1,1.4c0,0-13.6,25.8-5,44.4s43.7,7.9,49.4,5.7
							s31.5-15.8,35.8-20.8c0,0-19.3-9.3-35.8-12.9l1.4-8.6c0,0,53.7-22.9,74.5-26.5c0,0-39.2-14.4-60.2-11.3
							c-1.2,0.2-1.6,1.7-0.7,2.5l24.4,22.4L729.9,139.1z"/>
						<path class="st1" d="M510,52.6c-2.6-0.9-3.7,3.1-4.3,3.1s-1.2,1.8-1.2,1.8C497.7,71,472,77.7,472,77.7
							c-0.9,1.5,1.5,0.9,14.4-2.1c12.8-3.1,17.7-14.7,17.7-14.7c0-2.4,2.4,0.6,4.3,1.8c1.8,1.2,4.3,1,5.2-2.8
							C514.6,56,512.7,53.5,510,52.6z M511.5,60.2c-0.6,0.6-4.9-1.2-4.3-3.1c0,0,0.6-1.2,2.4-0.6C511.5,57.2,512.1,59.6,511.5,60.2z
							"/>
					</g>
				</g>
			</g>
		</g>
	</g>
	<g>
		<g>
			<path class="st0" d="M212.5,740.2H80.7l-0.3-3.7c-1.4-15.8-6.8-27.2-16-34c-14.3-10.6-33.2-6.7-33.4-6.6l-4.3,0.9l-0.6-4.3
				c-3.1-22.6-4.6-45.6-4.6-68.3c0-110.3,35.3-216.5,102.2-306.9c65.3-88.3,155.9-155.9,262.2-195.5l2.8,7.6
				C170.5,210.6,29.6,404.8,29.6,624.1c0,21.1,1.3,42.3,4,63.2c7.4-0.7,22.7-0.8,35.6,8.6c10.4,7.7,16.7,19.8,18.8,36.1h124.5V740.2
				z"/>
		</g>
		<g>
			<path class="st0" d="M1119.3,740.2H987.5v-8.1H1112c2.1-16.3,8.4-28.4,18.8-36.1c12.8-9.5,28.2-9.4,35.6-8.6
				c2.7-20.9,4-42.2,4-63.2c0-219.3-141-413.6-359.1-494.8l2.8-7.6c106.3,39.6,196.9,107.2,262.2,195.5
				c66.8,90.4,102.2,196.6,102.2,306.9c0,22.8-1.5,45.8-4.6,68.3l-0.6,4.3l-4.3-0.9c-0.2,0-19.2-3.9-33.5,6.6
				c-9.2,6.8-14.5,18.2-15.9,34L1119.3,740.2z"/>
		</g>
	</g>
</g>
</svg>
