<?xml version="1.0" encoding="utf-8"?>
<!-- Generator: Adobe Illustrator 22.0.0, SVG Export Plug-In . SVG Version: 6.00 Build 0)  -->
<svg version="1.1" id="Layer_1" xmlns="http://www.w3.org/2000/svg" xmlns:xlink="http://www.w3.org/1999/xlink" x="0px" y="0px"
	 viewBox="0 0 1200 1200" style="enable-background:new 0 0 1200 1200;" xml:space="preserve">
<style type="text/css">
	.st0{fill:#01796F;}
</style>
<g>
	<g>
		<path class="st0" d="M322.6,544c-7.8-2-15.1-5-21.8-8.9s-12.8-8.5-18.5-13.9c-5.5-5.4-10.3-11.5-14.2-18.2c-4-6.7-7-14-9.1-22
			c-2.2-7.9-3.2-16.2-3.2-25s1.1-17,3.2-25c2.2-7.9,5.2-15.2,9.1-22c4-6.7,8.8-12.8,14.3-18.2c5.5-5.4,11.8-10.1,18.6-13.9
			c6.8-3.8,14.2-6.8,22.2-8.9c7.9-2,16.3-3.1,25-3.1c4.8,0,9.1,0.4,13.1,1.1c4,0.7,7.4,1.6,10.6,2.6c3.1,1.1,5.9,2.2,8.4,3.4
			c2.4,1.2,4.7,2.4,6.6,3.4s3.7,1.9,5.2,2.6c1.4,0.7,2.8,1.1,4,1.1c1.3,0,2.4-0.4,3.1-1c0.7-0.7,1.3-1.4,1.9-2.5c0.5-1,1-2,1.4-3.2
			c0.5-1.2,1-2.2,1.6-3.2c0.6-1,1.4-1.8,2.3-2.5c0.8-0.7,2.2-1,3.7-1h0.7v61h-1.3c-2.3,0-4.2-0.6-5.6-1.7c-1.4-1.1-2.8-2.8-3.8-4.8
			c-1.1-2.2-2-4.7-2.9-7.6c-0.8-3-1.7-6.4-2.5-10.1c-1.1-4.4-2.8-8.5-5.2-12.4c-2.4-3.8-5.5-7.1-9.4-10c-3.8-2.9-8.4-5-13.6-6.6
			c-5.2-1.6-11.2-2.4-17.8-2.4c-8.2,0-15.6,1.9-22.2,5.6c-6.7,3.7-12.5,9.2-17.3,16.4c-4.8,7.2-8.6,16.1-11.3,26.6
			c-2.6,10.6-4,22.6-4,36.1s1.3,25.7,4,36.1c2.6,10.6,6.4,19.4,11.2,26.6c4.8,7.2,10.4,12.7,17,16.4c6.6,3.7,13.8,5.6,21.6,5.6
			c5.2,0,9.7-0.6,13.7-1.7c4-1.2,7.2-2.9,9.7-5.3c2.6-2.4,4.6-5.4,5.8-9.1c1.3-3.6,1.9-8,1.9-13v-36.1h-26.2v-6.2h86.8v6.2h-26.4
			v70.6h-0.8c-2.3,0-4.1-0.4-5.5-1.1c-1.4-0.7-2.5-1.6-3.5-2.5c-1-1-1.7-2-2.3-3.2s-1.3-2.3-2.2-3.2c-0.8-1-1.8-1.8-2.9-2.5
			s-2.5-1-4.3-1c-1.7,0-3.2,0.4-4.7,1.1c-1.6,0.7-3.1,1.6-4.9,2.8c-1.7,1.1-3.6,2.3-5.8,3.5c-2,1.2-4.4,2.4-7.2,3.5
			c-2.8,1.1-5.9,1.9-9.5,2.6c-3.6,0.7-7.7,1.1-12.5,1.1C338.5,547.1,330.4,546,322.6,544z"/>
		<path class="st0" d="M462.5,545c-4.9-1.3-9.1-3.4-12.7-6s-6.4-5.9-8.4-9.8c-2-4-3-8.4-3-13.3c0-5,1-9.5,2.8-13.2
			c1.8-3.8,4.4-7.1,7.8-9.8c3.4-2.8,7.3-5,11.9-7c4.6-1.9,9.6-3.4,15-4.6c5.4-1.2,11.2-2,17.2-2.5c6-0.6,12.2-1,18.4-1.2v-18.5
			c0-4.8-0.4-9-1-12.7c-0.6-3.6-1.7-6.7-3.2-9.2c-1.6-2.5-3.6-4.4-6.2-5.8c-2.6-1.3-5.9-1.9-9.8-1.9c-2.4,0-4.8,0.2-7.2,0.6
			c-2.3,0.4-4.4,1-6.2,1.7c-1.8,0.7-3.2,1.8-4.3,3c-1.1,1.2-1.7,2.8-1.7,4.4c0,1.4,0.4,2.8,1.1,3.8c0.7,1.1,1.6,2.2,2.4,3.2
			c0.8,1.1,1.7,2.3,2.4,3.6s1.2,3.1,1.2,5.2c0,4.3-1.3,7.6-4.1,9.8c-2.8,2.3-6.4,3.4-10.8,3.4c-2.2,0-4.2-0.4-6-1.2
			c-1.9-0.7-3.5-1.8-4.9-3.2c-1.4-1.3-2.5-3-3.4-4.9s-1.2-4.1-1.2-6.4c0-4.3,1.3-8.3,3.8-11.9c2.6-3.6,6-6.6,10.3-9.1
			c4.3-2.5,9.4-4.4,15-5.8c5.6-1.3,11.6-2,17.8-2c7.3,0,13.9,0.8,19.8,2.5c5.9,1.7,10.9,4.3,15.1,7.9s7.3,8.2,9.6,13.8
			c2.2,5.6,3.4,12.4,3.4,20.3l-0.5,51.6c0,3.4,0.1,6.1,0.5,8.4c0.2,2.3,0.8,4.1,1.4,5.5c0.7,1.4,1.7,2.4,2.8,3c1.2,0.6,2.5,1,4.3,1
			c1.2,0,2.3-0.1,3.4-0.4c1.1-0.2,2-0.6,3-1c1-0.4,1.8-0.8,2.5-1.4c0.7-0.5,1.4-1,2-1.4l3.2,4.7c-1,1-2.3,1.9-4,2.9
			s-3.6,1.9-5.8,2.8s-4.6,1.6-7.2,2c-2.6,0.5-5.3,0.7-7.9,0.7c-5.5,0-10.1-0.6-13.7-1.7c-3.6-1.2-6.6-2.6-8.8-4.7
			c-2.2-1.9-3.8-4.2-4.7-6.8c-1-2.6-1.4-5.3-1.4-8.2v-0.4c-1.2,3.2-2.9,6.2-4.8,8.9s-4.2,4.9-7,6.8c-2.6,1.9-5.9,3.4-9.6,4.4
			c-3.7,1.1-8,1.6-12.8,1.6C472.7,547.1,467.4,546.4,462.5,545z M497,536.4c2.9-1.8,5.4-4.3,7.6-7.8c2.2-3.4,3.8-7.7,5-12.7
			s1.8-10.9,1.8-17.6v-14.9c-7.3,0-13.4,0.5-18.5,1.6c-5,1.1-9,2.8-12.1,5.2c-3.1,2.4-5.3,5.5-6.6,9.5c-1.3,4-2,8.8-2,14.5
			c0,4.3,0.4,8.2,1,11.3c0.7,3.1,1.7,5.8,2.9,7.8c1.2,2,2.9,3.5,4.8,4.3c1.9,1,4.1,1.4,6.5,1.4C490.9,539,494.2,538.2,497,536.4z"/>
		<path class="st0" d="M575.6,363.1h-20.5v-6.2h52.2v92.5l-4.6,36.6l3.5,34.2l-0.2,23.9h-30.4L575.6,363.1z M629.9,544.9
			c-4.1-1.4-7.7-3.4-10.8-5.8c-3.1-2.4-5.9-5.3-8-8.5c-2.3-3.2-4-6.6-5.3-10.1l-6-34.8l6.2-35.2c1.2-3.5,2.9-6.7,5-10
			c2.2-3.1,4.9-5.9,8-8.3c3.1-2.4,6.7-4.3,10.8-5.8c4.1-1.4,8.5-2.2,13.4-2.2c7.7,0,15,1.4,21.8,4.3c6.8,2.9,13,7,18.1,12.4
			c5.2,5.4,9.4,11.8,12.4,19.3c3.1,7.6,4.6,16,4.6,25.2c0,9.4-1.6,17.8-4.6,25.2c-3.1,7.6-7.2,13.9-12.4,19.3
			c-5.2,5.4-11.3,9.5-18.1,12.4c-6.8,2.9-14.2,4.3-21.8,4.3C638.4,547.1,634,546.4,629.9,544.9z M649.8,535.2
			c3.7-2.8,6.7-6.6,9.2-11.4c2.4-4.8,4.2-10.6,5.4-17s1.8-13.4,1.8-20.9c0-7.4-0.6-14.4-1.8-20.9s-3-12.1-5.4-17
			c-2.4-4.8-5.5-8.6-9.2-11.4c-3.7-2.8-8-4.2-13.2-4.2c-4.9,0-9.4,1.4-13.3,4.2c-4,2.8-7.3,6.6-10.1,11.4c-2.8,4.8-4.9,10.6-6.5,17
			c-1.4,6.5-2.2,13.4-2.2,20.9s0.7,14.4,2.2,20.9c1.4,6.5,3.6,12.2,6.5,17c2.8,4.8,6.1,8.6,10.1,11.4c4,2.8,8.4,4.2,13.3,4.2
			C641.6,539.3,646.1,538,649.8,535.2z"/>
		<path class="st0" d="M752.4,542.9c-7.9-2.8-14.9-6.8-20.6-12c-5.8-5.2-10.3-11.5-13.7-18.8c-3.4-7.3-4.9-15.5-4.9-24.4
			c0-7.1,0.8-13.6,2.6-19.4c1.8-5.9,4.2-11.2,7.2-15.8c3-4.7,6.5-8.8,10.6-12.2c4.1-3.5,8.4-6.4,13-8.6c4.6-2.3,9.4-4,14.3-5
			c4.9-1.2,9.7-1.7,14.4-1.7c8.5,0,16.1,1.4,22.8,4.3c6.7,2.9,12.4,6.7,16.9,11.8c4.6,5,7.9,11,10.2,17.9c2.3,7,3.2,14.4,2.9,22.4
			h-89.5l0.4-6.2h56.8c0.5-7.6,0.4-14.2-0.2-19.7c-0.6-5.6-1.8-10.3-3.6-13.9c-1.7-3.7-4.1-6.5-7-8.3c-2.9-1.8-6.4-2.8-10.3-2.8
			c-4.9,0-9,1.2-12.5,3.7s-6.4,6.1-8.6,10.9c-2.3,4.8-3.8,10.8-4.9,17.9c-1.1,7.1-1.6,15.2-1.6,24.5c0,8.9,0.7,16.7,2.2,23.3
			c1.4,6.7,3.6,12.2,6.5,16.7c2.9,4.4,6.5,7.8,10.8,10.1c4.3,2.3,9.4,3.4,15.1,3.4c4.7,0,9.2-0.7,13.7-2c4.3-1.3,8.3-3.4,11.9-6.1
			c3.6-2.8,6.7-6.1,9.5-10.2c2.8-4.1,4.8-8.9,6.4-14.4l6.4,1.4c-1.7,6.1-4,11.5-7.2,16.3c-3.1,4.8-6.8,8.8-11.3,12
			c-4.3,3.2-9.2,5.6-14.8,7.2c-5.5,1.7-11.3,2.4-17.6,2.4C769.1,547.1,760.3,545.6,752.4,542.9z"/>
		<path class="st0" d="M830.4,537.8h20.4v-103h-20.4v-6.2h50.8l0.1,26.6h1.3v82.6h26.2v6.2h-78.4V537.8z M921.8,465.5
			c-1.9-0.6-3.6-1.6-5-2.8c-1.3-1.2-2.4-2.6-3.2-4.3c-0.7-1.7-1.2-3.6-1.2-5.8c0-2.4,0.4-4.3,1-5.9c0.6-1.6,1.3-2.9,1.9-4.1
			c0.7-1.2,1.3-2.3,1.9-3.2c0.6-1,0.8-2,0.8-3.2c0-0.7-0.1-1.3-0.5-1.9c-0.4-0.6-0.8-1.2-1.4-1.6c-0.6-0.5-1.4-0.8-2.5-1.1
			c-1.1-0.2-2.3-0.4-3.6-0.4c-4.2,0-8,1.4-11.4,4.3s-6.2,6.7-8.6,11.4c-2.4,4.7-4.2,10.1-5.5,16.2c-1.3,6.1-1.9,12.4-1.9,18.6
			l-1.9-25.8c1.3-4.7,3-9,5-12.8c2-3.8,4.4-7.1,7.2-9.7c2.8-2.6,5.9-4.8,9.4-6.2c3.5-1.4,7.3-2.2,11.5-2.2c4.4,0,8.5,0.6,12.2,1.8
			c3.7,1.2,7,2.9,9.7,5.2c2.8,2.2,4.9,4.8,6.5,7.8s2.3,6.2,2.2,10c0,2.6-0.4,5-1.1,7.1c-0.7,2-1.8,3.7-3.1,5.2
			c-1.3,1.4-3,2.5-4.9,3.2c-1.9,0.7-4.1,1.1-6.5,1.1C926,466.4,923.9,466.1,921.8,465.5z"/>
	</g>
	<g>
		<path class="st0" d="M72,748h26.4V584.6H72v-6.2h79.9c11,0,20.9,0.8,29.5,2.4s16,4.1,22,7.3c6,3.4,10.6,7.6,13.7,12.7
			c3.1,5.2,4.8,11.3,4.8,18.4c0,5.8-1.2,11-3.6,15.7c-2.4,4.7-5.6,8.9-9.8,12.4c-4.2,3.5-9.2,6.5-15,8.8c-5.8,2.3-12,4-18.8,5v0.2
			c7.6,0.7,14.6,2,21.5,4.1c6.7,1.9,12.7,4.7,17.9,8.2c5.2,3.5,9.2,7.8,12.1,12.8c3,5,4.4,11.2,4.4,18.1c0,8-1.8,15.1-5.3,21.4
			c-3.5,6.2-8.6,11.4-15.2,15.6c-6.7,4.2-14.9,7.3-24.7,9.5c-9.8,2.2-21,3.2-33.6,3.2H72V748z M130.1,659.3h20.6
			c6.1,0,11.4-0.8,16-2.4c4.6-1.7,8.3-4,11.2-7.2c3-3.1,5.2-7.1,6.5-11.6c1.4-4.7,2.2-10.1,2.2-16.2c0-6.1-0.7-11.5-2.2-16.1
			c-1.4-4.6-3.6-8.5-6.5-11.6c-3-3.1-6.7-5.5-11.2-7.1c-4.6-1.6-9.8-2.4-16-2.4h-18.1V748h18.6c8.8,0,15.8-1,21.5-2.9
			c5.6-1.9,10.1-4.7,13.3-8.2c3.2-3.6,5.5-7.8,6.8-13c1.2-5,1.9-10.8,1.9-17.2s-0.7-12.1-2-17.2c-1.3-5-3.7-9.5-7.2-13
			c-3.4-3.6-7.9-6.4-13.7-8.3c-5.8-1.9-13-2.9-21.6-2.9h-20.2L130.1,659.3L130.1,659.3z"/>
		<path class="st0" d="M263.2,755c-4.9-1.3-9.1-3.4-12.7-6c-3.6-2.6-6.4-5.9-8.4-9.8c-2-4-3-8.4-3-13.3c0-5,1-9.5,2.8-13.2
			c1.8-3.8,4.4-7.1,7.8-9.8c3.4-2.8,7.3-5,11.9-7c4.6-1.9,9.6-3.4,15-4.6c5.4-1.2,11.2-2,17.2-2.5c6-0.6,12.2-1,18.4-1.2v-18.5
			c0-4.8-0.4-9-1-12.7c-0.6-3.6-1.7-6.7-3.2-9.2c-1.6-2.5-3.6-4.4-6.2-5.8c-2.6-1.3-5.9-1.9-9.8-1.9c-2.4,0-4.8,0.2-7.2,0.6
			c-2.3,0.4-4.4,1-6.2,1.7c-1.8,0.7-3.2,1.8-4.3,3s-1.7,2.8-1.7,4.4c0,1.4,0.4,2.8,1.1,3.8c0.7,1.1,1.6,2.2,2.4,3.2
			c0.8,1.1,1.7,2.3,2.4,3.6c0.7,1.3,1.2,3.1,1.2,5.2c0,4.3-1.3,7.6-4.1,9.8s-6.4,3.4-10.8,3.4c-2.2,0-4.2-0.4-6-1.2
			c-1.9-0.7-3.5-1.8-4.9-3.2c-1.4-1.3-2.5-3-3.4-4.9c-0.8-1.9-1.2-4.1-1.2-6.4c0-4.3,1.3-8.3,3.8-11.9c2.6-3.6,6-6.6,10.3-9.1
			s9.4-4.4,15-5.8c5.6-1.3,11.6-2,17.8-2c7.3,0,13.9,0.8,19.8,2.5c5.9,1.7,10.9,4.3,15.1,7.9c4.2,3.6,7.3,8.2,9.6,13.8
			c2.2,5.6,3.4,12.4,3.4,20.3l-0.5,51.6c0,3.4,0.1,6.1,0.5,8.4c0.2,2.3,0.8,4.1,1.4,5.5s1.7,2.4,2.8,3c1.2,0.6,2.5,1,4.3,1
			c1.2,0,2.3-0.1,3.4-0.4c1.1-0.2,2-0.6,3-1c1-0.4,1.8-0.8,2.5-1.4c0.7-0.5,1.4-1,2-1.4l3.2,4.7c-1,1-2.3,1.9-4,2.9
			c-1.7,1-3.6,1.9-5.8,2.8s-4.6,1.6-7.2,2s-5.3,0.7-7.9,0.7c-5.5,0-10.1-0.6-13.7-1.7c-3.6-1.2-6.6-2.6-8.8-4.7
			c-2.2-1.9-3.8-4.2-4.7-6.8c-1-2.6-1.4-5.3-1.4-8.2v-0.4c-1.2,3.2-2.9,6.2-4.8,8.9c-1.9,2.6-4.2,4.9-7,6.8
			c-2.6,1.9-5.9,3.4-9.6,4.4s-8,1.6-12.8,1.6C273.5,757.1,268.1,756.5,263.2,755z M297.7,746.5c2.9-1.8,5.4-4.3,7.6-7.8
			c2.2-3.4,3.8-7.7,5-12.7c1.2-5,1.8-10.9,1.8-17.6v-14.8c-7.3,0-13.4,0.5-18.5,1.6c-5,1.1-9,2.8-12.1,5.2c-3.1,2.4-5.3,5.5-6.6,9.5
			s-2,8.8-2,14.5c0,4.3,0.4,8.2,1,11.3c0.7,3.1,1.7,5.8,2.9,7.8c1.2,2,2.9,3.5,4.8,4.3c1.9,1,4.1,1.4,6.5,1.4
			C291.6,749.2,294.8,748.2,297.7,746.5z"/>
		<path class="st0" d="M388.7,813.8c-7.4-1.9-13.9-4.7-19.4-8.4c-5.5-3.7-9.8-8.4-13-13.8c-3.1-5.5-4.7-11.9-4.7-19
			c0-6.2,1.1-11.6,3.4-16.3s5.2-8.5,8.6-11.6c3.6-3.1,7.4-5.5,11.8-7.1c4.3-1.6,8.5-2.4,12.7-2.4c5.9,0,10.3,1.2,13.3,3.7
			c3.1,2.5,4.6,5.8,4.6,9.8c0,2.5-0.5,4.8-1.3,6.8c-0.8,2-2.3,3.7-4.2,5.2s-4.4,2.5-7.7,3.4c-3.2,0.8-7.2,1.3-12,1.4
			c-3.7,0.1-7,0.4-9.5,0.8c-2.5,0.5-4.6,1.2-6.1,2.2c-1.6,1.1-2.6,2.4-3.2,4c-0.7,1.7-1,3.7-1,6.2c0,4.6,1.2,8.9,3.6,12.7
			c2.4,4,5.9,7.3,10.3,10.1c4.4,2.8,9.8,5,16.1,6.6c6.2,1.7,13.1,2.4,20.6,2.4c6.7,0,12.7-0.8,18-2.4s9.6-3.8,13.2-6.8
			c3.6-3,6.2-6.6,8.2-10.8c1.9-4.3,2.9-9.1,2.9-14.6c0-5.2-0.8-9.6-2.4-13.4c-1.6-3.8-3.8-7-6.7-9.5c-2.9-2.5-6.2-4.4-10.1-5.6
			c-3.8-1.2-7.9-1.8-12.4-1.8h-3.5v-6.2h3.7c4.4,0,8.4-0.4,11.8-1c3.5-0.6,6.4-1.6,8.8-2.8s4.3-2.6,5.5-4.3c1.2-1.7,1.9-3.5,1.9-5.5
			c0-1.4-0.4-2.9-1-4.2c-0.6-1.3-1.8-2.4-3.5-3.4c-1.7-1-4-1.7-7-2.2c-3-0.5-6.8-0.7-11.5-0.7l2.2-3.6c4.9-0.2,9.6-0.2,14.4,0
			c4.7,0.4,8.9,1.1,12.6,2.2c3.7,1.1,6.7,2.6,8.9,4.6c2.3,2,3.4,4.6,3.4,7.6c0,2.3-0.6,4.4-1.8,6.4c-1.2,1.9-3,3.6-5.5,5
			c-2.5,1.4-5.8,2.5-9.6,3.4c-3.8,0.8-8.5,1.3-14,1.6v0.2c7,0.5,13.4,1.4,19.3,2.9c5.9,1.4,11,3.6,15.2,6.2
			c4.2,2.6,7.7,5.9,10.1,9.8c2.4,3.8,3.6,8.4,3.6,13.6c0,6.7-2,12.7-6,17.9c-4,5.2-9.4,9.6-16.2,13.1c-6.8,3.6-14.6,6.2-23.6,8
			c-8.9,1.8-18.4,2.8-28.1,2.8C404.2,816.7,396.1,815.8,388.7,813.8z M395.2,713.6c-6.6-2-12.5-4.8-17.4-8.4c-5-3.6-9-7.9-12-13
			s-4.4-10.6-4.4-16.6s1.4-11.6,4.4-16.7c3-5,7-9.4,12-13c5-3.6,10.8-6.4,17.4-8.4c6.6-1.9,13.4-2.9,20.6-2.9c7.2,0,14.2,1,20.8,2.9
			c6.6,1.9,12.5,4.8,17.4,8.4c5,3.6,9,7.9,12,13c3,5,4.4,10.6,4.4,16.7s-1.4,11.6-4.4,16.6c-3,5-7,9.4-12,13
			c-5,3.6-10.8,6.5-17.4,8.4c-6.6,2-13.6,3-20.8,3C408.6,716.6,401.8,715.6,395.2,713.6z M425.5,709c2.8-1.3,5-3.5,7-6.5
			c1.9-2.9,3.4-6.6,4.3-11c1.1-4.4,1.6-9.7,1.6-15.8c0-6.2-0.5-11.5-1.6-16c-1.1-4.4-2.5-8.2-4.3-11c-1.9-2.9-4.2-5-7-6.5
			c-2.8-1.4-6-2.2-9.7-2.2c-3.6,0-6.7,0.7-9.5,2.2c-2.8,1.4-5.2,3.6-7.1,6.5c-1.9,2.9-3.4,6.6-4.3,11s-1.4,9.8-1.4,16
			c0,6.1,0.5,11.4,1.4,15.8c1,4.4,2.4,8.2,4.3,11c1.9,2.9,4.2,5,7.1,6.5c2.8,1.3,6,2,9.5,2C419.5,711,422.8,710.4,425.5,709z
			 M456.5,650.9c2.4-5.5,5.8-9.8,10.2-13c4.4-3.2,9.5-4.8,15.2-4.8c3,0,5.8,0.4,8.4,1.2c2.6,0.7,4.9,1.9,7,3.4
			c2,1.4,3.6,3.2,4.8,5.4c1.2,2.2,1.8,4.6,1.8,7.3c0,1.8-0.2,3.5-0.7,5c-0.5,1.6-1.2,2.9-2.2,4.1c-1,1.2-2.2,2-3.6,2.8
			c-1.4,0.7-3.1,1-5,1c-3.2,0-6-0.8-8.3-2.6c-2.3-1.8-3.4-4.3-3.4-7.6c0-1.2,0.2-2.3,0.6-3.2c0.4-1,0.7-1.9,1.2-2.8
			c0.5-0.8,0.8-1.7,1.3-2.4c0.4-0.7,0.6-1.6,0.6-2.5c0-1.1-0.5-2-1.3-2.6c-0.8-0.7-2.2-1-3.8-1c-1.7,0-3.4,0.4-5,1
			c-1.7,0.6-3.4,1.6-4.9,2.9c-1.6,1.3-3,3-4.3,4.9s-2.5,4.3-3.6,7L456.5,650.9z"/>
		<path class="st0" d="M494.2,748h20.5V573.1h-20.5v-6.2h52.2v181h17.9v6.2h-70V748H494.2z M577.1,748H595v-68.4
			c0-5.3-0.2-10-0.7-14.3c-0.5-4.3-1.3-8-2.8-11c-1.3-3-3.4-5.4-5.8-7.1c-2.4-1.7-5.9-2.5-10-2.5c-4.3,0-8.3,1.2-11.9,3.6
			c-3.6,2.4-6.7,5.6-9.4,9.7c-2.6,4.1-4.6,8.9-6.1,14.3c-1.4,5.4-2.2,11.2-2.2,17.2l-0.1-27.6c1.7-4.1,3.7-7.8,6.4-11
			c2.6-3.2,5.6-6,9-8.3s7.2-4,11.4-5.2s8.6-1.8,13.3-1.8c6.1,0,11.6,0.7,16.7,2.2c5,1.4,9.2,3.8,12.7,7.2c3.5,3.4,6.2,7.8,8.2,13.3
			c1.9,5.5,2.9,12.2,2.9,20.3v69.4h20.5v6.2h-70.1L577.1,748L577.1,748z"/>
		<path class="st0" d="M680.5,752.9c-6.8-2.8-13-6.8-18.1-12.1c-5.2-5.3-9.4-11.6-12.4-19.3c-3-7.6-4.6-16.1-4.6-25.7
			c0-9.6,1.6-18.1,4.6-25.7c3-7.6,7.2-14,12.4-19.3c5.2-5.3,11.3-9.4,18.1-12.1c6.8-2.8,14.2-4.2,21.8-4.2c4.9,0,9.5,0.7,13.4,2.2
			c4.1,1.4,7.6,3.4,10.8,5.8c3.2,2.4,5.8,5.2,8,8.3c2.2,3.1,4,6.5,5,10l6.2,35.2l-6,34.8c-1.2,3.5-2.9,6.8-5.2,10.1
			c-2.3,3.2-4.9,6-8.2,8.5c-3.1,2.4-6.7,4.3-10.8,5.8c-4.1,1.4-8.5,2.2-13.4,2.2C694.6,757.1,687.4,755.8,680.5,752.9z M722.3,745.2
			c4-2.8,7.3-6.6,10.1-11.4c2.8-4.8,4.9-10.6,6.4-17c1.4-6.5,2.2-13.4,2.2-20.9s-0.7-14.4-2.2-20.9s-3.6-12.1-6.4-17
			c-2.8-4.8-6.1-8.6-10.1-11.4c-4-2.8-8.4-4.2-13.3-4.2c-5,0-9.4,1.4-13.1,4.2c-3.7,2.8-6.8,6.6-9.2,11.4s-4.2,10.6-5.4,17
			c-1.2,6.5-1.8,13.4-1.8,20.9s0.6,14.4,1.8,20.9c1.2,6.5,3,12.2,5.4,17s5.5,8.6,9.2,11.4c3.7,2.8,8.2,4.2,13.1,4.2
			C713.9,749.4,718.3,748,722.3,745.2z M739.3,730.2l3.4-34.1l-4.4-36.6v-86.3h-21V567H770v181h20.5v6.2h-50.9L739.3,730.2z"/>
		<path class="st0" d="M816.1,755c-4.9-1.3-9.1-3.4-12.7-6c-3.6-2.6-6.4-5.9-8.4-9.8c-2-4-3-8.4-3-13.3c0-5,1-9.5,2.8-13.2
			c1.8-3.8,4.4-7.1,7.8-9.8c3.4-2.8,7.3-5,11.9-7c4.6-1.9,9.6-3.4,15-4.6c5.4-1.2,11.2-2,17.3-2.5c6-0.6,12.2-1,18.4-1.2v-18.5
			c0-4.8-0.4-9-1-12.7c-0.6-3.6-1.7-6.7-3.2-9.2c-1.6-2.5-3.6-4.4-6.2-5.8c-2.6-1.3-5.9-1.9-9.8-1.9c-2.4,0-4.8,0.2-7.2,0.6
			c-2.3,0.4-4.4,1-6.2,1.7c-1.8,0.7-3.2,1.8-4.3,3c-1.1,1.2-1.7,2.8-1.7,4.4c0,1.4,0.4,2.8,1.1,3.8c0.7,1.1,1.6,2.2,2.4,3.2
			c0.8,1.1,1.7,2.3,2.4,3.6c0.7,1.3,1.2,3.1,1.2,5.2c0,4.3-1.3,7.6-4.1,9.8c-2.8,2.3-6.4,3.4-10.8,3.4c-2.2,0-4.2-0.4-6-1.2
			c-1.9-0.7-3.5-1.8-4.9-3.2c-1.4-1.3-2.5-3-3.4-4.9s-1.2-4.1-1.2-6.4c0-4.3,1.3-8.3,3.8-11.9c2.6-3.6,6-6.6,10.3-9.1
			c4.3-2.5,9.4-4.4,15-5.8c5.6-1.3,11.6-2,17.8-2c7.3,0,13.9,0.8,19.8,2.5c5.9,1.7,10.9,4.3,15.1,7.9c4.2,3.6,7.3,8.2,9.6,13.8
			c2.2,5.6,3.4,12.4,3.4,20.3l-0.5,51.6c0,3.4,0.1,6.1,0.5,8.4c0.2,2.3,0.8,4.1,1.4,5.5c0.7,1.4,1.7,2.4,2.8,3s2.5,1,4.3,1
			c1.2,0,2.3-0.1,3.4-0.4c1.1-0.2,2-0.6,3-1c1-0.4,1.8-0.8,2.5-1.4c0.7-0.5,1.4-1,2-1.4l3.2,4.7c-1,1-2.3,1.9-4,2.9
			c-1.7,1-3.6,1.9-5.8,2.8c-2.2,0.8-4.6,1.6-7.2,2s-5.3,0.7-7.9,0.7c-5.5,0-10.1-0.6-13.7-1.7c-3.6-1.2-6.6-2.6-8.8-4.7
			c-2.2-1.9-3.8-4.2-4.7-6.8s-1.4-5.3-1.4-8.2v-0.4c-1.2,3.2-2.9,6.2-4.8,8.9s-4.2,4.9-7,6.8c-2.6,1.9-5.9,3.4-9.6,4.4
			s-8,1.6-12.8,1.6C826.3,757.1,821,756.5,816.1,755z M850.7,746.5c2.9-1.8,5.4-4.3,7.6-7.8c2.2-3.4,3.8-7.7,5-12.7
			c1.2-5,1.8-10.9,1.8-17.6v-14.8c-7.3,0-13.4,0.5-18.5,1.6c-5,1.1-9,2.8-12.1,5.2c-3.1,2.4-5.3,5.5-6.6,9.5c-1.3,4-2,8.8-2,14.5
			c0,4.3,0.4,8.2,1,11.3c0.7,3.1,1.7,5.8,2.9,7.8c1.2,2,2.9,3.5,4.8,4.3c1.9,1,4.1,1.4,6.5,1.4C844.6,749.2,847.8,748.2,850.7,746.5
			z"/>
		<path class="st0" d="M949.9,752.9c-6.8-2.8-12.8-6.8-18.1-12.1c-5.2-5.3-9.4-11.6-12.4-19.3c-3-7.6-4.6-16.1-4.6-25.7
			c0-9.6,1.6-18.1,4.6-25.7c3-7.6,7.2-14,12.4-19.3c5.2-5.3,11.3-9.4,18.1-12.1c6.8-2.8,14.2-4.2,21.8-4.2c4.9,0,9.5,0.7,13.4,2.2
			c4.1,1.4,7.6,3.4,10.8,5.8c3.2,2.4,5.8,5.2,8,8.3c2.2,3.1,4,6.5,5,10l6.2,35.2l-6,34.8c-1.2,3.5-2.9,6.8-5.2,10.1
			c-2.3,3.2-4.9,6-8.2,8.5c-3.1,2.4-6.7,4.3-10.8,5.8s-8.5,2.2-13.4,2.2C964.1,757.1,956.8,755.8,949.9,752.9z M991.7,745.2
			c4-2.8,7.3-6.6,10.1-11.4c2.8-4.8,4.9-10.6,6.4-17c1.4-6.5,2.2-13.4,2.2-20.9s-0.7-14.4-2.2-20.9s-3.6-12.1-6.4-17
			c-2.8-4.8-6.1-8.6-10.1-11.4c-4-2.8-8.4-4.2-13.3-4.2c-5,0-9.4,1.4-13.1,4.2c-3.7,2.8-6.8,6.6-9.2,11.4c-2.4,4.8-4.2,10.6-5.4,17
			s-1.8,13.4-1.8,20.9s0.6,14.4,1.8,20.9c1.2,6.5,3,12.2,5.4,17c2.4,4.8,5.5,8.6,9.2,11.4c3.7,2.8,8,4.2,13.1,4.2
			C983.3,749.4,987.8,748,991.7,745.2z M1008.7,730.2l3.4-34.1l-4.4-36.6v-86.3h-21V567h52.8v181h20.5v6.2h-50.9L1008.7,730.2z"/>
		<path class="st0" d="M1055.4,748h20.5V645h-20.5v-6.2h52.2V748h20.5v6.2h-72.6V748H1055.4z M1083.8,602.9c-2.4-1-4.6-2.4-6.2-4.1
			c-1.7-1.7-3.1-3.7-4.1-6.1c-1-2.4-1.4-5-1.4-7.9c0-2.8,0.5-5.3,1.4-7.7c1-2.4,2.4-4.4,4.1-6.2s3.8-3.1,6.2-4.2
			c2.4-1.1,5-1.4,7.8-1.4c2.6,0,5.2,0.5,7.6,1.4c2.4,1,4.4,2.4,6.2,4.2c1.8,1.8,3.1,3.8,4.2,6.2c1,2.4,1.4,4.9,1.4,7.7
			c0,2.9-0.5,5.5-1.4,7.9c-1,2.4-2.4,4.4-4.2,6.1c-1.8,1.7-3.8,3-6.2,4.1c-2.4,1-4.9,1.4-7.6,1.4
			C1088.9,604.4,1086.2,604,1083.8,602.9z"/>
	</g>
</g>
</svg>
