<?xml version="1.0" encoding="utf-8"?>
<!-- Generator: Adobe Illustrator 22.0.0, SVG Export Plug-In . SVG Version: 6.00 Build 0)  -->
<svg version="1.1" id="Layer_1" xmlns="http://www.w3.org/2000/svg" xmlns:xlink="http://www.w3.org/1999/xlink" x="0px" y="0px"
	 viewBox="0 0 1200 1200" style="enable-background:new 0 0 1200 1200;" xml:space="preserve">
<style type="text/css">
	.st0{fill:#01796F;}
</style>
<g>
	<path class="st0" d="M825.5,370.4c0.4-0.4,1-0.2,1.1,0.2c3.2,8.9,27.6,80.9,8.3,204.7c-13.3,84.6,2.2,141.8,49.4,154.8
		c47.2,12.8,84.2-30.5,139.1-38.6c0.4,0,0.6-0.4,0.6-0.7v-3.5c0-0.4-0.2-0.6-0.5-0.7c-8-2.5-111.5-33.8-134.3-15.2
		c-23.6,19.3,0.7,48,15,86.8c0,0-10.6,13.8-14.8,28.6c-0.4,1.4-2.4,1.3-2.8-0.1c-4.8-21.4-19.9-91.3-18.7-111.2
		c1.4-23.6,19-58.2,79.6-41.5c67.6,18.6,124.9,30.2,150.8,29.5c1,0,1.6,0.8,1.4,1.7l-6.2,32.6c-0.1,0.6-0.6,1.1-1.2,1.2
		c-6.4,0.7-40.4,5-60.2,13.1c-20.4,8.4-89.5,51.6-136.9,57.4c-47.4,5.8-79.6-43-81.7-98.2c-2.2-55.2,9-142.2,5-186.4
		c-2-23-8.5-57.6-20.5-70.7c-0.1-0.1-0.2-0.4-0.1-0.6C798.4,410.8,802.2,390.8,825.5,370.4z"/>
	<path class="st0" d="M547.4,609.5l4.9,6c0.1,0.1,0.1,0.2,0.1,0.4c0.6,4.8,11.5,94.3,41.5,118.8c30.8,25.1,67.3,11.5,70.9-42.2
		c3.6-53.8,11.4-94,31.6-119.6c17.9-22.9,34.2-27.1,68,8.6c39.4,41.5,86,35.2,114.7-25.1c20.6-43.4,45.8-70.9,50.9-12.8
		c4.1,46.9-6.4,55.9-10.6,57.6c-0.6,0.2-1.2-0.4-1-1c2.3-4.9,9-23-0.7-51c0,0-8.6,22.9-27.6,54.1c-23.3,38.2-69.8,59.9-109.7,33.7
		c-30.2-19.9-48-50.9-68-30.1c-20,20.8-28,52.3-32.3,99.6c-4.3,47.3-22.6,97.1-67.3,68.8c-48.4-30.6-62.8-96.7-66.8-165.1
		C546.1,609.2,547,608.9,547.4,609.5z"/>
	<path class="st0" d="M680,482.2c2-9.5,7.9-35,14.8-49c0.1-0.2,0.4-0.4,0.6-0.4c3-0.4,22.3-1.7,24.4,33.4c2.2,38-5.8,50.2-15,72.4
		c-9.4,22.2-47.3,63.8-78.8,24.4c0,0-34.4,44.4-59.5,45.8c-25.1,1.4-20-42.2-26.5-54.5c-6.5-12.2-20,17.2-28,39.4
		S475.7,697.9,432.7,695c-43-2.9-41.8-68.4-38.6-91.7c4-30.1,19.8-79.3,38.5-106.3c0.2-0.4,0.8-0.4,1.2,0l1.3,1.7
		c0.1,0.2,0.2,0.5,0,0.7c-2.2,3.8-18.5,34-24.8,68.4c-5.5,30.1-5.4,67.7,9,79.2c14.4,11.5,41.9,6.1,60.6-24.7
		c18.6-30.8,30.1-78.1,44.4-98.2c14.3-20,27.2-18.6,33-0.7c5.8,17.9-0.5,32.8,8.6,40.8c12.6,11.2,34.8,1.1,43-13.6
		c6.7-12.1,6.8-21.1-3.2-24.7c-10.1-3.6-17.5,8.3-25.4,6.1c0,0-2.9-14.3,10.8-34.4c13.6-20,30.8-25.8,57.4-17.2s22.2,22.9,5.8,54.5
		c0,0,20,4.3,33.7-7.9c13.6-12.2,22.1-25.7,10.1-39.4c-6.2-7.2-12.1-5.9-15.4-4C681.1,484.3,679.8,483.4,680,482.2z"/>
	<path class="st0" d="M456.4,576.8c-19.2-34.6-68.3-32.4-100-69.8c8.2-0.6,16.2-1.8,20.9-2.6c1.3-0.2,1.7-2,0.5-2.6
		c-12.8-7.1-29.8-14.3-35.4-16.6c-1-0.4-1.9,0.4-1.9,1.3V508c0,0,9.4,26.5,53.8,52.3s70.2,28.7,55.2,43c-15,14.3-63.1,55.9-109,70.2
		c-27.6,8.6-46.8,6.4-33.7-67.9c0-0.1,0-0.2,0-0.4l-1.3-3.6c-0.2-0.6-1.2-0.6-1.3,0c-4.3,14.2-11.5,43.2-11.5,62.5
		c0,23.6,4.7,39.5,25.4,39.7c24.7,0.4,82.8-29,112.2-57.7C458.5,618.5,470.8,602.6,456.4,576.8z"/>
	<path class="st0" d="M362.5,558.2c-15.2-6.8-76.7-7.2-89.5-23.6c-9.7-12.5,34.4-67.3,58.1-80.3c23.6-12.8,26.5,10.1,26.5,10.1
		c1.8,6.1,3.2,7.6,9.7-6.8c6.5-14.3,4.3-54.5-27.2-39.4c-31.6,15-80.3,70.9-81.7,116.8c-1.4,45.8,45.5,46.2,74.2,49.1
		c30.4,3,40.4,4.7-8.3,39c-48.7,34.4-117.5,53-162,45.1s-51.6-48-48.7-82.4c1.9-23.5,10.9-45.2,16.8-58.9c0-0.1,0.1-0.2,0-0.4
		l-0.5-2c-0.1-0.6-1-0.8-1.3-0.2c-9.5,16.9-25.8,51.8-28.3,95.6c-3.6,62.4,32.3,91,98.2,83.9s139.6-58.6,160.6-84.6
		C379.7,593.4,384.7,568.3,362.5,558.2z"/>
	<path class="st0" d="M600.2,398c4.8,1.6,25.7,9.1,37.8,24c0.2,0.2,0.4,0.6,0.4,1c-0.1,2.9-1.6,17.4-19.1,43.6
		c-0.5,0.7-1.3,0.8-2,0.4c-4.4-3.6-21.2-16.6-37-22.7c-0.6-0.2-1-1-0.8-1.6c1.2-4.9,6.4-24.6,19.1-44
		C599,398.2,599.6,397.9,600.2,398z"/>
	<path class="st0" d="M616.8,612.4c4.8,1.6,25.7,9.1,37.8,24c0.2,0.2,0.4,0.6,0.4,1c-0.1,2.9-1.6,17.4-19.1,43.6
		c-0.5,0.7-1.3,0.8-2,0.4c-4.4-3.6-21.2-16.6-37-22.7c-0.6-0.2-1-1-0.8-1.6c1.2-4.9,6.4-24.6,19.1-44
		C615.5,612.4,616.2,612.1,616.8,612.4z"/>
	<path class="st0" d="M737.9,637.4c4.8,1.6,25.7,9.1,37.8,24c0.2,0.2,0.4,0.6,0.4,1c-0.1,2.9-1.6,17.4-19.1,43.6
		c-0.5,0.7-1.3,0.8-2,0.4c-4.4-3.6-21.2-16.6-37-22.7c-0.6-0.2-1-1-0.8-1.6c1.2-4.9,6.4-24.6,19.1-44
		C736.7,637.4,737.3,637.2,737.9,637.4z"/>
	<path class="st0" d="M1041.7,721.3c4.8,1.6,25.7,9.1,37.8,24c0.2,0.2,0.4,0.6,0.4,1c-0.1,2.9-1.6,17.4-19.1,43.6
		c-0.5,0.7-1.3,0.8-2,0.4c-4.4-3.6-21.2-16.6-37-22.7c-0.6-0.2-1-1-0.8-1.6c1.2-4.9,6.4-24.6,19.1-44
		C1040.5,721.3,1041.1,721.1,1041.7,721.3z"/>
	<g>
		<path class="st0" d="M477.6,376.1c0,0,18.2,33.8,35.4,73.9c0,0-22.3-17.2-47.2-38.2C465.8,411.8,468.8,396.1,477.6,376.1z"/>
		<path class="st0" d="M465.8,411.8c0,0,6.4,3.6,9.8,23c3.4,19.4,14.9,256.7,14.9,256.7s5.9,68.2-5.9,89.5c0,0,34.2-28.9,28.1-91.4
			c-6.6-66.7-19.8-263.9-19.8-263.9S483.1,402,465.8,411.8z"/>
	</g>
</g>
</svg>
